<svg xmlns="http://www.w3.org/2000/svg" data-name="Layer 1" viewBox="0 0 32 32" id="bharat-mata"><circle cx="16.004" cy="1.5" r="1" fill="#e5303e"></circle><path fill="#b72732" d="M16.004 1.5a.986.986 0 0 1 .5-.847.972.972 0 0 0-.5-.153 1 1 0 0 0 0 2 .972.972 0 0 0 .5-.153.986.986 0 0 1-.5-.847Z"></path><path fill="#ffdaa7" d="M3.499 29.5h5v2h-5z"></path><path fill="#fdc475" d="M3.499 29.5h1v2h-1z"></path><path fill="#ffdaa7" d="M23.851 29.5h4.65v2h-6.5"></path><path fill="#58565d" d="M27.504 22.5c.413-3.036-.243-4.365-1-5-1.02-.856-2.2-.434-3-1.538-.741-1.024-.211-1.986-1-3a2.96 2.96 0 0 0-2-1h-9a2.96 2.96 0 0 0-2 1c-.79 1.013-.181 2.224-1 3-.602.57-1.28.255-2 .538-.938.37-1.883 1.73-2 6Z"></path><path fill="#ffdaa7" d="M20.34 18.21a4.776 4.776 0 0 1-8.69 0 3.943 3.943 0 0 0 1.46-1.35c.08-.12.15-.25.22-.38l.2-.39L16 14.5l2.47 1.59.23.44a2.226 2.226 0 0 0 .2.33 3.886 3.886 0 0 0 1.44 1.35Z"></path><circle cx="11.404" cy="13.808" r="1" fill="#fdd402"></circle><path fill="#fbbf13" d="M11.053 13.808a.991.991 0 0 1 .675-.935.981.981 0 0 0-.324-.065 1 1 0 0 0 0 2 .982.982 0 0 0 .324-.066.991.991 0 0 1-.675-.934Z"></path><circle cx="20.604" cy="13.808" r="1" fill="#fdd402"></circle><path fill="#fdc475" d="M20.976 12.967h-1.279v-3h1.613a1 1 0 0 1 .948 1.316l-.333 1a1 1 0 0 1-.949.684zm-9.945 0h1.28v-3h-1.613a1 1 0 0 0-.949 1.316l.334 1a1 1 0 0 0 .948.684z"></path><path fill="#fdd402" d="M18.696 5.115h-5.385a1.644 1.644 0 0 1 .803-2.237l1.89-.84 1.89.84a1.644 1.644 0 0 1 .802 2.237Z"></path><path fill="#fbbf13" d="m15.114 2.878 1.39-.617-.5-.223-1.89.84a1.644 1.644 0 0 0-.803 2.237h1a1.644 1.644 0 0 1 .803-2.237Z"></path><path fill="#fdc475" d="M18.9 16.86c-.03.04-.07.08-.1.12l-.24.29a3.413 3.413 0 0 1-5.11 0l-.25-.29a.938.938 0 0 1-.09-.12c.08-.12.15-.25.22-.38l.2-.39L16 14.5l2.47 1.59.23.44a2.226 2.226 0 0 0 .2.33Z"></path><path fill="#ffdaa7" d="m18.804 15.98-.249.285a3.39 3.39 0 0 1-2.551 1.158 3.39 3.39 0 0 1-2.552-1.158l-.249-.284a7.644 7.644 0 0 1-1.787-3.777l-.412-2.473 5-1.539 5 1.539-.412 2.473a7.644 7.644 0 0 1-1.788 3.777Z"></path><path fill="#fdc475" d="m14.452 16.265-.249-.284a7.644 7.644 0 0 1-1.787-3.777l-.335-2.012a.535.535 0 0 1 .37-.599l4.053-1.247-.5-.154-5 1.539.412 2.472a7.645 7.645 0 0 0 1.787 3.778l.25.284a3.193 3.193 0 0 0 3.05 1.104 3.376 3.376 0 0 1-2.05-1.104Z"></path><path fill="#fdde47" d="m21.004 9.73-2.235-.638a1.538 1.538 0 0 0-.91.02l-1.369.457a1.538 1.538 0 0 1-.973 0l-1.37-.457a1.538 1.538 0 0 0-.909-.02l-2.234.639.17-1.197a4.878 4.878 0 0 1 4.83-4.188 4.878 4.878 0 0 1 4.829 4.188Z"></path><path fill="#fdd402" d="M12.175 8.534a4.864 4.864 0 0 1 4.329-4.142 4.798 4.798 0 0 0-.5-.046 4.878 4.878 0 0 0-4.83 4.188l-.17 1.197 1.042-.298Z"></path><path fill="#e5303e" d="M27.43 22.53v.01a19.462 19.462 0 0 1-1.64 4.02 19.711 19.711 0 0 1-1.94 2.94l-1.85 2H8.5v-2c.02-.05.03-.11.05-.17a10.786 10.786 0 0 1 2.12-3.92c.14-.16.28-.31.42-.46a3.178 3.178 0 0 1 .26-.26.832.832 0 0 1 .14-.13 2.728 2.728 0 0 1 .25-.23 8.664 8.664 0 0 1 1.05-.82L16 24.94l4.62-2.06a3.961 3.961 0 0 0 2.24-2.63l-.33-.14a4.25 4.25 0 0 0 .33-.86l1.24.49a6.968 6.968 0 0 1 3.33 2.79Z"></path><path fill="#fbbf13" d="M12.79 23.51a8.664 8.664 0 0 0-1.05.82 2.51 2.51 0 0 0-.25.23.832.832 0 0 0-.14.13c-.09.08-.17.17-.26.26-.14.15-.28.3-.42.46a10.786 10.786 0 0 0-2.12 3.92c-.02.06-.03.12-.05.17h-5v-3.26a6.996 6.996 0 0 1 4.4-6.5l1.24-.5a4.25 4.25 0 0 0 .33.86l-.33.14a3.906 3.906 0 0 0 2.24 2.64Z"></path><path fill="#eab220" d="m8.901 19.74.372-.15c-.042-.117-.1-.228-.132-.35l-1.24.5a6.996 6.996 0 0 0-4.4 6.5v3.26h1v-3.26a6.996 6.996 0 0 1 4.4-6.5Z"></path><path fill="#fbbf13" d="M28.501 26.24v3.26h-4.65a19.71 19.71 0 0 0 1.94-2.94 19.462 19.462 0 0 0 1.64-4.02 6.952 6.952 0 0 1 1.07 3.7Z"></path><path fill="none" d="M23.851 29.5a20.012 20.012 0 0 1-1.85 2"></path><path fill="#b72732" d="M22.86 20.25a3.961 3.961 0 0 1-2.24 2.63L16 24.94l-3.21-1.43c.17-.12.34-.23.49-.33.16-.09.31-.18.45-.25L16 23.94l4.62-2.06a4.02 4.02 0 0 0 1.91-1.77Z"></path><path fill="#eab220" d="M13.73 22.93c-.14.07-.29.16-.45.25-.15.1-.32.21-.49.33l-1.41-.63a3.906 3.906 0 0 1-2.24-2.64l.33-.14a3.905 3.905 0 0 0 1.91 1.78Z"></path><path fill="#fdd402" d="M22.53 20.11a4.02 4.02 0 0 1-1.91 1.77L16 23.94l-2.27-1.01-2.35-1.05a3.905 3.905 0 0 1-1.91-1.78l2.18-.89a4.778 4.778 0 0 0 8.69 0Z"></path><path fill="#fdd402" d="M20.344 18.21a4.776 4.776 0 0 1-8.69 0l-2.51 1.03a3.906 3.906 0 0 0 2.24 2.64l4.62 2.06 4.62-2.06a3.962 3.962 0 0 0 2.24-2.63Z"></path><circle cx="15.996" cy="25.461" r="1" fill="#b72732"></circle><circle cx="15.996" cy="24.94" r="1" fill="#37b678"></circle></svg>