<?xml version="1.0" encoding="UTF-8"?>
<!DOCTYPE svg PUBLIC "-//W3C//DTD SVG 1.1//EN" "http://www.w3.org/Graphics/SVG/1.1/DTD/svg11.dtd">
<svg xmlns="http://www.w3.org/2000/svg" version="1.1" width="512px" height="512px" style="shape-rendering:geometricPrecision; text-rendering:geometricPrecision; image-rendering:optimizeQuality; fill-rule:evenodd; clip-rule:evenodd" xmlns:xlink="http://www.w3.org/1999/xlink">
<g><path style="opacity:1" fill="#e7b729" d="M 231.5,-0.5 C 235.833,-0.5 240.167,-0.5 244.5,-0.5C 253.786,2.64442 262.453,7.14442 270.5,13C 278.734,19.7324 286.067,27.2324 292.5,35.5C 294.728,39.612 297.228,43.612 300,47.5C 300.888,51.4021 300.388,55.0688 298.5,58.5C 295.474,61.1954 292.474,63.8621 289.5,66.5C 286.71,59.7714 281.71,57.2714 274.5,59C 271.906,61.0865 269.906,63.5865 268.5,66.5C 266.436,66.313 264.436,65.813 262.5,65C 273.136,59.9347 275.302,52.4347 269,42.5C 257.406,25.3983 242.573,12.065 224.5,2.5C 226.779,1.3485 229.112,0.348502 231.5,-0.5 Z"/></g>
<g><path style="opacity:0.996" fill="#f7c52d" d="M 224.5,2.5 C 242.573,12.065 257.406,25.3983 269,42.5C 275.302,52.4347 273.136,59.9347 262.5,65C 264.436,65.813 266.436,66.313 268.5,66.5C 267.586,69.728 267.253,73.0613 267.5,76.5C 262.296,73.3202 256.63,71.3202 250.5,70.5C 249.566,79.6036 244.566,83.7703 235.5,83C 228.063,78.2919 224.73,71.4585 225.5,62.5C 219.792,63.677 214.126,65.0103 208.5,66.5C 205.295,59.0636 199.962,56.897 192.5,60C 190.45,61.9651 188.783,64.1318 187.5,66.5C 184.206,63.8442 180.873,61.1775 177.5,58.5C 175.612,55.0688 175.112,51.4021 176,47.5C 178.51,43.8045 181.01,40.1379 183.5,36.5C 189.584,27.5797 196.918,19.7464 205.5,13C 211.244,8.46063 217.578,4.96063 224.5,2.5 Z"/></g>
<g><path style="opacity:0.98" fill="#fde683" d="M 183.5,36.5 C 181.01,40.1379 178.51,43.8045 176,47.5C 175.112,51.4021 175.612,55.0688 177.5,58.5C 142.881,83.0813 127.048,116.748 130,159.5C 131.386,168.709 133.552,177.709 136.5,186.5C 131.563,190.382 127.563,195.048 124.5,200.5C 121.839,192.851 119.172,185.185 116.5,177.5C 105.965,179.799 102.131,175.799 105,165.5C 107.579,162.89 110.746,161.557 114.5,161.5C 114.579,160.07 114.246,158.736 113.5,157.5C 109.686,156.95 106.186,155.617 103,153.5C 100.25,144.386 103.75,139.386 113.5,138.5C 114.246,137.264 114.579,135.93 114.5,134.5C 103.957,133.246 101.291,128.08 106.5,119C 110.103,117.178 113.77,117.011 117.5,118.5C 117.286,116.856 117.62,115.356 118.5,114C 111.226,112.283 108.393,107.783 110,100.5C 110.833,99 112,97.8333 113.5,97C 117.285,96.7853 120.952,96.6186 124.5,96.5C 125.428,95.2322 125.595,93.8989 125,92.5C 117.559,88.3069 116.726,83.1402 122.5,77C 126.697,75.2163 130.697,75.7163 134.5,78.5C 135.382,77.2402 136.382,76.0736 137.5,75C 131.768,71.3923 130.268,66.559 133,60.5C 138.203,56.4159 143.203,56.7493 148,61.5C 151.645,59.6629 151.978,57.6629 149,55.5C 145.466,46.7065 148.299,42.2065 157.5,42C 160.539,43.0314 163.039,44.8647 165,47.5C 166.074,46.3816 167.24,45.3816 168.5,44.5C 163.29,36.7025 165.123,31.3692 174,28.5C 178.573,29.5781 181.739,32.2447 183.5,36.5 Z"/></g>
<g><path style="opacity:0.98" fill="#fde683" d="M 351.5,198.5 C 348.527,193.527 344.527,189.527 339.5,186.5C 354.099,142.402 345.432,103.568 313.5,70C 308.909,65.5678 303.909,61.7345 298.5,58.5C 300.388,55.0688 300.888,51.4021 300,47.5C 297.228,43.612 294.728,39.612 292.5,35.5C 294.647,31.8617 297.814,29.5283 302,28.5C 310.485,31.4537 312.319,36.7871 307.5,44.5C 308.76,45.3816 309.926,46.3816 311,47.5C 315.378,40.957 320.711,39.957 327,44.5C 329.304,49.6759 328.47,54.3426 324.5,58.5C 324.977,59.4776 325.643,60.3109 326.5,61C 329.608,59.6332 332.941,58.4665 336.5,57.5C 342.442,58.6963 344.942,62.363 344,68.5C 342.542,70.96 340.709,73.1266 338.5,75C 339.618,76.0736 340.618,77.2402 341.5,78.5C 349.213,73.6815 354.546,75.5148 357.5,84C 356.847,87.9869 354.68,90.8202 351,92.5C 350.333,93.8333 350.333,95.1667 351,96.5C 354.694,96.5562 358.527,96.7229 362.5,97C 366.613,100.509 367.446,104.676 365,109.5C 362.488,111.264 359.988,112.931 357.5,114.5C 358.246,115.736 358.579,117.07 358.5,118.5C 365.931,116.047 370.598,118.547 372.5,126C 371.329,132 367.662,134.833 361.5,134.5C 361.5,136.167 361.5,137.833 361.5,139.5C 373.116,139.405 376.45,144.405 371.5,154.5C 368.388,156.184 365.054,156.85 361.5,156.5C 361.5,158.167 361.5,159.833 361.5,161.5C 370.869,162.027 374.035,166.694 371,175.5C 367.406,178.533 363.406,179.2 359,177.5C 357.184,184.783 354.684,191.783 351.5,198.5 Z"/></g>
<g><path style="opacity:1" fill="#27a973" d="M 234.5,35.5 C 243.052,34.5475 248.552,38.2141 251,46.5C 253.458,56.1395 250.625,63.6395 242.5,69C 233.519,70.3741 228.019,66.5408 226,57.5C 224.241,48.2615 227.074,40.9282 234.5,35.5 Z"/></g>
<g><path style="opacity:1" fill="#2cd493" d="M 208.5,66.5 C 210.044,71.9687 209.711,77.302 207.5,82.5C 203.87,88.4277 198.87,89.9277 192.5,87C 190.561,85.5679 189.228,83.7346 188.5,81.5C 187.226,79.0075 186.56,76.3408 186.5,73.5C 186.448,71.0971 186.781,68.7638 187.5,66.5C 188.783,64.1318 190.45,61.9651 192.5,60C 199.962,56.897 205.295,59.0636 208.5,66.5 Z"/></g>
<g><path style="opacity:1" fill="#2cd493" d="M 289.5,66.5 C 290.265,69.0961 290.599,71.7628 290.5,74.5C 289.781,84.733 284.447,89.233 274.5,88C 272.627,86.2962 270.96,84.4628 269.5,82.5C 268.27,80.7028 267.604,78.7028 267.5,76.5C 267.253,73.0613 267.586,69.728 268.5,66.5C 269.906,63.5865 271.906,61.0865 274.5,59C 281.71,57.2714 286.71,59.7714 289.5,66.5 Z"/></g>
<g><path style="opacity:1" fill="#fb9744" d="M 177.5,58.5 C 180.873,61.1775 184.206,63.8442 187.5,66.5C 186.781,68.7638 186.448,71.0971 186.5,73.5C 173.222,80.6239 165.055,91.6239 162,106.5C 160.032,112.702 158.865,119.035 158.5,125.5C 151.242,128.319 147.076,133.652 146,141.5C 144.806,149.719 146.306,157.385 150.5,164.5C 149.261,171.135 148.261,177.801 147.5,184.5C 143.633,184.242 139.966,184.908 136.5,186.5C 133.552,177.709 131.386,168.709 130,159.5C 127.048,116.748 142.881,83.0813 177.5,58.5 Z"/></g>
<g><path style="opacity:1" fill="#fa7823" d="M 298.5,58.5 C 303.909,61.7345 308.909,65.5678 313.5,70C 345.432,103.568 354.099,142.402 339.5,186.5C 333.769,184.354 327.936,184.021 322,185.5C 321.501,179.843 321.334,174.176 321.5,168.5C 328.847,163.173 332.181,155.84 331.5,146.5C 331.591,136.622 327.258,129.622 318.5,125.5C 316.257,114.268 313.091,103.268 309,92.5C 304.929,84.2612 298.762,78.2612 290.5,74.5C 290.599,71.7628 290.265,69.0961 289.5,66.5C 292.474,63.8621 295.474,61.1954 298.5,58.5 Z"/></g>
<g><path style="opacity:1" fill="#fcdc45" d="M 267.5,76.5 C 267.604,78.7028 268.27,80.7028 269.5,82.5C 268.883,82.6107 268.383,82.944 268,83.5C 266.428,91.8169 269.262,97.9835 276.5,102C 279.377,102.725 282.043,102.225 284.5,100.5C 290.654,117.605 293.987,135.272 294.5,153.5C 257.85,148.483 221.183,148.317 184.5,153C 179.773,154.063 175.107,155.23 170.5,156.5C 171.103,148.315 170.269,140.315 168,132.5C 166.297,128.075 163.13,125.741 158.5,125.5C 158.865,119.035 160.032,112.702 162,106.5C 165.055,91.6239 173.222,80.6239 186.5,73.5C 186.56,76.3408 187.226,79.0075 188.5,81.5C 187.883,81.6107 187.383,81.944 187,82.5C 185.809,89.9321 187.976,96.0988 193.5,101C 201.319,103.336 206.486,100.503 209,92.5C 209.167,90.8333 209.333,89.1667 209.5,87.5C 209.444,85.3603 208.777,83.6936 207.5,82.5C 209.711,77.302 210.044,71.9687 208.5,66.5C 214.126,65.0103 219.792,63.677 225.5,62.5C 224.73,71.4585 228.063,78.2919 235.5,83C 244.566,83.7703 249.566,79.6036 250.5,70.5C 256.63,71.3202 262.296,73.3202 267.5,76.5 Z"/></g>
<g><path style="opacity:1" fill="#f7c42d" d="M 290.5,74.5 C 298.762,78.2612 304.929,84.2612 309,92.5C 313.091,103.268 316.257,114.268 318.5,125.5C 314.088,126.07 310.922,128.403 309,132.5C 306.381,140.707 305.881,149.041 307.5,157.5C 303.037,156.305 298.704,154.972 294.5,153.5C 293.987,135.272 290.654,117.605 284.5,100.5C 282.043,102.225 279.377,102.725 276.5,102C 269.262,97.9835 266.428,91.8169 268,83.5C 268.383,82.944 268.883,82.6107 269.5,82.5C 270.96,84.4628 272.627,86.2962 274.5,88C 284.447,89.233 289.781,84.733 290.5,74.5 Z"/></g>
<g><path style="opacity:1" fill="#f6c52e" d="M 188.5,81.5 C 189.228,83.7346 190.561,85.5679 192.5,87C 198.87,89.9277 203.87,88.4277 207.5,82.5C 208.777,83.6936 209.444,85.3603 209.5,87.5C 209.333,89.1667 209.167,90.8333 209,92.5C 206.486,100.503 201.319,103.336 193.5,101C 187.976,96.0988 185.809,89.9321 187,82.5C 187.383,81.944 187.883,81.6107 188.5,81.5 Z"/></g>
<g><path style="opacity:1" fill="#f83440" d="M 232.5,125.5 C 234.087,122.732 235.92,120.065 238,117.5C 241.543,108.089 239.376,100.422 231.5,94.5C 241.582,90.1161 248.749,93.1161 253,103.5C 255.795,116.006 251.129,124.006 239,127.5C 236.711,127.125 234.545,126.459 232.5,125.5 Z"/></g>
<g><path style="opacity:1" fill="#fb4b58" d="M 231.5,94.5 C 239.376,100.422 241.543,108.089 238,117.5C 235.92,120.065 234.087,122.732 232.5,125.5C 222.829,118.192 220.996,109.192 227,98.5C 228.371,96.9586 229.871,95.6253 231.5,94.5 Z"/></g>
<g><path style="opacity:1" fill="#37e099" d="M 197.5,114.5 C 206.841,113.812 210.674,118.145 209,127.5C 206.917,132.904 203.084,134.737 197.5,133C 193.695,128.909 192.528,124.076 194,118.5C 195.032,116.973 196.199,115.64 197.5,114.5 Z"/></g>
<g><path style="opacity:1" fill="#31e09a" d="M 272.5,114.5 C 274.857,114.337 277.19,114.503 279.5,115C 281.333,115.5 282.5,116.667 283,118.5C 283.667,122.167 283.667,125.833 283,129.5C 278.333,134.833 273.667,134.833 269,129.5C 268.333,125.833 268.333,122.167 269,118.5C 269.69,116.65 270.856,115.316 272.5,114.5 Z"/></g>
<g><path style="opacity:1" fill="#36b180" d="M 158.5,125.5 C 163.13,125.741 166.297,128.075 168,132.5C 170.269,140.315 171.103,148.315 170.5,156.5C 169.175,159.759 167.842,163.092 166.5,166.5C 160.599,170.852 155.266,170.185 150.5,164.5C 146.306,157.385 144.806,149.719 146,141.5C 147.076,133.652 151.242,128.319 158.5,125.5 Z"/></g>
<g><path style="opacity:1" fill="#36b07f" d="M 318.5,125.5 C 327.258,129.622 331.591,136.622 331.5,146.5C 332.181,155.84 328.847,163.173 321.5,168.5C 320.833,168.5 320.5,168.833 320.5,169.5C 312.397,169.734 308.063,165.734 307.5,157.5C 305.881,149.041 306.381,140.707 309,132.5C 310.922,128.403 314.088,126.07 318.5,125.5 Z"/></g>
<g><path style="opacity:1" fill="#fecdbf" d="M 294.5,153.5 C 298.704,154.972 303.037,156.305 307.5,157.5C 308.063,165.734 312.397,169.734 320.5,169.5C 321.992,190.877 319.992,211.877 314.5,232.5C 312.51,238.486 310.51,244.486 308.5,250.5C 304.255,257.42 299.588,264.087 294.5,270.5C 285.658,279.675 275.658,287.342 264.5,293.5C 263.702,293.957 263.369,294.624 263.5,295.5C 257.865,297.647 252.198,299.813 246.5,302C 241.167,302.667 235.833,302.667 230.5,302C 225.479,299.821 220.479,297.654 215.5,295.5C 204.009,288.686 193.342,280.686 183.5,271.5C 175.48,262.791 169.48,252.791 165.5,241.5C 168.978,241.816 172.312,241.316 175.5,240C 176.958,237.923 177.624,235.59 177.5,233C 173.016,210.927 169.349,188.761 166.5,166.5C 167.842,163.092 169.175,159.759 170.5,156.5C 175.107,155.23 179.773,154.063 184.5,153C 221.183,148.317 257.85,148.483 294.5,153.5 Z"/></g>
<g><path style="opacity:1" fill="#f7f2ef" d="M 150.5,164.5 C 155.266,170.185 160.599,170.852 166.5,166.5C 169.349,188.761 173.016,210.927 177.5,233C 177.624,235.59 176.958,237.923 175.5,240C 172.312,241.316 168.978,241.816 165.5,241.5C 160.406,242.336 156.073,241.002 152.5,237.5C 150.176,231.053 148.676,224.387 148,217.5C 147.5,206.505 147.333,195.505 147.5,184.5C 148.261,177.801 149.261,171.135 150.5,164.5 Z"/></g>
<g><path style="opacity:1" fill="#fb4e5b" d="M 235.5,173.5 C 241.308,172.652 245.142,174.985 247,180.5C 248.308,186.583 246.474,191.417 241.5,195C 235.662,195.863 231.829,193.363 230,187.5C 228.814,181.553 230.647,176.887 235.5,173.5 Z"/></g>
<g><path style="opacity:0.983" fill="#fcb09f" d="M 147.5,184.5 C 147.333,195.505 147.5,206.505 148,217.5C 148.676,224.387 150.176,231.053 152.5,237.5C 148.633,238.726 144.633,238.726 140.5,237.5C 129.196,232.415 123.53,223.582 123.5,211C 123.707,207.477 124.04,203.977 124.5,200.5C 127.563,195.048 131.563,190.382 136.5,186.5C 139.966,184.908 143.633,184.242 147.5,184.5 Z"/></g>
<g><path style="opacity:0.99" fill="#fcaf9f" d="M 321.5,168.5 C 321.334,174.176 321.501,179.843 322,185.5C 327.936,184.021 333.769,184.354 339.5,186.5C 344.527,189.527 348.527,193.527 351.5,198.5C 356.262,212.115 353.595,223.948 343.5,234C 341.423,235.705 339.09,236.872 336.5,237.5C 328.185,239.883 320.851,238.216 314.5,232.5C 319.992,211.877 321.992,190.877 320.5,169.5C 320.5,168.833 320.833,168.5 321.5,168.5 Z"/></g>
<g><path style="opacity:1" fill="#71392d" d="M 197.5,185.5 C 206.508,186.01 210.008,190.677 208,199.5C 203,207.5 198,207.5 193,199.5C 192.333,196.5 192.333,193.5 193,190.5C 194.707,188.963 196.207,187.296 197.5,185.5 Z"/></g>
<g><path style="opacity:1" fill="#71382d" d="M 273.5,185.5 C 282.508,186.01 286.008,190.677 284,199.5C 279,207.5 274,207.5 269,199.5C 267.454,193.794 268.954,189.127 273.5,185.5 Z"/></g>
<g><path style="opacity:1" fill="#f89f8e" d="M 226.5,218.5 C 231.543,217.431 235.377,219.097 238,223.5C 240.913,218.311 245.08,217.144 250.5,220C 253.968,231.424 249.635,238.257 237.5,240.5C 227.231,238.743 222.398,232.743 223,222.5C 224.376,221.295 225.542,219.962 226.5,218.5 Z"/></g>
<g><path style="opacity:1" fill="#444444" d="M 314.5,232.5 C 320.851,238.216 328.185,239.883 336.5,237.5C 343.338,244.839 346.504,253.505 346,263.5C 344.901,266.864 343.401,270.03 341.5,273C 357.415,271.938 366.082,279.271 367.5,295C 367.715,299.018 366.715,302.685 364.5,306C 377.69,313.399 381.69,324.232 376.5,338.5C 370.951,337.102 365.284,334.935 359.5,332C 353.846,330.06 348.18,328.226 342.5,326.5C 341.833,323.833 341.167,321.167 340.5,318.5C 344.306,302.604 338.306,292.771 322.5,289C 321.667,288.167 320.833,287.333 320,286.5C 320.24,280.514 320.24,274.514 320,268.5C 316.905,261.963 313.071,255.963 308.5,250.5C 310.51,244.486 312.51,238.486 314.5,232.5 Z"/></g>
<g><path style="opacity:0.984" fill="#5a5a5a" d="M 140.5,237.5 C 144.633,238.726 148.633,238.726 152.5,237.5C 156.073,241.002 160.406,242.336 165.5,241.5C 169.48,252.791 175.48,262.791 183.5,271.5C 177.269,274.775 171.603,278.775 166.5,283.5C 147.398,298.71 136.398,318.377 133.5,342.5C 127.937,345.116 122.27,347.449 116.5,349.5C 103.14,345.46 97.3071,336.46 99,322.5C 100.946,314.889 105.446,309.389 112.5,306C 106.801,293.129 109.801,282.796 121.5,275C 126.126,274.018 130.792,273.184 135.5,272.5C 130.659,266.122 129.493,259.122 132,251.5C 134.593,246.639 137.427,241.972 140.5,237.5 Z"/></g>
<g><path style="opacity:1" fill="#f89f8f" d="M 221.5,250.5 C 223.199,250.34 224.866,250.506 226.5,251C 233.802,256.913 241.135,256.913 248.5,251C 256.211,250.378 259.378,253.878 258,261.5C 255.362,265.128 251.862,267.628 247.5,269C 235.6,272.99 225.433,270.49 217,261.5C 216.333,259.5 216.333,257.5 217,255.5C 218.366,253.638 219.866,251.972 221.5,250.5 Z"/></g>
<g><path style="opacity:1" fill="#5b5b5b" d="M 308.5,250.5 C 313.071,255.963 316.905,261.963 320,268.5C 320.24,274.514 320.24,280.514 320,286.5C 320.833,287.333 321.667,288.167 322.5,289C 338.306,292.771 344.306,302.604 340.5,318.5C 333.808,304.138 324.142,292.138 311.5,282.5C 306.36,277.762 300.693,273.762 294.5,270.5C 299.588,264.087 304.255,257.42 308.5,250.5 Z"/></g>
<g><path style="opacity:1" fill="#e1e1e1" d="M 294.5,270.5 C 300.693,273.762 306.36,277.762 311.5,282.5C 302.871,291.457 293.538,299.457 283.5,306.5C 282.604,305.494 281.938,305.494 281.5,306.5C 280.733,305.828 280.066,304.995 279.5,304C 273.93,301.436 268.597,298.602 263.5,295.5C 263.369,294.624 263.702,293.957 264.5,293.5C 275.658,287.342 285.658,279.675 294.5,270.5 Z"/></g>
<g><path style="opacity:1" fill="#e1e1e1" d="M 183.5,271.5 C 193.342,280.686 204.009,288.686 215.5,295.5C 209.366,299.404 203.032,303.071 196.5,306.5C 195.833,306.5 195.5,306.833 195.5,307.5C 195.167,307.5 194.833,307.5 194.5,307.5C 184.897,299.904 175.564,291.904 166.5,283.5C 171.603,278.775 177.269,274.775 183.5,271.5 Z"/></g>
<g><path style="opacity:1" fill="#f6f1ef" d="M 311.5,282.5 C 324.142,292.138 333.808,304.138 340.5,318.5C 341.167,321.167 341.833,323.833 342.5,326.5C 345.175,335.587 346.175,344.92 345.5,354.5C 337.414,343.251 327.081,340.584 314.5,346.5C 312.833,347.833 311.167,349.167 309.5,350.5C 310.019,338.566 306.353,328.233 298.5,319.5C 294.101,314.468 289.101,310.135 283.5,306.5C 293.538,299.457 302.871,291.457 311.5,282.5 Z"/></g>
<g><path style="opacity:1" fill="#f6f1ef" d="M 166.5,283.5 C 175.564,291.904 184.897,299.904 194.5,307.5C 188.145,311.855 182.812,317.188 178.5,323.5C 177.833,323.5 177.5,323.833 177.5,324.5C 171.633,332.444 168.966,341.444 169.5,351.5C 161.02,342.987 151.354,341.321 140.5,346.5C 138.167,348.5 135.833,350.5 133.5,352.5C 133.5,349.167 133.5,345.833 133.5,342.5C 136.398,318.377 147.398,298.71 166.5,283.5 Z"/></g>
<g><path style="opacity:1" fill="#fcb0a0" d="M 215.5,295.5 C 220.479,297.654 225.479,299.821 230.5,302C 235.833,302.667 241.167,302.667 246.5,302C 252.198,299.813 257.865,297.647 263.5,295.5C 268.597,298.602 273.93,301.436 279.5,304C 280.066,304.995 280.733,305.828 281.5,306.5C 281.5,306.833 281.5,307.167 281.5,307.5C 273.472,312.181 265.139,316.347 256.5,320C 243.369,323.63 230.369,323.297 217.5,319C 209.775,315.814 202.775,311.647 196.5,306.5C 203.032,303.071 209.366,299.404 215.5,295.5 Z"/></g>
<g><path style="opacity:1" fill="#656664" d="M 283.5,306.5 C 289.101,310.135 294.101,314.468 298.5,319.5C 296.938,319.733 295.605,320.4 294.5,321.5C 289.46,317.461 285.127,312.794 281.5,307.5C 281.5,307.167 281.5,306.833 281.5,306.5C 281.938,305.494 282.604,305.494 283.5,306.5 Z"/></g>
<g><path style="opacity:1" fill="#fecdbf" d="M 196.5,306.5 C 202.775,311.647 209.775,315.814 217.5,319C 230.369,323.297 243.369,323.63 256.5,320C 265.139,316.347 273.472,312.181 281.5,307.5C 285.127,312.794 289.46,317.461 294.5,321.5C 290.809,326.612 288.809,332.279 288.5,338.5C 286.181,339.091 284.181,340.758 282.5,343.5C 271.851,347.266 261.518,351.599 251.5,356.5C 249.883,357.038 248.216,357.371 246.5,357.5C 216.447,360.636 193.447,349.636 177.5,324.5C 177.5,323.833 177.833,323.5 178.5,323.5C 185.432,319.57 191.099,314.236 195.5,307.5C 195.5,306.833 195.833,306.5 196.5,306.5 Z"/></g>
<g><path style="opacity:1" fill="#676966" d="M 194.5,307.5 C 194.833,307.5 195.167,307.5 195.5,307.5C 191.099,314.236 185.432,319.57 178.5,323.5C 182.812,317.188 188.145,311.855 194.5,307.5 Z"/></g>
<g><path style="opacity:1" fill="#fa4a59" d="M 298.5,319.5 C 306.353,328.233 310.019,338.566 309.5,350.5C 304.687,356.788 303.353,363.788 305.5,371.5C 303.631,377.108 301.964,382.775 300.5,388.5C 295.934,403.205 292.601,418.205 290.5,433.5C 286.021,437.453 283.355,442.453 282.5,448.5C 271.256,461.906 258.256,473.406 243.5,483C 238.066,487.974 238.399,492.641 244.5,497C 246.5,497.667 248.5,497.667 250.5,497C 263.377,488.907 275.044,479.407 285.5,468.5C 284.677,482.817 284.344,497.151 284.5,511.5C 254.5,511.5 224.5,511.5 194.5,511.5C 194.5,504.167 194.5,496.833 194.5,489.5C 194.5,487.167 194.5,484.833 194.5,482.5C 226.331,460.34 250.998,432.007 268.5,397.5C 277.804,380.255 284.138,361.922 287.5,342.5C 288.234,341.292 288.567,339.959 288.5,338.5C 288.809,332.279 290.809,326.612 294.5,321.5C 295.605,320.4 296.938,319.733 298.5,319.5 Z"/></g>
<g><path style="opacity:1" fill="#32b181" d="M 177.5,324.5 C 193.447,349.636 216.447,360.636 246.5,357.5C 223.832,367.667 201.498,378.667 179.5,390.5C 179.5,390.167 179.5,389.833 179.5,389.5C 177.702,382.774 175.702,376.107 173.5,369.5C 174.254,362.96 172.921,356.96 169.5,351.5C 168.966,341.444 171.633,332.444 177.5,324.5 Z"/></g>
<g><path style="opacity:1" fill="#fa4b59" d="M 342.5,326.5 C 348.18,328.226 353.846,330.06 359.5,332C 365.284,334.935 370.951,337.102 376.5,338.5C 377.833,339.167 379.167,339.833 380.5,340.5C 377.139,368.321 371.306,395.654 363,422.5C 362.235,425.983 360.735,428.983 358.5,431.5C 353.288,428.242 349.122,429.242 346,434.5C 341.223,453.383 333.223,470.717 322,486.5C 321.5,493.492 321.334,500.492 321.5,507.5C 321.5,508.833 321.5,510.167 321.5,511.5C 321.167,511.5 320.833,511.5 320.5,511.5C 320.5,502.167 320.5,492.833 320.5,483.5C 321.99,476.626 322.657,469.626 322.5,462.5C 325.051,456.8 326.051,450.8 325.5,444.5C 327.138,429.975 329.805,415.642 333.5,401.5C 336.201,395.07 338.534,388.403 340.5,381.5C 347.709,373.612 349.375,364.612 345.5,354.5C 346.175,344.92 345.175,335.587 342.5,326.5 Z"/></g>
<g><path style="opacity:1" fill="#4aaf80" d="M 288.5,338.5 C 288.567,339.959 288.234,341.292 287.5,342.5C 285.784,342.629 284.117,342.962 282.5,343.5C 284.181,340.758 286.181,339.091 288.5,338.5 Z"/></g>
<g><path style="opacity:1" fill="#f7c42d" d="M 287.5,342.5 C 284.138,361.922 277.804,380.255 268.5,397.5C 255.609,401.574 242.943,406.241 230.5,411.5C 239.114,395.17 246.281,378.17 252,360.5C 252.765,358.934 252.598,357.601 251.5,356.5C 261.518,351.599 271.851,347.266 282.5,343.5C 284.117,342.962 285.784,342.629 287.5,342.5 Z"/></g>
<g><path style="opacity:1" fill="#f72f40" d="M 380.5,340.5 C 390.549,345.516 399.883,351.516 408.5,358.5C 394.017,409.305 379.683,460.305 365.5,511.5C 350.833,511.5 336.167,511.5 321.5,511.5C 321.5,510.167 321.5,508.833 321.5,507.5C 327.019,504.823 331.519,500.823 335,495.5C 346.556,479.052 354.889,461.052 360,441.5C 360.963,437.851 360.463,434.518 358.5,431.5C 360.735,428.983 362.235,425.983 363,422.5C 371.306,395.654 377.139,368.321 380.5,340.5 Z"/></g>
<g><path style="opacity:0.988" fill="#2db081" d="M 133.5,342.5 C 133.5,345.833 133.5,349.167 133.5,352.5C 128.052,364.122 130.052,374.122 139.5,382.5C 141.102,388.971 143.102,395.304 145.5,401.5C 146.265,404.096 146.599,406.763 146.5,409.5C 141.833,412.167 137.167,414.833 132.5,417.5C 133.257,412.192 132.257,407.359 129.5,403C 124.18,400.298 120.013,401.465 117,406.5C 116.5,429.831 116.333,453.164 116.5,476.5C 99.8333,476.5 83.1667,476.5 66.5,476.5C 66.3334,453.498 66.5,430.498 67,407.5C 68.2651,392.803 74.4318,380.636 85.5,371C 95.2023,362.824 105.536,355.658 116.5,349.5C 122.27,347.449 127.937,345.116 133.5,342.5 Z"/></g>
<g><path style="opacity:1" fill="#1b86f7" d="M 169.5,351.5 C 172.921,356.96 174.254,362.96 173.5,369.5C 166.871,385.324 155.871,389.657 140.5,382.5C 155.421,377.316 159.254,367.65 152,353.5C 148.486,350.5 144.653,348.167 140.5,346.5C 151.354,341.321 161.02,342.987 169.5,351.5 Z"/></g>
<g><path style="opacity:1" fill="#1f85f7" d="M 345.5,354.5 C 349.375,364.612 347.709,373.612 340.5,381.5C 332.542,387.163 324.209,387.829 315.5,383.5C 319.276,381.099 322.943,378.433 326.5,375.5C 333.274,361.381 329.274,351.714 314.5,346.5C 327.081,340.584 337.414,343.251 345.5,354.5 Z"/></g>
<g><path style="opacity:1" fill="#1d96f8" d="M 140.5,346.5 C 144.653,348.167 148.486,350.5 152,353.5C 159.254,367.65 155.421,377.316 140.5,382.5C 140.167,382.5 139.833,382.5 139.5,382.5C 130.052,374.122 128.052,364.122 133.5,352.5C 135.833,350.5 138.167,348.5 140.5,346.5 Z"/></g>
<g><path style="opacity:1" fill="#2195f7" d="M 314.5,346.5 C 329.274,351.714 333.274,361.381 326.5,375.5C 322.943,378.433 319.276,381.099 315.5,383.5C 311.008,380.353 307.675,376.353 305.5,371.5C 303.353,363.788 304.687,356.788 309.5,350.5C 311.167,349.167 312.833,347.833 314.5,346.5 Z"/></g>
<g><path style="opacity:1" fill="#fcdc45" d="M 251.5,356.5 C 252.598,357.601 252.765,358.934 252,360.5C 246.281,378.17 239.114,395.17 230.5,411.5C 229.508,411.328 228.842,411.662 228.5,412.5C 215.072,417.716 202.072,423.716 189.5,430.5C 186.816,417.102 183.483,403.769 179.5,390.5C 201.498,378.667 223.832,367.667 246.5,357.5C 248.216,357.371 249.883,357.038 251.5,356.5 Z"/></g>
<g><path style="opacity:1" fill="#fdda44" d="M 408.5,358.5 C 418.024,364.844 426.857,372.178 435,380.5C 445.465,394.436 447.131,409.436 440,425.5C 432,451.5 424,477.5 416,503.5C 414.727,506.597 412.893,509.264 410.5,511.5C 395.5,511.5 380.5,511.5 365.5,511.5C 379.683,460.305 394.017,409.305 408.5,358.5 Z"/></g>
<g><path style="opacity:1" fill="#e0e1e1" d="M 173.5,369.5 C 175.702,376.107 177.702,382.774 179.5,389.5C 172.015,404.209 160.681,408.209 145.5,401.5C 143.102,395.304 141.102,388.971 139.5,382.5C 139.833,382.5 140.167,382.5 140.5,382.5C 155.871,389.657 166.871,385.324 173.5,369.5 Z"/></g>
<g><path style="opacity:1" fill="#e1e0e1" d="M 305.5,371.5 C 307.675,376.353 311.008,380.353 315.5,383.5C 324.209,387.829 332.542,387.163 340.5,381.5C 338.534,388.403 336.201,395.07 333.5,401.5C 317.986,408.333 306.986,404 300.5,388.5C 301.964,382.775 303.631,377.108 305.5,371.5 Z"/></g>
<g><path style="opacity:1" fill="#f7f1ef" d="M 300.5,388.5 C 306.986,404 317.986,408.333 333.5,401.5C 329.805,415.642 327.138,429.975 325.5,444.5C 318.881,430.19 308.215,425.857 293.5,431.5C 292.5,432.167 291.5,432.833 290.5,433.5C 292.601,418.205 295.934,403.205 300.5,388.5 Z"/></g>
<g><path style="opacity:1" fill="#f7f1ee" d="M 179.5,389.5 C 179.5,389.833 179.5,390.167 179.5,390.5C 183.483,403.769 186.816,417.102 189.5,430.5C 189.5,431.833 189.5,433.167 189.5,434.5C 184.758,431.139 179.425,429.139 173.5,428.5C 169.898,428.702 166.565,429.702 163.5,431.5C 159.018,434.138 155.684,437.805 153.5,442.5C 152.95,433.015 151.45,423.682 149,414.5C 148.243,412.685 147.41,411.019 146.5,409.5C 146.599,406.763 146.265,404.096 145.5,401.5C 160.681,408.209 172.015,404.209 179.5,389.5 Z"/></g>
<g><path style="opacity:1" fill="#e22334" d="M 268.5,397.5 C 250.998,432.007 226.331,460.34 194.5,482.5C 194.277,475.16 193.944,467.827 193.5,460.5C 193.971,458.421 194.637,456.421 195.5,454.5C 208.781,442.227 219.781,428.227 228.5,412.5C 228.842,411.662 229.508,411.328 230.5,411.5C 242.943,406.241 255.609,401.574 268.5,397.5 Z"/></g>
<g><path style="opacity:1" fill="#2aa46d" d="M 132.5,417.5 C 132.5,431.833 132.5,446.167 132.5,460.5C 132.5,473.833 132.5,487.167 132.5,500.5C 132.5,504.167 132.5,507.833 132.5,511.5C 127.167,511.5 121.833,511.5 116.5,511.5C 116.5,500.167 116.5,488.833 116.5,477.5C 116.5,477.167 116.5,476.833 116.5,476.5C 116.333,453.164 116.5,429.831 117,406.5C 120.013,401.465 124.18,400.298 129.5,403C 132.257,407.359 133.257,412.192 132.5,417.5 Z"/></g>
<g><path style="opacity:1" fill="#fcdc46" d="M 146.5,409.5 C 147.41,411.019 148.243,412.685 149,414.5C 151.45,423.682 152.95,433.015 153.5,442.5C 152.781,444.764 152.448,447.097 152.5,449.5C 145.833,453.167 139.167,456.833 132.5,460.5C 132.5,446.167 132.5,431.833 132.5,417.5C 137.167,414.833 141.833,412.167 146.5,409.5 Z"/></g>
<g><path style="opacity:1" fill="#f73140" d="M 228.5,412.5 C 219.781,428.227 208.781,442.227 195.5,454.5C 196.113,447.01 194.113,440.343 189.5,434.5C 189.5,433.167 189.5,431.833 189.5,430.5C 202.072,423.716 215.072,417.716 228.5,412.5 Z"/></g>
<g><path style="opacity:1" fill="#2085f6" d="M 189.5,434.5 C 194.113,440.343 196.113,447.01 195.5,454.5C 194.637,456.421 193.971,458.421 193.5,460.5C 185.377,471.764 175.044,474.43 162.5,468.5C 176.599,463.724 180.766,454.391 175,440.5C 171.471,436.854 167.638,433.854 163.5,431.5C 166.565,429.702 169.898,428.702 173.5,428.5C 179.425,429.139 184.758,431.139 189.5,434.5 Z"/></g>
<g><path style="opacity:1" fill="#1d86f7" d="M 325.5,444.5 C 326.051,450.8 325.051,456.8 322.5,462.5C 313.974,471.932 303.974,473.932 292.5,468.5C 306.064,464.039 310.564,455.039 306,441.5C 302.322,437.283 298.155,433.95 293.5,431.5C 308.215,425.857 318.881,430.19 325.5,444.5 Z"/></g>
<g><path style="opacity:1" fill="#e22334" d="M 358.5,431.5 C 360.463,434.518 360.963,437.851 360,441.5C 354.889,461.052 346.556,479.052 335,495.5C 331.519,500.823 327.019,504.823 321.5,507.5C 321.334,500.492 321.5,493.492 322,486.5C 333.223,470.717 341.223,453.383 346,434.5C 349.122,429.242 353.288,428.242 358.5,431.5 Z"/></g>
<g><path style="opacity:1" fill="#2096f8" d="M 163.5,431.5 C 167.638,433.854 171.471,436.854 175,440.5C 180.766,454.391 176.599,463.724 162.5,468.5C 160.5,466.833 158.5,465.167 156.5,463.5C 153.928,459.215 152.595,454.549 152.5,449.5C 152.448,447.097 152.781,444.764 153.5,442.5C 155.684,437.805 159.018,434.138 163.5,431.5 Z"/></g>
<g><path style="opacity:1" fill="#2494f7" d="M 293.5,431.5 C 298.155,433.95 302.322,437.283 306,441.5C 310.564,455.039 306.064,464.039 292.5,468.5C 291.167,467.5 289.833,466.5 288.5,465.5C 284.213,460.707 282.213,455.04 282.5,448.5C 283.355,442.453 286.021,437.453 290.5,433.5C 291.5,432.833 292.5,432.167 293.5,431.5 Z"/></g>
<g><path style="opacity:1" fill="#f72f40" d="M 282.5,448.5 C 282.213,455.04 284.213,460.707 288.5,465.5C 287.167,466.167 286.167,467.167 285.5,468.5C 275.044,479.407 263.377,488.907 250.5,497C 248.5,497.667 246.5,497.667 244.5,497C 238.399,492.641 238.066,487.974 243.5,483C 258.256,473.406 271.256,461.906 282.5,448.5 Z"/></g>
<g><path style="opacity:1" fill="#f73040" d="M 152.5,449.5 C 152.595,454.549 153.928,459.215 156.5,463.5C 157.165,469.477 157.498,475.477 157.5,481.5C 157.739,483.467 157.406,485.301 156.5,487C 148.635,491.765 140.635,496.265 132.5,500.5C 132.5,487.167 132.5,473.833 132.5,460.5C 139.167,456.833 145.833,453.167 152.5,449.5 Z"/></g>
<g><path style="opacity:1" fill="#e1dfe0" d="M 193.5,460.5 C 193.944,467.827 194.277,475.16 194.5,482.5C 194.5,484.833 194.5,487.167 194.5,489.5C 193.683,487.031 193.183,484.365 193,481.5C 186.441,490.177 177.941,492.677 167.5,489C 164.117,487.314 161.117,485.147 158.5,482.5C 158.5,481.833 158.167,481.5 157.5,481.5C 157.498,475.477 157.165,469.477 156.5,463.5C 158.5,465.167 160.5,466.833 162.5,468.5C 175.044,474.43 185.377,471.764 193.5,460.5 Z"/></g>
<g><path style="opacity:1" fill="#e2dedf" d="M 322.5,462.5 C 322.657,469.626 321.99,476.626 320.5,483.5C 312.548,490.879 303.548,492.379 293.5,488C 290.333,486.167 287.833,483.667 286,480.5C 285.5,490.828 285.334,501.161 285.5,511.5C 285.167,511.5 284.833,511.5 284.5,511.5C 284.344,497.151 284.677,482.817 285.5,468.5C 286.167,467.167 287.167,466.167 288.5,465.5C 289.833,466.5 291.167,467.5 292.5,468.5C 303.974,473.932 313.974,471.932 322.5,462.5 Z"/></g>
<g><path style="opacity:1" fill="#b2cd5b" d="M 66.5,476.5 C 83.1667,476.5 99.8333,476.5 116.5,476.5C 116.5,476.833 116.5,477.167 116.5,477.5C 100.167,477.5 83.8333,477.5 67.5,477.5C 67.5,486.167 67.5,494.833 67.5,503.5C 66.5067,494.682 66.1734,485.682 66.5,476.5 Z"/></g>
<g><path style="opacity:1" fill="#fcdc45" d="M 116.5,477.5 C 116.5,488.833 116.5,500.167 116.5,511.5C 101.833,511.5 87.1667,511.5 72.5,511.5C 69.3337,509.846 67.667,507.179 67.5,503.5C 67.5,494.833 67.5,486.167 67.5,477.5C 83.8333,477.5 100.167,477.5 116.5,477.5 Z"/></g>
<g><path style="opacity:1" fill="#f7f2f0" d="M 320.5,483.5 C 320.5,492.833 320.5,502.167 320.5,511.5C 308.833,511.5 297.167,511.5 285.5,511.5C 285.334,501.161 285.5,490.828 286,480.5C 287.833,483.667 290.333,486.167 293.5,488C 303.548,492.379 312.548,490.879 320.5,483.5 Z"/></g>
<g><path style="opacity:1" fill="#f7f2f0" d="M 194.5,489.5 C 194.5,496.833 194.5,504.167 194.5,511.5C 182.5,511.5 170.5,511.5 158.5,511.5C 158.5,501.833 158.5,492.167 158.5,482.5C 161.117,485.147 164.117,487.314 167.5,489C 177.941,492.677 186.441,490.177 193,481.5C 193.183,484.365 193.683,487.031 194.5,489.5 Z"/></g>
<g><path style="opacity:1" fill="#e52a39" d="M 157.5,481.5 C 158.167,481.5 158.5,481.833 158.5,482.5C 158.5,492.167 158.5,501.833 158.5,511.5C 149.833,511.5 141.167,511.5 132.5,511.5C 132.5,507.833 132.5,504.167 132.5,500.5C 140.635,496.265 148.635,491.765 156.5,487C 157.406,485.301 157.739,483.467 157.5,481.5 Z"/></g>
</svg>
