<?xml version="1.0" encoding="UTF-8"?>
<!DOCTYPE svg PUBLIC "-//W3C//DTD SVG 1.1//EN" "http://www.w3.org/Graphics/SVG/1.1/DTD/svg11.dtd">
<svg xmlns="http://www.w3.org/2000/svg" version="1.1" width="443px" height="471px" style="shape-rendering:geometricPrecision; text-rendering:geometricPrecision; image-rendering:optimizeQuality; fill-rule:evenodd; clip-rule:evenodd" xmlns:xlink="http://www.w3.org/1999/xlink">
<g><path style="opacity:0.96" fill="#080602" d="M 376.5,441.5 C 376.217,440.711 375.717,440.044 375,439.5C 374.501,434.511 374.334,429.511 374.5,424.5C 370.5,424.5 366.5,424.5 362.5,424.5C 362.786,430.259 362.452,435.925 361.5,441.5C 360.178,441.67 359.011,441.337 358,440.5C 357.667,434.833 357.333,429.167 357,423.5C 353.187,420.932 351.353,417.265 351.5,412.5C 352.199,404.515 352.699,396.515 353,388.5C 354.789,385.709 356.122,382.709 357,379.5C 365.193,334.94 355.193,294.94 327,259.5C 325.541,288.177 324.541,316.844 324,345.5C 333.217,352.927 338.551,362.594 340,374.5C 340.667,396.167 340.667,417.833 340,439.5C 338.73,441.578 337.23,441.912 335.5,440.5C 335.667,418.497 335.5,396.497 335,374.5C 332.987,362.308 326.82,352.808 316.5,346C 311.035,343.013 305.369,340.513 299.5,338.5C 297.03,339.237 294.696,340.237 292.5,341.5C 280.944,339.523 273.777,344.19 271,355.5C 269.5,357 268,358.5 266.5,360C 260.246,361.749 253.912,363.083 247.5,364C 243.523,367.246 241.023,371.413 240,376.5C 234.232,382.711 227.066,385.211 218.5,384C 212.741,386.658 209.241,391.158 208,397.5C 206.167,399.333 204.333,401.167 202.5,403C 196.234,404.749 189.901,406.082 183.5,407C 179.913,410.005 177.746,413.838 177,418.5C 171.286,424.893 164.119,427.56 155.5,426.5C 155.779,431.595 155.445,436.595 154.5,441.5C 153.5,441.5 152.5,441.5 151.5,441.5C 151.167,440.833 150.833,440.167 150.5,439.5C 150.5,435.833 150.5,432.167 150.5,428.5C 138.833,428.5 127.167,428.5 115.5,428.5C 115.5,432.5 115.5,436.5 115.5,440.5C 113.77,441.912 112.27,441.578 111,439.5C 110.333,418.5 110.333,397.5 111,376.5C 111.452,373.123 112.118,369.789 113,366.5C 114.863,362.116 116.696,357.783 118.5,353.5C 112.824,331.13 106.991,308.796 101,286.5C 100.009,285.061 98.676,284.061 97,283.5C 79.4464,290.326 64.113,286.993 51,273.5C 48.7179,269.821 47.5513,265.821 47.5,261.5C 49.6477,251.243 51.3144,240.91 52.5,230.5C 52.3053,220.69 50.1386,211.357 46,202.5C 45.3333,200.833 45.3333,199.167 46,197.5C 47.0495,196.483 48.2161,196.316 49.5,197C 66.6849,208.223 73.3516,224.056 69.5,244.5C 68.7457,258.244 75.079,264.744 88.5,264C 90.8598,262.635 92.5265,260.635 93.5,258C 92.8927,248.84 89.5594,240.84 83.5,234C 80.6229,232.873 77.6229,232.206 74.5,232C 73.5697,230.806 72.9031,229.473 72.5,228C 77.7641,217.11 80.5974,205.61 81,193.5C 82.8841,191.424 85.0508,191.09 87.5,192.5C 93.4305,202.598 101.264,210.931 111,217.5C 111.667,219.167 111.667,220.833 111,222.5C 104.393,226.304 102.06,231.97 104,239.5C 104.592,245.975 107.092,251.475 111.5,256C 120.893,256.607 125.893,252.107 126.5,242.5C 126.158,240.133 125.658,237.8 125,235.5C 121,228.833 117,222.167 113,215.5C 107.829,202.696 108.829,190.363 116,178.5C 117.938,177.14 119.604,177.473 121,179.5C 121.759,193.67 126.425,206.337 135,217.5C 140,223.167 145,228.833 150,234.5C 153.667,243.166 153.001,251.499 148,259.5C 141.152,269.669 131.652,275.835 119.5,278C 117.697,278.637 116.364,279.803 115.5,281.5C 121.154,301.784 126.654,322.117 132,342.5C 133.419,341.54 134.919,340.707 136.5,340C 144.712,319.372 152.545,298.539 160,277.5C 159.6,271.088 161.1,265.254 164.5,260C 162.996,258.509 162.163,256.676 162,254.5C 161.333,249.167 161.333,243.833 162,238.5C 162.972,236.695 164.139,235.028 165.5,233.5C 143.75,208.589 137.917,180.255 148,148.5C 159.386,121.449 179.219,103.949 207.5,96C 212.125,89.6183 217.958,84.785 225,81.5C 232.32,84.8153 238.487,89.6486 243.5,96C 288.593,110.339 309.76,141.172 307,188.5C 304.107,205.616 296.941,220.616 285.5,233.5C 290.43,242.224 290.763,251.224 286.5,260.5C 289.896,264.508 290.896,269.008 289.5,274C 296.822,295.804 304.822,317.304 313.5,338.5C 314.833,339.167 316.167,339.833 317.5,340.5C 319.083,309.842 320.416,279.176 321.5,248.5C 319.202,227.464 328.535,215.464 349.5,212.5C 360.43,213.881 369.596,218.547 377,226.5C 379.675,237.161 375.508,242.661 364.5,243C 359.382,240.357 354.215,237.857 349,235.5C 345.645,236.024 343.812,238.024 343.5,241.5C 348.986,249.794 354.486,258.128 360,266.5C 380.657,302.773 387.157,341.44 379.5,382.5C 380.919,384.336 382.086,386.336 383,388.5C 383.667,397.167 383.667,405.833 383,414.5C 382.941,417.822 381.774,420.656 379.5,423C 380.639,428.416 380.806,433.916 380,439.5C 379.29,440.973 378.124,441.64 376.5,441.5 Z M 196.5,133.5 C 197.601,134.848 198.601,136.348 199.5,138C 189.055,141.383 184.555,148.55 186,159.5C 186.598,162.308 187.765,164.808 189.5,167C 183.595,171.909 178.762,177.742 175,184.5C 171.741,163.112 178.908,146.112 196.5,133.5 Z M 253.5,133.5 C 272.145,145.915 279.645,163.248 276,185.5C 272.537,178.193 267.704,171.86 261.5,166.5C 268.154,153.465 264.82,143.798 251.5,137.5C 252.63,136.378 253.297,135.044 253.5,133.5 Z"/></g>
<g><path style="opacity:1" fill="#f1dc02" d="M 230.5,91.5 C 231.979,94.1007 232.979,96.934 233.5,100C 233.472,101.07 233.139,101.903 232.5,102.5C 230.384,97.7388 226.717,96.2388 221.5,98C 215.296,105.021 216.629,109.854 225.5,112.5C 227.514,112.563 229.181,111.897 230.5,110.5C 230.938,110.435 231.272,110.601 231.5,111C 230.5,112 229.5,113 228.5,114C 222.843,114.499 217.176,114.666 211.5,114.5C 208.578,108.281 209.078,102.281 213,96.5C 216.728,93.101 220.728,90.101 225,87.5C 227.15,88.4825 228.983,89.8158 230.5,91.5 Z"/></g>
<g><path style="opacity:1" fill="#edbd00" d="M 230.5,91.5 C 240.765,97.3505 243.265,105.684 238,116.5C 229.559,117.815 221.059,117.815 212.5,116.5C 212.137,115.817 211.804,115.15 211.5,114.5C 217.176,114.666 222.843,114.499 228.5,114C 229.5,113 230.5,112 231.5,111C 231.272,110.601 230.938,110.435 230.5,110.5C 232.226,108.18 232.893,105.513 232.5,102.5C 233.139,101.903 233.472,101.07 233.5,100C 232.979,96.934 231.979,94.1007 230.5,91.5 Z"/></g>
<g><path style="opacity:1" fill="#0d0901" d="M 232.5,102.5 C 232.893,105.513 232.226,108.18 230.5,110.5C 229.181,111.897 227.514,112.563 225.5,112.5C 216.629,109.854 215.296,105.021 221.5,98C 226.717,96.2388 230.384,97.7388 232.5,102.5 Z"/></g>
<g><path style="opacity:1" fill="#e33f4c" d="M 223.5,101.5 C 227.485,101.629 228.818,103.463 227.5,107C 222.728,107.81 221.395,105.977 223.5,101.5 Z"/></g>
<g><path style="opacity:1" fill="#f8e202" d="M 203.5,103.5 C 204.167,106.167 204.833,108.833 205.5,111.5C 205.877,113.258 206.544,114.925 207.5,116.5C 202.878,118.133 199.545,121.133 197.5,125.5C 185.164,129.671 175.664,137.337 169,148.5C 168.722,147.584 168.222,146.918 167.5,146.5C 163.43,144.74 162.097,145.906 163.5,150C 164.448,150.483 165.448,150.649 166.5,150.5C 166.938,150.435 167.272,150.601 167.5,151C 166.099,154.424 164.432,157.591 162.5,160.5C 160.082,158.985 158.415,159.651 157.5,162.5C 158.32,164.111 159.654,164.778 161.5,164.5C 162.043,164.56 162.376,164.893 162.5,165.5C 161.358,168.399 160.692,171.399 160.5,174.5C 156.965,174.337 155.965,175.67 157.5,178.5C 158.209,179.404 159.209,179.737 160.5,179.5C 160.911,182.553 161.577,185.553 162.5,188.5C 162.376,189.107 162.043,189.44 161.5,189.5C 156.66,190.188 156.327,191.855 160.5,194.5C 161.183,194.137 161.85,193.804 162.5,193.5C 162.534,202.825 162.534,212.158 162.5,221.5C 144.917,193.392 144.083,164.726 160,135.5C 170.721,119.602 185.221,108.935 203.5,103.5 Z"/></g>
<g><path style="opacity:1" fill="#f6e102" d="M 249.5,104.5 C 266.143,113.644 278.977,126.644 288,143.5C 288.74,144.749 288.573,145.749 287.5,146.5C 285.491,145 284.158,145.5 283.5,148C 284.158,150.5 285.491,151 287.5,149.5C 288.222,149.082 288.722,148.416 289,147.5C 290.723,151.208 292.223,155.042 293.5,159C 293.43,159.765 293.097,160.265 292.5,160.5C 290.623,159.072 289.289,159.572 288.5,162C 289.289,164.428 290.623,164.928 292.5,163.5C 294.117,164.589 294.95,166.256 295,168.5C 295.675,175.528 295.508,182.528 294.5,189.5C 293.5,189.5 292.5,189.5 291.5,189.5C 290.5,189.5 289.5,189.5 288.5,189.5C 288.286,191.144 288.62,192.644 289.5,194C 290.998,194.585 291.998,194.085 292.5,192.5C 291.525,204.052 287.192,214.386 279.5,223.5C 280.722,214.498 280.722,205.498 279.5,196.5C 287.756,166.868 279.089,143.702 253.5,127C 251.221,122.387 247.887,118.72 243.5,116C 244.825,111.581 245.825,107.081 246.5,102.5C 247.739,102.942 248.739,103.609 249.5,104.5 Z"/></g>
<g><path style="opacity:1" fill="#6e5700" d="M 203.5,103.5 C 203.56,102.957 203.893,102.624 204.5,102.5C 205.484,105.428 205.817,108.428 205.5,111.5C 204.833,108.833 204.167,106.167 203.5,103.5 Z"/></g>
<g><path style="opacity:1" fill="#f0bf00" d="M 249.5,104.5 C 282.712,116.4 300.378,140.067 302.5,175.5C 302.268,198.285 294.101,217.619 278,233.5C 277.757,229.967 278.257,226.633 279.5,223.5C 287.192,214.386 291.525,204.052 292.5,192.5C 292.443,191.391 292.11,190.391 291.5,189.5C 292.5,189.5 293.5,189.5 294.5,189.5C 295.508,182.528 295.675,175.528 295,168.5C 294.95,166.256 294.117,164.589 292.5,163.5C 292.5,162.5 292.5,161.5 292.5,160.5C 293.097,160.265 293.43,159.765 293.5,159C 292.223,155.042 290.723,151.208 289,147.5C 288.722,148.416 288.222,149.082 287.5,149.5C 287.5,148.5 287.5,147.5 287.5,146.5C 288.573,145.749 288.74,144.749 288,143.5C 278.977,126.644 266.143,113.644 249.5,104.5 Z"/></g>
<g><path style="opacity:1" fill="#181403" d="M 194.5,114.5 C 195.833,114.5 197.167,114.5 198.5,114.5C 198.884,116.665 198.217,118.332 196.5,119.5C 194.783,118.332 194.116,116.665 194.5,114.5 Z"/></g>
<g><path style="opacity:1" fill="#171403" d="M 252.5,114.5 C 253.833,114.5 255.167,114.5 256.5,114.5C 256.884,116.665 256.217,118.332 254.5,119.5C 252.783,118.332 252.116,116.665 252.5,114.5 Z"/></g>
<g><path style="opacity:1" fill="#1e1a06" d="M 182.5,122.5 C 187.073,122.976 187.573,124.642 184,127.5C 181.389,126.5 180.889,124.833 182.5,122.5 Z"/></g>
<g><path style="opacity:1" fill="#f9e202" d="M 241.5,122.5 C 242.127,128.871 239.46,133.204 233.5,135.5C 232.583,134.873 231.583,134.539 230.5,134.5C 225.582,131.64 221.249,132.474 217.5,137C 213.5,137.667 209.5,137.667 205.5,137C 200.167,132.333 200.167,127.667 205.5,123C 217.495,122.5 229.495,122.333 241.5,122.5 Z"/></g>
<g><path style="opacity:1" fill="#f5c200" d="M 241.5,122.5 C 247.575,123.76 249.741,127.427 248,133.5C 245.935,136.876 242.935,138.209 239,137.5C 237.167,137.333 235.333,137.167 233.5,137C 232.058,136.623 231.058,135.79 230.5,134.5C 231.583,134.539 232.583,134.873 233.5,135.5C 239.46,133.204 242.127,128.871 241.5,122.5 Z"/></g>
<g><path style="opacity:1" fill="#1c1805" d="M 265.5,122.5 C 269.161,122.35 270.161,123.85 268.5,127C 265.14,127.118 264.14,125.618 265.5,122.5 Z"/></g>
<g><path style="opacity:1" fill="#f0bf00" d="M 197.5,125.5 C 191.862,130.116 186.362,135.116 181,140.5C 169.173,156.585 165.673,174.418 170.5,194C 168.88,205.957 169.546,217.791 172.5,229.5C 172.333,230.5 172.167,231.5 172,232.5C 168.25,229.256 165.083,225.589 162.5,221.5C 162.534,212.158 162.534,202.825 162.5,193.5C 162.567,192.041 162.234,190.708 161.5,189.5C 162.043,189.44 162.376,189.107 162.5,188.5C 161.577,185.553 160.911,182.553 160.5,179.5C 159.209,179.737 158.209,179.404 157.5,178.5C 158.5,178.5 159.5,178.5 160.5,178.5C 160.5,177.167 160.5,175.833 160.5,174.5C 160.692,171.399 161.358,168.399 162.5,165.5C 162.376,164.893 162.043,164.56 161.5,164.5C 162.234,163.292 162.567,161.959 162.5,160.5C 164.432,157.591 166.099,154.424 167.5,151C 167.272,150.601 166.938,150.435 166.5,150.5C 167.234,149.292 167.567,147.959 167.5,146.5C 168.222,146.918 168.722,147.584 169,148.5C 175.664,137.337 185.164,129.671 197.5,125.5 Z"/></g>
<g><path style="opacity:1" fill="#161303" d="M 171.5,133.5 C 172.833,133.5 174.167,133.5 175.5,133.5C 175.114,137.738 173.448,138.404 170.5,135.5C 170.863,134.817 171.196,134.15 171.5,133.5 Z"/></g>
<g><path style="opacity:1" fill="#1d1905" d="M 276.5,132.5 C 279.487,132.948 280.487,134.448 279.5,137C 275.707,137.487 274.707,135.987 276.5,132.5 Z"/></g>
<g><path style="opacity:1" fill="#20ac7a" d="M 234.5,147.5 C 234.665,151.182 234.499,154.848 234,158.5C 233.79,156.942 233.29,155.609 232.5,154.5C 228.817,148.692 224.317,148.026 219,152.5C 215.729,159.212 217.729,163.212 225,164.5C 228.851,164.669 231.351,163.003 232.5,159.5C 233.097,159.735 233.43,160.235 233.5,161C 231.194,167.476 226.861,171.643 220.5,173.5C 212.607,164.807 211.441,155.14 217,144.5C 224.286,135.185 230.119,136.185 234.5,147.5 Z"/></g>
<g><path style="opacity:1" fill="#ad9f02" d="M 250.5,143.5 C 246.351,142.92 242.684,143.586 239.5,145.5C 238.596,144.791 238.263,143.791 238.5,142.5C 242.702,142.183 246.702,142.517 250.5,143.5 Z"/></g>
<g><path style="opacity:1" fill="#f5e002" d="M 209.5,165.5 C 205.366,166.485 201.032,166.818 196.5,166.5C 190.554,162.098 189.054,156.432 192,149.5C 197.385,142.751 204.218,140.751 212.5,143.5C 208.628,150.414 207.628,157.747 209.5,165.5 Z"/></g>
<g><path style="opacity:1" fill="#fce602" d="M 250.5,143.5 C 250.833,143.5 251.167,143.5 251.5,143.5C 254.564,153.366 251.564,160.699 242.5,165.5C 241.893,165.376 241.56,165.043 241.5,164.5C 243.028,157.922 242.362,151.589 239.5,145.5C 242.684,143.586 246.351,142.92 250.5,143.5 Z"/></g>
<g><path style="opacity:1" fill="#f3c000" d="M 251.5,143.5 C 258.861,146.897 261.361,152.564 259,160.5C 254.884,167.495 248.718,170.162 240.5,168.5C 240.232,166.901 240.566,165.568 241.5,164.5C 241.56,165.043 241.893,165.376 242.5,165.5C 251.564,160.699 254.564,153.366 251.5,143.5 Z"/></g>
<g><path style="opacity:1" fill="#1e1a05" d="M 167.5,146.5 C 167.567,147.959 167.234,149.292 166.5,150.5C 165.448,150.649 164.448,150.483 163.5,150C 162.097,145.906 163.43,144.74 167.5,146.5 Z"/></g>
<g><path style="opacity:1" fill="#0e0c00" d="M 287.5,146.5 C 287.5,147.5 287.5,148.5 287.5,149.5C 285.491,151 284.158,150.5 283.5,148C 284.158,145.5 285.491,145 287.5,146.5 Z"/></g>
<g><path style="opacity:1" fill="#040805" d="M 232.5,154.5 C 232.5,156.167 232.5,157.833 232.5,159.5C 231.351,163.003 228.851,164.669 225,164.5C 217.729,163.212 215.729,159.212 219,152.5C 224.317,148.026 228.817,148.692 232.5,154.5 Z"/></g>
<g><path style="opacity:1" fill="#048959" d="M 234.5,147.5 C 239.181,158.504 236.848,168.004 227.5,176C 224.522,176.833 222.189,176 220.5,173.5C 226.861,171.643 231.194,167.476 233.5,161C 233.43,160.235 233.097,159.735 232.5,159.5C 232.5,157.833 232.5,156.167 232.5,154.5C 233.29,155.609 233.79,156.942 234,158.5C 234.499,154.848 234.665,151.182 234.5,147.5 Z"/></g>
<g><path style="opacity:1" fill="#dd3945" d="M 223.5,154.5 C 228.587,154.284 229.587,156.118 226.5,160C 222.537,160.118 221.537,158.284 223.5,154.5 Z"/></g>
<g><path style="opacity:1" fill="#181504" d="M 162.5,160.5 C 162.567,161.959 162.234,163.292 161.5,164.5C 159.654,164.778 158.32,164.111 157.5,162.5C 158.415,159.651 160.082,158.985 162.5,160.5 Z"/></g>
<g><path style="opacity:1" fill="#151103" d="M 292.5,160.5 C 292.5,161.5 292.5,162.5 292.5,163.5C 290.623,164.928 289.289,164.428 288.5,162C 289.289,159.572 290.623,159.072 292.5,160.5 Z"/></g>
<g><path style="opacity:1" fill="#e3b400" d="M 209.5,165.5 C 210.404,166.209 210.737,167.209 210.5,168.5C 206.486,168.666 202.486,168.499 198.5,168C 197.584,167.722 196.918,167.222 196.5,166.5C 201.032,166.818 205.366,166.485 209.5,165.5 Z"/></g>
<g><path style="opacity:1" fill="#fae602" d="M 251.5,173.5 C 254.263,173.744 256.429,175.077 258,177.5C 268.927,191.284 271.427,206.284 265.5,222.5C 260.265,218.245 254.265,215.411 247.5,214C 232.164,214.584 216.831,214.584 201.5,214C 190.698,216.474 182.865,222.641 178,232.5C 175.246,221.313 174.246,209.979 175,198.5C 177.856,186.781 184.19,177.448 194,170.5C 195.419,171.46 196.919,172.293 198.5,173C 203.533,173.171 208.533,173.671 213.5,174.5C 206.372,183.793 207.372,192.293 216.5,200C 233.721,205.122 241.887,198.622 241,180.5C 240.117,177.898 238.617,175.731 236.5,174C 241.489,173.501 246.489,173.334 251.5,173.5 Z"/></g>
<g><path style="opacity:1" fill="#efbe00" d="M 265.5,222.5 C 271.427,206.284 268.927,191.284 258,177.5C 256.429,175.077 254.263,173.744 251.5,173.5C 252.937,172.275 254.604,171.275 256.5,170.5C 269.18,179.523 275.847,191.856 276.5,207.5C 275.552,215.856 274.385,224.19 273,232.5C 271.053,228.724 268.553,225.39 265.5,222.5 Z"/></g>
<g><path style="opacity:1" fill="#0d0a01" d="M 160.5,174.5 C 160.5,175.833 160.5,177.167 160.5,178.5C 159.5,178.5 158.5,178.5 157.5,178.5C 155.965,175.67 156.965,174.337 160.5,174.5 Z"/></g>
<g><path style="opacity:1" fill="#141101" d="M 290.5,174.5 C 294.161,174.35 295.161,175.85 293.5,179C 292.551,179.617 291.718,179.451 291,178.5C 290.51,177.207 290.343,175.873 290.5,174.5 Z"/></g>
<g><path style="opacity:1" fill="#f54452" d="M 229.5,180.5 C 229.166,187.855 225.499,192.521 218.5,194.5C 212.428,189.462 211.928,183.796 217,177.5C 219.411,179.578 222.078,181.245 225,182.5C 226.585,181.956 228.085,181.289 229.5,180.5 Z"/></g>
<g><path style="opacity:1" fill="#f42a38" d="M 218.5,194.5 C 225.499,192.521 229.166,187.855 229.5,180.5C 230.794,179.71 231.961,178.71 233,177.5C 236.799,182.015 237.466,187.015 235,192.5C 229.873,198.118 224.373,198.785 218.5,194.5 Z"/></g>
<g><path style="opacity:1" fill="#1a1605" d="M 161.5,189.5 C 162.234,190.708 162.567,192.041 162.5,193.5C 161.85,193.804 161.183,194.137 160.5,194.5C 156.327,191.855 156.66,190.188 161.5,189.5 Z"/></g>
<g><path style="opacity:1" fill="#161204" d="M 291.5,189.5 C 292.11,190.391 292.443,191.391 292.5,192.5C 291.998,194.085 290.998,194.585 289.5,194C 288.62,192.644 288.286,191.144 288.5,189.5C 289.5,189.5 290.5,189.5 291.5,189.5 Z"/></g>
<g><path style="opacity:1" fill="#edbd00" d="M 120.5,272.5 C 128.574,267.254 134.741,260.254 139,251.5C 140.11,245.574 139.444,239.908 137,234.5C 130.595,227.602 124.428,220.602 118.5,213.5C 114.187,205.786 113.687,197.786 117,189.5C 120.538,207.249 129.204,221.915 143,233.5C 147.072,238.132 148.405,243.465 147,249.5C 142.346,261.987 133.513,269.654 120.5,272.5 Z"/></g>
<g><path style="opacity:1" fill="#e7b800" d="M 102.5,217.5 C 95.5741,214.864 89.9074,210.531 85.5,204.5C 85.3398,202.801 85.5065,201.134 86,199.5C 90.3799,206.646 95.8799,212.646 102.5,217.5 Z"/></g>
<g><path style="opacity:1" fill="#161002" d="M 164.5,203.5 C 167.389,203.999 168.056,205.499 166.5,208C 165.552,208.483 164.552,208.649 163.5,208.5C 163.366,206.708 163.699,205.042 164.5,203.5 Z"/></g>
<g><path style="opacity:1" fill="#171404" d="M 284.5,203.5 C 289.34,204.188 289.673,205.855 285.5,208.5C 283.296,207.218 282.962,205.551 284.5,203.5 Z"/></g>
<g><path style="opacity:1" fill="#f8e302" d="M 85.5,204.5 C 89.9074,210.531 95.5741,214.864 102.5,217.5C 102.649,218.552 102.483,219.552 102,220.5C 99,222.167 96.6667,224.5 95,227.5C 94.8238,231.688 94.3238,235.688 93.5,239.5C 91.2382,232.176 86.2382,227.843 78.5,226.5C 81.6786,219.303 84.0119,211.97 85.5,204.5 Z"/></g>
<g><path style="opacity:1" fill="#e9ba00" d="M 93.5,279.5 C 92.1197,276.448 89.7864,274.282 86.5,273C 75.0018,274.51 67.1685,270.01 63,259.5C 62.6667,249.5 62.3333,239.5 62,229.5C 61.2504,225.581 59.917,221.915 58,218.5C 57.51,219.793 57.3433,221.127 57.5,222.5C 56.1477,217.242 54.981,211.908 54,206.5C 57.78,210.282 60.78,214.616 63,219.5C 64.2461,231.11 64.9127,242.776 65,254.5C 69.8154,267.483 78.9821,272.483 92.5,269.5C 94.404,272.855 94.7373,276.188 93.5,279.5 Z"/></g>
<g><path style="opacity:1" fill="#f7b883" d="M 208.5,305.5 C 237.598,306.885 255.765,293.551 263,265.5C 263.81,254.786 263.643,244.12 262.5,233.5C 251.087,225.357 238.587,223.357 225,227.5C 206.869,221.857 192.202,226.523 181,241.5C 180.5,250.827 180.334,260.161 180.5,269.5C 179.342,260.009 179.175,250.342 180,240.5C 184.181,225.99 193.848,218.657 209,218.5C 221.833,219.462 234.666,219.629 247.5,219C 258.424,221.594 265.924,228.094 270,238.5C 270.667,249.167 270.667,259.833 270,270.5C 262.697,297.777 244.864,310.277 216.5,308C 213.543,307.721 210.877,306.887 208.5,305.5 Z"/></g>
<g><path style="opacity:1" fill="#a4664e" d="M 342.5,232.5 C 333.351,232.156 329.851,236.49 332,245.5C 363.809,285.062 375.809,330.062 368,380.5C 366.301,381.406 364.467,381.739 362.5,381.5C 369.567,344.035 363.734,308.702 345,275.5C 339.333,267.167 333.667,258.833 328,250.5C 323.287,235.434 328.12,224.934 342.5,219C 347.921,218.161 353.254,218.494 358.5,220C 362.327,221.746 365.993,223.746 369.5,226C 372.576,228.612 373.243,231.779 371.5,235.5C 370.148,236.896 368.481,237.563 366.5,237.5C 361.734,235.618 357.067,233.451 352.5,231C 348.928,230.153 345.594,230.653 342.5,232.5 Z"/></g>
<g><path style="opacity:1" fill="#f7e202" d="M 93.5,279.5 C 79.3151,284.333 66.8151,281.666 56,271.5C 53.9711,268.448 52.8044,265.114 52.5,261.5C 53.84,253.806 55.34,246.139 57,238.5C 57.4994,233.177 57.666,227.844 57.5,222.5C 57.3433,221.127 57.51,219.793 58,218.5C 59.917,221.915 61.2504,225.581 62,229.5C 62.3333,239.5 62.6667,249.5 63,259.5C 67.1685,270.01 75.0018,274.51 86.5,273C 89.7864,274.282 92.1197,276.448 93.5,279.5 Z"/></g>
<g><path style="opacity:1" fill="#e8b900" d="M 102.5,217.5 C 103.627,218.122 104.627,218.955 105.5,220C 100.318,223.198 97.9846,227.864 98.5,234C 98.673,241.381 100.34,248.381 103.5,255C 102.128,255.402 100.795,255.902 99.5,256.5C 97.8018,250.761 95.8018,245.095 93.5,239.5C 94.3238,235.688 94.8238,231.688 95,227.5C 96.6667,224.5 99,222.167 102,220.5C 102.483,219.552 102.649,218.552 102.5,217.5 Z"/></g>
<g><path style="opacity:1" fill="#f7e202" d="M 118.5,213.5 C 124.428,220.602 130.595,227.602 137,234.5C 139.444,239.908 140.11,245.574 139,251.5C 134.741,260.254 128.574,267.254 120.5,272.5C 119.167,272.5 117.833,272.5 116.5,272.5C 115.674,268.864 115.008,265.197 114.5,261.5C 122.747,260.763 128.247,256.429 131,248.5C 131.667,244.5 131.667,240.5 131,236.5C 126.823,228.811 122.656,221.144 118.5,213.5 Z"/></g>
<g><path style="opacity:1" fill="#fcd0a3" d="M 208.5,305.5 C 192.048,299.047 182.714,287.047 180.5,269.5C 180.334,260.161 180.5,250.827 181,241.5C 192.202,226.523 206.869,221.857 225,227.5C 238.587,223.357 251.087,225.357 262.5,233.5C 263.643,244.12 263.81,254.786 263,265.5C 255.765,293.551 237.598,306.885 208.5,305.5 Z"/></g>
<g><path style="opacity:1" fill="#070504" d="M 223.5,232.5 C 224.833,232.5 226.167,232.5 227.5,232.5C 227.5,233.833 227.5,235.167 227.5,236.5C 226.167,236.5 224.833,236.5 223.5,236.5C 223.5,235.167 223.5,233.833 223.5,232.5 Z"/></g>
<g><path style="opacity:1" fill="#8f5842" d="M 342.5,232.5 C 338.912,235.738 337.745,239.738 339,244.5C 348.589,257.333 356.922,271 364,285.5C 377.772,316.733 381.272,349.067 374.5,382.5C 370.298,382.817 366.298,382.483 362.5,381.5C 364.467,381.739 366.301,381.406 368,380.5C 375.809,330.062 363.809,285.062 332,245.5C 329.851,236.49 333.351,232.156 342.5,232.5 Z"/></g>
<g><path style="opacity:1" fill="#f5b580" d="M 168.5,237.5 C 170.679,237.84 172.512,238.84 174,240.5C 174.5,246.825 174.666,253.158 174.5,259.5C 170.91,259.456 168.41,257.789 167,254.5C 166.333,249.5 166.333,244.5 167,239.5C 167.717,238.956 168.217,238.289 168.5,237.5 Z"/></g>
<g><path style="opacity:1" fill="#f7b782" d="M 280.5,237.5 C 281.458,237.953 282.292,238.619 283,239.5C 283.667,244.833 283.667,250.167 283,255.5C 281.154,258.007 278.654,259.341 275.5,259.5C 275.334,253.491 275.501,247.491 276,241.5C 277.397,239.93 278.897,238.596 280.5,237.5 Z"/></g>
<g><path style="opacity:1" fill="#14110e" d="M 190.5,246.5 C 195.988,249.127 201.488,249.127 207,246.5C 208.301,247.098 209.135,248.098 209.5,249.5C 208.221,251.146 206.555,252.313 204.5,253C 200.833,253.667 197.167,253.667 193.5,253C 189.864,251.899 188.864,249.732 190.5,246.5 Z"/></g>
<g><path style="opacity:1" fill="#13100d" d="M 242.5,246.5 C 248.052,249.077 253.552,249.077 259,246.5C 260.5,246.667 261.333,247.5 261.5,249C 260.48,251.026 258.813,252.359 256.5,253C 251.201,254.253 246.368,253.42 242,250.5C 241.421,249.072 241.588,247.738 242.5,246.5 Z"/></g>
<g><path style="opacity:1" fill="#f59135" d="M 108.5,260.5 C 107.837,264.518 106.67,268.518 105,272.5C 103.226,273.965 101.392,275.298 99.5,276.5C 98.0228,271.93 97.1895,267.263 97,262.5C 100.796,260.411 104.629,259.744 108.5,260.5 Z"/></g>
<g><path style="opacity:1" fill="#f1800c" d="M 108.5,260.5 C 109.72,264.04 110.886,267.706 112,271.5C 112.667,273.167 112.667,274.833 112,276.5C 108.369,278.407 104.535,279.241 100.5,279C 99.7476,278.329 99.4142,277.496 99.5,276.5C 101.392,275.298 103.226,273.965 105,272.5C 106.67,268.518 107.837,264.518 108.5,260.5 Z"/></g>
<g><path style="opacity:1" fill="#f3df02" d="M 168.5,263.5 C 170.764,264.219 173.097,264.552 175.5,264.5C 175.292,269.627 175.958,274.627 177.5,279.5C 169.963,281.152 165.963,277.986 165.5,270C 165.84,267.489 166.84,265.322 168.5,263.5 Z"/></g>
<g><path style="opacity:1" fill="#f7e202" d="M 282.5,264.5 C 282.682,271.163 279.682,275.497 273.5,277.5C 274.646,273.246 275.313,268.913 275.5,264.5C 278.041,263.897 280.374,263.897 282.5,264.5 Z"/></g>
<g><path style="opacity:1" fill="#e4b500" d="M 282.5,264.5 C 286.698,274.425 283.365,280.092 272.5,281.5C 272.232,279.901 272.566,278.568 273.5,277.5C 279.682,275.497 282.682,271.163 282.5,264.5 Z"/></g>
<g><path style="opacity:1" fill="#3b3a41" d="M 169.5,285.5 C 169.47,286.497 169.97,287.164 171,287.5C 174.056,288.077 177.056,288.743 180,289.5C 182.409,295.985 186.075,301.651 191,306.5C 194.44,310.487 193.94,313.987 189.5,317C 175.772,320.979 162.106,325.145 148.5,329.5C 147.893,329.376 147.56,329.043 147.5,328.5C 152.783,312.606 158.616,296.939 165,281.5C 166.667,282.733 168.167,284.067 169.5,285.5 Z"/></g>
<g><path style="opacity:1" fill="#2b2b2d" d="M 284.5,281.5 C 285.75,281.577 286.583,282.244 287,283.5C 293.631,300.73 299.631,318.064 305,335.5C 296.932,331.809 288.766,328.309 280.5,325C 276.314,324.427 272.147,324.594 268,325.5C 255.539,323.272 251.206,315.939 255,303.5C 261.596,298.906 266.762,293.073 270.5,286C 273.833,285.667 277.167,285.333 280.5,285C 282.324,284.34 283.657,283.173 284.5,281.5 Z"/></g>
<g><path style="opacity:1" fill="#e8d502" d="M 107.5,282.5 C 108.822,282.33 109.989,282.663 111,283.5C 116.392,303.846 121.892,324.18 127.5,344.5C 126.929,346.741 125.596,348.408 123.5,349.5C 117.732,327.928 111.732,306.428 105.5,285C 106.056,283.989 106.722,283.156 107.5,282.5 Z"/></g>
<g><path style="opacity:1" fill="#0f0c09" d="M 214.5,284.5 C 217.94,285.789 221.44,286.789 225,287.5C 228.586,287.376 231.919,286.376 235,284.5C 237.5,285.333 238,286.833 236.5,289C 229.111,293.359 221.778,293.359 214.5,289C 213.272,287.51 213.272,286.01 214.5,284.5 Z"/></g>
<g><path style="opacity:1" fill="#3b3a41" d="M 279.5,286.5 C 281.284,287.574 282.451,289.24 283,291.5C 287.633,303.4 291.633,315.4 295,327.5C 283.885,323.928 272.719,320.428 261.5,317C 257.708,314.947 256.542,311.781 258,307.5C 263.501,302.499 267.501,296.499 270,289.5C 273.367,288.867 276.534,287.867 279.5,286.5 Z"/></g>
<g><path style="opacity:1" fill="#2b2b2d" d="M 169.5,285.5 C 172.721,286.573 175.888,286.573 179,285.5C 183.241,293.076 188.908,299.41 196,304.5C 197.091,310.097 196.424,315.43 194,320.5C 192.421,322.041 190.587,323.208 188.5,324C 173.912,328.308 159.412,332.808 145,337.5C 144.93,334.214 145.764,331.214 147.5,328.5C 147.56,329.043 147.893,329.376 148.5,329.5C 162.106,325.145 175.772,320.979 189.5,317C 193.94,313.987 194.44,310.487 191,306.5C 186.075,301.651 182.409,295.985 180,289.5C 177.056,288.743 174.056,288.077 171,287.5C 169.97,287.164 169.47,286.497 169.5,285.5 Z"/></g>
<g><path style="opacity:1" fill="#fbba84" d="M 251.5,322.5 C 232.812,329.201 216.145,325.867 201.5,312.5C 201.238,311.022 201.571,309.689 202.5,308.5C 218.009,315.405 233.343,315.072 248.5,307.5C 249.083,312.638 250.083,317.638 251.5,322.5 Z"/></g>
<g><path style="opacity:1" fill="#f8cda0" d="M 201.5,312.5 C 216.145,325.867 232.812,329.201 251.5,322.5C 253.728,323.322 254.395,324.655 253.5,326.5C 241.52,333.929 228.52,336.429 214.5,334C 208.255,332.461 202.422,329.961 197,326.5C 199.344,322.297 200.844,317.63 201.5,312.5 Z"/></g>
<g><path style="opacity:1" fill="#e9b900" d="M 218.5,355.5 C 226.654,349.53 234.987,343.696 243.5,338C 242.906,337.536 242.239,337.369 241.5,337.5C 247.925,335.183 254.091,332.183 260,328.5C 261.225,328.862 262.391,329.362 263.5,330C 251.167,338.333 238.833,346.667 226.5,355C 223.854,355.497 221.187,355.664 218.5,355.5 Z"/></g>
<g><path style="opacity:1" fill="#f2c000" d="M 279.5,337.5 C 276.825,334.829 273.492,333.162 269.5,332.5C 271.031,330.32 273.198,329.32 276,329.5C 281.893,330.697 287.393,332.864 292.5,336C 288.083,336.228 283.75,336.728 279.5,337.5 Z"/></g>
<g><path style="opacity:1" fill="#f9e402" d="M 185.5,330.5 C 187.155,338.617 188.155,346.95 188.5,355.5C 189.019,361.201 190.685,366.534 193.5,371.5C 191.5,372.833 189.5,374.167 187.5,375.5C 187.278,372.924 185.945,372.09 183.5,373C 182.272,374.49 182.272,375.99 183.5,377.5C 181.469,379.522 179.135,381.189 176.5,382.5C 168.126,367.925 165.459,352.258 168.5,335.5C 174.044,333.365 179.711,331.698 185.5,330.5 Z"/></g>
<g><path style="opacity:1" fill="#a99b02" d="M 185.5,330.5 C 186.209,329.596 187.209,329.263 188.5,329.5C 188.5,338.167 188.5,346.833 188.5,355.5C 188.155,346.95 187.155,338.617 185.5,330.5 Z"/></g>
<g><path style="opacity:1" fill="#f9e402" d="M 194.5,330.5 C 209.053,339.695 224.72,342.028 241.5,337.5C 242.239,337.369 242.906,337.536 243.5,338C 234.987,343.696 226.654,349.53 218.5,355.5C 209.574,354.965 201.241,352.632 193.5,348.5C 193.177,342.31 193.51,336.31 194.5,330.5 Z"/></g>
<g><path style="opacity:1" fill="#f7e202" d="M 269.5,332.5 C 273.492,333.162 276.825,334.829 279.5,337.5C 273.078,339.996 269.245,344.663 268,351.5C 263.106,356.895 256.939,359.062 249.5,358C 247.5,359 245.5,360 243.5,361C 239.575,366.193 235.908,371.527 232.5,377C 225.833,378.667 219.167,380.333 212.5,382C 211.421,382.956 210.255,383.789 209,384.5C 206.865,389.235 204.365,393.735 201.5,398C 196.423,400.095 191.09,401.095 185.5,401C 178.492,403.344 174.326,408.177 173,415.5C 168.477,421.008 162.644,423.008 155.5,421.5C 154.428,414.549 156.428,408.715 161.5,404C 197.385,379.898 233.385,356.064 269.5,332.5 Z"/></g>
<g><path style="opacity:1" fill="#028b59" d="M 159.5,338.5 C 160.209,337.596 161.209,337.263 162.5,337.5C 160.425,356.04 164.425,373.04 174.5,388.5C 168.461,393.277 162.295,397.943 156,402.5C 155.578,400.574 154.411,399.574 152.5,399.5C 158.098,395.909 163.431,391.909 168.5,387.5C 165.246,381.504 162.746,375.171 161,368.5C 160.83,358.325 160.33,348.325 159.5,338.5 Z"/></g>
<g><path style="opacity:1" fill="#08a66c" d="M 159.5,338.5 C 160.33,348.325 160.83,358.325 161,368.5C 162.746,375.171 165.246,381.504 168.5,387.5C 163.431,391.909 158.098,395.909 152.5,399.5C 150.612,401.988 149.945,404.988 150.5,408.5C 139.167,408.5 127.833,408.5 116.5,408.5C 116.5,397.167 116.5,385.833 116.5,374.5C 119.061,360.101 127.061,349.934 140.5,344C 146.709,341.652 153.042,339.818 159.5,338.5 Z"/></g>
<g><path style="opacity:1" fill="#ef2937" d="M 335.5,440.5 C 332.946,441.388 330.279,441.721 327.5,441.5C 327.831,419.993 327.497,398.66 326.5,377.5C 326.5,376.833 326.5,376.167 326.5,375.5C 323.84,364.011 317.507,355.177 307.5,349C 302.408,346.454 297.408,343.954 292.5,341.5C 294.696,340.237 297.03,339.237 299.5,338.5C 305.369,340.513 311.035,343.013 316.5,346C 326.82,352.808 332.987,362.308 335,374.5C 335.5,396.497 335.667,418.497 335.5,440.5 Z"/></g>
<g><path style="opacity:1" fill="#171304" d="M 174.5,340.5 C 177.389,340.999 178.056,342.499 176.5,345C 175.552,345.483 174.552,345.649 173.5,345.5C 173.366,343.708 173.699,342.042 174.5,340.5 Z"/></g>
<g><path style="opacity:1" fill="#fb4654" d="M 292.5,341.5 C 297.408,343.954 302.408,346.454 307.5,349C 317.507,355.177 323.84,364.011 326.5,375.5C 324.167,373.889 322.5,374.389 321.5,377C 322.915,380.086 324.581,380.253 326.5,377.5C 327.497,398.66 327.831,419.993 327.5,441.5C 269.833,441.5 212.167,441.5 154.5,441.5C 155.445,436.595 155.779,431.595 155.5,426.5C 164.119,427.56 171.286,424.893 177,418.5C 177.746,413.838 179.913,410.005 183.5,407C 189.901,406.082 196.234,404.749 202.5,403C 204.333,401.167 206.167,399.333 208,397.5C 209.241,391.158 212.741,386.658 218.5,384C 227.066,385.211 234.232,382.711 240,376.5C 241.023,371.413 243.523,367.246 247.5,364C 253.912,363.083 260.246,361.749 266.5,360C 268,358.5 269.5,357 271,355.5C 273.777,344.19 280.944,339.523 292.5,341.5 Z"/></g>
<g><path style="opacity:1" fill="#675e01" d="M 194.5,330.5 C 193.51,336.31 193.177,342.31 193.5,348.5C 192.183,342.322 192.183,335.988 193.5,329.5C 194.107,329.624 194.44,329.957 194.5,330.5 Z"/></g>
<g><path style="opacity:1" fill="#1d1905" d="M 175.5,351.5 C 178.685,351.722 179.685,353.222 178.5,356C 174.707,356.487 173.707,354.987 175.5,351.5 Z"/></g>
<g><path style="opacity:1" fill="#069a64" d="M 193.5,354.5 C 200.919,357.439 208.585,359.606 216.5,361C 211.596,364.906 206.43,368.406 201,371.5C 195.826,367.142 193.326,361.475 193.5,354.5 Z"/></g>
<g><path style="opacity:1" fill="#1d0c0b" d="M 306.5,355.5 C 308.167,355.5 309.833,355.5 311.5,355.5C 311.5,356.833 311.5,358.167 311.5,359.5C 308.05,360.244 306.384,358.91 306.5,355.5 Z"/></g>
<g><path style="opacity:1" fill="#1e1b05" d="M 178.5,362.5 C 182.161,362.35 183.161,363.85 181.5,367C 177.707,367.487 176.707,365.987 178.5,362.5 Z"/></g>
<g><path style="opacity:1" fill="#080101" d="M 287.5,365.5 C 288.833,365.5 290.167,365.5 291.5,365.5C 291.5,366.833 291.5,368.167 291.5,369.5C 290.167,369.5 288.833,369.5 287.5,369.5C 287.5,368.167 287.5,366.833 287.5,365.5 Z"/></g>
<g><path style="opacity:1" fill="#f0bf00" d="M 193.5,371.5 C 194.837,372.315 195.837,373.482 196.5,375C 190.667,378.833 184.833,382.667 179,386.5C 178.338,385.016 177.504,383.683 176.5,382.5C 179.135,381.189 181.469,379.522 183.5,377.5C 185.38,377.771 186.713,377.104 187.5,375.5C 189.5,374.167 191.5,372.833 193.5,371.5 Z"/></g>
<g><path style="opacity:1" fill="#1d1805" d="M 187.5,375.5 C 186.713,377.104 185.38,377.771 183.5,377.5C 182.272,375.99 182.272,374.49 183.5,373C 185.945,372.09 187.278,372.924 187.5,375.5 Z"/></g>
<g><path style="opacity:1" fill="#240f0d" d="M 326.5,375.5 C 326.5,376.167 326.5,376.833 326.5,377.5C 324.581,380.253 322.915,380.086 321.5,377C 322.5,374.389 324.167,373.889 326.5,375.5 Z"/></g>
<g><path style="opacity:1" fill="#26100f" d="M 268.5,379.5 C 272.161,379.35 273.161,380.85 271.5,384C 267.707,384.487 266.707,382.987 268.5,379.5 Z"/></g>
<g><path style="opacity:1" fill="#1e0c0b" d="M 297.5,384.5 C 301.161,384.35 302.161,385.85 300.5,389C 299.551,389.617 298.718,389.451 298,388.5C 297.51,387.207 297.343,385.873 297.5,384.5 Z"/></g>
<g><path style="opacity:1" fill="#fbe602" d="M 370.5,387.5 C 370.877,394.257 370.377,400.924 369,407.5C 366.75,412.54 362.917,415.54 357.5,416.5C 357.334,407.161 357.5,397.827 358,388.5C 362.066,387.536 366.233,387.203 370.5,387.5 Z"/></g>
<g><path style="opacity:1" fill="#f8cf01" d="M 370.5,387.5 C 373.119,387.232 375.619,387.565 378,388.5C 378.075,398.508 377.575,408.508 376.5,418.5C 370.886,419.621 365.22,419.788 359.5,419C 358.244,418.583 357.577,417.75 357.5,416.5C 362.917,415.54 366.75,412.54 369,407.5C 370.377,400.924 370.877,394.257 370.5,387.5 Z"/></g>
<g><path style="opacity:1" fill="#1c0b0a" d="M 238.5,399.5 C 241.5,399.167 242.833,400.5 242.5,403.5C 238.56,404.234 237.227,402.901 238.5,399.5 Z"/></g>
<g><path style="opacity:1" fill="#281110" d="M 322.5,399.5 C 326.161,399.35 327.161,400.85 325.5,404C 321.707,404.487 320.707,402.987 322.5,399.5 Z"/></g>
<g><path style="opacity:1" fill="#200e0c" d="M 267.5,404.5 C 268.873,404.343 270.207,404.51 271.5,405C 272.474,407.702 271.474,409.035 268.5,409C 267.62,407.644 267.286,406.144 267.5,404.5 Z"/></g>
<g><path style="opacity:1" fill="#190908" d="M 292.5,404.5 C 293.833,404.5 295.167,404.5 296.5,404.5C 296.884,406.665 296.217,408.332 294.5,409.5C 292.783,408.332 292.116,406.665 292.5,404.5 Z"/></g>
<g><path style="opacity:1" fill="#045235" d="M 116.5,374.5 C 116.5,385.833 116.5,397.167 116.5,408.5C 127.833,408.5 139.167,408.5 150.5,408.5C 139.012,409.495 127.345,409.828 115.5,409.5C 115.172,397.655 115.505,385.988 116.5,374.5 Z"/></g>
<g><path style="opacity:1" fill="#7e7401" d="M 150.5,414.5 C 139.167,414.5 127.833,414.5 116.5,414.5C 116.5,417.5 116.5,420.5 116.5,423.5C 115.521,420.375 115.187,417.042 115.5,413.5C 127.345,413.172 139.012,413.505 150.5,414.5 Z"/></g>
<g><path style="opacity:1" fill="#fce703" d="M 150.5,414.5 C 150.5,417.5 150.5,420.5 150.5,423.5C 139.167,423.5 127.833,423.5 116.5,423.5C 116.5,420.5 116.5,417.5 116.5,414.5C 127.833,414.5 139.167,414.5 150.5,414.5 Z"/></g>
<g><path style="opacity:1" fill="#100404" d="M 208.5,414.5 C 209.833,414.5 211.167,414.5 212.5,414.5C 212.5,415.833 212.5,417.167 212.5,418.5C 211.167,418.5 209.833,418.5 208.5,418.5C 208.5,417.167 208.5,415.833 208.5,414.5 Z"/></g>
<g><path style="opacity:1" fill="#150706" d="M 243.5,424.5 C 244.833,424.5 246.167,424.5 247.5,424.5C 247.114,428.738 245.448,429.404 242.5,426.5C 242.863,425.817 243.196,425.15 243.5,424.5 Z"/></g>
<g><path style="opacity:1" fill="#1a0908" d="M 311.5,424.5 C 313.167,424.5 314.833,424.5 316.5,424.5C 316.65,428.161 315.15,429.161 312,427.5C 311.517,426.552 311.351,425.552 311.5,424.5 Z"/></g>
<g><path style="opacity:1" fill="#985d46" d="M 376.5,441.5 C 371.5,441.5 366.5,441.5 361.5,441.5C 362.452,435.925 362.786,430.259 362.5,424.5C 366.5,424.5 370.5,424.5 374.5,424.5C 374.334,429.511 374.501,434.511 375,439.5C 375.717,440.044 376.217,440.711 376.5,441.5 Z"/></g>
<g><path style="opacity:1" fill="#b49776" d="M 150.5,439.5 C 149.521,436.375 149.187,433.042 149.5,429.5C 138.5,429.5 127.5,429.5 116.5,429.5C 116.5,433.167 116.5,436.833 116.5,440.5C 116.167,440.5 115.833,440.5 115.5,440.5C 115.5,436.5 115.5,432.5 115.5,428.5C 127.167,428.5 138.833,428.5 150.5,428.5C 150.5,432.167 150.5,435.833 150.5,439.5 Z"/></g>
<g><path style="opacity:1" fill="#fdd0a2" d="M 150.5,439.5 C 150.833,440.167 151.167,440.833 151.5,441.5C 151.44,442.043 151.107,442.376 150.5,442.5C 139.038,441.853 127.705,441.187 116.5,440.5C 116.5,436.833 116.5,433.167 116.5,429.5C 127.5,429.5 138.5,429.5 149.5,429.5C 149.187,433.042 149.521,436.375 150.5,439.5 Z"/></g>
<g><path style="opacity:1" fill="#190a08" d="M 179.5,429.5 C 180.833,429.5 182.167,429.5 183.5,429.5C 183.5,430.833 183.5,432.167 183.5,433.5C 179.56,434.234 178.227,432.901 179.5,429.5 Z"/></g>
<g><path style="opacity:1" fill="#0b0202" d="M 282.5,429.5 C 283.833,429.5 285.167,429.5 286.5,429.5C 286.5,430.833 286.5,432.167 286.5,433.5C 285.167,433.5 283.833,433.5 282.5,433.5C 282.5,432.167 282.5,430.833 282.5,429.5 Z"/></g>
<g><path style="opacity:1" fill="#1b0a09" d="M 219.5,433.5 C 222.084,434.048 223.084,435.715 222.5,438.5C 221.167,438.5 219.833,438.5 218.5,438.5C 218.366,436.708 218.699,435.042 219.5,433.5 Z"/></g>
</svg>
