<?xml version="1.0" encoding="UTF-8"?>
<!DOCTYPE svg PUBLIC "-//W3C//DTD SVG 1.1//EN" "http://www.w3.org/Graphics/SVG/1.1/DTD/svg11.dtd">
<svg xmlns="http://www.w3.org/2000/svg" version="1.1" width="512px" height="512px" style="shape-rendering:geometricPrecision; text-rendering:geometricPrecision; image-rendering:optimizeQuality; fill-rule:evenodd; clip-rule:evenodd" xmlns:xlink="http://www.w3.org/1999/xlink">
<g><path style="opacity:0.994" fill="#fcf38a" d="M 404.5,127.5 C 386.794,127.457 371.294,133.123 358,144.5C 355.289,147.933 353.123,151.6 351.5,155.5C 351.768,153.901 351.434,152.568 350.5,151.5C 348.963,143.759 345.796,136.759 341,130.5C 330.604,118.403 318.104,109.403 303.5,103.5C 303.806,100.615 303.473,97.9479 302.5,95.5C 299.806,80.7727 292.14,69.4394 279.5,61.5C 279.5,58.8333 279.5,56.1667 279.5,53.5C 275.602,35.5399 264.602,28.7066 246.5,33C 237.826,37.1702 232.826,44.0035 231.5,53.5C 231.5,56.1667 231.5,58.8333 231.5,61.5C 218.848,69.4743 211.181,80.8077 208.5,95.5C 207.527,97.9479 207.194,100.615 207.5,103.5C 192.896,109.403 180.396,118.403 170,130.5C 165.204,136.759 162.037,143.759 160.5,151.5C 159.566,152.568 159.232,153.901 159.5,155.5C 153.275,142.472 142.941,134.305 128.5,131C 121.246,129.291 113.912,128.124 106.5,127.5C 119.376,73.4544 151.709,36.2877 203.5,16C 269.052,-4.07232 325.218,10.761 372,60.5C 388.163,80.1613 398.996,102.495 404.5,127.5 Z"/></g>
<g><path style="opacity:0.998" fill="#353a40" d="M 279.5,53.5 C 263.459,45.5785 247.459,45.5785 231.5,53.5C 232.826,44.0035 237.826,37.1702 246.5,33C 264.602,28.7066 275.602,35.5399 279.5,53.5 Z"/></g>
<g><path style="opacity:1" fill="#23272b" d="M 279.5,53.5 C 279.5,56.1667 279.5,58.8333 279.5,61.5C 263.475,53.5564 247.475,53.5564 231.5,61.5C 231.5,58.8333 231.5,56.1667 231.5,53.5C 247.459,45.5785 263.459,45.5785 279.5,53.5 Z"/></g>
<g><path style="opacity:0.999" fill="#333940" d="M 279.5,61.5 C 292.14,69.4394 299.806,80.7727 302.5,95.5C 271.16,84.8339 239.826,84.8339 208.5,95.5C 211.181,80.8077 218.848,69.4743 231.5,61.5C 247.475,53.5564 263.475,53.5564 279.5,61.5 Z"/></g>
<g><path style="opacity:1" fill="#23272b" d="M 302.5,95.5 C 303.473,97.9479 303.806,100.615 303.5,103.5C 288.832,99.0333 273.832,96.3667 258.5,95.5C 256.5,95.5 254.5,95.5 252.5,95.5C 237.174,96.3654 222.174,99.0321 207.5,103.5C 207.194,100.615 207.527,97.9479 208.5,95.5C 239.826,84.8339 271.16,84.8339 302.5,95.5 Z"/></g>
<g><path style="opacity:1" fill="#ffd2c5" d="M 106.5,127.5 C 113.912,128.124 121.246,129.291 128.5,131C 142.941,134.305 153.275,142.472 159.5,155.5C 159.5,157.833 159.5,160.167 159.5,162.5C 159.5,164.833 159.5,167.167 159.5,169.5C 159.631,170.239 159.464,170.906 159,171.5C 154.464,161.299 146.964,154.132 136.5,150C 119.903,144.967 102.903,142.633 85.5,143C 57.6939,136.9 31.6939,126.4 7.5,111.5C 7.17182,106.125 7.50515,100.792 8.5,95.5C 32.1691,109.835 57.5025,120.002 84.5,126C 91.8063,126.942 99.1396,127.442 106.5,127.5 Z"/></g>
<g><path style="opacity:0.999" fill="#343a40" d="M 252.5,95.5 C 243.351,101.647 236.351,109.647 231.5,119.5C 209.973,119.177 190.306,125.01 172.5,137C 167.503,141.149 163.503,145.983 160.5,151.5C 162.037,143.759 165.204,136.759 170,130.5C 180.396,118.403 192.896,109.403 207.5,103.5C 222.174,99.0321 237.174,96.3654 252.5,95.5 Z"/></g>
<g><path style="opacity:1" fill="#c28b06" d="M 252.5,95.5 C 254.5,95.5 256.5,95.5 258.5,95.5C 267.649,101.647 274.649,109.647 279.5,119.5C 279.014,121.952 279.014,124.618 279.5,127.5C 279.208,130.376 279.208,133.043 279.5,135.5C 279.167,135.5 278.833,135.5 278.5,135.5C 269.819,150.893 257.486,154.726 241.5,147C 237.975,144.099 235.308,140.599 233.5,136.5C 233.158,135.662 232.492,135.328 231.5,135.5C 231.792,133.043 231.792,130.376 231.5,127.5C 231.986,124.618 231.986,121.952 231.5,119.5C 236.351,109.647 243.351,101.647 252.5,95.5 Z"/></g>
<g><path style="opacity:0.999" fill="#343a40" d="M 258.5,95.5 C 273.832,96.3667 288.832,99.0333 303.5,103.5C 318.104,109.403 330.604,118.403 341,130.5C 345.796,136.759 348.963,143.759 350.5,151.5C 343.526,139.818 333.526,131.652 320.5,127C 307.335,121.734 293.668,119.234 279.5,119.5C 274.649,109.647 267.649,101.647 258.5,95.5 Z"/></g>
<g><path style="opacity:1" fill="#ffd3c5" d="M 503.5,111.5 C 478.962,126.434 452.628,136.934 424.5,143C 408.127,142.243 392.127,144.243 376.5,149C 365.103,153.236 356.77,160.736 351.5,171.5C 350.662,171.158 350.328,170.492 350.5,169.5C 351.468,167.393 351.802,165.059 351.5,162.5C 351.5,160.167 351.5,157.833 351.5,155.5C 353.123,151.6 355.289,147.933 358,144.5C 371.294,133.123 386.794,127.457 404.5,127.5C 428.454,127.345 451.121,121.845 472.5,111C 482.657,106.089 492.657,100.922 502.5,95.5C 503.495,100.792 503.828,106.125 503.5,111.5 Z"/></g>
<g><path style="opacity:1" fill="#feef67" d="M 270.5,121.5 C 266.642,132.749 258.975,136.249 247.5,132C 243.734,129.41 241.4,125.91 240.5,121.5C 242.583,113.082 247.583,107.082 255.5,103.5C 263.417,107.082 268.417,113.082 270.5,121.5 Z"/></g>
<g><path style="opacity:0.998" fill="#feae94" d="M 7.5,111.5 C 31.6939,126.4 57.6939,136.9 85.5,143C 102.903,142.633 119.903,144.967 136.5,150C 146.964,154.132 154.464,161.299 159,171.5C 159.464,170.906 159.631,170.239 159.5,169.5C 166.226,156.619 176.559,147.785 190.5,143C 203.668,137.733 217.335,135.233 231.5,135.5C 232.492,135.328 233.158,135.662 233.5,136.5C 222.379,137.947 211.712,140.947 201.5,145.5C 189.527,150.306 181.027,158.64 176,170.5C 175.333,195.833 175.333,221.167 176,246.5C 177.267,255.365 180.933,263.031 187,269.5C 193.242,260.637 201.742,257.471 212.5,260C 216.101,260.94 219.601,262.107 223,263.5C 223.5,275.495 223.667,287.495 223.5,299.5C 213.423,285.128 199.423,278.128 181.5,278.5C 175.112,275.8 170.112,271.467 166.5,265.5C 163.499,259.825 161.332,253.825 160,247.5C 159.5,226.169 159.333,204.836 159.5,183.5C 154.167,183.5 148.833,183.5 143.5,183.5C 142.569,195.921 135.903,201.087 123.5,199C 117.667,197.167 113.833,193.333 112,187.5C 113.38,175.412 108.213,167.912 96.5,165C 74.6754,160.67 53.6754,153.836 33.5,144.5C 32.7025,144.957 32.3691,145.624 32.5,146.5C 28.6105,143.207 24.2771,140.373 19.5,138C 11.2792,131.06 7.27916,122.226 7.5,111.5 Z"/></g>
<g><path style="opacity:1" fill="#f7f9f2" d="M 258.5,111.5 C 263.796,111.611 265.796,114.111 264.5,119C 258.946,119.283 256.946,116.783 258.5,111.5 Z"/></g>
<g><path style="opacity:0.997" fill="#ffae94" d="M 503.5,111.5 C 503.721,122.226 499.721,131.06 491.5,138C 486.723,140.373 482.39,143.207 478.5,146.5C 478.631,145.624 478.298,144.957 477.5,144.5C 455.197,154.101 432.197,161.601 408.5,167C 405.333,168.833 402.833,171.333 401,174.5C 400.172,180.301 398.839,185.967 397,191.5C 389.869,200.301 381.369,201.801 371.5,196C 369.011,192.214 367.678,188.047 367.5,183.5C 362.167,183.5 356.833,183.5 351.5,183.5C 351.5,179.5 351.5,175.5 351.5,171.5C 356.77,160.736 365.103,153.236 376.5,149C 392.127,144.243 408.127,142.243 424.5,143C 452.628,136.934 478.962,126.434 503.5,111.5 Z"/></g>
<g><path style="opacity:1" fill="#ebb00d" d="M 231.5,119.5 C 231.986,121.952 231.986,124.618 231.5,127.5C 209.376,127.191 189.376,133.358 171.5,146C 166.121,150.629 162.121,156.129 159.5,162.5C 159.5,160.167 159.5,157.833 159.5,155.5C 159.232,153.901 159.566,152.568 160.5,151.5C 163.503,145.983 167.503,141.149 172.5,137C 190.306,125.01 209.973,119.177 231.5,119.5 Z"/></g>
<g><path style="opacity:1" fill="#ebb00d" d="M 279.5,119.5 C 293.668,119.234 307.335,121.734 320.5,127C 333.526,131.652 343.526,139.818 350.5,151.5C 351.434,152.568 351.768,153.901 351.5,155.5C 351.5,157.833 351.5,160.167 351.5,162.5C 345.983,150.487 336.983,141.987 324.5,137C 310.086,131.084 295.086,127.917 279.5,127.5C 279.014,124.618 279.014,121.952 279.5,119.5 Z"/></g>
<g><path style="opacity:1" fill="#fdc60a" d="M 240.5,121.5 C 241.4,125.91 243.734,129.41 247.5,132C 258.975,136.249 266.642,132.749 270.5,121.5C 272.504,135.672 266.171,142.506 251.5,142C 241.789,138.183 238.123,131.349 240.5,121.5 Z"/></g>
<g><path style="opacity:1" fill="#e4a303" d="M 231.5,127.5 C 231.792,130.376 231.792,133.043 231.5,135.5C 217.335,135.233 203.668,137.733 190.5,143C 176.559,147.785 166.226,156.619 159.5,169.5C 159.5,167.167 159.5,164.833 159.5,162.5C 162.121,156.129 166.121,150.629 171.5,146C 189.376,133.358 209.376,127.191 231.5,127.5 Z"/></g>
<g><path style="opacity:1" fill="#e5a306" d="M 279.5,127.5 C 295.086,127.917 310.086,131.084 324.5,137C 336.983,141.987 345.983,150.487 351.5,162.5C 351.802,165.059 351.468,167.393 350.5,169.5C 348.291,162.777 344.291,157.277 338.5,153C 320.697,141.011 301.03,135.178 279.5,135.5C 279.208,133.043 279.208,130.376 279.5,127.5 Z"/></g>
<g><path style="opacity:1" fill="#feeeea" d="M 278.5,135.5 C 278.833,135.5 279.167,135.5 279.5,135.5C 301.03,135.178 320.697,141.011 338.5,153C 344.291,157.277 348.291,162.777 350.5,169.5C 350.328,170.492 350.662,171.158 351.5,171.5C 351.5,175.5 351.5,179.5 351.5,183.5C 351.5,202.833 351.5,222.167 351.5,241.5C 350.549,242.919 350.216,244.585 350.5,246.5C 345.5,246.5 340.5,246.5 335.5,246.5C 335.5,222.833 335.5,199.167 335.5,175.5C 341.665,176.171 344.165,173.504 343,167.5C 340.402,161.285 335.902,158.952 329.5,160.5C 323.312,153.061 315.645,147.561 306.5,144C 297.147,140.834 287.814,138.001 278.5,135.5 Z"/></g>
<g><path style="opacity:1" fill="#fee1d8" d="M 278.5,135.5 C 287.814,138.001 297.147,140.834 306.5,144C 315.645,147.561 323.312,153.061 329.5,160.5C 326.667,167.198 328.667,172.198 335.5,175.5C 335.5,199.167 335.5,222.833 335.5,246.5C 340.5,246.5 345.5,246.5 350.5,246.5C 350.216,244.585 350.549,242.919 351.5,241.5C 351.02,250.097 348.686,258.097 344.5,265.5C 340.888,271.467 335.888,275.8 329.5,278.5C 328.5,278.5 327.5,278.5 326.5,278.5C 326.416,275.673 325.75,273.006 324.5,270.5C 330.308,263.209 333.641,254.876 334.5,245.5C 290.816,241.24 253.983,223.24 224,191.5C 213.042,177.916 205.542,162.583 201.5,145.5C 211.712,140.947 222.379,137.947 233.5,136.5C 235.308,140.599 237.975,144.099 241.5,147C 257.486,154.726 269.819,150.893 278.5,135.5 Z"/></g>
<g><path style="opacity:1" fill="#ff8861" d="M 478.5,146.5 C 477.167,151.833 475.834,157.166 474.5,162.5C 451.804,170.899 428.804,178.399 405.5,185C 403.622,186.543 402.122,188.376 401,190.5C 400.258,196.737 398.758,202.737 396.5,208.5C 391.319,215.074 384.653,217.074 376.5,214.5C 375.668,225.151 375.168,235.818 375,246.5C 373.273,257.295 368.439,266.295 360.5,273.5C 354.922,271.238 349.588,268.571 344.5,265.5C 348.686,258.097 351.02,250.097 351.5,241.5C 351.5,222.167 351.5,202.833 351.5,183.5C 356.833,183.5 362.167,183.5 367.5,183.5C 367.678,188.047 369.011,192.214 371.5,196C 381.369,201.801 389.869,200.301 397,191.5C 398.839,185.967 400.172,180.301 401,174.5C 402.833,171.333 405.333,168.833 408.5,167C 432.197,161.601 455.197,154.101 477.5,144.5C 478.298,144.957 478.631,145.624 478.5,146.5 Z"/></g>
<g><path style="opacity:1" fill="#ff8861" d="M 166.5,265.5 C 161.412,268.571 156.078,271.238 150.5,273.5C 142.577,266.331 137.744,257.331 136,246.5C 135.5,235.839 135.333,225.172 135.5,214.5C 123.977,217.49 116.144,213.49 112,202.5C 112.356,189.183 105.856,181.683 92.5,180C 73.2651,175.865 54.5985,170.032 36.5,162.5C 35.1665,157.166 33.8331,151.833 32.5,146.5C 32.3691,145.624 32.7025,144.957 33.5,144.5C 53.6754,153.836 74.6754,160.67 96.5,165C 108.213,167.912 113.38,175.412 112,187.5C 113.833,193.333 117.667,197.167 123.5,199C 135.903,201.087 142.569,195.921 143.5,183.5C 148.833,183.5 154.167,183.5 159.5,183.5C 159.333,204.836 159.5,226.169 160,247.5C 161.332,253.825 163.499,259.825 166.5,265.5 Z"/></g>
<g><path style="opacity:1" fill="#fed3c6" d="M 201.5,145.5 C 205.542,162.583 213.042,177.916 224,191.5C 253.983,223.24 290.816,241.24 334.5,245.5C 333.641,254.876 330.308,263.209 324.5,270.5C 318.216,260.673 309.216,257.173 297.5,260C 293.961,260.679 290.628,261.846 287.5,263.5C 275.416,267.753 267.583,276.086 264,288.5C 263.333,310.833 263.333,333.167 264,355.5C 265.166,360.841 267,365.841 269.5,370.5C 269.5,370.833 269.5,371.167 269.5,371.5C 261.265,381.992 256.932,393.992 256.5,407.5C 239.89,398.7 229.39,385.034 225,366.5C 223.795,358.881 223.295,351.214 223.5,343.5C 223.5,339.5 223.5,335.5 223.5,331.5C 223.5,326.167 223.5,320.833 223.5,315.5C 223.5,310.167 223.5,304.833 223.5,299.5C 223.667,287.495 223.5,275.495 223,263.5C 219.601,262.107 216.101,260.94 212.5,260C 201.742,257.471 193.242,260.637 187,269.5C 180.933,263.031 177.267,255.365 176,246.5C 175.333,221.167 175.333,195.833 176,170.5C 181.027,158.64 189.527,150.306 201.5,145.5 Z"/></g>
<g><path style="opacity:1" fill="#f6f9fc" d="M 335.5,175.5 C 328.667,172.198 326.667,167.198 329.5,160.5C 335.902,158.952 340.402,161.285 343,167.5C 344.165,173.504 341.665,176.171 335.5,175.5 Z"/></g>
<g><path style="opacity:0.995" fill="#ffbaa5" d="M 36.5,162.5 C 54.5985,170.032 73.2651,175.865 92.5,180C 105.856,181.683 112.356,189.183 112,202.5C 116.144,213.49 123.977,217.49 135.5,214.5C 135.333,225.172 135.5,235.839 136,246.5C 137.744,257.331 142.577,266.331 150.5,273.5C 124.423,286.868 97.0897,290.368 68.5,284C 54.1513,274.848 45.6513,261.681 43,244.5C 41.5653,237.225 40.5653,229.892 40,222.5C 39.6667,209.167 39.3333,195.833 39,182.5C 38.7155,175.741 37.8822,169.075 36.5,162.5 Z"/></g>
<g><path style="opacity:0.998" fill="#ffe1d8" d="M 474.5,162.5 C 472.855,182.783 471.688,203.117 471,223.5C 470.367,230.963 469.2,238.296 467.5,245.5C 439.425,241.298 415.758,228.965 396.5,208.5C 398.758,202.737 400.258,196.737 401,190.5C 402.122,188.376 403.622,186.543 405.5,185C 428.804,178.399 451.804,170.899 474.5,162.5 Z"/></g>
<g><path style="opacity:1" fill="#851f32" d="M 252.5,167.5 C 260.658,166.823 264.158,170.49 263,178.5C 260.774,182.861 257.274,184.361 252.5,183C 248.139,180.774 246.639,177.274 248,172.5C 249.025,170.313 250.525,168.646 252.5,167.5 Z"/></g>
<g><path style="opacity:1" fill="#393d44" d="M 191.5,195.5 C 205.501,197.417 216.668,204.084 225,215.5C 226.707,217.909 227.54,220.575 227.5,223.5C 224.753,223.813 222.086,223.48 219.5,222.5C 213.226,211.694 203.893,205.36 191.5,203.5C 191.5,200.833 191.5,198.167 191.5,195.5 Z"/></g>
<g><path style="opacity:1" fill="#393e44" d="M 313.5,195.5 C 315.5,195.5 317.5,195.5 319.5,195.5C 319.5,198.167 319.5,200.833 319.5,203.5C 307.107,205.36 297.774,211.694 291.5,222.5C 288.914,223.48 286.247,223.813 283.5,223.5C 284.981,216.387 288.648,210.554 294.5,206C 300.316,201.428 306.649,197.928 313.5,195.5 Z"/></g>
<g><path style="opacity:0.995" fill="#ffd3c6" d="M 396.5,208.5 C 415.758,228.965 439.425,241.298 467.5,245.5C 459.141,282.203 436.475,295.703 399.5,286C 385.715,283.904 372.715,279.737 360.5,273.5C 368.439,266.295 373.273,257.295 375,246.5C 375.168,235.818 375.668,225.151 376.5,214.5C 384.653,217.074 391.319,215.074 396.5,208.5 Z"/></g>
<g><path style="opacity:1" fill="#feae93" d="M 324.5,270.5 C 325.75,273.006 326.416,275.673 326.5,278.5C 309.827,278.998 296.827,285.998 287.5,299.5C 287.5,287.5 287.5,275.5 287.5,263.5C 290.628,261.846 293.961,260.679 297.5,260C 309.216,257.173 318.216,260.673 324.5,270.5 Z"/></g>
<g><path style="opacity:1" fill="#ffe1d8" d="M 287.5,263.5 C 287.5,275.5 287.5,287.5 287.5,299.5C 287.5,304.833 287.5,310.167 287.5,315.5C 287.5,320.833 287.5,326.167 287.5,331.5C 287.5,335.5 287.5,339.5 287.5,343.5C 287.963,346.482 288.296,349.482 288.5,352.5C 280.878,357.121 274.545,363.121 269.5,370.5C 267,365.841 265.166,360.841 264,355.5C 263.333,333.167 263.333,310.833 264,288.5C 267.583,276.086 275.416,267.753 287.5,263.5 Z"/></g>
<g><path style="opacity:1" fill="#c38b01" d="M 181.5,278.5 C 199.423,278.128 213.423,285.128 223.5,299.5C 223.5,304.833 223.5,310.167 223.5,315.5C 219.944,308.702 214.611,303.702 207.5,300.5C 203.902,298.91 200.236,297.41 196.5,296C 187.287,296.209 179.287,293.376 172.5,287.5C 170.15,285.787 169.15,283.453 169.5,280.5C 170.791,280.737 171.791,280.404 172.5,279.5C 175.713,279.81 178.713,279.477 181.5,278.5 Z"/></g>
<g><path style="opacity:1" fill="#c38b01" d="M 326.5,278.5 C 327.5,278.5 328.5,278.5 329.5,278.5C 334.193,278.54 338.859,278.873 343.5,279.5C 343.784,281.415 343.451,283.081 342.5,284.5C 342.631,283.761 342.464,283.094 342,282.5C 340.906,284.078 340.072,285.745 339.5,287.5C 332.232,293.201 323.899,296.034 314.5,296C 310.626,297.049 306.959,298.549 303.5,300.5C 296.389,303.702 291.056,308.702 287.5,315.5C 287.5,310.167 287.5,304.833 287.5,299.5C 296.827,285.998 309.827,278.998 326.5,278.5 Z"/></g>
<g><path style="opacity:0.998" fill="#feae93" d="M 343.5,279.5 C 349.095,279.754 354.428,280.754 359.5,282.5C 358.093,299.646 351.093,313.979 338.5,325.5C 338.167,325.5 337.833,325.5 337.5,325.5C 333.194,321.86 329.194,317.86 325.5,313.5C 334.879,306.096 340.545,296.43 342.5,284.5C 343.451,283.081 343.784,281.415 343.5,279.5 Z"/></g>
<g><path style="opacity:1" fill="#748d28" d="M 156.5,282.5 C 157.5,282.5 158.5,282.5 159.5,282.5C 159.793,292.544 160.293,302.544 161,312.5C 155.433,303.632 152.6,293.966 152.5,283.5C 153.568,282.566 154.901,282.232 156.5,282.5 Z"/></g>
<g><path style="opacity:1" fill="#e3a300" d="M 172.5,279.5 C 171.791,280.404 170.791,280.737 169.5,280.5C 169.15,283.453 170.15,285.787 172.5,287.5C 171.535,288.721 171.702,290.054 173,291.5C 181.644,303.802 192.977,312.802 207,318.5C 207.499,312.509 207.666,306.509 207.5,300.5C 214.611,303.702 219.944,308.702 223.5,315.5C 223.5,320.833 223.5,326.167 223.5,331.5C 218.171,329.835 212.837,328.168 207.5,326.5C 202.408,324.119 197.408,321.452 192.5,318.5C 178.187,309.901 169.854,297.234 167.5,280.5C 168.919,279.549 170.585,279.216 172.5,279.5 Z"/></g>
<g><path style="opacity:1" fill="#e5a303" d="M 342.5,284.5 C 340.545,296.43 334.879,306.096 325.5,313.5C 314.162,322.167 301.496,328.167 287.5,331.5C 287.5,326.167 287.5,320.833 287.5,315.5C 291.056,308.702 296.389,303.702 303.5,300.5C 303.334,306.509 303.501,312.509 304,318.5C 316.712,313.153 327.378,305.153 336,294.5C 337.193,292.114 338.36,289.78 339.5,287.5C 340.072,285.745 340.906,284.078 342,282.5C 342.464,283.094 342.631,283.761 342.5,284.5 Z"/></g>
<g><path style="opacity:1" fill="#fee1d8" d="M 359.5,282.5 C 377.687,287.426 393.687,296.259 407.5,309C 422.408,323.683 434.741,340.183 444.5,358.5C 410.531,358.172 378.531,349.672 348.5,333C 344.92,330.723 341.586,328.223 338.5,325.5C 351.093,313.979 358.093,299.646 359.5,282.5 Z"/></g>
<g><path style="opacity:1" fill="#fe8861" d="M 151.5,283.5 C 151.974,326.2 159.641,367.534 174.5,407.5C 165.294,407.388 156.96,404.722 149.5,399.5C 140.593,389.293 136.093,377.293 136,363.5C 134.878,361.593 134.045,359.593 133.5,357.5C 129.961,336.317 127.961,314.984 127.5,293.5C 135.037,289.065 143.037,285.732 151.5,283.5 Z"/></g>
<g><path style="opacity:1" fill="#fdc300" d="M 339.5,287.5 C 338.36,289.78 337.193,292.114 336,294.5C 327.378,305.153 316.712,313.153 304,318.5C 303.501,312.509 303.334,306.509 303.5,300.5C 306.959,298.549 310.626,297.049 314.5,296C 323.899,296.034 332.232,293.201 339.5,287.5 Z"/></g>
<g><path style="opacity:1" fill="#fec300" d="M 172.5,287.5 C 179.287,293.376 187.287,296.209 196.5,296C 200.236,297.41 203.902,298.91 207.5,300.5C 207.666,306.509 207.499,312.509 207,318.5C 192.977,312.802 181.644,303.802 173,291.5C 171.702,290.054 171.535,288.721 172.5,287.5 Z"/></g>
<g><path style="opacity:0.99" fill="#ffad93" d="M 127.5,293.5 C 127.961,314.984 129.961,336.317 133.5,357.5C 129.796,353.399 125.13,351.399 119.5,351.5C 119.666,344.492 119.5,337.492 119,330.5C 115.543,321.56 109.043,317.894 99.5,319.5C 107.251,309.081 116.584,300.414 127.5,293.5 Z"/></g>
<g><path style="opacity:1" fill="#8ca52d" d="M 167.5,280.5 C 169.854,297.234 178.187,309.901 192.5,318.5C 193.577,325.551 194.91,332.551 196.5,339.5C 182.8,335.064 171.634,327.064 163,315.5C 171.187,377.393 199.687,427.559 248.5,466C 277.443,487.259 309.776,499.759 345.5,503.5C 324.167,503.5 302.833,503.5 281.5,503.5C 258.37,503.283 238.37,495.116 221.5,479C 200.833,458.491 185.167,434.658 174.5,407.5C 159.641,367.534 151.974,326.2 151.5,283.5C 151.833,283.5 152.167,283.5 152.5,283.5C 152.6,293.966 155.433,303.632 161,312.5C 160.293,302.544 159.793,292.544 159.5,282.5C 158.5,282.5 157.5,282.5 156.5,282.5C 159.909,281.097 163.575,280.43 167.5,280.5 Z"/></g>
<g><path style="opacity:1" fill="#f6f9fc" d="M 374.5,303.5 C 390.66,304.158 398.826,312.492 399,328.5C 394.839,335.33 389.005,337.164 381.5,334C 371.858,329.045 367.358,321.211 368,310.5C 369.694,307.642 371.861,305.309 374.5,303.5 Z"/></g>
<g><path style="opacity:0.984" fill="#ffd3c6" d="M 79.5,321.5 C 76.1114,323.725 73.6114,326.725 72,330.5C 71.8321,340.184 71.3321,349.851 70.5,359.5C 55.3,365.895 40.9667,373.728 27.5,383C 22.9319,386.732 18.9319,390.899 15.5,395.5C 15.6663,388.825 15.4996,382.158 15,375.5C 12.6667,370.167 10.3333,364.833 8,359.5C 6.48478,343.352 13.3181,338.185 28.5,344C 30.6667,346.833 32.8333,349.667 35,352.5C 32.4562,345.881 30.2895,339.048 28.5,332C 29.789,322.72 35.1223,318.72 44.5,320C 49.6667,321.167 52.8333,324.333 54,329.5C 52.1163,318.938 56.4497,312.605 67,310.5C 73.8428,311.179 78.0094,314.845 79.5,321.5 Z"/></g>
<g><path style="opacity:1" fill="#fe8961" d="M 325.5,313.5 C 329.194,317.86 333.194,321.86 337.5,325.5C 322.978,337.232 306.311,343.232 287.5,343.5C 287.5,339.5 287.5,335.5 287.5,331.5C 301.496,328.167 314.162,322.167 325.5,313.5 Z"/></g>
<g><path style="opacity:0.999" fill="#9fbd28" d="M 196.5,339.5 C 199.209,348.978 202.876,357.978 207.5,366.5C 207.5,367.167 207.5,367.833 207.5,368.5C 208.212,392.76 218.879,411.26 239.5,424C 248.525,429.396 258.191,432.896 268.5,434.5C 269.391,435.11 270.391,435.443 271.5,435.5C 314.685,464.112 362.351,478.445 414.5,478.5C 415.44,486.779 415.773,495.112 415.5,503.5C 392.167,503.5 368.833,503.5 345.5,503.5C 309.776,499.759 277.443,487.259 248.5,466C 199.687,427.559 171.187,377.393 163,315.5C 171.634,327.064 182.8,335.064 196.5,339.5 Z"/></g>
<g><path style="opacity:1" fill="#ffe1d7" d="M 99.5,319.5 C 109.043,317.894 115.543,321.56 119,330.5C 119.5,337.492 119.666,344.492 119.5,351.5C 119.524,371.266 115.691,390.266 108,408.5C 104.111,415.897 98.2781,420.897 90.5,423.5C 84.8333,423.5 79.1667,423.5 73.5,423.5C 84.124,420.374 90.9573,413.374 94,402.5C 103.718,377.74 106.052,352.406 101,326.5C 99.2228,324.21 97.0562,322.543 94.5,321.5C 95.7804,320.069 97.4471,319.402 99.5,319.5 Z"/></g>
<g><path style="opacity:1" fill="#748c27" d="M 192.5,318.5 C 197.408,321.452 202.408,324.119 207.5,326.5C 207.5,331.5 207.5,336.5 207.5,341.5C 203.681,341.586 200.015,340.919 196.5,339.5C 194.91,332.551 193.577,325.551 192.5,318.5 Z"/></g>
<g><path style="opacity:0.999" fill="#ffd3c6" d="M 94.5,321.5 C 97.0562,322.543 99.2228,324.21 101,326.5C 106.052,352.406 103.718,377.74 94,402.5C 90.9573,413.374 84.124,420.374 73.5,423.5C 67.5,423.5 61.5,423.5 55.5,423.5C 55.3335,411.495 55.5001,399.495 56,387.5C 58.6304,380.865 62.7971,375.365 68.5,371C 74.4149,366.791 80.5816,362.958 87,359.5C 87.4988,355.514 87.6655,351.514 87.5,347.5C 87.1156,340.411 87.6156,333.411 89,326.5C 90.7038,324.627 92.5372,322.96 94.5,321.5 Z"/></g>
<g><path style="opacity:1" fill="#ffbba6" d="M 79.5,321.5 C 81.876,330.359 84.5427,339.026 87.5,347.5C 87.6655,351.514 87.4988,355.514 87,359.5C 80.5816,362.958 74.4149,366.791 68.5,371C 62.7971,375.365 58.6304,380.865 56,387.5C 55.5001,399.495 55.3335,411.495 55.5,423.5C 46.8,423.711 38.1333,423.377 29.5,422.5C 18.7892,416.748 14.1225,407.748 15.5,395.5C 18.9319,390.899 22.9319,386.732 27.5,383C 40.9667,373.728 55.3,365.895 70.5,359.5C 71.3321,349.851 71.8321,340.184 72,330.5C 73.6114,326.725 76.1114,323.725 79.5,321.5 Z"/></g>
<g><path style="opacity:1" fill="#5b781e" d="M 207.5,326.5 C 212.837,328.168 218.171,329.835 223.5,331.5C 223.5,335.5 223.5,339.5 223.5,343.5C 218.155,343.313 212.822,342.98 207.5,342.5C 207.5,342.167 207.5,341.833 207.5,341.5C 207.5,336.5 207.5,331.5 207.5,326.5 Z"/></g>
<g><path style="opacity:0.996" fill="#ffd3c6" d="M 337.5,325.5 C 337.833,325.5 338.167,325.5 338.5,325.5C 341.586,328.223 344.92,330.723 348.5,333C 378.531,349.672 410.531,358.172 444.5,358.5C 468.856,403.595 480.523,451.929 479.5,503.5C 468.833,503.5 458.167,503.5 447.5,503.5C 448.366,472.657 441.532,443.657 427,416.5C 424.039,412.738 421.206,408.905 418.5,405C 422.453,400.044 426.786,395.378 431.5,391C 424.754,380.088 415.421,372.255 403.5,367.5C 402.893,367.624 402.56,367.957 402.5,368.5C 397.7,364.348 392.2,361.348 386,359.5C 383.133,361.55 380.966,364.216 379.5,367.5C 376.107,369.073 374.774,371.74 375.5,375.5C 370.207,374.355 364.873,373.355 359.5,372.5C 362.179,366.471 365.846,361.138 370.5,356.5C 365.449,355.221 360.449,355.221 355.5,356.5C 349.954,355.259 344.287,355.426 338.5,357C 329.374,360.314 320.208,363.481 311,366.5C 306.639,366.164 302.639,364.831 299,362.5C 298.617,363.056 298.117,363.389 297.5,363.5C 294.269,360.048 291.269,356.381 288.5,352.5C 288.296,349.482 287.963,346.482 287.5,343.5C 306.311,343.232 322.978,337.232 337.5,325.5 Z"/></g>
<g><path style="opacity:1" fill="#8ca52c" d="M 196.5,339.5 C 200.015,340.919 203.681,341.586 207.5,341.5C 207.5,341.833 207.5,342.167 207.5,342.5C 207.5,350.5 207.5,358.5 207.5,366.5C 202.876,357.978 199.209,348.978 196.5,339.5 Z"/></g>
<g><path style="opacity:1" fill="#748c28" d="M 207.5,342.5 C 212.822,342.98 218.155,343.313 223.5,343.5C 223.295,351.214 223.795,358.881 225,366.5C 229.39,385.034 239.89,398.7 256.5,407.5C 263.394,412.363 271.061,415.696 279.5,417.5C 288.02,419.621 296.687,420.621 305.5,420.5C 308.527,424.194 311.86,427.527 315.5,430.5C 301.338,436.378 286.671,438.045 271.5,435.5C 270.391,435.443 269.391,435.11 268.5,434.5C 243.271,416.941 222.937,394.941 207.5,368.5C 207.5,367.833 207.5,367.167 207.5,366.5C 207.5,358.5 207.5,350.5 207.5,342.5 Z"/></g>
<g><path style="opacity:1" fill="#fe6235" d="M 119.5,351.5 C 125.13,351.399 129.796,353.399 133.5,357.5C 134.045,359.593 134.878,361.593 136,363.5C 136.093,377.293 140.593,389.293 149.5,399.5C 147.901,399.232 146.568,399.566 145.5,400.5C 139.471,402.015 134.137,404.848 129.5,409C 122.538,416.781 116.205,424.947 110.5,433.5C 106.112,425.972 99.4451,422.639 90.5,423.5C 98.2781,420.897 104.111,415.897 108,408.5C 115.691,390.266 119.524,371.266 119.5,351.5 Z"/></g>
<g><path style="opacity:1" fill="#ffe1d8" d="M 355.5,356.5 C 349.45,361.58 345.117,367.914 342.5,375.5C 330.654,379.086 318.987,383.253 307.5,388C 301.5,388.667 295.5,388.667 289.5,388C 287.427,387.882 286.093,386.882 285.5,385C 288.097,376.965 292.097,369.799 297.5,363.5C 298.117,363.389 298.617,363.056 299,362.5C 302.639,364.831 306.639,366.164 311,366.5C 320.208,363.481 329.374,360.314 338.5,357C 344.287,355.426 349.954,355.259 355.5,356.5 Z"/></g>
<g><path style="opacity:1" fill="#fee1d8" d="M 402.5,368.5 C 407.709,372.542 412.042,377.376 415.5,383C 410.298,388.37 404.965,393.536 399.5,398.5C 396.251,393.243 392.585,388.243 388.5,383.5C 392.869,377.844 391.869,373.01 385.5,369C 383.655,367.872 381.655,367.372 379.5,367.5C 380.966,364.216 383.133,361.55 386,359.5C 392.2,361.348 397.7,364.348 402.5,368.5 Z"/></g>
<g><path style="opacity:1" fill="#f6f8fb" d="M 379.5,367.5 C 381.655,367.372 383.655,367.872 385.5,369C 391.869,373.01 392.869,377.844 388.5,383.5C 382.56,384.032 378.227,381.698 375.5,376.5C 375.5,376.167 375.5,375.833 375.5,375.5C 374.774,371.74 376.107,369.073 379.5,367.5 Z"/></g>
<g><path style="opacity:1" fill="#8ba52c" d="M 207.5,368.5 C 222.937,394.941 243.271,416.941 268.5,434.5C 258.191,432.896 248.525,429.396 239.5,424C 218.879,411.26 208.212,392.76 207.5,368.5 Z"/></g>
<g><path style="opacity:1" fill="#fe8862" d="M 402.5,368.5 C 402.56,367.957 402.893,367.624 403.5,367.5C 415.421,372.255 424.754,380.088 431.5,391C 426.786,395.378 422.453,400.044 418.5,405C 421.206,408.905 424.039,412.738 427,416.5C 441.532,443.657 448.366,472.657 447.5,503.5C 436.833,503.5 426.167,503.5 415.5,503.5C 415.773,495.112 415.44,486.779 414.5,478.5C 414.528,473.138 414.194,467.805 413.5,462.5C 412.604,449.009 408.937,436.342 402.5,424.5C 401.675,423.614 400.675,423.281 399.5,423.5C 399.5,415.167 399.5,406.833 399.5,398.5C 404.965,393.536 410.298,388.37 415.5,383C 412.042,377.376 407.709,372.542 402.5,368.5 Z"/></g>
<g><path style="opacity:1" fill="#feae94" d="M 269.5,371.5 C 270.072,373.255 270.906,374.922 272,376.5C 275.93,380.771 280.097,384.604 284.5,388C 281.299,397.574 279.632,407.407 279.5,417.5C 271.061,415.696 263.394,412.363 256.5,407.5C 256.932,393.992 261.265,381.992 269.5,371.5 Z"/></g>
<g><path style="opacity:1" fill="#ffad93" d="M 356.5,402.5 C 347.958,401.938 340.958,404.938 335.5,411.5C 336.329,399.191 338.662,387.191 342.5,375.5C 347.833,374.833 353.167,374.167 358.5,373.5C 355.616,382.537 353.283,391.703 351.5,401C 353.382,401.198 355.048,401.698 356.5,402.5 Z"/></g>
<g><path style="opacity:1" fill="#ffbba6" d="M 375.5,375.5 C 375.5,375.833 375.5,376.167 375.5,376.5C 371.913,386.181 369.58,396.181 368.5,406.5C 364.878,404.022 360.878,402.689 356.5,402.5C 355.048,401.698 353.382,401.198 351.5,401C 353.283,391.703 355.616,382.537 358.5,373.5C 353.167,374.167 347.833,374.833 342.5,375.5C 345.117,367.914 349.45,361.58 355.5,356.5C 360.449,355.221 365.449,355.221 370.5,356.5C 365.846,361.138 362.179,366.471 359.5,372.5C 364.873,373.355 370.207,374.355 375.5,375.5 Z"/></g>
<g><path style="opacity:1" fill="#febba6" d="M 288.5,352.5 C 291.269,356.381 294.269,360.048 297.5,363.5C 292.097,369.799 288.097,376.965 285.5,385C 286.093,386.882 287.427,387.882 289.5,388C 295.5,388.667 301.5,388.667 307.5,388C 318.987,383.253 330.654,379.086 342.5,375.5C 338.662,387.191 336.329,399.191 335.5,411.5C 326.561,417.574 316.561,420.574 305.5,420.5C 296.687,420.621 288.02,419.621 279.5,417.5C 279.632,407.407 281.299,397.574 284.5,388C 280.097,384.604 275.93,380.771 272,376.5C 270.906,374.922 270.072,373.255 269.5,371.5C 269.5,371.167 269.5,370.833 269.5,370.5C 274.545,363.121 280.878,357.121 288.5,352.5 Z"/></g>
<g><path style="opacity:0.999" fill="#ffd3c6" d="M 375.5,376.5 C 378.227,381.698 382.56,384.032 388.5,383.5C 392.585,388.243 396.251,393.243 399.5,398.5C 399.5,406.833 399.5,415.167 399.5,423.5C 399.5,426.167 399.5,428.833 399.5,431.5C 393.908,431.913 388.908,430.413 384.5,427C 379.256,419.968 373.923,413.135 368.5,406.5C 369.58,396.181 371.913,386.181 375.5,376.5 Z"/></g>
<g><path style="opacity:1" fill="#feae94" d="M 149.5,399.5 C 156.96,404.722 165.294,407.388 174.5,407.5C 185.167,434.658 200.833,458.491 221.5,479C 238.37,495.116 258.37,503.283 281.5,503.5C 261.263,503.59 240.93,503.59 220.5,503.5C 190.665,484.817 168.832,459.151 155,426.5C 151.137,418.078 147.971,409.411 145.5,400.5C 146.568,399.566 147.901,399.232 149.5,399.5 Z"/></g>
<g><path style="opacity:0.997" fill="#ffd3c6" d="M 145.5,400.5 C 147.971,409.411 151.137,418.078 155,426.5C 168.832,459.151 190.665,484.817 220.5,503.5C 178.833,503.5 137.167,503.5 95.5,503.5C 95.1435,491.291 96.4769,479.291 99.5,467.5C 100.707,462.801 102.04,458.134 103.5,453.5C 110.191,448.43 112.524,441.764 110.5,433.5C 116.205,424.947 122.538,416.781 129.5,409C 134.137,404.848 139.471,402.015 145.5,400.5 Z"/></g>
<g><path style="opacity:1" fill="#fe8861" d="M 356.5,402.5 C 360.878,402.689 364.878,404.022 368.5,406.5C 373.923,413.135 379.256,419.968 384.5,427C 388.908,430.413 393.908,431.913 399.5,431.5C 399.5,439.5 399.5,447.5 399.5,455.5C 394.003,455.757 389.003,454.257 384.5,451C 379.965,445.431 375.799,439.597 372,433.5C 362.395,424.354 351.895,423.187 340.5,430C 337.231,433.779 333.564,436.946 329.5,439.5C 324.314,437.315 319.647,434.315 315.5,430.5C 311.86,427.527 308.527,424.194 305.5,420.5C 316.561,420.574 326.561,417.574 335.5,411.5C 340.958,404.938 347.958,401.938 356.5,402.5 Z"/></g>
<g><path style="opacity:0.991" fill="#ffc404" d="M 29.5,422.5 C 38.1333,423.377 46.8,423.711 55.5,423.5C 61.5,423.5 67.5,423.5 73.5,423.5C 79.1667,423.5 84.8333,423.5 90.5,423.5C 99.4451,422.639 106.112,425.972 110.5,433.5C 112.524,441.764 110.191,448.43 103.5,453.5C 92.6181,455.349 81.6181,456.015 70.5,455.5C 57.5,455.5 44.5,455.5 31.5,455.5C 21.1541,455.154 15.8208,449.821 15.5,439.5C 15.8171,430.188 20.4838,424.521 29.5,422.5 Z"/></g>
<g><path style="opacity:1" fill="#fead93" d="M 399.5,423.5 C 400.675,423.281 401.675,423.614 402.5,424.5C 408.937,436.342 412.604,449.009 413.5,462.5C 383.151,462.916 355.151,455.249 329.5,439.5C 333.564,436.946 337.231,433.779 340.5,430C 351.895,423.187 362.395,424.354 372,433.5C 375.799,439.597 379.965,445.431 384.5,451C 389.003,454.257 394.003,455.757 399.5,455.5C 399.5,447.5 399.5,439.5 399.5,431.5C 399.5,428.833 399.5,426.167 399.5,423.5 Z"/></g>
<g><path style="opacity:1" fill="#8ca52d" d="M 315.5,430.5 C 319.647,434.315 324.314,437.315 329.5,439.5C 355.151,455.249 383.151,462.916 413.5,462.5C 414.194,467.805 414.528,473.138 414.5,478.5C 362.351,478.445 314.685,464.112 271.5,435.5C 286.671,438.045 301.338,436.378 315.5,430.5 Z"/></g>
<g><path style="opacity:1" fill="#ff8962" d="M 103.5,453.5 C 102.04,458.134 100.707,462.801 99.5,467.5C 88.8333,467.5 78.1667,467.5 67.5,467.5C 68.5,463.5 69.5,459.5 70.5,455.5C 81.6181,456.015 92.6181,455.349 103.5,453.5 Z"/></g>
<g><path style="opacity:1" fill="#ffae94" d="M 31.5,455.5 C 44.5,455.5 57.5,455.5 70.5,455.5C 69.5,459.5 68.5,463.5 67.5,467.5C 56.1667,467.5 44.8333,467.5 33.5,467.5C 31.8572,463.705 31.1906,459.705 31.5,455.5 Z"/></g>
<g><path style="opacity:0.987" fill="#ffd4c7" d="M 33.5,467.5 C 44.8333,467.5 56.1667,467.5 67.5,467.5C 65.0237,477.308 63.6903,487.308 63.5,497.5C 49.1447,491.811 39.1447,481.811 33.5,467.5 Z"/></g>
<g><path style="opacity:1" fill="#ffae94" d="M 67.5,467.5 C 78.1667,467.5 88.8333,467.5 99.5,467.5C 96.4769,479.291 95.1435,491.291 95.5,503.5C 84.3498,503.936 73.6832,501.936 63.5,497.5C 63.6903,487.308 65.0237,477.308 67.5,467.5 Z"/></g>
</svg>
