<svg xmlns="http://www.w3.org/2000/svg" data-name="Layer 1" viewBox="0 0 512 512" id="goddess-kali"><path fill="#baafb9" d="m457.246 182.427 12.523-4.802 16.386 42.725-12.523 4.803z"></path><path fill="#e5e1e5" d="M385.718 104.567a1.996 1.996 0 0 1-.386-3.922c33.864-8.564 66.463 3.171 80.304 26.404 12.374 20.769 5.999 44.415 4.134 50.576l-12.523 4.802c.623-8.378.608-25.477-9.416-42.268-12.406-20.784-35.718-33.678-62.113-35.592Z"></path><path fill="#baafb9" d="M23.536 236.732a6.778 6.778 0 0 1-2.48-9.259l26.858-46.52a46.884 46.884 0 1 1 69.668-13.347 6.778 6.778 0 1 1-11.74-6.778 33.326 33.326 0 1 0-45.524 12.198 6.778 6.778 0 0 1 2.48 9.259l-30.003 51.966a6.778 6.778 0 0 1-9.259 2.481Z"></path><path fill="#8ac9fe" d="m438.175 283.144-41.832 78.44a10 10 0 0 1-4.001 4.054l-67.748 37.295 32.398 60.5 73.214-61.633a30 30 0 0 0 10.066-16.91l22.29-88.371Z"></path><path fill="#26a6fe" d="m438.175 283.144-3.168 5.94 13.555 7.435-22.29 88.37a29.999 29.999 0 0 1-10.066 16.912l-63.564 53.508 4.35 8.123 73.214-61.631a29.999 29.999 0 0 0 10.066-16.911l22.29-88.371Z"></path><path fill="#26a6fe" d="m438.175 290.144 5.576 5.988 6.21 7.003a7.292 7.292 0 0 0 7.868 2.043l1.789-.627c.345-.121.68-.265 1.02-.401l1.924-7.631-22.268-12.212Z"></path><path fill="#8ac9fe" d="M459.618 297.551a25.268 25.268 0 0 0 11.98-8.854 25.268 25.268 0 0 1 6.822-6.356l25.43-16.105a10 10 0 0 0 3.233-13.578l-17.797-29.777a9.134 9.134 0 0 0-12.476-3.343l-17.312 9.995a7.436 7.436 0 0 0-3.271 3.901l-18.052 49.71-4.786 8.973 13.488 5.227a18.406 18.406 0 0 0 12.74.207Z"></path><path fill="#26a6fe" d="m502.495 259.221-17.799-29.782a9.128 9.128 0 0 0-12.469-3.34 11.922 11.922 0 0 0-4.363 16.285l16.505 27.691a9.934 9.934 0 0 0 6.202 4.57l13.128-8.314a9.947 9.947 0 0 0-1.204-7.11Z"></path><path fill="#8ac9fe" d="m502.896 266.84.953-.604a10 10 0 0 0 3.234-13.578l-17.8-29.782a9.128 9.128 0 0 0-12.468-3.341 11.922 11.922 0 0 0-4.364 16.286l16.505 27.69a10 10 0 0 0 13.94 3.329Z"></path><path fill="#8ac9fe" d="M473.753 240.3a13.034 13.034 0 0 0 4.77-17.804l-1.708-2.96-.005.002-17.312 9.995a7.436 7.436 0 0 0-3.271 3.901l-8.119 22.356Z"></path><path fill="#26a6fe" d="M465.717 242.763a1.81 1.81 0 0 0 2.594.825l5.442-3.288a13.034 13.034 0 0 0 4.77-17.804l-1.706-2.956-.007-.002-5.249 3.03a13.031 13.031 0 0 1-4.808 17.732l-.313.19a1.81 1.81 0 0 0-.723 2.273Z"></path><path fill="#fee903" d="m456.278 321.432-8.291 32.871-34.632-24.62 14.991-28.109 27.932 19.858z"></path><path fill="#fac600" d="m447.987 354.303 8.291-32.871-11.871-8.44-8.292 32.872 11.872 8.439z"></path><path fill="#8ac9fe" d="m73.804 283.108 41.832 78.44a10 10 0 0 0 4.001 4.054l67.748 37.295-32.398 60.5-73.214-61.632a30 30 0 0 1-10.066-16.911l-22.29-88.371Z"></path><path fill="#26a6fe" d="m73.804 283.108 3.168 5.94-13.555 7.435 22.29 88.37a29.999 29.999 0 0 0 10.066 16.912l63.564 53.508-4.35 8.123-73.214-61.631a29.999 29.999 0 0 1-10.066-16.911l-22.29-88.371Z"></path><path fill="#26a6fe" d="m73.804 290.108-5.576 5.988-6.21 7.003a7.292 7.292 0 0 1-7.868 2.043l-1.789-.627c-.345-.12-.68-.265-1.02-.4l-1.924-7.632 22.268-12.212Z"></path><path fill="#8ac9fe" d="M52.361 297.515a25.268 25.268 0 0 1-11.98-8.854 25.268 25.268 0 0 0-6.822-6.356L8.13 266.201a10 10 0 0 1-3.233-13.579l17.796-29.777a9.134 9.134 0 0 1 12.476-3.343l17.312 9.995a7.436 7.436 0 0 1 3.271 3.901l18.052 49.71 4.786 8.973-13.488 5.227a18.406 18.406 0 0 1-12.74.207Z"></path><path fill="#26a6fe" d="m9.484 259.186 17.799-29.783a9.128 9.128 0 0 1 12.469-3.34 11.922 11.922 0 0 1 4.364 16.285L27.61 270.04a9.934 9.934 0 0 1-6.202 4.57L8.28 266.296a9.947 9.947 0 0 1 1.204-7.11Z"></path><path fill="#8ac9fe" d="m9.083 266.804-.953-.603a10 10 0 0 1-3.233-13.579l17.799-29.782a9.128 9.128 0 0 1 12.469-3.34 11.922 11.922 0 0 1 4.363 16.285l-16.505 27.69a10 10 0 0 1-13.94 3.33Z"></path><path fill="#8ac9fe" d="M38.226 240.265a13.034 13.034 0 0 1-4.77-17.805l1.708-2.96.005.002 17.312 9.995a7.436 7.436 0 0 1 3.271 3.901l8.119 22.357Z"></path><path fill="#26a6fe" d="M46.262 242.727a1.81 1.81 0 0 1-2.594.825l-5.442-3.287a13.034 13.034 0 0 1-4.77-17.805l1.706-2.956.007-.002 5.249 3.03a13.031 13.031 0 0 0 4.808 17.733l.313.189a1.81 1.81 0 0 1 .723 2.273Z"></path><path fill="#fee903" d="m55.701 321.396 8.291 32.871 34.632-24.62-14.991-28.108-27.932 19.857z"></path><path fill="#fac600" d="m63.992 354.267-8.291-32.871 11.871-8.44 8.292 32.872-11.872 8.439z"></path><path fill="#fee903" d="M256 24.5a113.113 113.113 0 1 0 113.113 113.113A113.113 113.113 0 0 0 256 24.5Zm0 191.226a78.113 78.113 0 1 1 78.113-78.113A78.201 78.201 0 0 1 256 215.726Z"></path><path fill="#fac600" d="M315.906 187.673a78.083 78.083 0 0 1-137.167-61.55 67.907 67.907 0 0 0-12.32 48.265l4.805 38.099A113.648 113.648 0 0 0 197.6 234.5H310Z"></path><path fill="#fac600" d="M249 59.83a78.642 78.642 0 0 0-7-.33 78.113 78.113 0 1 0 0 156.226c2.36 0 4.692-.124 7-.33a78.096 78.096 0 0 1 0-155.566zm7-35.33c-2.352 0-4.684.08-7 .222a113.108 113.108 0 0 1 0 225.782c2.316.142 4.648.222 7 .222A113.113 113.113 0 1 0 256 24.5z"></path><path fill="#3c3b42" d="M381.5 380.5h-251l63-173h125l63 173z"></path><path fill="#2c2c2e" d="M326 294.235a18.254 18.254 0 0 0 18.148-16.305l-5.495-15.089A18.25 18.25 0 1 0 326 294.235Z"></path><path fill="#2c2c2e" d="m368.977 346.111-61.408-18.317q-.59-.176-1.164-.387a4.669 4.669 0 0 1-1.614-7.662 67.865 67.865 0 0 0 19.327-47.511v-25.245a40.21 40.21 0 0 0-16.831-32.715l-.49-.35a48.275 48.275 0 0 0-34.51-8.565L256 207.552l-16.287-2.193a48.275 48.275 0 0 0-34.5 8.558l-.49.35a40.217 40.217 0 0 0-16.84 32.726l-.001 27.288a65.678 65.678 0 0 0 18.553 45.844 4.642 4.642 0 0 1-1.93 7.647l-.074.022-61.408 18.317-9.974 27.389h245.902Z"></path><path fill="#2c2c2e" d="M318.5 207.5h-14l63 173h14l-63-173z"></path><circle cx="326" cy="268.981" r="18.255" fill="#fee903"></circle><path fill="#fac600" d="M334.919 253.062a18.243 18.243 0 0 1-24.838 24.838 18.25 18.25 0 1 0 24.838-24.838Z"></path><path fill="#2c2c2e" d="M186 294.235a18.255 18.255 0 1 0-12.653-31.394l-5.495 15.089A18.254 18.254 0 0 0 186 294.235Z"></path><circle cx="186" cy="268.981" r="18.255" fill="#fee903"></circle><path fill="#fff" d="M249.354 237.03q-.104 0-.208-.006c-.018-.001-.134-.01-.152-.01a3.5 3.5 0 0 1 .514-6.982l-.257 3.491.306-3.487a3.5 3.5 0 0 1-.203 6.994zm20.928-.828a3.5 3.5 0 0 1-.505-6.963l.51 3.463-.427-3.475a3.5 3.5 0 1 1 1.05 6.92l-.115.018a3.513 3.513 0 0 1-.513.037zm-41.648-2.896a3.506 3.506 0 0 1-1.045-.16 3.544 3.544 0 0 1-2.357-4.362 3.464 3.464 0 0 1 4.273-2.37c.025.006.146.042.172.05a3.5 3.5 0 0 1-1.043 6.842zm62.053-2.499a3.496 3.496 0 0 1-1.314-6.744l.139-.053a3.5 3.5 0 1 1 1.175 6.797zm-81.46-5.673a3.48 3.48 0 0 1-1.766-.481 3.542 3.542 0 0 1-1.317-4.773 3.458 3.458 0 0 1 4.686-1.362l.171.096a3.5 3.5 0 0 1-1.773 6.52zm100.153-4.062a3.485 3.485 0 0 1-2.013-6.349l.13-.087a3.5 3.5 0 0 1 3.836 5.855 3.558 3.558 0 0 1-1.953.581zm-117.3-8.142a3.49 3.49 0 0 1-2.32-.878 8.496 8.496 0 0 0-.096-.087 3.5 3.5 0 0 1 4.684-5.203l-2.342 2.602 2.393-2.555a3.5 3.5 0 0 1-2.32 6.121z"></path><path fill="#09a76d" d="M167.578 178.96a3.465 3.465 0 0 1-3.176-2.062l-.076-.178a3.5 3.5 0 0 1 6.47-2.671l-3.234 1.335 3.245-1.31a3.508 3.508 0 0 1-3.229 4.886zm179.558-7.211a3.428 3.428 0 0 1-1.1-.182 3.465 3.465 0 0 1-2.207-4.398l.038-.11a3.5 3.5 0 1 1 6.62 2.275 3.56 3.56 0 0 1-3.351 2.415z"></path><path fill="#fd4755" d="M161.468 158.804a3.47 3.47 0 0 1-3.407-2.762 13.89 13.89 0 0 1-.039-.196 3.5 3.5 0 0 1 6.891-1.235l-3.445.618 3.449-.593a3.521 3.521 0 0 1-2.757 4.1 3.57 3.57 0 0 1-.692.068zm190.154-7.582a3.601 3.601 0 0 1-.413-.024 3.5 3.5 0 0 1-3.066-3.885l3.475.409-3.473-.434a3.5 3.5 0 0 1 6.97.642l-.021.2a3.5 3.5 0 0 1-3.472 3.092z"></path><path fill="#09a76d" d="M159.914 137.835q-.104 0-.208-.006a3.55 3.55 0 1 1 3.707-3.49c0 .034-.006.167-.008.202a3.5 3.5 0 0 1-3.49 3.294zm191.608-7.663a3.5 3.5 0 0 1-3.471-3.09l-.012-.101a3.5 3.5 0 1 1 6.951-.817l.012.099a3.5 3.5 0 0 1-3.066 3.885 3.59 3.59 0 0 1-.414.024z"></path><path fill="#fd4755" d="M162.903 116.974a3.497 3.497 0 0 1-3.398-4.3c.008-.032.04-.16.05-.193a3.5 3.5 0 0 1 6.754 1.842l-3.377-.92 3.37.945a3.533 3.533 0 0 1-3.399 2.626zm183.968-7.338a3.502 3.502 0 0 1-3.315-2.379l3.315-1.122-3.322 1.101a3.524 3.524 0 0 1 2.112-4.462 3.477 3.477 0 0 1 4.454 2.038l.072.201a3.502 3.502 0 0 1-3.316 4.623z"></path><path fill="#09a76d" d="M170.382 97.3a3.495 3.495 0 0 1-3.125-5.045l.089-.17a3.5 3.5 0 1 1 6.175 3.294l-3.087-1.647 3.08 1.662a3.532 3.532 0 0 1-3.132 1.906zm167.394-6.712a3.417 3.417 0 0 1-2.92-1.624l-.052-.085a3.5 3.5 0 1 1 5.947-3.692 3.519 3.519 0 0 1-2.975 5.401z"></path><path fill="#fd4755" d="M181.983 79.724a3.49 3.49 0 0 1-2.745-5.644c.024-.03.11-.136.135-.164a3.5 3.5 0 1 1 5.344 4.522l-2.672-2.261 2.657 2.278a3.54 3.54 0 0 1-2.719 1.269zm142.832-5.716a3.406 3.406 0 0 1-2.447-1.032 9.763 9.763 0 0 1-.12-.125 3.5 3.5 0 1 1 5.103-4.791 3.518 3.518 0 0 1-2.536 5.948z"></path><path fill="#09a76d" d="M197.112 65.112a3.5 3.5 0 0 1-2.119-6.287 3.541 3.541 0 0 1 4.93.624 3.458 3.458 0 0 1-.586 4.865l-.111.086a3.483 3.483 0 0 1-2.114.712zm111.508-4.474a3.489 3.489 0 0 1-1.927-.58l1.93-2.92-2.001 2.873a3.5 3.5 0 1 1 3.836-5.856l.095.063a3.5 3.5 0 0 1-1.933 6.42z"></path><path fill="#fd4755" d="M215.057 54.1a3.5 3.5 0 0 1-1.485-6.67l.091-.043a3.5 3.5 0 0 1 2.965 6.34l-.09.043a3.495 3.495 0 0 1-1.481.33zm74.796-2.998a3.485 3.485 0 0 1-1.228-.224l-.094-.035a3.5 3.5 0 1 1 2.457-6.555l.094.035a3.5 3.5 0 0 1-1.23 6.779z"></path><path fill="#fff" d="M234.973 47.276a3.5 3.5 0 0 1-.702-6.928 3.54 3.54 0 0 1 4.175 2.676 3.457 3.457 0 0 1-2.596 4.143 14.15 14.15 0 0 1-.167.037 3.532 3.532 0 0 1-.71.072zm34.482-1.37a3.51 3.51 0 0 1-.46-.031l-.164-.023a3.5 3.5 0 1 1 1.049-6.921 3.543 3.543 0 0 1 2.99 3.959 3.465 3.465 0 0 1-3.415 3.015zM256 44.97h-.1a3.5 3.5 0 0 1 0-7 3.543 3.543 0 0 1 3.55 3.5 3.458 3.458 0 0 1-3.45 3.5z"></path><path fill="#fee903" d="M324 234.5H188l-7.582-60.112a67.974 67.974 0 0 1 40.756-71.023L256 88.5l34.826 14.865a67.974 67.974 0 0 1 40.756 71.023Z"></path><path fill="#fac600" d="M290.826 103.365 256 88.5l-7 2.988 27.826 11.877a67.974 67.974 0 0 1 40.756 71.023L310 234.5h14l7.582-60.112a67.974 67.974 0 0 0-40.756-71.023Z"></path><path fill="#26a6fe" d="m84.741 404.264 70.246 59.132 32.398-60.5-67.747-37.294a9.973 9.973 0 0 1-1.951-1.434 60.026 60.026 0 0 0-32.946 40.096Z"></path><path fill="#8ac9fe" d="M414.984 502v-76.45a60 60 0 0 0-42.85-57.497l-64.565-19.259a20 20 0 0 1-14.283-19.166v-19.602h-74.572v19.603a20 20 0 0 1-14.283 19.165l-64.565 19.259a60 60 0 0 0-42.85 57.497V502a10 10 0 0 0 10 10h297.968a10 10 0 0 0 10-10Z"></path><path fill="#26a6fe" d="m372.134 368.053-26.267-7.835-33.773-10.074-4.525-1.35a20 20 0 0 1-14.283-19.165v-19.603h-74.572v7h60.572v19.603a20 20 0 0 0 14.283 19.165l6.11 1.822a96.968 96.968 0 0 1-99.672-7.502l-42.145 12.571a134.571 134.571 0 0 0 67.729 39.22 16.51 16.51 0 0 1 12.75 16.091v.03a27.311 27.311 0 0 0 8.106 19.418l9.553 9.449 9.553-9.45a27.31 27.31 0 0 0 8.105-19.416 16.52 16.52 0 0 1 12.784-16.098 133.969 133.969 0 0 0 53.706-26.173 13.45 13.45 0 0 1 12.273-2.407l5.713 1.704a60 60 0 0 1 42.85 57.497V509a9.991 9.991 0 0 1-.46 3h4.46a10 10 0 0 0 10-10v-76.45a60 60 0 0 0-42.85-57.497Z"></path><path fill="#fee903" d="m336.73 357.487-29.368-8.76a19.994 19.994 0 0 1-3.411-1.383 77.762 77.762 0 0 1-96.005-.168 19.974 19.974 0 0 1-3.723 1.55l-28.953 8.637a107.95 107.95 0 0 0 56.257 33.661 13.29 13.29 0 0 1 10.318 12.921v.025a21.891 21.891 0 0 0 6.497 15.565l7.658 7.574 7.658-7.574a21.891 21.891 0 0 0 6.497-15.565 13.29 13.29 0 0 1 10.332-12.924 107.945 107.945 0 0 0 56.243-33.56Z"></path><path fill="#fac600" d="m336.726 357.491.004-.004-5.198-1.551-.005.004-23.958-7.146c-.043-.013-.085-.03-.128-.044l-.079-.024c-.128-.038-.247-.09-.374-.131-.365-.122-.73-.243-1.085-.383a20.374 20.374 0 0 1-1.364-.597l-.021-.01c-.188-.09-.383-.166-.567-.261a78.141 78.141 0 0 1-12.184 7.808c.587.238 1.185.458 1.802.642l23.018 6.866a2.797 2.797 0 0 1 .769 4.99 107.198 107.198 0 0 1-36.992 16.425 13.22 13.22 0 0 0-10.21 12.895 21.892 21.892 0 0 1-6.497 15.565L256 420.109l-7.657-7.574a21.892 21.892 0 0 1-6.498-15.565v-.025a13.179 13.179 0 0 0-10.122-12.875 107.777 107.777 0 0 1-51.267-28.254l-5.186 1.547a107.949 107.949 0 0 0 56.257 33.661 13.29 13.29 0 0 1 10.318 12.921v.025a21.892 21.892 0 0 0 6.498 15.565l7.657 7.574 7.658-7.575a21.891 21.891 0 0 0 6.497-15.564 13.303 13.303 0 0 1 10.354-12.93 107.683 107.683 0 0 0 47.665-24.936q1.276-1.15 2.513-2.343c.318-.305.63-.616.944-.924q.9-.886 1.781-1.792c.28-.288.56-.575.836-.866.84-.883 1.669-1.776 2.478-2.688Z"></path><path fill="#26a6fe" d="M342.636 244.342s.18-6.276.48-14.185a13.387 13.387 0 0 0-13.372-13.895h-12.626V256.5h12.193a13.38 13.38 0 0 0 13.325-12.158zm-147.754-28.08H182.07a13.133 13.133 0 0 0-13.12 13.632c.306 8.032.49 14.448.49 14.448l.012.121a13.17 13.17 0 0 0 13.082 12.037h12.348z"></path><path fill="#26a6fe" fill-rule="evenodd" d="M218.714 310.026v19.603a19.952 19.952 0 0 1-1.662 7.97 66.342 66.342 0 0 0 44.245 16.758h1.704a67.771 67.771 0 0 0 36.266-10.468 19.987 19.987 0 0 1-5.98-14.26v-19.603Z"></path><path fill="#8ac9fe" fill-rule="evenodd" d="M256 326.357h-1.703a66.147 66.147 0 0 1-66.415-66.076V232.99a40.21 40.21 0 0 1 16.836-32.718l.493-.352a48.275 48.275 0 0 1 34.502-8.56L256 193.552l16.287-2.193a48.274 48.274 0 0 1 34.502 8.56l.493.352a40.21 40.21 0 0 1 16.836 32.717v25.246a68.121 68.121 0 0 1-68.117 68.123Z"></path><path fill="#26a6fe" fill-rule="evenodd" d="M324.118 232.988a40.209 40.209 0 0 0-16.836-32.717l-.493-.352a48.275 48.275 0 0 0-34.502-8.56l-.585.078a48.267 48.267 0 0 1 21.087 8.482l.493.352a40.209 40.209 0 0 1 16.836 32.717v25.246a68.118 68.118 0 0 1-61.962 67.833c2.023.183 4.069.29 6.141.29h1.704a68.121 68.121 0 0 0 68.117-68.123v-25.246Z"></path><path fill="#26a6fe" fill-rule="evenodd" d="M187.882 246.989a40.21 40.21 0 0 1 16.836-32.718l.493-.352a48.275 48.275 0 0 1 34.502-8.56L256 207.552l16.287-2.193a48.275 48.275 0 0 1 34.502 8.56l.493.352a40.209 40.209 0 0 1 16.836 32.717v11.263V232.988a40.209 40.209 0 0 0-16.836-32.717l-.493-.352a48.275 48.275 0 0 0-34.502-8.56L256 193.552l-16.287-2.193a48.275 48.275 0 0 0-34.502 8.56l-.493.352a40.21 40.21 0 0 0-16.836 32.718V260.294v-13.305Z"></path><path fill="#26a6fe" d="M198.71 511.821c-.113 0-.229-.006-.344-.017-20.53-2.002-37.85-13.838-45.204-30.888-6.503-15.078-3.32-29.92.496-39.715a3.5 3.5 0 0 1 6.524 2.54c-3.341 8.575-6.155 21.504-.592 34.402 6.345 14.711 21.463 24.94 39.456 26.694a3.5 3.5 0 0 1-.336 6.984Z"></path><path fill="#fee903" d="M97.016 462.355h55.915v21H97.016z"></path><path fill="#26a6fe" d="M152.932 512a3.5 3.5 0 0 1-3.5-3.5v-45.594a3.5 3.5 0 0 1 7 0V508.5a3.5 3.5 0 0 1-3.5 3.5zm160.358-.179a3.5 3.5 0 0 1-.336-6.984c17.993-1.754 33.111-11.983 39.456-26.694 5.563-12.898 2.75-25.827-.592-34.401a3.5 3.5 0 0 1 6.524-2.541c3.815 9.796 6.999 24.637.496 39.715-7.354 17.05-24.675 28.886-45.204 30.888-.115.011-.23.017-.344.017z"></path><path fill="#fee903" d="M359.069 462.355h55.915v21h-55.915z"></path><path fill="#fac600" d="M400.984 462.355h14v21h-14z"></path><path fill="#26a6fe" d="M359.068 512a3.5 3.5 0 0 1-3.5-3.5v-45.594a3.5 3.5 0 0 1 7 0V508.5a3.5 3.5 0 0 1-3.5 3.5Z"></path><path fill="#fac600" d="M271.439 54.46h-44.878a14.516 14.516 0 0 0-14.516 14.515 14.491 14.491 0 0 0 .509 3.757 77.92 77.92 0 0 1 72.91-7.444 14.508 14.508 0 0 0-14.025-10.829Z"></path><path fill="#fee903" d="M233.561 54.46h44.878a14.516 14.516 0 0 1 14.516 14.515 14.516 14.516 0 0 1-14.516 14.516H233.56a14.516 14.516 0 0 1-14.516-14.516 14.516 14.516 0 0 1 14.516-14.516Z"></path><path fill="#fac600" d="M278.439 54.46h-1.599a14.427 14.427 0 0 1 2.115 7.515 14.516 14.516 0 0 1-14.516 14.516h-43.28a14.493 14.493 0 0 0 12.402 7h44.878a14.516 14.516 0 0 0 14.516-14.516 14.516 14.516 0 0 0-14.516-14.516Z"></path><path fill="#fee903" d="M224.884 83.491h62.232a14.516 14.516 0 0 1 14.516 14.516 14.516 14.516 0 0 1-14.516 14.516h-62.232a14.516 14.516 0 0 1-14.516-14.516 14.516 14.516 0 0 1 14.516-14.516Z"></path><path fill="#fac600" d="M287.116 83.491h-1.599a14.427 14.427 0 0 1 2.115 7.516 14.516 14.516 0 0 1-14.516 14.516h-60.633a14.493 14.493 0 0 0 12.401 7h62.232a14.516 14.516 0 0 0 14.516-14.516 14.516 14.516 0 0 0-14.516-14.516zm-62.714-54.512a27.123 27.123 0 0 0 2.246 20.293l2.812 5.187h39.08l2.812-5.187a27.122 27.122 0 0 0 1.086-23.579 113.746 113.746 0 0 0-48.036 3.286z"></path><path fill="#fee903" d="M275.54 54.46h-39.08l-2.812-5.188a27.132 27.132 0 0 1 0-25.857 27.132 27.132 0 0 1 7.523-8.738L256 3.5l14.829 11.177a27.132 27.132 0 0 1 7.523 8.738 27.132 27.132 0 0 1 0 25.857Z"></path><path fill="#fac600" d="m275.54 54.46 2.812-5.188a27.132 27.132 0 0 0-7.523-34.595L256 3.5l-2.356 1.776 3.185 2.401a27.132 27.132 0 0 1 7.523 34.595 9.908 9.908 0 0 1-8.711 5.187H232.76c.275.612.566 1.218.888 1.813l2.812 5.187"></path><circle cx="256" cy="32.966" r="7.625" fill="#22b37f"></circle><path fill="#02905d" d="M256.614 25.372a7.619 7.619 0 0 1-5.772 12.599c-.207 0-.41-.015-.614-.031a7.621 7.621 0 1 0 6.386-12.568Z"></path><path fill="#0593fc" d="M293.06 245.27q-.264 0-.53-.007a22.797 22.797 0 0 1-12.068-3.804 3.5 3.5 0 1 1 3.87-5.833 15.807 15.807 0 0 0 8.361 2.64 16.037 16.037 0 0 0 9.11-2.64 3.5 3.5 0 0 1 3.867 5.835 23.113 23.113 0 0 1-12.61 3.809zm-74.132 0c-.176 0-.353-.002-.532-.007a22.797 22.797 0 0 1-12.067-3.804 3.5 3.5 0 1 1 3.87-5.833 15.756 15.756 0 0 0 17.47 0 3.5 3.5 0 0 1 3.868 5.834 23.113 23.113 0 0 1-12.61 3.81z"></path><circle cx="256" cy="217.66" r="3.5" fill="#fd4755"></circle><path fill="#fd4755" d="M268 294.4v26.957a12 12 0 1 1-24 0v-27.06Z"></path><path fill="#fb2b3a" d="M244 294.297v.03l17 .074v26.956a11.999 11.999 0 0 1-8.503 11.48A12.007 12.007 0 0 0 268 321.356V294.4Z"></path><path fill="#0593fc" d="M255.99 300.367c-.256 0-.51-.004-.767-.01a33.003 33.003 0 0 1-17.467-5.506 3.5 3.5 0 1 1 3.869-5.833 25.934 25.934 0 0 0 28.752-.001 3.5 3.5 0 1 1 3.865 5.836 33.461 33.461 0 0 1-18.253 5.514Z"></path><path fill="#fd4755" d="m246.441 156.585-16.379 18.069a5.338 5.338 0 0 1-7.91 0l-16.38-18.069a5.338 5.338 0 0 1 0-7.17l16.38-18.069a5.338 5.338 0 0 1 7.91 0l16.38 18.069a5.338 5.338 0 0 1 0 7.17zm59.786 0-16.38 18.069a5.338 5.338 0 0 1-7.91 0l-16.379-18.069a5.338 5.338 0 0 1 0-7.17l16.38-18.069a5.338 5.338 0 0 1 7.91 0l16.38 18.069a5.338 5.338 0 0 1 0 7.17z"></path><path fill="#fb2b3a" d="m306.227 149.415-16.38-18.07a5.338 5.338 0 0 0-7.909 0l-3.045 3.36a27.24 27.24 0 0 1 0 36.59l3.045 3.359a5.338 5.338 0 0 0 7.91 0l16.38-18.069a5.338 5.338 0 0 0 0-7.17zm-59.96 0-16.378-18.07a5.338 5.338 0 0 0-7.91 0l-3.045 3.36a27.24 27.24 0 0 1 0 36.59l3.045 3.359a5.338 5.338 0 0 0 7.91 0l16.379-18.069a5.338 5.338 0 0 0 0-7.17z"></path><path fill="#22b37f" d="m279.953 157.223-19.294 21.285a6.288 6.288 0 0 1-9.318 0l-19.294-21.285a6.288 6.288 0 0 1 0-8.446l19.294-21.285a6.288 6.288 0 0 1 9.318 0l19.294 21.285a6.288 6.288 0 0 1 0 8.446Z"></path><path fill="#02905d" d="m279.953 148.777-19.294-21.285a6.288 6.288 0 0 0-9.318 0L249 130.075a34.134 34.134 0 0 1 0 45.85l2.341 2.583a6.288 6.288 0 0 0 9.318 0l19.294-21.285a6.288 6.288 0 0 0 0-8.446Z"></path><circle cx="256" cy="153" r="3.5" fill="#fff"></circle><path fill="#26a6fe" d="M282.152 506.698v-.573a3.456 3.456 0 0 1 2.448-3.306 9.017 9.017 0 0 0 6.278-7.157 44.594 44.594 0 1 0-69.756 0 9.017 9.017 0 0 0 6.278 7.157 3.456 3.456 0 0 1 2.448 3.306v.573a14.695 14.695 0 0 0 .998 5.302h50.308a14.695 14.695 0 0 0 .998-5.302Z"></path><circle cx="256" cy="462.004" r="38.707" fill="#f9f7f8"></circle><path fill="#c9bfc8" d="M275.336 476.665c-7.892 0-15.784 7-23.676 7-7.332 0-14.664-7-21.996-7a12.738 12.738 0 0 0-7.309 4.47 38.702 38.702 0 0 0 49.21 16.309 12.845 12.845 0 0 0 .135-1.756v-.497a3 3 0 0 1 2.125-2.87 7.865 7.865 0 0 0 4.063-12.152Z"></path><path fill="#c9bfc8" d="M289.871 480.74a11.523 11.523 0 0 0-7.535-4.075c-6.75 0-13.502 7-20.253 7-8.473 0-16.946-7-25.42-7l-2.55 3.504a7.865 7.865 0 0 0 4.063 12.153 3 3 0 0 1 2.124 2.869v.497a12.845 12.845 0 0 0 .135 1.756 38.709 38.709 0 0 0 49.436-16.704Z"></path><path fill="#f9f7f8" d="m229.664 476.665-2.552 3.504a7.865 7.865 0 0 0 4.064 12.152 3 3 0 0 1 2.124 2.87v.497a12.812 12.812 0 0 0 12.812 12.812h19.776a12.812 12.812 0 0 0 12.812-12.812v-.497a3 3 0 0 1 2.124-2.87 7.865 7.865 0 0 0 4.064-12.152l-2.551-3.504Z"></path><circle cx="241.899" cy="465.598" r="6.912" fill="#3c3b42"></circle><circle cx="268.995" cy="465.598" r="6.912" fill="#3c3b42"></circle><path fill="#3c3b42" d="M260.34 492.322a3.49 3.49 0 0 1-2.474-1.025L256 489.431l-1.866 1.866a3.5 3.5 0 0 1-4.95-4.95l4.341-4.34a3.5 3.5 0 0 1 4.95 0l4.34 4.34a3.5 3.5 0 0 1-2.474 5.975zM245.313 508.5v-8.46a3.5 3.5 0 0 1 7 0v8.46zm14 0v-8.46a3.5 3.5 0 0 1 7 0v8.46z"></path></svg>