<?xml version="1.0" encoding="UTF-8"?>
<!DOCTYPE svg PUBLIC "-//W3C//DTD SVG 1.1//EN" "http://www.w3.org/Graphics/SVG/1.1/DTD/svg11.dtd">
<svg xmlns="http://www.w3.org/2000/svg" version="1.1" width="461px" height="463px" style="shape-rendering:geometricPrecision; text-rendering:geometricPrecision; image-rendering:optimizeQuality; fill-rule:evenodd; clip-rule:evenodd" xmlns:xlink="http://www.w3.org/1999/xlink">
<g><path style="opacity:1" fill="#11100f" d="M 338.5,122.5 C 338.41,125.152 339.076,127.485 340.5,129.5C 345.31,158.928 337.976,184.928 318.5,207.5C 320.721,210.662 322.055,214.162 322.5,218C 321.697,222.414 321.197,226.914 321,231.5C 320.293,233.081 319.46,234.581 318.5,236C 324.014,244.54 323.681,252.873 317.5,261C 319.498,264.513 322.498,266.846 326.5,268C 332.77,272.709 334.936,278.876 333,286.5C 330.301,291.041 329.968,295.708 332,300.5C 336.179,303.257 340.179,306.257 344,309.5C 345.688,312.226 347.188,315.059 348.5,318C 364.158,325.814 373.658,338.314 377,355.5C 377.83,382.003 377.663,408.337 376.5,434.5C 375.167,434.5 373.833,434.5 372.5,434.5C 372.831,409.994 372.498,385.661 371.5,361.5C 368.246,336.246 353.913,321.913 328.5,318.5C 328.5,320.167 328.5,321.833 328.5,323.5C 328.827,360.906 328.493,398.239 327.5,435.5C 326.178,435.67 325.011,435.337 324,434.5C 323.667,395.167 323.333,355.833 323,316.5C 317.745,314.121 312.245,312.787 306.5,312.5C 306.827,353.572 306.494,394.572 305.5,435.5C 304.5,435.5 303.5,435.5 302.5,435.5C 301.681,418.574 301.181,401.574 301,384.5C 290.297,392.854 278.797,400.021 266.5,406C 265.209,407.292 265.209,408.458 266.5,409.5C 271.17,422.153 267.17,430.819 254.5,435.5C 252.167,435.5 249.833,435.5 247.5,435.5C 241.5,432.833 237.167,428.5 234.5,422.5C 234.118,417.638 234.784,412.972 236.5,408.5C 237.043,408.44 237.376,408.107 237.5,407.5C 230.329,403.08 222.996,398.914 215.5,395C 209.955,391.066 204.622,386.899 199.5,382.5C 190.806,372.44 185.306,360.774 183,347.5C 182.832,338.482 182.332,329.482 181.5,320.5C 173.808,322.897 166.141,325.397 158.5,328C 144.552,334.619 135.718,345.453 132,360.5C 131.824,385.572 131.324,410.572 130.5,435.5C 128.856,435.714 127.356,435.38 126,434.5C 125.333,409.833 125.333,385.167 126,360.5C 127.661,352.846 130.494,345.679 134.5,339C 125.255,305.189 116.089,271.355 107,237.5C 98.9914,253.216 95.9914,269.883 98,287.5C 96.8729,290.068 94.8729,291.402 92,291.5C 87.4084,289.703 83.075,287.37 79,284.5C 77.1952,281.789 77.1952,279.122 79,276.5C 82.4934,273.837 86.3267,271.837 90.5,270.5C 92.3435,268.721 93.0102,266.388 92.5,263.5C 93.1869,253.272 96.1869,243.772 101.5,235C 93.9344,236.363 87.1011,239.53 81,244.5C 83.7629,264.116 77.2629,268.283 61.5,257C 59.2117,254.271 59.0451,251.438 61,248.5C 70.0266,244.128 78.5266,238.961 86.5,233C 92.4069,230.545 98.4069,228.379 104.5,226.5C 102.512,220.217 100.679,213.884 99,207.5C 98.1923,205.421 98.359,203.421 99.5,201.5C 109.66,200.259 116.66,194.926 120.5,185.5C 122.392,182.956 124.225,182.956 126,185.5C 137.333,227.5 148.667,269.5 160,311.5C 164.618,308.55 168.952,305.216 173,301.5C 173.601,299.863 174.101,298.197 174.5,296.5C 172.734,292.132 171.4,287.632 170.5,283C 171.526,274.974 175.859,269.641 183.5,267C 185.213,265.622 186.547,263.955 187.5,262C 179.448,254.147 178.448,245.481 184.5,236C 182.002,231.721 181.002,227.054 181.5,222C 181.018,216.781 182.018,211.948 184.5,207.5C 169.002,189.858 160.835,169.191 160,145.5C 153.506,138.895 150.34,130.895 150.5,121.5C 151.71,105.321 155.71,89.9873 162.5,75.5C 163.833,74.8333 164.833,73.8333 165.5,72.5C 166.793,71.8418 168.293,71.5085 170,71.5C 178.182,72.926 186.349,74.0927 194.5,75C 203.61,68.1099 213.61,62.7766 224.5,59C 231.985,52.7586 239.652,46.7586 247.5,41C 249.365,39.6986 251.365,39.3653 253.5,40C 262.013,46.0906 270.346,52.424 278.5,59C 309.361,70.0248 329.361,91.1915 338.5,122.5 Z M 308.5,138.5 C 308.795,140.735 308.461,142.735 307.5,144.5C 302.735,133.394 295.069,124.727 284.5,118.5C 283.877,116.289 282.877,114.289 281.5,112.5C 284.688,109.461 286.855,105.794 288,101.5C 299.006,111.512 305.84,123.845 308.5,138.5 Z"/></g>
<g><path style="opacity:1" fill="#f8e302" d="M 268.5,58.5 C 270.076,61.9262 271.909,65.2595 274,68.5C 278.291,87.3135 271.457,100.147 253.5,107C 246.174,107.5 238.841,107.666 231.5,107.5C 229.639,99.4544 225.472,92.7878 219,87.5C 218.204,80.0195 220.204,73.3529 225,67.5C 233.104,59.2241 241.937,51.8907 251.5,45.5C 257.377,49.5998 263.043,53.9331 268.5,58.5 Z"/></g>
<g><path style="opacity:1" fill="#0d0701" d="M 248.5,58.5 C 250.527,58.3379 252.527,58.5045 254.5,59C 258.667,63.1667 262.833,67.3333 267,71.5C 269.846,74.9189 270.18,78.5855 268,82.5C 263.717,86.9049 259.55,91.4049 255.5,96C 252.833,98 250.167,98 247.5,96C 242.884,91.2619 238.384,86.4285 234,81.5C 233.004,77.7928 233.67,74.4595 236,71.5C 240.398,67.2713 244.564,62.9379 248.5,58.5 Z"/></g>
<g><path style="opacity:1" fill="#f6c300" d="M 268.5,58.5 C 285.012,70.8836 288.845,86.5502 280,105.5C 278.457,107.378 276.624,108.878 274.5,110C 260.488,110.833 246.488,110.666 232.5,109.5C 232.137,108.817 231.804,108.15 231.5,107.5C 238.841,107.666 246.174,107.5 253.5,107C 271.457,100.147 278.291,87.3135 274,68.5C 271.909,65.2595 270.076,61.9262 268.5,58.5 Z"/></g>
<g><path style="opacity:1" fill="#f32a38" d="M 247.5,87.5 C 249.92,84.7074 250.92,81.3741 250.5,77.5C 250.545,73.6681 249.878,70.0014 248.5,66.5C 249.254,64.5541 250.588,63.7207 252.5,64C 256.314,68.6487 260.314,73.1487 264.5,77.5C 260.73,83.7915 255.73,88.2915 249.5,91C 248.695,89.8873 248.028,88.7206 247.5,87.5 Z"/></g>
<g><path style="opacity:1" fill="#f74552" d="M 248.5,66.5 C 249.878,70.0014 250.545,73.6681 250.5,77.5C 250.92,81.3741 249.92,84.7074 247.5,87.5C 243.81,84.8093 240.81,81.476 238.5,77.5C 241.884,73.7875 245.217,70.1208 248.5,66.5 Z"/></g>
<g><path style="opacity:1" fill="#eebe00" d="M 310.5,192.5 C 310.34,194.199 310.506,195.866 311,197.5C 316.862,190.123 320.695,182.123 322.5,173.5C 323.899,170.301 324.899,166.968 325.5,163.5C 326.222,163.082 326.722,162.416 327,161.5C 327.497,158.854 327.664,156.187 327.5,153.5C 327.5,149.833 327.5,146.167 327.5,142.5C 327.664,139.813 327.497,137.146 327,134.5C 326.617,133.944 326.117,133.611 325.5,133.5C 326.628,129.772 326.295,126.105 324.5,122.5C 323.84,118.687 322.674,115.021 321,111.5C 320.722,112.416 320.222,113.082 319.5,113.5C 319.494,110.482 318.494,107.816 316.5,105.5C 315.311,104.571 313.978,104.238 312.5,104.5C 313.718,103.839 315.051,103.172 316.5,102.5C 309.499,89.4975 299.832,79.8309 287.5,73.5C 285.901,72.2015 285.401,70.5348 286,68.5C 321.208,86.2332 337.874,114.9 336,154.5C 333.595,174.475 325.428,191.642 311.5,206C 310.552,206.483 309.552,206.649 308.5,206.5C 308.69,201.63 309.356,196.964 310.5,192.5 Z"/></g>
<g><path style="opacity:1" fill="#edd201" d="M 215.5,68.5 C 216.497,68.4701 217.164,68.9701 217.5,70C 215.375,73.9176 214.042,78.0843 213.5,82.5C 213,82.8333 212.5,83.1667 212,83.5C 208.198,81.7337 204.365,80.0671 200.5,78.5C 205.393,74.8952 210.393,71.5618 215.5,68.5 Z"/></g>
<g><path style="opacity:1" fill="#f6e102" d="M 312.5,104.5 C 311.402,105.601 311.235,106.934 312,108.5C 313.252,110.001 314.252,111.668 315,113.5C 316.49,114.728 317.99,114.728 319.5,113.5C 320.222,113.082 320.722,112.416 321,111.5C 322.674,115.021 323.84,118.687 324.5,122.5C 322.052,122.01 320.385,122.843 319.5,125C 320.333,127.5 321.167,130 322,132.5C 323.011,133.337 324.178,133.67 325.5,133.5C 326.117,133.611 326.617,133.944 327,134.5C 327.497,137.146 327.664,139.813 327.5,142.5C 323.259,141.909 321.593,143.742 322.5,148C 321.593,152.258 323.259,154.091 327.5,153.5C 327.664,156.187 327.497,158.854 327,161.5C 326.722,162.416 326.222,163.082 325.5,163.5C 323.292,161.857 321.459,162.19 320,164.5C 319.005,167.126 318.672,169.793 319,172.5C 320.011,173.337 321.178,173.67 322.5,173.5C 320.695,182.123 316.862,190.123 311,197.5C 310.506,195.866 310.34,194.199 310.5,192.5C 313.987,190.589 316.32,187.589 317.5,183.5C 315.931,179.501 314.098,179.501 312,183.5C 312.011,170.786 312.845,158.119 314.5,145.5C 313.775,125.383 305.608,109.05 290,96.5C 289.87,88.7272 289.036,81.0606 287.5,73.5C 299.832,79.8309 309.499,89.4975 316.5,102.5C 315.051,103.172 313.718,103.839 312.5,104.5 Z"/></g>
<g><path style="opacity:0.408" fill="#a6a6a7" d="M 165.5,72.5 C 164.833,73.8333 163.833,74.8333 162.5,75.5C 162.5,73.5 163.5,72.5 165.5,72.5 Z"/></g>
<g><path style="opacity:1" fill="#21af7c" d="M 194.5,82.5 C 198.476,85.4921 202.809,87.9921 207.5,90C 213.48,95.1466 216.813,101.313 217.5,108.5C 206.249,102.248 194.249,98.7478 181.5,98C 176.423,103.874 173.257,110.707 172,118.5C 167.685,131.357 170.518,142.19 180.5,151C 170.499,148.884 163.332,143.051 159,133.5C 155.915,123.554 155.915,113.554 159,103.5C 161.065,94.9709 163.732,86.6375 167,78.5C 168.062,77.9032 169.228,77.5698 170.5,77.5C 178.579,78.8535 186.579,80.5202 194.5,82.5 Z"/></g>
<g><path style="opacity:1" fill="#028959" d="M 194.5,82.5 C 204.677,84.6713 213.51,89.338 221,96.5C 227.3,105.368 228.967,115.035 226,125.5C 225.283,118.733 222.45,113.066 217.5,108.5C 216.813,101.313 213.48,95.1466 207.5,90C 202.809,87.9921 198.476,85.4921 194.5,82.5 Z"/></g>
<g><path style="opacity:1" fill="#080600" d="M 299.5,88.5 C 302.959,89.436 305.793,91.436 308,94.5C 308.167,97 307,98.1667 304.5,98C 302.667,96.1667 300.833,94.3333 299,92.5C 298.421,91.0715 298.588,89.7382 299.5,88.5 Z"/></g>
<g><path style="opacity:1" fill="#f6763e" d="M 182.5,103.5 C 194.419,104.307 205.419,107.807 215.5,114C 220.231,120.038 221.731,126.871 220,134.5C 218.802,130.254 216.302,127.087 212.5,125C 207.042,122.551 201.375,121.218 195.5,121C 190.961,123.887 188.461,128.053 188,133.5C 186.549,139.639 187.716,145.139 191.5,150C 181.604,147.754 176.271,141.42 175.5,131C 176.882,121.587 179.216,112.421 182.5,103.5 Z"/></g>
<g><path style="opacity:1" fill="#0c0a01" d="M 312.5,104.5 C 313.978,104.238 315.311,104.571 316.5,105.5C 318.494,107.816 319.494,110.482 319.5,113.5C 317.99,114.728 316.49,114.728 315,113.5C 314.252,111.668 313.252,110.001 312,108.5C 311.235,106.934 311.402,105.601 312.5,104.5 Z"/></g>
<g><path style="opacity:1" fill="#dfb400" d="M 275.5,125.5 C 260.794,126.15 246.461,125.483 232.5,123.5C 232.5,120.833 232.5,118.167 232.5,115.5C 246.837,115.333 261.171,115.5 275.5,116C 280.809,119.349 280.809,122.516 275.5,125.5 Z"/></g>
<g><path style="opacity:1" fill="#fde802" d="M 235.5,116.5 C 247.186,116.168 258.852,116.501 270.5,117.5C 269.699,120.133 268.033,121.967 265.5,123C 255.506,123.5 245.506,123.666 235.5,123.5C 235.5,121.167 235.5,118.833 235.5,116.5 Z"/></g>
<g><path style="opacity:1" fill="#110f02" d="M 324.5,122.5 C 326.295,126.105 326.628,129.772 325.5,133.5C 324.178,133.67 323.011,133.337 322,132.5C 321.167,130 320.333,127.5 319.5,125C 320.385,122.843 322.052,122.01 324.5,122.5 Z"/></g>
<g><path style="opacity:1" fill="#b48e00" d="M 232.5,123.5 C 246.461,125.483 260.794,126.15 275.5,125.5C 261.01,126.496 246.343,126.829 231.5,126.5C 231.263,125.209 231.596,124.209 232.5,123.5 Z"/></g>
<g><path style="opacity:1" fill="#036cc5" d="M 196.5,126.5 C 203.365,126.396 209.198,128.73 214,133.5C 216.364,144.792 211.864,150.292 200.5,150C 194.033,147.204 191.533,142.37 193,135.5C 193.495,132.172 194.662,129.172 196.5,126.5 Z"/></g>
<g><path style="opacity:1" fill="#f1bf00" d="M 295.5,194.5 C 301.298,177.402 300.798,160.402 294,143.5C 291.578,139.656 288.911,135.99 286,132.5C 284.736,130.393 282.903,129.393 280.5,129.5C 281.458,128.038 282.624,126.705 284,125.5C 302.223,137.62 309.889,154.62 307,176.5C 306.06,185.906 304.727,195.239 303,204.5C 301.053,200.724 298.553,197.39 295.5,194.5 Z"/></g>
<g><path style="opacity:0.514" fill="#8c8c8d" d="M 338.5,122.5 C 339.924,124.515 340.59,126.848 340.5,129.5C 339.076,127.485 338.41,125.152 338.5,122.5 Z"/></g>
<g><path style="opacity:1" fill="#fae502" d="M 280.5,129.5 C 282.903,129.393 284.736,130.393 286,132.5C 288.911,135.99 291.578,139.656 294,143.5C 300.798,160.402 301.298,177.402 295.5,194.5C 282.227,184.953 267.561,182.286 251.5,186.5C 236.921,182.297 223.254,184.131 210.5,192C 206.248,195.581 202.748,199.748 200,204.5C 197.331,190.974 195.831,177.308 195.5,163.5C 197.992,161.834 200.825,160.834 204,160.5C 204.765,160.57 205.265,160.903 205.5,161.5C 203.399,170.155 206.733,174.655 215.5,175C 222.585,172.103 224.252,167.27 220.5,160.5C 218.68,159.117 216.68,158.117 214.5,157.5C 224.19,151.799 230.523,143.466 233.5,132.5C 247.344,132.829 261.01,132.496 274.5,131.5C 276.703,131.396 278.703,130.73 280.5,129.5 Z"/></g>
<g><path style="opacity:1" fill="#e5ba00" d="M 274.5,131.5 C 261.01,132.496 247.344,132.829 233.5,132.5C 230.523,143.466 224.19,151.799 214.5,157.5C 212.801,157.34 211.134,157.506 209.5,158C 208.295,159.376 206.962,160.542 205.5,161.5C 205.265,160.903 204.765,160.57 204,160.5C 200.825,160.834 197.992,161.834 195.5,163.5C 195.215,161.712 195.548,160.045 196.5,158.5C 212.262,155.725 223.262,147.058 229.5,132.5C 244.485,131.501 259.485,131.167 274.5,131.5 Z"/></g>
<g><path style="opacity:1" fill="#0d0a00" d="M 327.5,142.5 C 327.5,146.167 327.5,149.833 327.5,153.5C 323.259,154.091 321.593,152.258 322.5,148C 321.593,143.742 323.259,141.909 327.5,142.5 Z"/></g>
<g><path style="opacity:0.388" fill="#878788" d="M 308.5,138.5 C 309.634,140.966 309.801,143.633 309,146.5C 308.283,145.956 307.783,145.289 307.5,144.5C 308.461,142.735 308.795,140.735 308.5,138.5 Z"/></g>
<g><path style="opacity:1" fill="#0d0801" d="M 247.5,148.5 C 260.561,148.636 265.394,154.97 262,167.5C 253.287,176.158 245.954,175.158 240,164.5C 238.485,157.2 240.985,151.867 247.5,148.5 Z"/></g>
<g><path style="opacity:1" fill="#f5e102" d="M 181.5,157.5 C 182.187,160.912 183.187,164.246 184.5,167.5C 184.376,168.107 184.043,168.44 183.5,168.5C 180.006,167.165 178.84,168.499 180,172.5C 180.45,174.519 181.283,176.352 182.5,178C 184.066,178.765 185.399,178.598 186.5,177.5C 187.222,177.082 187.722,176.416 188,175.5C 189.459,177.432 190.625,179.432 191.5,181.5C 191.293,184.239 190.293,186.573 188.5,188.5C 189.767,190.944 191.267,193.277 193,195.5C 193.246,198.89 193.746,202.223 194.5,205.5C 194,205.833 193.5,206.167 193,206.5C 176.285,192.063 167.951,173.73 168,151.5C 172.027,154.564 176.527,156.564 181.5,157.5 Z"/></g>
<g><path style="opacity:1" fill="#ed3440" d="M 248.5,153.5 C 255.657,153.155 258.824,156.488 258,163.5C 255.794,167.125 252.627,168.292 248.5,167C 244.876,164.839 243.709,161.672 245,157.5C 246.376,156.295 247.542,154.962 248.5,153.5 Z"/></g>
<g><path style="opacity:1" fill="#0d0d03" d="M 214.5,157.5 C 216.68,158.117 218.68,159.117 220.5,160.5C 224.252,167.27 222.585,172.103 215.5,175C 206.733,174.655 203.399,170.155 205.5,161.5C 206.962,160.542 208.295,159.376 209.5,158C 211.134,157.506 212.801,157.34 214.5,157.5 Z"/></g>
<g><path style="opacity:1" fill="#101004" d="M 285.5,157.5 C 294.515,156.683 298.681,160.683 298,169.5C 292.151,177.236 286.484,177.236 281,169.5C 280.333,167.167 280.333,164.833 281,162.5C 282.366,160.638 283.866,158.972 285.5,157.5 Z"/></g>
<g><path style="opacity:1" fill="#e7b900" d="M 181.5,157.5 C 184.391,158.403 187.391,158.736 190.5,158.5C 190.309,166.201 190.642,173.868 191.5,181.5C 190.625,179.432 189.459,177.432 188,175.5C 187.722,176.416 187.222,177.082 186.5,177.5C 186.095,174.285 185.095,171.285 183.5,168.5C 184.043,168.44 184.376,168.107 184.5,167.5C 183.187,164.246 182.187,160.912 181.5,157.5 Z"/></g>
<g><path style="opacity:1" fill="#0e0c02" d="M 325.5,163.5 C 324.899,166.968 323.899,170.301 322.5,173.5C 321.178,173.67 320.011,173.337 319,172.5C 318.672,169.793 319.005,167.126 320,164.5C 321.459,162.19 323.292,161.857 325.5,163.5 Z"/></g>
<g><path style="opacity:1" fill="#048c5b" d="M 211.5,162.5 C 216.486,162.305 218.152,164.472 216.5,169C 214.527,169.495 212.527,169.662 210.5,169.5C 210.298,167.05 210.631,164.717 211.5,162.5 Z"/></g>
<g><path style="opacity:1" fill="#04935f" d="M 287.5,162.5 C 292.328,162.385 293.661,164.552 291.5,169C 285.339,169.878 284.006,167.711 287.5,162.5 Z"/></g>
<g><path style="opacity:1" fill="#0f0c02" d="M 183.5,168.5 C 185.095,171.285 186.095,174.285 186.5,177.5C 185.399,178.598 184.066,178.765 182.5,178C 181.283,176.352 180.45,174.519 180,172.5C 178.84,168.499 180.006,167.165 183.5,168.5 Z"/></g>
<g><path style="opacity:1" fill="#27a1f6" d="M 235.5,286.5 C 266.485,286.689 285.651,271.689 293,241.5C 293.912,229.775 293.579,218.108 292,206.5C 283.113,199.265 272.947,196.598 261.5,198.5C 259.099,196.938 257.099,197.271 255.5,199.5C 252.833,199.5 250.167,199.5 247.5,199.5C 245.901,197.271 243.901,196.938 241.5,198.5C 224.359,196.41 211.026,202.41 201.5,216.5C 205.245,200.096 215.578,191.096 232.5,189.5C 244.491,192.057 256.491,192.057 268.5,189.5C 284.21,190.39 295.043,198.056 301,212.5C 301.667,223.5 301.667,234.5 301,245.5C 295.252,274.074 277.752,288.741 248.5,289.5C 243.772,289.625 239.438,288.625 235.5,286.5 Z"/></g>
<g><path style="opacity:1" fill="#180f11" d="M 247.5,199.5 C 247.334,206.175 247.5,212.842 248,219.5C 250.333,220.833 252.667,220.833 255,219.5C 255.5,212.842 255.666,206.175 255.5,199.5C 257.099,197.271 259.099,196.938 261.5,198.5C 261.896,206.253 261.396,213.92 260,221.5C 257.103,226.155 252.937,227.655 247.5,226C 245.43,225.052 243.93,223.552 243,221.5C 241.604,213.92 241.104,206.253 241.5,198.5C 243.901,196.938 245.901,197.271 247.5,199.5 Z"/></g>
<g><path style="opacity:1" fill="#88c7fc" d="M 241.5,198.5 C 241.104,206.253 241.604,213.92 243,221.5C 243.93,223.552 245.43,225.052 247.5,226C 252.937,227.655 257.103,226.155 260,221.5C 261.396,213.92 261.896,206.253 261.5,198.5C 272.947,196.598 283.113,199.265 292,206.5C 293.579,218.108 293.912,229.775 293,241.5C 285.651,271.689 266.485,286.689 235.5,286.5C 215.866,280.358 204.7,267.025 202,246.5C 201.5,236.506 201.334,226.506 201.5,216.5C 211.026,202.41 224.359,196.41 241.5,198.5 Z"/></g>
<g><path style="opacity:1" fill="#88c6fb" d="M 247.5,199.5 C 250.167,199.5 252.833,199.5 255.5,199.5C 255.666,206.175 255.5,212.842 255,219.5C 252.667,220.833 250.333,220.833 248,219.5C 247.5,212.842 247.334,206.175 247.5,199.5 Z"/></g>
<g><path style="opacity:1" fill="#9f634b" d="M 121.5,195.5 C 122.966,196.347 123.8,197.68 124,199.5C 125.911,206.312 127.745,213.145 129.5,220C 129.095,220.945 128.428,221.612 127.5,222C 121.547,223.489 115.547,224.656 109.5,225.5C 108.166,218.832 106.833,212.165 105.5,205.5C 112.12,204.211 117.453,200.878 121.5,195.5 Z"/></g>
<g><path style="opacity:1" fill="#25a3f9" d="M 195.5,216.5 C 195.5,222.5 195.5,228.5 195.5,234.5C 194.5,234.5 193.5,234.5 192.5,234.5C 190.248,234.084 188.748,232.751 188,230.5C 187.333,224.5 187.333,218.5 188,212.5C 188.718,211.549 189.551,211.383 190.5,212C 192.037,213.707 193.704,215.207 195.5,216.5 Z"/></g>
<g><path style="opacity:1" fill="#239cef" d="M 311.5,212.5 C 312.822,212.33 313.989,212.663 315,213.5C 315.667,219.167 315.667,224.833 315,230.5C 313.326,234.089 310.493,235.755 306.5,235.5C 306.17,229.132 306.504,222.798 307.5,216.5C 309.188,215.479 310.521,214.145 311.5,212.5 Z"/></g>
<g><path style="opacity:1" fill="#080d13" d="M 212.5,221.5 C 215.825,222.16 219.158,222.826 222.5,223.5C 225.32,223.422 227.987,222.755 230.5,221.5C 233.396,222.024 234.063,223.524 232.5,226C 225.884,230.46 219.218,230.46 212.5,226C 211.272,224.51 211.272,223.01 212.5,221.5 Z"/></g>
<g><path style="opacity:1" fill="#080d13" d="M 270.5,221.5 C 276.495,224.092 282.495,224.092 288.5,221.5C 291.396,222.024 292.063,223.524 290.5,226C 284.353,230.193 278.02,230.526 271.5,227C 269.365,225.444 269.032,223.611 270.5,221.5 Z"/></g>
<g><path style="opacity:1" fill="#156092" d="M 195.5,216.5 C 196.49,222.645 196.823,228.978 196.5,235.5C 194.901,235.768 193.568,235.434 192.5,234.5C 193.5,234.5 194.5,234.5 195.5,234.5C 195.5,228.5 195.5,222.5 195.5,216.5 Z"/></g>
<g><path style="opacity:1" fill="#d1a89b" d="M 128.5,226.5 C 129.5,226.5 130.5,226.5 131.5,226.5C 133.304,232.753 134.471,239.086 135,245.5C 129.012,247.706 122.845,249.373 116.5,250.5C 115.373,244.155 113.706,237.988 111.5,232C 117.181,230.001 122.847,228.168 128.5,226.5 Z"/></g>
<g><path style="opacity:1" fill="#f1dd02" d="M 188.5,239.5 C 191.127,240.092 193.794,240.425 196.5,240.5C 196.377,246.609 197.044,252.609 198.5,258.5C 190.617,258.789 186.284,254.955 185.5,247C 186.093,244.317 187.093,241.817 188.5,239.5 Z"/></g>
<g><path style="opacity:1" fill="#fbe602" d="M 311.5,240.5 C 313.121,240.787 314.121,241.787 314.5,243.5C 313.576,247.597 311.576,251.097 308.5,254C 307.552,254.483 306.552,254.649 305.5,254.5C 305.5,253.5 305.5,252.5 305.5,251.5C 306.344,247.901 306.677,244.234 306.5,240.5C 308.167,240.5 309.833,240.5 311.5,240.5 Z"/></g>
<g><path style="opacity:1" fill="#e2b600" d="M 311.5,240.5 C 312.386,239.224 313.386,239.224 314.5,240.5C 318.613,246.469 317.946,251.969 312.5,257C 309.688,258.549 306.688,259.382 303.5,259.5C 303.565,256.572 304.232,253.905 305.5,251.5C 305.5,252.5 305.5,253.5 305.5,254.5C 306.552,254.649 307.552,254.483 308.5,254C 311.576,251.097 313.576,247.597 314.5,243.5C 314.121,241.787 313.121,240.787 311.5,240.5 Z"/></g>
<g><path style="opacity:1" fill="#f14351" d="M 72.5,248.5 C 73.7647,249.514 74.4313,251.014 74.5,253C 74.1667,254.5 73.8333,256 73.5,257.5C 70.9528,256.066 68.6195,254.4 66.5,252.5C 68.5654,251.143 70.5654,249.81 72.5,248.5 Z"/></g>
<g><path style="opacity:1" fill="#8e5841" d="M 149.5,326.5 C 149.5,325.833 149.167,325.5 148.5,325.5C 151.174,322.505 150.841,319.838 147.5,317.5C 145.986,311.108 144.319,304.775 142.5,298.5C 143.873,295.617 143.207,293.283 140.5,291.5C 138.986,285.108 137.319,278.775 135.5,272.5C 135.662,270.473 135.495,268.473 135,266.5C 134.617,265.944 134.117,265.611 133.5,265.5C 132.534,261.277 131.201,257.277 129.5,253.5C 131.914,252.067 134.581,251.567 137.5,252C 144.086,274.933 150.42,297.933 156.5,321C 154.997,323.767 152.664,325.601 149.5,326.5 Z"/></g>
<g><path style="opacity:1" fill="#a6674f" d="M 129.5,253.5 C 131.201,257.277 132.534,261.277 133.5,265.5C 129.513,265.652 128.013,267.652 129,271.5C 129.519,272.516 130.353,273.182 131.5,273.5C 132.849,273.154 134.183,272.821 135.5,272.5C 137.319,278.775 138.986,285.108 140.5,291.5C 136.513,291.652 135.013,293.652 136,297.5C 137.842,299.834 140.009,300.168 142.5,298.5C 144.319,304.775 145.986,311.108 147.5,317.5C 142.738,318.092 141.404,320.592 143.5,325C 145.134,325.494 146.801,325.66 148.5,325.5C 149.167,325.5 149.5,325.833 149.5,326.5C 145.922,328.733 142.588,331.399 139.5,334.5C 132.292,308.211 125.292,281.877 118.5,255.5C 122.167,254.833 125.833,254.167 129.5,253.5 Z"/></g>
<g><path style="opacity:1" fill="#0a0f15" d="M 239.5,262.5 C 246.938,266.459 254.438,266.459 262,262.5C 264.59,263.687 265.09,265.52 263.5,268C 255.185,272.818 247.018,272.651 239,267.5C 238.36,265.735 238.527,264.068 239.5,262.5 Z"/></g>
<g><path style="opacity:1" fill="#2b2b2d" d="M 309.5,263.5 C 314.482,267.948 319.982,271.948 326,275.5C 326.958,277.199 327.458,279.033 327.5,281C 326.396,285.479 325.396,289.979 324.5,294.5C 324.853,303.695 329.519,309.528 338.5,312C 339.167,313 339.833,314 340.5,315C 329.929,312.189 319.263,309.356 308.5,306.5C 300.433,309.959 292.933,308.626 286,302.5C 283.54,296.755 282.873,290.755 284,284.5C 290.567,278.93 296.067,272.43 300.5,265C 303.695,264.819 306.695,264.319 309.5,263.5 Z"/></g>
<g><path style="opacity:1" fill="#0e0705" d="M 133.5,265.5 C 134.117,265.611 134.617,265.944 135,266.5C 135.495,268.473 135.662,270.473 135.5,272.5C 134.183,272.821 132.849,273.154 131.5,273.5C 130.353,273.182 129.519,272.516 129,271.5C 128.013,267.652 129.513,265.652 133.5,265.5 Z"/></g>
<g><path style="opacity:1" fill="#3b3a41" d="M 192.5,266.5 C 195.572,266.183 198.572,266.516 201.5,267.5C 203.993,275.826 208.493,282.826 215,288.5C 215.667,291.167 215.667,293.833 215,296.5C 201.648,301.257 188.148,305.591 174.5,309.5C 181.33,302.174 182.163,294.174 177,285.5C 176.196,281.93 177.03,278.763 179.5,276C 184.601,273.711 188.934,270.544 192.5,266.5 Z"/></g>
<g><path style="opacity:1" fill="#2b2b2d" d="M 174.5,309.5 C 188.148,305.591 201.648,301.257 215,296.5C 215.667,293.833 215.667,291.167 215,288.5C 208.493,282.826 203.993,275.826 201.5,267.5C 198.572,266.516 195.572,266.183 192.5,266.5C 193.514,265.235 195.014,264.569 197,264.5C 198.5,264.667 200,264.833 201.5,265C 205.89,272.561 211.557,279.061 218.5,284.5C 219.662,289.467 219.829,294.467 219,299.5C 217.5,302.333 215.333,304.5 212.5,306C 196.405,310.532 180.405,315.365 164.5,320.5C 163.386,319.277 163.219,317.944 164,316.5C 166.956,313.278 170.456,310.944 174.5,309.5 Z"/></g>
<g><path style="opacity:1" fill="#3b3a41" d="M 301.5,266.5 C 307.906,267.118 313.406,269.785 318,274.5C 320.18,280.023 319.847,285.357 317,290.5C 315.638,298.278 318.472,304.112 325.5,308C 316.75,306.311 308.083,303.978 299.5,301C 284.345,298.229 282.511,291.729 294,281.5C 297.041,276.752 299.541,271.752 301.5,266.5 Z"/></g>
<g><path style="opacity:0.745" fill="#919192" d="M 92.5,263.5 C 93.0102,266.388 92.3435,268.721 90.5,270.5C 91.0654,268.048 91.7321,265.715 92.5,263.5 Z"/></g>
<g><path style="opacity:1" fill="#eb424f" d="M 89.5,276.5 C 90.5,276.5 91.5,276.5 92.5,276.5C 92.6646,279.518 92.498,282.518 92,285.5C 89.2049,284.192 86.7049,282.526 84.5,280.5C 86.0147,278.918 87.6814,277.584 89.5,276.5 Z"/></g>
<g><path style="opacity:1" fill="#28a5fb" d="M 277.5,298.5 C 259.308,305.176 241.975,303.509 225.5,293.5C 225.5,292.167 225.5,290.833 225.5,289.5C 242.602,296.417 259.602,296.084 276.5,288.5C 277.487,291.768 277.82,295.102 277.5,298.5 Z"/></g>
<g><path style="opacity:1" fill="#0e0805" d="M 140.5,291.5 C 143.207,293.283 143.873,295.617 142.5,298.5C 140.009,300.168 137.842,299.834 136,297.5C 135.013,293.652 136.513,291.652 140.5,291.5 Z"/></g>
<g><path style="opacity:1" fill="#86c5f9" d="M 225.5,293.5 C 241.975,303.509 259.308,305.176 277.5,298.5C 278.725,299.937 279.725,301.604 280.5,303.5C 268.698,312.616 255.365,315.783 240.5,313C 233.772,311.137 227.772,307.97 222.5,303.5C 224.004,300.313 225.004,296.979 225.5,293.5 Z"/></g>
<g><path style="opacity:1" fill="#f4dc02" d="M 243.5,326.5 C 243.423,325.25 242.756,324.417 241.5,324C 232.73,321.856 224.564,318.356 217,313.5C 216.517,312.552 216.351,311.552 216.5,310.5C 216.866,309.305 217.699,308.639 219,308.5C 240.043,322.967 261.21,323.133 282.5,309C 285.727,308.226 287.06,309.559 286.5,313C 286.39,315.255 285.39,316.922 283.5,318C 276.02,322.382 268.02,325.382 259.5,327C 256.018,331.031 255.518,335.531 258,340.5C 259.643,342.977 261.476,345.31 263.5,347.5C 260.384,350.232 257.051,352.732 253.5,355C 252.167,355.667 250.833,355.667 249.5,355C 245.949,352.732 242.616,350.232 239.5,347.5C 245.136,342.761 247.302,336.761 246,329.5C 244.955,328.627 244.122,327.627 243.5,326.5 Z"/></g>
<g><path style="opacity:1" fill="#f4c200" d="M 252.5,381.5 C 250.372,382.629 248.039,382.796 245.5,382C 235.673,376.92 226.006,371.587 216.5,366C 208.814,360.468 204.314,352.968 203,343.5C 202.83,333.991 202.33,324.658 201.5,315.5C 203.949,314.209 206.616,313.209 209.5,312.5C 210.332,323.151 210.832,333.818 211,344.5C 213.487,356.316 219.987,365.15 230.5,371C 237.518,375.344 244.851,378.844 252.5,381.5 Z"/></g>
<g><path style="opacity:1" fill="#fae502" d="M 301.5,363.5 C 291.539,382.002 276.539,394.668 256.5,401.5C 251.63,401.032 246.964,401.698 242.5,403.5C 229.5,397.005 217.167,389.505 205.5,381C 190.171,363.33 184.337,342.83 188,319.5C 192.289,317.459 196.789,316.126 201.5,315.5C 202.33,324.658 202.83,333.991 203,343.5C 204.314,352.968 208.814,360.468 216.5,366C 226.006,371.587 235.673,376.92 245.5,382C 248.039,382.796 250.372,382.629 252.5,381.5C 261.301,376.932 269.967,372.099 278.5,367C 285.164,360.844 289.664,353.344 292,344.5C 292.5,333.839 292.667,323.172 292.5,312.5C 295.426,313.461 298.426,314.127 301.5,314.5C 301.5,330.833 301.5,347.167 301.5,363.5 Z"/></g>
<g><path style="opacity:1" fill="#140d09" d="M 147.5,317.5 C 150.841,319.838 151.174,322.505 148.5,325.5C 146.801,325.66 145.134,325.494 143.5,325C 141.404,320.592 142.738,318.092 147.5,317.5 Z"/></g>
<g><path style="opacity:1" fill="#f3923a" d="M 327.5,435.5 C 339.5,435.5 351.5,435.5 363.5,435.5C 365.5,435.5 367.5,435.5 369.5,435.5C 348.167,436.833 326.833,436.833 305.5,435.5C 306.494,394.572 306.827,353.572 306.5,312.5C 312.245,312.787 317.745,314.121 323,316.5C 323.333,355.833 323.667,395.167 324,434.5C 325.011,435.337 326.178,435.67 327.5,435.5 Z"/></g>
<g><path style="opacity:1" fill="#f7c400" d="M 371.5,361.5 C 371.823,386.241 371.49,410.908 370.5,435.5C 370.167,435.5 369.833,435.5 369.5,435.5C 367.5,435.5 365.5,435.5 363.5,435.5C 363.667,410.164 363.5,384.831 363,359.5C 358.09,341.092 346.59,329.092 328.5,323.5C 328.5,321.833 328.5,320.167 328.5,318.5C 353.913,321.913 368.246,336.246 371.5,361.5 Z"/></g>
<g><path style="opacity:1" fill="#e8b900" d="M 216.5,310.5 C 216.351,311.552 216.517,312.552 217,313.5C 224.564,318.356 232.73,321.856 241.5,324C 242.756,324.417 243.423,325.25 243.5,326.5C 233.388,325.194 224.221,321.527 216,315.5C 215.22,313.613 215.387,311.946 216.5,310.5 Z"/></g>
<g><path style="opacity:1" fill="#8ac7fc" d="M 199.5,382.5 C 202.267,387.102 205.934,390.936 210.5,394C 219.033,399.099 227.699,403.932 236.5,408.5C 234.784,412.972 234.118,417.638 234.5,422.5C 235.258,430.591 239.591,434.925 247.5,435.5C 234.598,436.821 221.598,436.821 208.5,435.5C 209.301,433.958 209.634,432.292 209.5,430.5C 185.04,427.552 173.54,413.886 175,389.5C 175.833,387 176.667,384.5 177.5,382C 176.499,379.498 174.833,378.998 172.5,380.5C 171.568,382.795 170.735,385.129 170,387.5C 169.183,403.574 169.35,419.574 170.5,435.5C 157.225,436.712 143.892,436.712 130.5,435.5C 131.324,410.572 131.824,385.572 132,360.5C 135.718,345.453 144.552,334.619 158.5,328C 166.141,325.397 173.808,322.897 181.5,320.5C 182.332,329.482 182.832,338.482 183,347.5C 185.306,360.774 190.806,372.44 199.5,382.5 Z"/></g>
<g><path style="opacity:1" fill="#fde802" d="M 328.5,323.5 C 346.59,329.092 358.09,341.092 363,359.5C 363.5,384.831 363.667,410.164 363.5,435.5C 351.5,435.5 339.5,435.5 327.5,435.5C 328.493,398.239 328.827,360.906 328.5,323.5 Z"/></g>
<g><path style="opacity:1" fill="#88c6fa" d="M 240.5,337.5 C 237.909,340.265 235.909,343.432 234.5,347C 234.84,349.511 235.84,351.678 237.5,353.5C 237.511,355.017 238.177,356.184 239.5,357C 243.367,359.698 247.367,362.198 251.5,364.5C 255.633,362.198 259.633,359.698 263.5,357C 264.823,356.184 265.489,355.017 265.5,353.5C 267.16,351.678 268.16,349.511 268.5,347C 267.091,343.432 265.091,340.265 262.5,337.5C 262.281,336.325 262.614,335.325 263.5,334.5C 271.817,332.504 279.484,329.171 286.5,324.5C 290.209,340.469 285.876,353.636 273.5,364C 266.833,367.667 260.167,371.333 253.5,375C 252.167,375.667 250.833,375.667 249.5,375C 241.172,370.838 233.172,366.171 225.5,361C 220.489,355.811 217.489,349.644 216.5,342.5C 216.334,336.491 216.501,330.491 217,324.5C 223.816,329.324 231.316,332.657 239.5,334.5C 240.386,335.325 240.719,336.325 240.5,337.5 Z"/></g>
<g><path style="opacity:1" fill="#3b91d4" d="M 240.5,337.5 C 240.719,336.325 240.386,335.325 239.5,334.5C 231.316,332.657 223.816,329.324 217,324.5C 216.501,330.491 216.334,336.491 216.5,342.5C 215.182,335.989 215.182,329.322 216.5,322.5C 224.15,327.496 232.484,330.496 241.5,331.5C 241.795,333.735 241.461,335.735 240.5,337.5 Z"/></g>
<g><path style="opacity:1" fill="#3198e4" d="M 286.5,324.5 C 279.484,329.171 271.817,332.504 263.5,334.5C 262.614,335.325 262.281,336.325 262.5,337.5C 261.207,335.636 261.207,333.636 262.5,331.5C 270.726,329.87 278.393,326.87 285.5,322.5C 286.298,322.957 286.631,323.624 286.5,324.5 Z"/></g>
<g><path style="opacity:1" fill="#211d07" d="M 249.5,345.5 C 253.138,344.737 254.638,346.07 254,349.5C 249.415,351.413 247.915,350.079 249.5,345.5 Z"/></g>
<g><path style="opacity:1" fill="#33a4f6" d="M 237.5,353.5 C 241.915,356.577 246.582,359.243 251.5,361.5C 256.418,359.243 261.085,356.577 265.5,353.5C 265.489,355.017 264.823,356.184 263.5,357C 259.633,359.698 255.633,362.198 251.5,364.5C 247.367,362.198 243.367,359.698 239.5,357C 238.177,356.184 237.511,355.017 237.5,353.5 Z"/></g>
<g><path style="opacity:1" fill="#40350f" d="M 371.5,361.5 C 372.498,385.661 372.831,409.994 372.5,434.5C 373.833,434.5 375.167,434.5 376.5,434.5C 376.189,435.478 375.522,436.145 374.5,436.5C 373.264,435.754 371.93,435.421 370.5,435.5C 371.49,410.908 371.823,386.241 371.5,361.5 Z"/></g>
<g><path style="opacity:1" fill="#efbf00" d="M 301.5,363.5 C 301.666,367.846 301.499,372.179 301,376.5C 298.5,379 296,381.5 293.5,384C 283.164,390.837 272.497,397.17 261.5,403C 259.465,403.599 257.799,403.099 256.5,401.5C 276.539,394.668 291.539,382.002 301.5,363.5 Z"/></g>
<g><path style="opacity:1" fill="#050609" d="M 208.5,435.5 C 207.167,435.5 205.833,435.5 204.5,435.5C 192.006,433.334 182.173,427.001 175,416.5C 174.793,422.914 174.293,429.247 173.5,435.5C 172.5,435.5 171.5,435.5 170.5,435.5C 169.35,419.574 169.183,403.574 170,387.5C 170.735,385.129 171.568,382.795 172.5,380.5C 174.833,378.998 176.499,379.498 177.5,382C 176.667,384.5 175.833,387 175,389.5C 173.54,413.886 185.04,427.552 209.5,430.5C 209.634,432.292 209.301,433.958 208.5,435.5 Z"/></g>
<g><path style="opacity:1" fill="#2ca3f6" d="M 302.5,435.5 C 301.167,435.5 299.833,435.5 298.5,435.5C 298.5,420.833 298.5,406.167 298.5,391.5C 297.127,391.343 295.793,391.51 294.5,392C 285.238,398.121 275.904,403.955 266.5,409.5C 265.209,408.458 265.209,407.292 266.5,406C 278.797,400.021 290.297,392.854 301,384.5C 301.181,401.574 301.681,418.574 302.5,435.5 Z"/></g>
<g><path style="opacity:0.998" fill="#8cc9fd" d="M 302.5,435.5 C 286.437,436.632 270.437,436.632 254.5,435.5C 267.17,430.819 271.17,422.153 266.5,409.5C 275.904,403.955 285.238,398.121 294.5,392C 295.793,391.51 297.127,391.343 298.5,391.5C 298.5,406.167 298.5,420.833 298.5,435.5C 299.833,435.5 301.167,435.5 302.5,435.5 Z"/></g>
<g><path style="opacity:1" fill="#2f9fef" d="M 199.5,382.5 C 204.622,386.899 209.955,391.066 215.5,395C 222.996,398.914 230.329,403.08 237.5,407.5C 237.376,408.107 237.043,408.44 236.5,408.5C 227.699,403.932 219.033,399.099 210.5,394C 205.934,390.936 202.267,387.102 199.5,382.5 Z"/></g>
<g><path style="opacity:1" fill="#f7e202" d="M 253.5,406.5 C 256.688,412.836 255.688,418.503 250.5,423.5C 248.513,425.327 246.179,426.327 243.5,426.5C 237.541,419.047 238.541,412.547 246.5,407C 248.81,406.503 251.143,406.337 253.5,406.5 Z"/></g>
<g><path style="opacity:1" fill="#efbe00" d="M 253.5,406.5 C 263.196,409.902 265.696,416.236 261,425.5C 256.909,429.305 252.076,430.472 246.5,429C 245.058,428.623 244.058,427.79 243.5,426.5C 246.179,426.327 248.513,425.327 250.5,423.5C 255.688,418.503 256.688,412.836 253.5,406.5 Z"/></g>
<g><path style="opacity:1" fill="#181e25" d="M 202.5,409.5 C 207.197,410.874 207.531,412.874 203.5,415.5C 200.025,413.916 199.692,411.916 202.5,409.5 Z"/></g>
<g><path style="opacity:0.996" fill="#8fc6f6" d="M 204.5,435.5 C 194.001,436.43 183.668,436.43 173.5,435.5C 174.293,429.247 174.793,422.914 175,416.5C 182.173,427.001 192.006,433.334 204.5,435.5 Z"/></g>
<g><path style="opacity:0.986" fill="#2799e8" d="M 234.5,422.5 C 237.167,428.5 241.5,432.833 247.5,435.5C 239.591,434.925 235.258,430.591 234.5,422.5 Z"/></g>
</svg>
