<?xml version="1.0" encoding="UTF-8"?>
<!DOCTYPE svg PUBLIC "-//W3C//DTD SVG 1.1//EN" "http://www.w3.org/Graphics/SVG/1.1/DTD/svg11.dtd">
<svg xmlns="http://www.w3.org/2000/svg" version="1.1" width="546px" height="457px" style="shape-rendering:geometricPrecision; text-rendering:geometricPrecision; image-rendering:optimizeQuality; fill-rule:evenodd; clip-rule:evenodd" xmlns:xlink="http://www.w3.org/1999/xlink">
<g><path style="opacity:1" fill="#f7bd36" d="M 442.5,28.5 C 439.5,29.1667 436.5,29.8333 433.5,30.5C 428.593,32.7395 424.593,36.0729 421.5,40.5C 421.565,40.0618 421.399,39.7284 421,39.5C 420.692,40.3081 420.192,40.9747 419.5,41.5C 419.167,44.6667 418.833,47.8333 418.5,51C 418.12,82.8664 416.954,114.7 415,146.5C 413.202,157.387 410.035,167.72 405.5,177.5C 404.957,176.258 404.623,174.925 404.5,173.5C 409.098,143.325 412.098,112.992 413.5,82.5C 411.339,67.8882 410.172,53.2215 410,38.5C 410.45,36.481 411.283,34.6477 412.5,33C 422.171,27.6617 432.171,26.1617 442.5,28.5 Z"/></g>
<g><path style="opacity:1" fill="#3a2d2d" d="M 433.5,30.5 C 439.762,29.872 445.762,30.7054 451.5,33C 452.257,34.5122 453.257,35.8455 454.5,37C 453,38.1667 451.5,39.3333 450,40.5C 450.846,33.1739 447.68,30.3405 440.5,32C 442.044,32.2896 443.377,32.9563 444.5,34C 437.615,32.4056 431.782,34.2389 427,39.5C 426.333,40.1667 426.333,40.8333 427,41.5C 431.998,36.3933 437.832,35.2266 444.5,38C 441.167,39.6667 437.833,41.3333 434.5,43C 431.465,46.3702 428.132,49.3702 424.5,52C 426.724,52.0395 428.724,52.2062 430.5,52.5C 428.579,56.7025 425.912,57.3692 422.5,54.5C 420.262,50.0087 419.928,45.342 421.5,40.5C 424.593,36.0729 428.593,32.7395 433.5,30.5 Z"/></g>
<g><path style="opacity:1" fill="#dc9174" d="M 456.5,63.5 C 455.167,64.5 453.833,65.5 452.5,66.5C 449.703,66.9666 448.369,68.6333 448.5,71.5C 446.5,71.8333 444.5,72.1667 442.5,72.5C 440.61,72.7035 439.11,72.0368 438,70.5C 437.53,71.5768 437.697,72.5768 438.5,73.5C 437.209,73.2627 436.209,73.596 435.5,74.5C 433.216,74.0248 431.216,73.0248 429.5,71.5C 429.158,70.6618 428.492,70.3284 427.5,70.5C 428.036,67.3019 427.369,64.6353 425.5,62.5C 425.565,62.0618 425.399,61.7284 425,61.5C 424.768,62.7375 424.268,63.7375 423.5,64.5C 423.134,62.095 422.467,59.7617 421.5,57.5C 421.685,56.4163 422.018,55.4163 422.5,54.5C 425.912,57.3692 428.579,56.7025 430.5,52.5C 433.775,49.1916 437.442,46.3582 441.5,44C 444.315,42.2787 447.315,41.6121 450.5,42C 456.322,46.2845 457.655,51.6178 454.5,58C 455.856,59.5671 456.523,61.4004 456.5,63.5 Z"/></g>
<g><path style="opacity:1" fill="#4c403f" d="M 442.5,28.5 C 454.337,30.1684 460.837,36.8351 462,48.5C 463.786,49.7774 464.952,51.444 465.5,53.5C 463.777,56.202 461.777,58.702 459.5,61C 461.053,63.048 462.386,65.2147 463.5,67.5C 461.998,71.3085 459.998,71.4751 457.5,68C 457.905,67.0546 458.572,66.3879 459.5,66C 458.058,65.6232 457.058,64.7899 456.5,63.5C 456.523,61.4004 455.856,59.5671 454.5,58C 457.655,51.6178 456.322,46.2845 450.5,42C 447.315,41.6121 444.315,42.2787 441.5,44C 437.442,46.3582 433.775,49.1916 430.5,52.5C 428.724,52.2062 426.724,52.0395 424.5,52C 428.132,49.3702 431.465,46.3702 434.5,43C 437.833,41.3333 441.167,39.6667 444.5,38C 437.832,35.2266 431.998,36.3933 427,41.5C 426.333,40.8333 426.333,40.1667 427,39.5C 431.782,34.2389 437.615,32.4056 444.5,34C 443.377,32.9563 442.044,32.2896 440.5,32C 447.68,30.3405 450.846,33.1739 450,40.5C 451.5,39.3333 453,38.1667 454.5,37C 453.257,35.8455 452.257,34.5122 451.5,33C 445.762,30.7054 439.762,29.872 433.5,30.5C 436.5,29.8333 439.5,29.1667 442.5,28.5 Z"/></g>
<g><path style="opacity:1" fill="#57423e" d="M 440.5,46.5 C 441.978,46.238 443.311,46.5713 444.5,47.5C 442.926,48.6309 441.259,48.7975 439.5,48C 440.056,47.6174 440.389,47.1174 440.5,46.5 Z"/></g>
<g><path style="opacity:1" fill="#685050" d="M 440.5,52.5 C 443.063,53.9979 443.063,55.6646 440.5,57.5C 439.334,55.8327 439.334,54.166 440.5,52.5 Z"/></g>
<g><path style="opacity:1" fill="#cfc6ba" d="M 425.5,62.5 C 425.5,64.8333 425.5,67.1667 425.5,69.5C 420.906,69.2598 420.239,67.5931 423.5,64.5C 424.268,63.7375 424.768,62.7375 425,61.5C 425.399,61.7284 425.565,62.0618 425.5,62.5 Z"/></g>
<g><path style="opacity:1" fill="#534651" d="M 440.5,64.5 C 442.505,65.0388 444.505,65.7055 446.5,66.5C 444.926,67.6309 443.259,67.7975 441.5,67C 440.748,66.3292 440.414,65.4959 440.5,64.5 Z"/></g>
<g><path style="opacity:0.996" fill="#cbbcb8" d="M 452.5,66.5 C 452.5,68.1667 452.5,69.8333 452.5,71.5C 451.167,71.5 449.833,71.5 448.5,71.5C 448.369,68.6333 449.703,66.9666 452.5,66.5 Z"/></g>
<g><path style="opacity:1" fill="#f7bc33" d="M 93.5,68.5 C 93.1961,69.1499 92.8627,69.8165 92.5,70.5C 99.9747,83.4512 105.808,97.1179 110,111.5C 117.12,135.098 122.453,159.098 126,183.5C 126.667,193.5 126.667,203.5 126,213.5C 125.15,216.921 124.484,220.254 124,223.5C 127.044,219.002 128.711,214.002 129,208.5C 129.725,195.785 130.058,183.118 130,170.5C 134.451,188.304 135.451,206.304 133,224.5C 131.774,235.43 126.608,243.763 117.5,249.5C 110.709,245.94 106.875,240.273 106,232.5C 105.502,229.518 105.335,226.518 105.5,223.5C 107.569,220.427 110.236,218.094 113.5,216.5C 112.983,221.459 114.649,225.459 118.5,228.5C 119.478,228.023 120.311,227.357 121,226.5C 122.876,218.286 123.709,209.953 123.5,201.5C 123.729,196.99 123.062,192.657 121.5,188.5C 121.42,182.414 120.087,176.747 117.5,171.5C 117.768,169.901 117.434,168.568 116.5,167.5C 114.434,158.637 111.768,149.97 108.5,141.5C 107.307,137.693 105.974,134.026 104.5,130.5C 104.634,128.708 104.301,127.042 103.5,125.5C 100.206,114.614 96.539,103.948 92.5,93.5C 90.0886,82.7838 84.0886,75.1172 74.5,70.5C 80.5104,67.5585 86.8437,66.8918 93.5,68.5 Z"/></g>
<g><path style="opacity:1" fill="#f6ad20" d="M 93.5,68.5 C 95.7857,68.595 97.7857,69.2616 99.5,70.5C 98.9569,70.56 98.6236,70.8933 98.5,71.5C 107.783,90.7287 115.95,110.395 123,130.5C 119.564,110.534 112.731,91.7003 102.5,74C 103.056,73.6174 103.389,73.1174 103.5,72.5C 111.657,76.4929 117.157,82.8262 120,91.5C 131.27,123.246 138.104,155.913 140.5,189.5C 140.153,203.972 138.653,218.306 136,232.5C 134.768,236.625 133.268,240.625 131.5,244.5C 129.372,246.446 127.039,248.279 124.5,250C 121.961,250.796 119.628,250.629 117.5,249.5C 126.608,243.763 131.774,235.43 133,224.5C 135.451,206.304 134.451,188.304 130,170.5C 130.058,183.118 129.725,195.785 129,208.5C 128.711,214.002 127.044,219.002 124,223.5C 124.484,220.254 125.15,216.921 126,213.5C 126.667,203.5 126.667,193.5 126,183.5C 122.453,159.098 117.12,135.098 110,111.5C 105.808,97.1179 99.9747,83.4512 92.5,70.5C 92.8627,69.8165 93.1961,69.1499 93.5,68.5 Z"/></g>
<g><path style="opacity:1" fill="#d4713e" d="M 441.5,74.5 C 445.007,76.366 447.007,79.366 447.5,83.5C 446.391,83.4431 445.391,83.1098 444.5,82.5C 443.5,79.8333 442.5,77.1667 441.5,74.5 Z"/></g>
<g><path style="opacity:1" fill="#e2987a" d="M 85.5,90.5 C 85.0618,90.4346 84.7284,90.6012 84.5,91C 85.5,92 86.5,93 87.5,94C 87.2716,94.3988 86.9382,94.5654 86.5,94.5C 84.712,94.2148 83.0453,94.5481 81.5,95.5C 84.1897,96.5067 86.8563,97.5067 89.5,98.5C 89.4346,98.9382 89.6012,99.2716 90,99.5C 90.3333,98.8333 90.6667,98.1667 91,97.5C 97.759,109.444 95.9257,119.944 85.5,129C 83.5932,130.122 81.5932,130.955 79.5,131.5C 77.2872,130.227 74.9538,129.227 72.5,128.5C 72.4431,127.391 72.1098,126.391 71.5,125.5C 73.4352,124.85 75.4352,124.517 77.5,124.5C 80.0217,124.872 82.0217,124.039 83.5,122C 83.2716,121.601 82.9382,121.435 82.5,121.5C 80.8357,120.001 78.8357,119.001 76.5,118.5C 73.5514,119.302 70.5514,119.636 67.5,119.5C 66.9455,115.988 67.6122,112.988 69.5,110.5C 69.81,111.738 70.31,111.738 71,110.5C 71.6917,109.563 71.525,108.897 70.5,108.5C 70.4162,105.673 69.7496,103.006 68.5,100.5C 69.5,100.5 70.5,100.5 71.5,100.5C 71.5,99.5 71.5,98.5 71.5,97.5C 69.302,97.1201 67.6354,97.7868 66.5,99.5C 65.5,100.167 64.5,100.833 63.5,101.5C 63.1854,99.7741 63.0187,98.1075 63,96.5C 66.1311,92.3672 69.6311,88.5338 73.5,85C 74.8333,84.3333 76.1667,84.3333 77.5,85C 80.4068,86.6091 83.0734,88.4424 85.5,90.5 Z"/></g>
<g><path style="opacity:1" fill="#7f4e35" d="M 427.5,70.5 C 428.492,70.3284 429.158,70.6618 429.5,71.5C 430.438,77.5422 433.105,82.7088 437.5,87C 439.112,87.7203 440.612,87.5536 442,86.5C 442.703,84.0709 442.537,81.7375 441.5,79.5C 441.025,77.2163 440.025,75.2163 438.5,73.5C 437.697,72.5768 437.53,71.5768 438,70.5C 439.11,72.0368 440.61,72.7035 442.5,72.5C 442.167,73.1667 441.833,73.8333 441.5,74.5C 442.5,77.1667 443.5,79.8333 444.5,82.5C 446.656,94.0714 443.656,96.0714 435.5,88.5C 434.396,86.6115 433.063,84.9448 431.5,83.5C 429.396,79.4208 428.063,75.0875 427.5,70.5 Z"/></g>
<g><path style="opacity:1" fill="#efa426" d="M 429.5,71.5 C 431.216,73.0248 433.216,74.0248 435.5,74.5C 437.091,76.6326 439.091,78.2993 441.5,79.5C 442.537,81.7375 442.703,84.0709 442,86.5C 440.612,87.5536 439.112,87.7203 437.5,87C 433.105,82.7088 430.438,77.5422 429.5,71.5 Z"/></g>
<g><path style="opacity:1" fill="#cf6535" d="M 438.5,73.5 C 440.025,75.2163 441.025,77.2163 441.5,79.5C 439.091,78.2993 437.091,76.6326 435.5,74.5C 436.209,73.596 437.209,73.2627 438.5,73.5 Z"/></g>
<g><path style="opacity:1" fill="#483b3a" d="M 74.5,70.5 C 84.0886,75.1172 90.0886,82.7838 92.5,93.5C 92.631,94.2389 92.4643,94.9056 92,95.5C 90.0737,93.4611 87.907,91.7945 85.5,90.5C 83.0734,88.4424 80.4068,86.6091 77.5,85C 76.1667,84.3333 74.8333,84.3333 73.5,85C 69.6311,88.5338 66.1311,92.3672 63,96.5C 63.0187,98.1075 63.1854,99.7741 63.5,101.5C 63.0269,102.906 62.0269,103.573 60.5,103.5C 59.4931,101.523 59.4931,101.857 60.5,104.5C 61.2071,107.786 61.5405,111.119 61.5,114.5C 59.0194,114.774 57.3527,116.107 56.5,118.5C 56.1667,118.5 55.8333,118.5 55.5,118.5C 53.965,119.354 52.6316,119.354 51.5,118.5C 51.5,118.167 51.5,117.833 51.5,117.5C 54.3118,115.961 56.3118,113.794 57.5,111C 56.1232,107.616 53.9565,104.782 51,102.5C 49.8472,98.1388 51.3472,95.1388 55.5,93.5C 57.1071,81.8958 63.4404,74.2291 74.5,70.5 Z"/></g>
<g><path style="opacity:1" fill="#483837" d="M 86.5,94.5 C 88.2294,95.2362 89.2294,96.5695 89.5,98.5C 86.8563,97.5067 84.1897,96.5067 81.5,95.5C 83.0453,94.5481 84.712,94.2148 86.5,94.5 Z"/></g>
<g><path style="opacity:1" fill="#f1a324" d="M 444.5,82.5 C 445.391,83.1098 446.391,83.4431 447.5,83.5C 453.498,87.3111 455.165,92.6445 452.5,99.5C 451.833,99.5 451.5,99.8333 451.5,100.5C 451.231,103.015 450.231,105.015 448.5,106.5C 444.647,100.117 440.314,94.1172 435.5,88.5C 443.656,96.0714 446.656,94.0714 444.5,82.5 Z"/></g>
<g><path style="opacity:1" fill="#5d4842" d="M 68.5,100.5 C 67.5084,100.672 66.8417,100.338 66.5,99.5C 67.6354,97.7868 69.302,97.1201 71.5,97.5C 71.5,98.5 71.5,99.5 71.5,100.5C 70.5,100.5 69.5,100.5 68.5,100.5 Z"/></g>
<g><path style="opacity:1" fill="#f8bd39" d="M 99.5,70.5 C 101.153,70.6596 102.486,71.3263 103.5,72.5C 103.389,73.1174 103.056,73.6174 102.5,74C 112.731,91.7003 119.564,110.534 123,130.5C 115.95,110.395 107.783,90.7287 98.5,71.5C 98.6236,70.8933 98.9569,70.56 99.5,70.5 Z"/></g>
<g><path style="opacity:1" fill="#b16637" d="M 476.5,116.5 C 476.573,118.027 475.906,119.027 474.5,119.5C 471.282,116.301 467.448,113.967 463,112.5C 460.677,116.422 460.177,116.088 461.5,111.5C 460.397,111.002 459.397,110.669 458.5,110.5C 458.977,109.522 459.643,108.689 460.5,108C 459.667,107.167 458.833,106.333 458,105.5C 456.293,107.909 455.46,110.575 455.5,113.5C 454.504,113.586 453.671,113.252 453,112.5C 452.501,108.848 452.335,105.182 452.5,101.5C 456.104,98.8649 460.104,98.0316 464.5,99C 467.139,102.857 466.472,103.357 462.5,100.5C 458.884,103.082 459.051,105.748 463,108.5C 463.308,107.692 463.808,107.025 464.5,106.5C 465.331,108.473 465.498,110.473 465,112.5C 465.414,112.043 465.914,111.709 466.5,111.5C 469.577,113.705 472.91,115.372 476.5,116.5 Z"/></g>
<g><path style="opacity:1" fill="#e49170" d="M 439.5,107.5 C 437.755,109.033 436.755,111.033 436.5,113.5C 433.327,112.958 430.327,111.958 427.5,110.5C 427.672,109.508 427.338,108.842 426.5,108.5C 426.167,105.833 425.833,103.167 425.5,100.5C 428.724,100.797 431.724,100.13 434.5,98.5C 436.054,100.933 436.72,103.6 436.5,106.5C 437.791,106.263 438.791,106.596 439.5,107.5 Z"/></g>
<g><path style="opacity:1" fill="#d06030" d="M 431.5,83.5 C 433.063,84.9448 434.396,86.6115 435.5,88.5C 440.314,94.1172 444.647,100.117 448.5,106.5C 447.365,108.213 445.698,108.88 443.5,108.5C 441.901,108.768 440.568,108.434 439.5,107.5C 438.791,106.596 437.791,106.263 436.5,106.5C 436.72,103.6 436.054,100.933 434.5,98.5C 431.724,100.13 428.724,100.797 425.5,100.5C 425.833,103.167 426.167,105.833 426.5,108.5C 425.503,108.53 424.836,108.03 424.5,107C 421.428,99.4741 420.095,91.6407 420.5,83.5C 424.216,82.3433 427.883,82.3433 431.5,83.5 Z"/></g>
<g><path style="opacity:1" fill="#be8653" d="M 476.5,116.5 C 472.91,115.372 469.577,113.705 466.5,111.5C 465.914,111.709 465.414,112.043 465,112.5C 465.498,110.473 465.331,108.473 464.5,106.5C 463.808,107.025 463.308,107.692 463,108.5C 459.051,105.748 458.884,103.082 462.5,100.5C 466.472,103.357 467.139,102.857 464.5,99C 460.104,98.0316 456.104,98.8649 452.5,101.5C 452.5,100.833 452.167,100.5 451.5,100.5C 451.5,99.8333 451.833,99.5 452.5,99.5C 457.406,97.7534 462.406,96.5868 467.5,96C 470.6,99.3886 473.933,102.555 477.5,105.5C 476.574,109.094 476.241,112.76 476.5,116.5 Z"/></g>
<g><path style="opacity:1" fill="#3b2f2f" d="M 291.5,107.5 C 294.581,110.164 298.248,112.997 302.5,116C 298.251,114.897 293.917,113.73 289.5,112.5C 287.657,112.755 285.657,112.922 283.5,113C 287.828,114.829 291.828,117.162 295.5,120C 290.535,119.582 285.535,119.582 280.5,120C 284.336,122.084 288.003,124.417 291.5,127C 287.812,126.546 284.145,126.713 280.5,127.5C 293.042,133.71 303.042,142.71 310.5,154.5C 311.173,145.323 308.506,137.156 302.5,130C 303.167,129.333 303.833,129.333 304.5,130C 309.878,135.447 313.378,141.947 315,149.5C 317.416,142.409 316.583,135.743 312.5,129.5C 313.355,128.707 314.189,129.04 315,130.5C 319.745,140.752 320.078,151.085 316,161.5C 315.047,163.455 313.713,165.122 312,166.5C 311.51,167.793 311.343,169.127 311.5,170.5C 311.5,172.833 311.5,175.167 311.5,177.5C 312.791,177.737 313.791,177.404 314.5,176.5C 316.144,176.286 317.644,176.62 319,177.5C 319.788,180.772 319.288,183.772 317.5,186.5C 315.784,186.629 314.117,186.962 312.5,187.5C 310.493,186.481 309.16,184.815 308.5,182.5C 308.624,181.893 308.957,181.56 309.5,181.5C 310.421,182.981 311.588,184.314 313,185.5C 316.137,184.055 316.303,182.222 313.5,180C 311.846,179.392 310.179,178.892 308.5,178.5C 308.167,177.5 307.5,176.833 306.5,176.5C 306.957,170.089 307.957,163.756 309.5,157.5C 308.338,154.507 306.671,151.841 304.5,149.5C 297.837,140.678 289.504,134.011 279.5,129.5C 265.615,135.385 255.282,145.052 248.5,158.5C 250.676,161.861 251.509,165.527 251,169.5C 249.669,167.004 247.836,165.004 245.5,163.5C 245.027,162.094 244.027,161.427 242.5,161.5C 226.446,134.511 233.446,116.011 263.5,106C 273.176,102.384 282.509,102.884 291.5,107.5 Z"/></g>
<g><path style="opacity:1" fill="#483b42" d="M 83.5,103.5 C 87.4735,104.075 88.4735,106.242 86.5,110C 82.6314,109.492 81.6314,107.325 83.5,103.5 Z"/></g>
<g><path style="opacity:1" fill="#de8865" d="M 85.5,90.5 C 87.907,91.7945 90.0737,93.4611 92,95.5C 92.4643,94.9056 92.631,94.2389 92.5,93.5C 96.539,103.948 100.206,114.614 103.5,125.5C 102.434,130.319 101.6,135.319 101,140.5C 100.148,141.571 99.3149,142.571 98.5,143.5C 91.5677,141.903 87.9011,137.57 87.5,130.5C 86.8165,130.863 86.1499,131.196 85.5,131.5C 83.9519,131.821 83.2852,132.821 83.5,134.5C 82.2597,133.341 80.9264,132.341 79.5,131.5C 81.5932,130.955 83.5932,130.122 85.5,129C 95.9257,119.944 97.759,109.444 91,97.5C 90.6667,98.1667 90.3333,98.8333 90,99.5C 89.6012,99.2716 89.4346,98.9382 89.5,98.5C 89.2294,96.5695 88.2294,95.2362 86.5,94.5C 86.9382,94.5654 87.2716,94.3988 87.5,94C 86.5,93 85.5,92 84.5,91C 84.7284,90.6012 85.0618,90.4346 85.5,90.5 Z"/></g>
<g><path style="opacity:1" fill="#564547" d="M 70.5,108.5 C 71.525,108.897 71.6917,109.563 71,110.5C 70.31,111.738 69.81,111.738 69.5,110.5C 69.8333,109.833 70.1667,109.167 70.5,108.5 Z"/></g>
<g><path style="opacity:1" fill="#f39613" d="M 427.5,110.5 C 430.327,111.958 433.327,112.958 436.5,113.5C 440.112,114.422 443.779,115.089 447.5,115.5C 448.167,116.5 448.833,117.5 449.5,118.5C 449.839,123.93 449.339,129.264 448,134.5C 447.79,128.769 447.124,123.103 446,117.5C 445.366,126.43 441.866,133.93 435.5,140C 430.771,140.996 426.271,140.496 422,138.5C 421.152,130.574 421.652,122.741 423.5,115C 425.018,113.649 426.351,112.149 427.5,110.5 Z"/></g>
<g><path style="opacity:1" fill="#ead1c5" d="M 439.5,107.5 C 440.568,108.434 441.901,108.768 443.5,108.5C 445.949,110.446 448.615,111.112 451.5,110.5C 449.907,112.054 448.574,113.721 447.5,115.5C 443.779,115.089 440.112,114.422 436.5,113.5C 436.755,111.033 437.755,109.033 439.5,107.5 Z"/></g>
<g><path style="opacity:1" fill="#504443" d="M 291.5,107.5 C 304.615,110.787 314.782,118.12 322,129.5C 322.738,131.953 323.238,134.453 323.5,137C 321.771,144.414 320.605,151.914 320,159.5C 319.621,162.03 318.787,164.363 317.5,166.5C 315.246,167.415 313.246,168.748 311.5,170.5C 311.343,169.127 311.51,167.793 312,166.5C 313.713,165.122 315.047,163.455 316,161.5C 320.078,151.085 319.745,140.752 315,130.5C 314.189,129.04 313.355,128.707 312.5,129.5C 316.583,135.743 317.416,142.409 315,149.5C 313.378,141.947 309.878,135.447 304.5,130C 303.833,129.333 303.167,129.333 302.5,130C 308.506,137.156 311.173,145.323 310.5,154.5C 303.042,142.71 293.042,133.71 280.5,127.5C 284.145,126.713 287.812,126.546 291.5,127C 288.003,124.417 284.336,122.084 280.5,120C 285.535,119.582 290.535,119.582 295.5,120C 291.828,117.162 287.828,114.829 283.5,113C 285.657,112.922 287.657,112.755 289.5,112.5C 293.917,113.73 298.251,114.897 302.5,116C 298.248,112.997 294.581,110.164 291.5,107.5 Z"/></g>
<g><path style="opacity:1" fill="#e08e69" d="M 451.5,100.5 C 452.167,100.5 452.5,100.833 452.5,101.5C 452.335,105.182 452.501,108.848 453,112.5C 453.671,113.252 454.504,113.586 455.5,113.5C 460.784,115.229 460.451,116.396 454.5,117C 457.56,117.848 460.56,118.848 463.5,120C 464.252,120.671 464.586,121.504 464.5,122.5C 461.946,123.388 459.279,123.721 456.5,123.5C 453.888,122.221 451.555,120.555 449.5,118.5C 448.833,117.5 448.167,116.5 447.5,115.5C 448.574,113.721 449.907,112.054 451.5,110.5C 448.615,111.112 445.949,110.446 443.5,108.5C 445.698,108.88 447.365,108.213 448.5,106.5C 450.231,105.015 451.231,103.015 451.5,100.5 Z"/></g>
<g><path style="opacity:1" fill="#c1854f" d="M 474.5,119.5 C 471.679,121.712 468.345,122.712 464.5,122.5C 464.586,121.504 464.252,120.671 463.5,120C 460.56,118.848 457.56,117.848 454.5,117C 460.451,116.396 460.784,115.229 455.5,113.5C 455.46,110.575 456.293,107.909 458,105.5C 458.833,106.333 459.667,107.167 460.5,108C 459.643,108.689 458.977,109.522 458.5,110.5C 459.397,110.669 460.397,111.002 461.5,111.5C 460.177,116.088 460.677,116.422 463,112.5C 467.448,113.967 471.282,116.301 474.5,119.5 Z"/></g>
<g><path style="opacity:1" fill="#fac047" d="M 81.5,110.5 C 83.2809,113.183 83.7809,116.183 83,119.5C 82.6827,117.699 82.016,117.366 81,118.5C 80.5702,115.808 80.7369,113.141 81.5,110.5 Z"/></g>
<g><path style="opacity:1" fill="#f1c153" d="M 51.5,117.5 C 51.5,117.833 51.5,118.167 51.5,118.5C 50.609,119.11 49.609,119.443 48.5,119.5C 46.339,116.503 46.6723,113.503 49.5,110.5C 50.9438,112.608 51.6104,114.941 51.5,117.5 Z"/></g>
<g><path style="opacity:1" fill="#b37a46" d="M 66.5,99.5 C 66.8417,100.338 67.5084,100.672 68.5,100.5C 69.7496,103.006 70.4162,105.673 70.5,108.5C 70.1667,109.167 69.8333,109.833 69.5,110.5C 67.6122,112.988 66.9455,115.988 67.5,119.5C 70.5514,119.636 73.5514,119.302 76.5,118.5C 78.8357,119.001 80.8357,120.001 82.5,121.5C 80.6316,122.263 78.9649,123.263 77.5,124.5C 75.4352,124.517 73.4352,124.85 71.5,125.5C 70.1667,125.5 68.8333,125.5 67.5,125.5C 67.2155,127.415 67.5489,129.081 68.5,130.5C 67.5773,134.064 67.244,137.731 67.5,141.5C 72.1667,141.5 76.8333,141.5 81.5,141.5C 81.3505,140.448 81.5172,139.448 82,138.5C 82.6667,139.833 82.6667,141.167 82,142.5C 80.3853,143.386 78.8853,144.386 77.5,145.5C 74.198,146.294 70.8647,146.96 67.5,147.5C 67.5,152.5 67.5,157.5 67.5,162.5C 72.6483,163.074 77.4816,162.407 82,160.5C 82.4828,161.448 82.6495,162.448 82.5,163.5C 81.3065,164.272 80.3065,165.272 79.5,166.5C 75.6163,167.793 71.6163,168.459 67.5,168.5C 65.2712,167.945 63.6046,166.611 62.5,164.5C 60.9223,163.702 59.2556,163.202 57.5,163C 58.7375,162.768 59.7375,162.268 60.5,161.5C 61.4959,161.414 62.3292,161.748 63,162.5C 63.4993,157.511 63.6659,152.511 63.5,147.5C 58.8179,147.662 54.4845,146.495 50.5,144C 49.1772,143.184 48.5106,142.017 48.5,140.5C 49.609,140.443 50.609,140.11 51.5,139.5C 53.5,140.833 55.5,140.833 57.5,139.5C 58.5,140.833 59.5,140.833 60.5,139.5C 61.209,140.404 62.209,140.737 63.5,140.5C 63.5,135.833 63.5,131.167 63.5,126.5C 60.164,126.533 56.9973,125.866 54,124.5C 53.4387,125.022 52.772,125.355 52,125.5C 50.0653,123.966 48.8987,121.966 48.5,119.5C 49.609,119.443 50.609,119.11 51.5,118.5C 52.6316,119.354 53.965,119.354 55.5,118.5C 56.8493,119.644 57.1826,119.644 56.5,118.5C 57.3527,116.107 59.0194,114.774 61.5,114.5C 61.5405,111.119 61.2071,107.786 60.5,104.5C 60.5,104.167 60.5,103.833 60.5,103.5C 62.0269,103.573 63.0269,102.906 63.5,101.5C 64.5,100.833 65.5,100.167 66.5,99.5 Z M 61.5,116.5 C 62.2674,117.172 62.9341,118.005 63.5,119C 61.9387,119.188 61.272,118.355 61.5,116.5 Z"/></g>
<g><path style="opacity:1" fill="#473943" d="M 82.5,121.5 C 82.9382,121.435 83.2716,121.601 83.5,122C 82.0217,124.039 80.0217,124.872 77.5,124.5C 78.9649,123.263 80.6316,122.263 82.5,121.5 Z"/></g>
<g><path style="opacity:1" fill="#c2b5a9" d="M 71.5,125.5 C 72.1098,126.391 72.4431,127.391 72.5,128.5C 71.8166,130.176 70.4832,130.843 68.5,130.5C 67.5489,129.081 67.2155,127.415 67.5,125.5C 68.8333,125.5 70.1667,125.5 71.5,125.5 Z"/></g>
<g><path style="opacity:1" fill="#d46837" d="M 98.5,143.5 C 98.3775,146.292 97.0442,148.292 94.5,149.5C 91.0317,146.544 88.0317,143.211 85.5,139.5C 85.5,136.833 85.5,134.167 85.5,131.5C 86.1499,131.196 86.8165,130.863 87.5,130.5C 87.9011,137.57 91.5677,141.903 98.5,143.5 Z"/></g>
<g><path style="opacity:1" fill="#f6aa20" d="M 421.5,40.5 C 419.928,45.342 420.262,50.0087 422.5,54.5C 422.018,55.4163 421.685,56.4163 421.5,57.5C 422.467,59.7617 423.134,62.095 423.5,64.5C 420.239,67.5931 420.906,69.2598 425.5,69.5C 425.5,67.1667 425.5,64.8333 425.5,62.5C 427.369,64.6353 428.036,67.3019 427.5,70.5C 428.063,75.0875 429.396,79.4208 431.5,83.5C 427.883,82.3433 424.216,82.3433 420.5,83.5C 420.095,91.6407 421.428,99.4741 424.5,107C 424.836,108.03 425.503,108.53 426.5,108.5C 427.338,108.842 427.672,109.508 427.5,110.5C 426.351,112.149 425.018,113.649 423.5,115C 421.652,122.741 421.152,130.574 422,138.5C 426.271,140.496 430.771,140.996 435.5,140C 441.866,133.93 445.366,126.43 446,117.5C 447.124,123.103 447.79,128.769 448,134.5C 449.339,129.264 449.839,123.93 449.5,118.5C 451.555,120.555 453.888,122.221 456.5,123.5C 458.798,134.699 460.132,146.033 460.5,157.5C 456.575,162.091 452.242,166.425 447.5,170.5C 444.833,170.5 442.167,170.5 439.5,170.5C 434.959,168.798 431.459,165.798 429,161.5C 426.361,154.943 424.027,148.277 422,141.5C 420.151,158.564 415.985,174.897 409.5,190.5C 407.102,186.597 405.769,182.264 405.5,177.5C 410.035,167.72 413.202,157.387 415,146.5C 416.954,114.7 418.12,82.8664 418.5,51C 418.833,47.8333 419.167,44.6667 419.5,41.5C 420.192,40.9747 420.692,40.3081 421,39.5C 421.399,39.7284 421.565,40.0618 421.5,40.5 Z"/></g>
<g><path style="opacity:1" fill="#e29778" d="M 304.5,149.5 C 306.671,151.841 308.338,154.507 309.5,157.5C 307.957,163.756 306.957,170.089 306.5,176.5C 306.5,176.833 306.5,177.167 306.5,177.5C 305.577,176.697 304.577,176.53 303.5,177C 302.321,180.676 299.987,183.176 296.5,184.5C 296.44,183.957 296.107,183.624 295.5,183.5C 291.27,186.443 286.937,189.109 282.5,191.5C 281.178,191.33 280.011,191.663 279,192.5C 269.923,188.924 263.757,182.591 260.5,173.5C 264.319,173.55 267.653,172.384 270.5,170C 268.87,168.787 267.036,167.954 265,167.5C 262.566,168.322 260.066,168.656 257.5,168.5C 257.332,164.99 256.999,161.49 256.5,158C 256.408,155.179 257.074,152.679 258.5,150.5C 258.56,151.043 258.893,151.376 259.5,151.5C 262.361,149.02 265.694,148.02 269.5,148.5C 269.5,147.167 269.5,145.833 269.5,144.5C 268.167,144.5 266.833,144.5 265.5,144.5C 270.358,140.511 275.858,137.511 282,135.5C 286.387,137.277 290.554,139.443 294.5,142C 297.714,144.761 301.047,147.261 304.5,149.5 Z"/></g>
<g><path style="opacity:0.818" fill="#fcca5a" d="M 51.5,139.5 C 50.609,140.11 49.609,140.443 48.5,140.5C 47.1311,137.03 47.6311,133.697 50,130.5C 50.9533,133.432 51.4533,136.432 51.5,139.5 Z"/></g>
<g><path style="opacity:1" fill="#f9c766" d="M 60.5,139.5 C 59.5,140.833 58.5,140.833 57.5,139.5C 57.9557,133.59 59.2891,133.257 61.5,138.5C 61.3764,139.107 61.0431,139.44 60.5,139.5 Z"/></g>
<g><path style="opacity:1" fill="#d66f40" d="M 104.5,130.5 C 105.974,134.026 107.307,137.693 108.5,141.5C 107.35,140.15 106.683,140.316 106.5,142C 108.079,147.063 109.079,152.23 109.5,157.5C 105.691,156.929 102.357,155.262 99.5,152.5C 98.7025,152.957 98.3691,153.624 98.5,154.5C 97.8333,154.167 97.1667,153.833 96.5,153.5C 101.755,146.852 104.422,139.186 104.5,130.5 Z"/></g>
<g><path style="opacity:1" fill="#f19516" d="M 72.5,128.5 C 74.9538,129.227 77.2872,130.227 79.5,131.5C 80.9264,132.341 82.2597,133.341 83.5,134.5C 83.5475,140.917 85.0475,146.917 88,152.5C 90.5647,155.888 93.3981,156.221 96.5,153.5C 97.1667,153.833 97.8333,154.167 98.5,154.5C 103.847,160.01 109.68,165.01 116,169.5C 116.464,168.906 116.631,168.239 116.5,167.5C 117.434,168.568 117.768,169.901 117.5,171.5C 116.833,171.5 116.5,171.833 116.5,172.5C 113.031,172.547 109.698,173.213 106.5,174.5C 101.798,175.004 97.1311,175.671 92.5,176.5C 91.4324,175.566 90.099,175.232 88.5,175.5C 86.6855,172.593 84.0188,171.259 80.5,171.5C 80.3713,169.784 80.038,168.117 79.5,166.5C 80.3065,165.272 81.3065,164.272 82.5,163.5C 83.7738,159.926 83.6071,156.259 82,152.5C 81.1667,155.5 80.3333,158.5 79.5,161.5C 78.6805,156.171 78.0139,150.838 77.5,145.5C 78.8853,144.386 80.3853,143.386 82,142.5C 82.6667,141.167 82.6667,139.833 82,138.5C 81.5172,139.448 81.3505,140.448 81.5,141.5C 76.8333,141.5 72.1667,141.5 67.5,141.5C 67.244,137.731 67.5773,134.064 68.5,130.5C 70.4832,130.843 71.8166,130.176 72.5,128.5 Z"/></g>
<g><path style="opacity:1" fill="#53413e" d="M 265.5,144.5 C 266.833,144.5 268.167,144.5 269.5,144.5C 269.5,145.833 269.5,147.167 269.5,148.5C 265.694,148.02 262.361,149.02 259.5,151.5C 258.893,151.376 258.56,151.043 258.5,150.5C 259.599,147.068 261.933,145.068 265.5,144.5 Z"/></g>
<g><path style="opacity:1" fill="#4a3936" d="M 287.5,144.5 C 292.045,144.441 295.378,146.441 297.5,150.5C 297.167,150.833 296.833,151.167 296.5,151.5C 293.686,149.895 290.686,148.895 287.5,148.5C 287.5,147.167 287.5,145.833 287.5,144.5 Z"/></g>
<g><path style="opacity:1" fill="#da805f" d="M 304.5,149.5 C 301.047,147.261 297.714,144.761 294.5,142C 290.554,139.443 286.387,137.277 282,135.5C 275.858,137.511 270.358,140.511 265.5,144.5C 261.933,145.068 259.599,147.068 258.5,150.5C 257.074,152.679 256.408,155.179 256.5,158C 256.999,161.49 257.332,164.99 257.5,168.5C 255.716,171.808 256.716,173.475 260.5,173.5C 263.757,182.591 269.923,188.924 279,192.5C 280.011,191.663 281.178,191.33 282.5,191.5C 281.866,192.947 280.699,193.613 279,193.5C 275.588,191.918 272.088,190.585 268.5,189.5C 264.508,186.836 260.508,184.17 256.5,181.5C 256.047,179.435 255.047,177.768 253.5,176.5C 253.167,175.5 252.5,174.833 251.5,174.5C 247.674,172.839 245.007,170.005 243.5,166C 243.639,164.699 244.305,163.866 245.5,163.5C 247.836,165.004 249.669,167.004 251,169.5C 251.509,165.527 250.676,161.861 248.5,158.5C 255.282,145.052 265.615,135.385 279.5,129.5C 289.504,134.011 297.837,140.678 304.5,149.5 Z"/></g>
<g><path style="opacity:1" fill="#e9d9bb" d="M 276.5,142.5 C 278.167,142.5 279.833,142.5 281.5,142.5C 282.508,147.667 280.675,149.334 276,147.5C 275.36,145.735 275.527,144.068 276.5,142.5 Z"/></g>
<g><path style="opacity:1" fill="#c95225" d="M 439.5,170.5 C 441.265,171.461 443.265,171.795 445.5,171.5C 446.032,180.728 444.865,189.728 442,198.5C 441.5,198 441,197.5 440.5,197C 442.58,190.291 442.913,183.458 441.5,176.5C 438.845,189.8 433.512,201.8 425.5,212.5C 417.185,211.78 409.185,209.78 401.5,206.5C 403.972,203.885 405.638,200.885 406.5,197.5C 407.695,195.249 408.695,192.915 409.5,190.5C 415.985,174.897 420.151,158.564 422,141.5C 424.027,148.277 426.361,154.943 429,161.5C 431.459,165.798 434.959,168.798 439.5,170.5 Z"/></g>
<g><path style="opacity:1" fill="#734129" d="M 103.5,125.5 C 104.301,127.042 104.634,128.708 104.5,130.5C 104.422,139.186 101.755,146.852 96.5,153.5C 93.3981,156.221 90.5647,155.888 88,152.5C 85.0475,146.917 83.5475,140.917 83.5,134.5C 83.2852,132.821 83.9519,131.821 85.5,131.5C 85.5,134.167 85.5,136.833 85.5,139.5C 85.563,144.128 87.563,147.628 91.5,150C 92.7494,150.74 93.7494,150.573 94.5,149.5C 97.0442,148.292 98.3775,146.292 98.5,143.5C 99.3149,142.571 100.148,141.571 101,140.5C 101.6,135.319 102.434,130.319 103.5,125.5 Z"/></g>
<g><path style="opacity:1" fill="#e58b1e" d="M 85.5,139.5 C 88.0317,143.211 91.0317,146.544 94.5,149.5C 93.7494,150.573 92.7494,150.74 91.5,150C 87.563,147.628 85.563,144.128 85.5,139.5 Z"/></g>
<g><path style="opacity:1" fill="#cb5827" d="M 108.5,141.5 C 111.768,149.97 114.434,158.637 116.5,167.5C 116.631,168.239 116.464,168.906 116,169.5C 109.68,165.01 103.847,160.01 98.5,154.5C 98.3691,153.624 98.7025,152.957 99.5,152.5C 102.357,155.262 105.691,156.929 109.5,157.5C 109.079,152.23 108.079,147.063 106.5,142C 106.683,140.316 107.35,140.15 108.5,141.5 Z"/></g>
<g><path style="opacity:0.995" fill="#fac549" d="M 50.5,162.5 C 49.8333,162.5 49.1667,162.5 48.5,162.5C 46.9786,159.295 47.312,156.295 49.5,153.5C 51.5437,156.364 51.877,159.364 50.5,162.5 Z"/></g>
<g><path style="opacity:1" fill="#fbbf48" d="M 60.5,161.5 C 59.5,161.5 58.5,161.5 57.5,161.5C 58.576,153.578 59.576,153.578 60.5,161.5 Z"/></g>
<g><path style="opacity:1" fill="#f4a927" d="M 77.5,145.5 C 78.0139,150.838 78.6805,156.171 79.5,161.5C 80.3333,158.5 81.1667,155.5 82,152.5C 83.6071,156.259 83.7738,159.926 82.5,163.5C 82.6495,162.448 82.4828,161.448 82,160.5C 77.4816,162.407 72.6483,163.074 67.5,162.5C 67.5,157.5 67.5,152.5 67.5,147.5C 70.8647,146.96 74.198,146.294 77.5,145.5 Z"/></g>
<g><path style="opacity:0.994" fill="#ca5327" d="M 460.5,157.5 C 463.394,170.322 464.727,183.322 464.5,196.5C 463.167,198.833 461.833,201.167 460.5,203.5C 460.13,192.59 457.63,182.256 453,172.5C 453.091,179.165 453.591,185.831 454.5,192.5C 454,197.5 453.5,202.5 453,207.5C 452.578,205.645 452.078,203.811 451.5,202C 452.85,192.821 452.683,183.654 451,174.5C 449.167,186.828 447.334,199.162 445.5,211.5C 444.624,211.631 443.957,211.298 443.5,210.5C 446.579,197.354 447.912,184.021 447.5,170.5C 452.242,166.425 456.575,162.091 460.5,157.5 Z"/></g>
<g><path style="opacity:1" fill="#3d2d32" d="M 263.5,158.5 C 267.829,157.697 269.329,159.697 268,164.5C 265.486,167.177 263.653,166.677 262.5,163C 263.167,162 263.833,161 264.5,160C 264.43,159.235 264.097,158.735 263.5,158.5 Z"/></g>
<g><path style="opacity:1" fill="#30252e" d="M 290.5,158.5 C 291.542,157.209 292.708,157.209 294,158.5C 294.334,160.847 294.167,163.181 293.5,165.5C 292.167,165.5 290.833,165.5 289.5,165.5C 289.34,163.801 289.506,162.134 290,160.5C 290.889,161.888 291.389,161.722 291.5,160C 291.43,159.235 291.097,158.735 290.5,158.5 Z"/></g>
<g><path style="opacity:1" fill="#f4aa26" d="M 79.5,166.5 C 80.038,168.117 80.3713,169.784 80.5,171.5C 79.8763,173.754 78.543,175.421 76.5,176.5C 73.7131,175.523 70.7131,175.19 67.5,175.5C 67.5,173.167 67.5,170.833 67.5,168.5C 71.6163,168.459 75.6163,167.793 79.5,166.5 Z"/></g>
<g><path style="opacity:1" fill="#e38078" d="M 260.5,173.5 C 256.716,173.475 255.716,171.808 257.5,168.5C 260.066,168.656 262.566,168.322 265,167.5C 267.036,167.954 268.87,168.787 270.5,170C 267.653,172.384 264.319,173.55 260.5,173.5 Z"/></g>
<g><path style="opacity:1" fill="#e5837b" d="M 290.5,167.5 C 293.187,167.336 295.854,167.503 298.5,168C 300.223,168.523 301.556,169.523 302.5,171C 298.253,174.093 293.753,174.26 289,171.5C 288.516,169.807 289.016,168.473 290.5,167.5 Z"/></g>
<g><path style="opacity:1" fill="#de9b6f" d="M 317.5,166.5 C 316.492,169.844 315.492,173.177 314.5,176.5C 313.791,177.404 312.791,177.737 311.5,177.5C 311.5,175.167 311.5,172.833 311.5,170.5C 313.246,168.748 315.246,167.415 317.5,166.5 Z"/></g>
<g><path style="opacity:1" fill="#e6a587" d="M 242.5,161.5 C 244.027,161.427 245.027,162.094 245.5,163.5C 244.305,163.866 243.639,164.699 243.5,166C 245.007,170.005 247.674,172.839 251.5,174.5C 250.209,174.263 249.209,174.596 248.5,175.5C 247.833,175.5 247.167,175.5 246.5,175.5C 242.254,171.673 240.921,167.006 242.5,161.5 Z"/></g>
<g><path style="opacity:1" fill="#e79b78" d="M 80.5,171.5 C 84.0188,171.259 86.6855,172.593 88.5,175.5C 87.9423,176.79 86.9423,177.623 85.5,178C 82.4686,178.495 79.4686,178.329 76.5,177.5C 76.5,177.167 76.5,176.833 76.5,176.5C 78.543,175.421 79.8763,173.754 80.5,171.5 Z"/></g>
<g><path style="opacity:1" fill="#e79b7a" d="M 116.5,172.5 C 116.789,175.649 116.289,178.649 115,181.5C 111.911,182.466 109.077,183.799 106.5,185.5C 106.5,181.833 106.5,178.167 106.5,174.5C 109.698,173.213 113.031,172.547 116.5,172.5 Z"/></g>
<g><path style="opacity:1" fill="#c38950" d="M 67.5,175.5 C 70.7131,175.19 73.7131,175.523 76.5,176.5C 76.5,176.833 76.5,177.167 76.5,177.5C 73.4086,178.977 70.4086,180.644 67.5,182.5C 64.8156,181.897 62.4823,180.564 60.5,178.5C 62.0708,175.907 64.4041,174.907 67.5,175.5 Z"/></g>
<g><path style="opacity:1" fill="#de825f" d="M 88.5,175.5 C 90.099,175.232 91.4324,175.566 92.5,176.5C 92.5,179.833 92.5,183.167 92.5,186.5C 89.0111,187.658 85.6777,188.991 82.5,190.5C 80.901,190.232 79.5676,190.566 78.5,191.5C 77.8333,191.5 77.1667,191.5 76.5,191.5C 73.8333,191.167 71.1667,190.833 68.5,190.5C 67.4324,189.566 66.099,189.232 64.5,189.5C 63.5084,189.672 62.8417,189.338 62.5,188.5C 63.2389,188.631 63.9056,188.464 64.5,188C 63.6433,187.311 62.9767,186.478 62.5,185.5C 64.0287,184.237 65.6954,183.237 67.5,182.5C 70.4086,180.644 73.4086,178.977 76.5,177.5C 79.4686,178.329 82.4686,178.495 85.5,178C 86.9423,177.623 87.9423,176.79 88.5,175.5 Z"/></g>
<g><path style="opacity:1" fill="#aa6a36" d="M 57.5,161.5 C 58.5,161.5 59.5,161.5 60.5,161.5C 59.7375,162.268 58.7375,162.768 57.5,163C 59.2556,163.202 60.9223,163.702 62.5,164.5C 63.6046,166.611 65.2712,167.945 67.5,168.5C 67.5,170.833 67.5,173.167 67.5,175.5C 64.4041,174.907 62.0708,175.907 60.5,178.5C 62.4823,180.564 64.8156,181.897 67.5,182.5C 65.6954,183.237 64.0287,184.237 62.5,185.5C 62.9767,186.478 63.6433,187.311 64.5,188C 63.9056,188.464 63.2389,188.631 62.5,188.5C 57.3292,188.124 52.3292,186.958 47.5,185C 43.5375,183.789 42.8709,181.789 45.5,179C 51.2455,176.45 57.2455,174.784 63.5,174C 64.3802,172.644 64.7135,171.144 64.5,169.5C 58.0298,169.465 52.6964,167.132 48.5,162.5C 49.1667,162.5 49.8333,162.5 50.5,162.5C 52.9496,162.702 55.283,162.369 57.5,161.5 Z"/></g>
<g><path style="opacity:1" fill="#e1855d" d="M 117.5,171.5 C 120.087,176.747 121.42,182.414 121.5,188.5C 115.31,188.823 109.31,188.49 103.5,187.5C 105.179,187.715 106.179,187.048 106.5,185.5C 109.077,183.799 111.911,182.466 115,181.5C 116.289,178.649 116.789,175.649 116.5,172.5C 116.5,171.833 116.833,171.5 117.5,171.5 Z"/></g>
<g><path style="opacity:1" fill="#d0c9c0" d="M 251.5,174.5 C 252.5,174.833 253.167,175.5 253.5,176.5C 252.733,177.172 252.066,178.005 251.5,179C 253.671,182.341 255.005,186.008 255.5,190C 252.5,190.667 249.5,190.667 246.5,190C 247.133,186.258 248.133,182.591 249.5,179C 249.011,177.862 248.678,176.695 248.5,175.5C 249.209,174.596 250.209,174.263 251.5,174.5 Z"/></g>
<g><path style="opacity:1" fill="#edb740" d="M 308.5,178.5 C 310.179,178.892 311.846,179.392 313.5,180C 316.303,182.222 316.137,184.055 313,185.5C 311.588,184.314 310.421,182.981 309.5,181.5C 309.443,180.391 309.11,179.391 308.5,178.5 Z"/></g>
<g><path style="opacity:1" fill="#efd8cd" d="M 106.5,174.5 C 106.5,178.167 106.5,181.833 106.5,185.5C 106.179,187.048 105.179,187.715 103.5,187.5C 99.8648,186.886 96.1981,186.552 92.5,186.5C 92.5,183.167 92.5,179.833 92.5,176.5C 97.1311,175.671 101.798,175.004 106.5,174.5 Z"/></g>
<g><path style="opacity:1" fill="#3d303c" d="M 272.5,179.5 C 276.758,181.062 280.758,180.728 284.5,178.5C 285.847,177.972 287.181,177.805 288.5,178C 286.789,180.519 284.455,182.019 281.5,182.5C 279.5,182.5 277.5,182.5 275.5,182.5C 272.561,182.082 270.228,180.582 268.5,178C 270.066,177.7 271.399,178.2 272.5,179.5 Z"/></g>
<g><path style="opacity:1" fill="#e7d8d5" d="M 272.5,179.5 C 276.298,178.517 280.298,178.183 284.5,178.5C 280.758,180.728 276.758,181.062 272.5,179.5 Z"/></g>
<g><path style="opacity:1" fill="#c8c2b9" d="M 306.5,176.5 C 307.5,176.833 308.167,177.5 308.5,178.5C 309.11,179.391 309.443,180.391 309.5,181.5C 308.957,181.56 308.624,181.893 308.5,182.5C 309.16,184.815 310.493,186.481 312.5,187.5C 310.451,187.706 310.117,188.539 311.5,190C 308.628,191.451 305.628,191.618 302.5,190.5C 303.542,186.081 304.875,181.748 306.5,177.5C 306.5,177.167 306.5,176.833 306.5,176.5 Z"/></g>
<g><path style="opacity:1" fill="#f4ab22" d="M 256.5,181.5 C 260.508,184.17 264.508,186.836 268.5,189.5C 268.5,191.5 268.5,193.5 268.5,195.5C 267.833,195.5 267.167,195.5 266.5,195.5C 265.855,194.188 264.855,193.188 263.5,192.5C 262.357,195.498 262.357,198.498 263.5,201.5C 260.471,201.818 258.805,200.151 258.5,196.5C 259.124,196.083 259.457,195.416 259.5,194.5C 257.712,190.348 256.712,186.014 256.5,181.5 Z"/></g>
<g><path style="opacity:1" fill="#cc5c58" d="M 275.5,182.5 C 277.5,182.5 279.5,182.5 281.5,182.5C 281.804,183.15 282.137,183.817 282.5,184.5C 279.833,185.833 277.167,185.833 274.5,184.5C 274.863,183.817 275.196,183.15 275.5,182.5 Z"/></g>
<g><path style="opacity:1" fill="#f19410" d="M 92.5,186.5 C 96.1981,186.552 99.8648,186.886 103.5,187.5C 109.31,188.49 115.31,188.823 121.5,188.5C 123.062,192.657 123.729,196.99 123.5,201.5C 119.922,206.32 116.588,211.32 113.5,216.5C 110.236,218.094 107.569,220.427 105.5,223.5C 104.167,224.5 102.833,225.5 101.5,226.5C 94.8281,215.487 89.4948,203.82 85.5,191.5C 84.675,190.614 83.675,190.281 82.5,190.5C 85.6777,188.991 89.0111,187.658 92.5,186.5 Z"/></g>
<g><path style="opacity:1" fill="#f6b232" d="M 306.5,177.5 C 304.875,181.748 303.542,186.081 302.5,190.5C 305.628,191.618 308.628,191.451 311.5,190C 310.117,188.539 310.451,187.706 312.5,187.5C 314.117,186.962 315.784,186.629 317.5,186.5C 319.433,193.966 321.767,201.3 324.5,208.5C 324.5,209.167 324.167,209.5 323.5,209.5C 320.414,204.908 316.747,200.742 312.5,197C 310.19,196.503 307.857,196.337 305.5,196.5C 304.167,196.5 302.833,196.5 301.5,196.5C 300.18,195.058 298.514,194.392 296.5,194.5C 295.5,194.5 294.5,194.5 293.5,194.5C 292.857,190.567 293.857,187.234 296.5,184.5C 299.987,183.176 302.321,180.676 303.5,177C 304.577,176.53 305.577,176.697 306.5,177.5 Z"/></g>
<g><path style="opacity:1" fill="#d76d3c" d="M 439.5,170.5 C 442.167,170.5 444.833,170.5 447.5,170.5C 447.912,184.021 446.579,197.354 443.5,210.5C 443.957,211.298 444.624,211.631 445.5,211.5C 438.883,213.386 432.217,213.719 425.5,212.5C 433.512,201.8 438.845,189.8 441.5,176.5C 442.913,183.458 442.58,190.291 440.5,197C 441,197.5 441.5,198 442,198.5C 444.865,189.728 446.032,180.728 445.5,171.5C 443.265,171.795 441.265,171.461 439.5,170.5 Z"/></g>
<g><path style="opacity:1" fill="#d76d3c" d="M 460.5,203.5 C 456.547,207.979 451.547,210.645 445.5,211.5C 447.334,199.162 449.167,186.828 451,174.5C 452.683,183.654 452.85,192.821 451.5,202C 452.078,203.811 452.578,205.645 453,207.5C 453.5,202.5 454,197.5 454.5,192.5C 453.591,185.831 453.091,179.165 453,172.5C 457.63,182.256 460.13,192.59 460.5,203.5 Z"/></g>
<g><path style="opacity:1" fill="#f8c044" d="M 246.5,175.5 C 247.167,175.5 247.833,175.5 248.5,175.5C 248.678,176.695 249.011,177.862 249.5,179C 248.133,182.591 247.133,186.258 246.5,190C 249.5,190.667 252.5,190.667 255.5,190C 255.005,186.008 253.671,182.341 251.5,179C 252.066,178.005 252.733,177.172 253.5,176.5C 255.047,177.768 256.047,179.435 256.5,181.5C 256.712,186.014 257.712,190.348 259.5,194.5C 259.457,195.416 259.124,196.083 258.5,196.5C 256.5,196.5 254.5,196.5 252.5,196.5C 249.304,197.112 246.304,197.112 243.5,196.5C 244.259,189.426 245.259,182.426 246.5,175.5 Z"/></g>
<g><path style="opacity:1" fill="#f5ab1d" d="M 82.5,190.5 C 83.675,190.281 84.675,190.614 85.5,191.5C 89.4948,203.82 94.8281,215.487 101.5,226.5C 98.9566,228.94 95.9566,230.606 92.5,231.5C 85.6595,218.981 80.9928,205.648 78.5,191.5C 79.5676,190.566 80.901,190.232 82.5,190.5 Z"/></g>
<g><path style="opacity:1" fill="#e79b7b" d="M 268.5,189.5 C 272.088,190.585 275.588,191.918 279,193.5C 280.699,193.613 281.866,192.947 282.5,191.5C 284.512,190.986 286.512,190.82 288.5,191C 287.692,191.308 287.025,191.808 286.5,192.5C 293.981,195.882 294.314,199.715 287.5,204C 284.647,205.43 281.647,206.263 278.5,206.5C 274.466,203.401 271.132,199.734 268.5,195.5C 268.5,193.5 268.5,191.5 268.5,189.5 Z"/></g>
<g><path style="opacity:1" fill="#f5ac1c" d="M 68.5,190.5 C 71.1667,190.833 73.8333,191.167 76.5,191.5C 79.0971,206.03 83.4305,220.03 89.5,233.5C 85.8156,235.67 81.8156,236.67 77.5,236.5C 71.7214,221.852 68.7214,206.519 68.5,190.5 Z"/></g>
<g><path style="opacity:1" fill="#ef9415" d="M 252.5,196.5 C 254.5,196.5 256.5,196.5 258.5,196.5C 258.805,200.151 260.471,201.818 263.5,201.5C 263.616,204.86 263.949,208.193 264.5,211.5C 262.983,211.489 261.816,210.823 261,209.5C 257.918,205.266 255.084,200.933 252.5,196.5 Z"/></g>
<g><path style="opacity:1" fill="#db7f5c" d="M 296.5,184.5 C 293.857,187.234 292.857,190.567 293.5,194.5C 294.5,194.5 295.5,194.5 296.5,194.5C 296.253,196.858 296.919,198.858 298.5,200.5C 297.508,200.328 296.842,200.662 296.5,201.5C 292.487,206.5 287.154,208.833 280.5,208.5C 279.5,208.167 278.833,207.5 278.5,206.5C 281.647,206.263 284.647,205.43 287.5,204C 294.314,199.715 293.981,195.882 286.5,192.5C 287.025,191.808 287.692,191.308 288.5,191C 286.512,190.82 284.512,190.986 282.5,191.5C 286.937,189.109 291.27,186.443 295.5,183.5C 296.107,183.624 296.44,183.957 296.5,184.5 Z"/></g>
<g><path style="opacity:1" fill="#d86f3a" d="M 305.5,196.5 C 307.857,196.337 310.19,196.503 312.5,197C 316.747,200.742 320.414,204.908 323.5,209.5C 326.181,215.548 327.848,221.881 328.5,228.5C 324.633,228.758 320.966,228.092 317.5,226.5C 316.542,226.047 315.708,225.381 315,224.5C 315.198,221.765 315.031,219.099 314.5,216.5C 313.237,218.029 312.237,219.695 311.5,221.5C 310.407,219.651 309.074,217.984 307.5,216.5C 309.366,213.306 309.7,209.973 308.5,206.5C 308.167,206.833 307.833,207.167 307.5,207.5C 308.705,208.995 308.705,210.328 307.5,211.5C 305.959,206.635 305.292,201.635 305.5,196.5 Z"/></g>
<g><path style="opacity:1" fill="#f0961e" d="M 266.5,195.5 C 267.167,195.5 267.833,195.5 268.5,195.5C 271.132,199.734 274.466,203.401 278.5,206.5C 278.833,207.5 279.5,208.167 280.5,208.5C 283.5,211.833 286.5,215.167 289.5,218.5C 289.5,218.833 289.5,219.167 289.5,219.5C 287.852,218.19 286.186,216.857 284.5,215.5C 283.265,216.34 282.265,217.34 281.5,218.5C 277.917,212.581 273.584,207.248 268.5,202.5C 267.83,204.291 267.163,205.958 266.5,207.5C 266.5,203.5 266.5,199.5 266.5,195.5 Z"/></g>
<g><path style="opacity:0.999" fill="#d4d2d2" d="M 464.5,196.5 C 472.206,197.426 479.539,199.593 486.5,203C 490.527,206.311 490.193,209.311 485.5,212C 470.703,217.56 455.37,220.06 439.5,219.5C 428.798,219.093 418.132,218.259 407.5,217C 401.232,215.799 395.232,213.799 389.5,211C 386.604,207.329 387.271,204.329 391.5,202C 396.304,199.787 401.304,198.287 406.5,197.5C 405.638,200.885 403.972,203.885 401.5,206.5C 409.185,209.78 417.185,211.78 425.5,212.5C 432.217,213.719 438.883,213.386 445.5,211.5C 451.547,210.645 456.547,207.979 460.5,203.5C 461.833,201.167 463.167,198.833 464.5,196.5 Z"/></g>
<g><path style="opacity:1" fill="#73402c" d="M 296.5,194.5 C 298.514,194.392 300.18,195.058 301.5,196.5C 301.242,202.811 301.242,209.144 301.5,215.5C 300.206,214.71 299.039,213.71 298,212.5C 297.643,208.49 297.81,204.49 298.5,200.5C 296.919,198.858 296.253,196.858 296.5,194.5 Z"/></g>
<g><path style="opacity:1" fill="#f5ac21" d="M 73.5,237.5 C 70.5,237.5 67.5,237.5 64.5,237.5C 61.8427,237.065 59.5093,236.065 57.5,234.5C 61.3841,222.421 64.3841,210.087 66.5,197.5C 67.7306,210.877 70.064,224.21 73.5,237.5 Z"/></g>
<g><path style="opacity:1" fill="#f1a720" d="M 281.5,218.5 C 281.672,219.492 281.338,220.158 280.5,220.5C 276.84,215.315 275.506,216.315 276.5,223.5C 274.053,223.385 272.053,222.385 270.5,220.5C 270.116,215.817 268.782,211.484 266.5,207.5C 267.163,205.958 267.83,204.291 268.5,202.5C 273.584,207.248 277.917,212.581 281.5,218.5 Z"/></g>
<g><path style="opacity:1" fill="#cc5828" d="M 123.5,201.5 C 123.709,209.953 122.876,218.286 121,226.5C 120.311,227.357 119.478,228.023 118.5,228.5C 114.649,225.459 112.983,221.459 113.5,216.5C 116.588,211.32 119.922,206.32 123.5,201.5 Z"/></g>
<g><path style="opacity:1" fill="#c75529" d="M 296.5,201.5 C 295.798,204.578 294.798,207.578 293.5,210.5C 294.384,213.094 295.384,215.594 296.5,218C 296.613,219.699 295.947,220.866 294.5,221.5C 293.833,221.5 293.167,221.5 292.5,221.5C 292.66,219.801 292.494,218.134 292,216.5C 291.292,217.381 290.458,218.047 289.5,218.5C 286.5,215.167 283.5,211.833 280.5,208.5C 287.154,208.833 292.487,206.5 296.5,201.5 Z"/></g>
<g><path style="opacity:1" fill="#d86e3a" d="M 243.5,204.5 C 242.624,204.369 241.957,204.702 241.5,205.5C 246.666,212.494 248.5,220.16 247,228.5C 244.706,229.422 242.539,230.422 240.5,231.5C 238.565,230.85 236.565,230.517 234.5,230.5C 234.887,225.126 235.554,219.793 236.5,214.5C 237.75,214.423 238.583,213.756 239,212.5C 239.629,208.994 240.629,205.66 242,202.5C 242.717,203.044 243.217,203.711 243.5,204.5 Z"/></g>
<g><path style="opacity:1" fill="#704025" d="M 266.5,195.5 C 266.5,199.5 266.5,203.5 266.5,207.5C 268.782,211.484 270.116,215.817 270.5,220.5C 270.805,223.414 270.805,226.081 270.5,228.5C 267.709,223.129 265.709,217.462 264.5,211.5C 263.949,208.193 263.616,204.86 263.5,201.5C 262.357,198.498 262.357,195.498 263.5,192.5C 264.855,193.188 265.855,194.188 266.5,195.5 Z"/></g>
<g><path style="opacity:1" fill="#f1901b" d="M 238.5,197.5 C 240.218,198.224 242.052,198.891 244,199.5C 253.641,213.449 261.141,228.449 266.5,244.5C 263.857,247.34 263.024,250.673 264,254.5C 266.016,258.542 268.516,262.209 271.5,265.5C 269.833,265.5 268.167,265.5 266.5,265.5C 266.315,263.804 265.481,262.471 264,261.5C 262.301,262.406 260.467,262.739 258.5,262.5C 258.5,261.167 258.5,259.833 258.5,258.5C 256.833,258.5 255.167,258.5 253.5,258.5C 253.737,257.209 253.404,256.209 252.5,255.5C 252.5,255.167 252.5,254.833 252.5,254.5C 255.006,251.914 257.506,251.914 260,254.5C 261.009,252.975 261.509,251.308 261.5,249.5C 260.209,249.737 259.209,249.404 258.5,248.5C 259.586,248.38 260.253,247.713 260.5,246.5C 259.53,241.601 258.197,236.934 256.5,232.5C 256.5,232.167 256.5,231.833 256.5,231.5C 253.495,221.824 249.161,212.824 243.5,204.5C 243.217,203.711 242.717,203.044 242,202.5C 240.629,205.66 239.629,208.994 239,212.5C 238.583,213.756 237.75,214.423 236.5,214.5C 236.321,208.596 236.988,202.929 238.5,197.5 Z"/></g>
<g><path style="opacity:1" fill="#c1bab4" d="M 298.5,200.5 C 297.81,204.49 297.643,208.49 298,212.5C 299.039,213.71 300.206,214.71 301.5,215.5C 300.393,218.231 299.393,221.064 298.5,224C 298.522,226.183 299.522,227.683 301.5,228.5C 301.5,228.833 301.5,229.167 301.5,229.5C 297.28,229.573 294.946,227.573 294.5,223.5C 294.5,222.833 294.5,222.167 294.5,221.5C 295.947,220.866 296.613,219.699 296.5,218C 295.384,215.594 294.384,213.094 293.5,210.5C 294.798,207.578 295.798,204.578 296.5,201.5C 296.842,200.662 297.508,200.328 298.5,200.5 Z"/></g>
<g><path style="opacity:1" fill="#f39615" d="M 76.5,191.5 C 77.1667,191.5 77.8333,191.5 78.5,191.5C 80.9928,205.648 85.6595,218.981 92.5,231.5C 91.7095,232.401 90.7095,233.068 89.5,233.5C 83.4305,220.03 79.0971,206.03 76.5,191.5 Z"/></g>
<g><path style="opacity:1" fill="#cc5727" d="M 243.5,204.5 C 249.161,212.824 253.495,221.824 256.5,231.5C 251.175,232.761 245.842,232.761 240.5,231.5C 242.539,230.422 244.706,229.422 247,228.5C 248.5,220.16 246.666,212.494 241.5,205.5C 241.957,204.702 242.624,204.369 243.5,204.5 Z"/></g>
<g><path style="opacity:1" fill="#e13921" d="M 289.5,219.5 C 290.234,220.708 290.567,222.041 290.5,223.5C 290.833,224.5 291.5,225.167 292.5,225.5C 292.461,228.535 291.461,231.202 289.5,233.5C 286.431,235.758 283.098,236.092 279.5,234.5C 278.018,229.695 278.351,225.029 280.5,220.5C 281.338,220.158 281.672,219.492 281.5,218.5C 282.265,217.34 283.265,216.34 284.5,215.5C 286.186,216.857 287.852,218.19 289.5,219.5 Z"/></g>
<g><path style="opacity:1" fill="#cdb1a7" d="M 307.5,216.5 C 306.378,218.288 306.211,220.288 307,222.5C 308.011,223.337 309.178,223.67 310.5,223.5C 310.313,225.564 309.813,227.564 309,229.5C 308.07,226.641 306.404,224.307 304,222.5C 303.333,220.833 303.333,219.167 304,217.5C 305.394,215.612 306.56,213.612 307.5,211.5C 308.705,210.328 308.705,208.995 307.5,207.5C 307.833,207.167 308.167,206.833 308.5,206.5C 309.7,209.973 309.366,213.306 307.5,216.5 Z"/></g>
<g><path style="opacity:1" fill="#cfaea1" d="M 317.5,226.5 C 319.095,228.374 318.761,229.207 316.5,229C 313.758,227.114 312.091,224.614 311.5,221.5C 312.237,219.695 313.237,218.029 314.5,216.5C 315.031,219.099 315.198,221.765 315,224.5C 315.708,225.381 316.542,226.047 317.5,226.5 Z"/></g>
<g><path style="opacity:1" fill="#6a9c28" d="M 292.5,221.5 C 292.5,222.833 291.833,223.5 290.5,223.5C 290.567,222.041 290.234,220.708 289.5,219.5C 289.5,219.167 289.5,218.833 289.5,218.5C 290.458,218.047 291.292,217.381 292,216.5C 292.494,218.134 292.66,219.801 292.5,221.5 Z"/></g>
<g><path style="opacity:1" fill="#f3961b" d="M 64.5,189.5 C 66.099,189.232 67.4324,189.566 68.5,190.5C 68.7214,206.519 71.7214,221.852 77.5,236.5C 76.4324,237.434 75.099,237.768 73.5,237.5C 70.064,224.21 67.7306,210.877 66.5,197.5C 64.3841,210.087 61.3841,222.421 57.5,234.5C 55.8042,234.315 54.4709,233.481 53.5,232C 58.9641,218.311 62.6308,204.144 64.5,189.5 Z"/></g>
<g><path style="opacity:1" fill="#c79c33" d="M 292.5,221.5 C 293.167,221.5 293.833,221.5 294.5,221.5C 294.5,222.167 294.5,222.833 294.5,223.5C 293.5,223.833 292.833,224.5 292.5,225.5C 291.5,225.167 290.833,224.5 290.5,223.5C 291.833,223.5 292.5,222.833 292.5,221.5 Z"/></g>
<g><path style="opacity:1" fill="#5d9e25" d="M 280.5,220.5 C 278.351,225.029 278.018,229.695 279.5,234.5C 277.5,234.5 275.5,234.5 273.5,234.5C 273.167,234.5 272.833,234.5 272.5,234.5C 272.586,233.504 272.252,232.671 271.5,232C 265.8,230.931 265.467,229.764 270.5,228.5C 270.805,226.081 270.805,223.414 270.5,220.5C 272.053,222.385 274.053,223.385 276.5,223.5C 275.506,216.315 276.84,215.315 280.5,220.5 Z"/></g>
<g><path style="opacity:1" fill="#c9552a" d="M 301.5,196.5 C 302.833,196.5 304.167,196.5 305.5,196.5C 305.292,201.635 305.959,206.635 307.5,211.5C 306.56,213.612 305.394,215.612 304,217.5C 303.333,219.167 303.333,220.833 304,222.5C 306.404,224.307 308.07,226.641 309,229.5C 309.813,227.564 310.313,225.564 310.5,223.5C 309.178,223.67 308.011,223.337 307,222.5C 306.211,220.288 306.378,218.288 307.5,216.5C 309.074,217.984 310.407,219.651 311.5,221.5C 312.091,224.614 313.758,227.114 316.5,229C 318.761,229.207 319.095,228.374 317.5,226.5C 320.966,228.092 324.633,228.758 328.5,228.5C 328.5,229.167 328.5,229.833 328.5,230.5C 321.609,232.082 314.609,232.748 307.5,232.5C 305.777,230.782 303.777,229.449 301.5,228.5C 299.522,227.683 298.522,226.183 298.5,224C 299.393,221.064 300.393,218.231 301.5,215.5C 301.242,209.144 301.242,202.811 301.5,196.5 Z"/></g>
<g><path style="opacity:1" fill="#c95226" d="M 105.5,223.5 C 105.335,226.518 105.502,229.518 106,232.5C 106.875,240.273 110.709,245.94 117.5,249.5C 119.628,250.629 121.961,250.796 124.5,250C 127.039,248.279 129.372,246.446 131.5,244.5C 132.746,254.138 133.746,263.805 134.5,273.5C 133.778,273.918 133.278,274.584 133,275.5C 116.052,267.293 104.386,254.293 98,236.5C 100.317,252.507 107.484,266.007 119.5,277C 124.864,281.009 130.198,285.009 135.5,289C 135.333,289.5 135.167,290 135,290.5C 122.138,284.973 112.471,275.973 106,263.5C 102.945,257.667 100.278,251.667 98,245.5C 98.6495,250.456 99.4828,255.456 100.5,260.5C 99.7321,259.737 99.2321,258.737 99,257.5C 97.7065,276.293 103.873,292.127 117.5,305C 118.833,305.667 120.167,306.333 121.5,307C 120.944,307.383 120.611,307.883 120.5,308.5C 112.868,309.358 105.201,309.691 97.5,309.5C 89.6407,288.091 83.8073,266.091 80,243.5C 79.352,256.945 80.1853,270.279 82.5,283.5C 82.1924,284.308 81.6924,284.975 81,285.5C 79.5063,271.043 77.5063,256.71 75,242.5C 74.1718,251.592 74.6718,260.592 76.5,269.5C 76.0133,270.446 75.6799,271.446 75.5,272.5C 77.4953,284.464 79.162,296.464 80.5,308.5C 79.7321,307.737 79.2321,306.737 79,305.5C 76.2014,284.846 73.5347,264.179 71,243.5C 70.5819,247.178 70.0819,250.845 69.5,254.5C 70.3601,271.998 71.6934,289.331 73.5,306.5C 71.323,306.414 69.323,305.747 67.5,304.5C 66.7432,301.63 65.7432,298.964 64.5,296.5C 63.2165,276.83 63.2165,257.164 64.5,237.5C 67.5,237.5 70.5,237.5 73.5,237.5C 75.099,237.768 76.4324,237.434 77.5,236.5C 81.8156,236.67 85.8156,235.67 89.5,233.5C 90.7095,233.068 91.7095,232.401 92.5,231.5C 95.9566,230.606 98.9566,228.94 101.5,226.5C 102.833,225.5 104.167,224.5 105.5,223.5 Z"/></g>
<g><path style="opacity:1" fill="#609f2b" d="M 294.5,223.5 C 294.946,227.573 297.28,229.573 301.5,229.5C 298.759,230.213 296.759,231.88 295.5,234.5C 292.988,236.179 290.988,235.845 289.5,233.5C 291.461,231.202 292.461,228.535 292.5,225.5C 292.833,224.5 293.5,223.833 294.5,223.5 Z"/></g>
<g><path style="opacity:1" fill="#dd7e5c" d="M 234.5,230.5 C 236.565,230.517 238.565,230.85 240.5,231.5C 245.842,232.761 251.175,232.761 256.5,231.5C 256.5,231.833 256.5,232.167 256.5,232.5C 256.313,236.913 255.646,241.246 254.5,245.5C 252.882,248.171 252.215,251.171 252.5,254.5C 252.5,254.833 252.5,255.167 252.5,255.5C 251.883,255.611 251.383,255.944 251,256.5C 247.774,255.589 244.774,254.256 242,252.5C 239.378,253.625 236.878,254.959 234.5,256.5C 232.972,255.691 231.306,255.024 229.5,254.5C 230.916,246.421 232.582,238.421 234.5,230.5 Z"/></g>
<g><path style="opacity:1" fill="#db7f5b" d="M 328.5,230.5 C 331.069,240.281 332.403,250.281 332.5,260.5C 330.068,259.25 327.734,257.75 325.5,256C 322.469,255.505 319.469,255.671 316.5,256.5C 316.5,257.833 316.5,259.167 316.5,260.5C 314.833,260.5 313.167,260.5 311.5,260.5C 310.5,256.499 309.5,252.499 308.5,248.5C 309.222,248.918 309.722,249.584 310,250.5C 309.51,244.502 308.677,238.502 307.5,232.5C 314.609,232.748 321.609,232.082 328.5,230.5 Z"/></g>
<g><path style="opacity:1" fill="#f5a81f" d="M 243.5,196.5 C 246.304,197.112 249.304,197.112 252.5,196.5C 255.084,200.933 257.918,205.266 261,209.5C 261.816,210.823 262.983,211.489 264.5,211.5C 265.709,217.462 267.709,223.129 270.5,228.5C 265.467,229.764 265.8,230.931 271.5,232C 272.252,232.671 272.586,233.504 272.5,234.5C 272.678,235.695 273.011,236.862 273.5,238C 271.318,240.35 268.985,242.516 266.5,244.5C 261.141,228.449 253.641,213.449 244,199.5C 242.052,198.891 240.218,198.224 238.5,197.5C 240.117,196.962 241.784,196.629 243.5,196.5 Z"/></g>
<g><path style="opacity:1" fill="#c99766" d="M 289.5,233.5 C 290.988,235.845 292.988,236.179 295.5,234.5C 295.5,235.833 295.5,237.167 295.5,238.5C 290.218,239.567 284.885,239.733 279.5,239C 277.593,237.244 275.593,235.744 273.5,234.5C 275.5,234.5 277.5,234.5 279.5,234.5C 283.098,236.092 286.431,235.758 289.5,233.5 Z"/></g>
<g><path style="opacity:1" fill="#cc5727" d="M 256.5,232.5 C 258.197,236.934 259.53,241.601 260.5,246.5C 260.253,247.713 259.586,248.38 258.5,248.5C 257.167,247.5 255.833,246.5 254.5,245.5C 255.646,241.246 256.313,236.913 256.5,232.5 Z"/></g>
<g><path style="opacity:1" fill="#ac6834" d="M 272.5,234.5 C 272.833,234.5 273.167,234.5 273.5,234.5C 275.593,235.744 277.593,237.244 279.5,239C 284.885,239.733 290.218,239.567 295.5,238.5C 295.833,239.167 296.167,239.833 296.5,240.5C 289.307,242.077 281.974,242.911 274.5,243C 271.195,249.044 272.862,251.211 279.5,249.5C 279.5,251.167 279.5,252.833 279.5,254.5C 277.481,253.245 275.481,252.911 273.5,253.5C 275.179,257.521 276.846,261.521 278.5,265.5C 276.167,265.5 273.833,265.5 271.5,265.5C 268.516,262.209 266.016,258.542 264,254.5C 263.024,250.673 263.857,247.34 266.5,244.5C 268.985,242.516 271.318,240.35 273.5,238C 273.011,236.862 272.678,235.695 272.5,234.5 Z"/></g>
<g><path style="opacity:1" fill="#c0844c" d="M 296.5,240.5 C 300.588,242.254 303.255,245.254 304.5,249.5C 298.519,250.499 292.519,250.999 286.5,251C 287.056,250.617 287.389,250.117 287.5,249.5C 287.548,248.493 286.548,248.16 284.5,248.5C 284.5,250.167 284.5,251.833 284.5,253.5C 283.167,253.5 281.833,253.5 280.5,253.5C 280.768,251.901 280.434,250.568 279.5,249.5C 272.862,251.211 271.195,249.044 274.5,243C 281.974,242.911 289.307,242.077 296.5,240.5 Z"/></g>
<g><path style="opacity:1" fill="#816358" d="M 310.5,233.5 C 311.117,233.611 311.617,233.944 312,234.5C 312.819,240.83 313.152,247.164 313,253.5C 311.621,246.893 310.787,240.227 310.5,233.5 Z"/></g>
<g><path style="opacity:0.443" fill="#f8b558" d="M 324.5,208.5 C 327.572,214.755 329.738,221.422 331,228.5C 332.994,240.449 334.494,252.449 335.5,264.5C 333.088,264.306 332.088,262.973 332.5,260.5C 332.403,250.281 331.069,240.281 328.5,230.5C 328.5,229.833 328.5,229.167 328.5,228.5C 327.848,221.881 326.181,215.548 323.5,209.5C 324.167,209.5 324.5,209.167 324.5,208.5 Z"/></g>
<g><path style="opacity:1" fill="#f5b539" d="M 254.5,245.5 C 255.833,246.5 257.167,247.5 258.5,248.5C 259.209,249.404 260.209,249.737 261.5,249.5C 261.509,251.308 261.009,252.975 260,254.5C 257.506,251.914 255.006,251.914 252.5,254.5C 252.215,251.171 252.882,248.171 254.5,245.5 Z"/></g>
<g><path style="opacity:1" fill="#a16b57" d="M 315.5,233.5 C 316.818,236.258 317.485,239.424 317.5,243C 317.593,246.95 317.093,250.784 316,254.5C 315.5,247.508 315.334,240.508 315.5,233.5 Z"/></g>
<g><path style="opacity:1" fill="#e05d3f" d="M 287.5,249.5 C 285.744,250.552 285.077,252.219 285.5,254.5C 287.167,254.5 288.833,254.5 290.5,254.5C 290.378,258.838 290.045,259.172 289.5,255.5C 288.167,255.5 286.833,255.5 285.5,255.5C 285.5,257.5 285.5,259.5 285.5,261.5C 281.162,261.378 280.828,261.045 284.5,260.5C 284.5,258.833 284.5,257.167 284.5,255.5C 282.585,255.784 280.919,255.451 279.5,254.5C 279.5,252.833 279.5,251.167 279.5,249.5C 280.434,250.568 280.768,251.901 280.5,253.5C 281.833,253.5 283.167,253.5 284.5,253.5C 284.5,251.833 284.5,250.167 284.5,248.5C 286.548,248.16 287.548,248.493 287.5,249.5 Z"/></g>
<g><path style="opacity:1" fill="#aa6531" d="M 287.5,249.5 C 287.389,250.117 287.056,250.617 286.5,251C 292.519,250.999 298.519,250.499 304.5,249.5C 304.5,250.5 304.5,251.5 304.5,252.5C 299.85,253.26 295.183,253.926 290.5,254.5C 288.833,254.5 287.167,254.5 285.5,254.5C 285.077,252.219 285.744,250.552 287.5,249.5 Z"/></g>
<g><path style="opacity:1" fill="#ef9b1f" d="M 301.5,228.5 C 303.777,229.449 305.777,230.782 307.5,232.5C 308.677,238.502 309.51,244.502 310,250.5C 309.722,249.584 309.222,248.918 308.5,248.5C 309.5,252.499 310.5,256.499 311.5,260.5C 311.5,260.833 311.5,261.167 311.5,261.5C 309.205,262.475 307.205,263.808 305.5,265.5C 302.833,265.5 300.167,265.5 297.5,265.5C 300.484,262.209 302.984,258.542 305,254.5C 305.78,252.613 305.613,250.946 304.5,249.5C 303.255,245.254 300.588,242.254 296.5,240.5C 296.167,239.833 295.833,239.167 295.5,238.5C 295.5,237.167 295.5,235.833 295.5,234.5C 296.759,231.88 298.759,230.213 301.5,229.5C 301.5,229.167 301.5,228.833 301.5,228.5 Z"/></g>
<g><path style="opacity:1" fill="#8b6f45" d="M 308.5,248.5 C 306.077,244.144 304.577,239.478 304,234.5C 306.42,238.839 307.92,243.506 308.5,248.5 Z"/></g>
<g><path style="opacity:1" fill="#c2854c" d="M 304.5,249.5 C 305.613,250.946 305.78,252.613 305,254.5C 302.984,258.542 300.484,262.209 297.5,265.5C 291.167,265.5 284.833,265.5 278.5,265.5C 276.846,261.521 275.179,257.521 273.5,253.5C 275.481,252.911 277.481,253.245 279.5,254.5C 280.919,255.451 282.585,255.784 284.5,255.5C 284.5,257.167 284.5,258.833 284.5,260.5C 280.828,261.045 281.162,261.378 285.5,261.5C 285.5,259.5 285.5,257.5 285.5,255.5C 286.833,255.5 288.167,255.5 289.5,255.5C 290.045,259.172 290.378,258.838 290.5,254.5C 295.183,253.926 299.85,253.26 304.5,252.5C 304.5,251.5 304.5,250.5 304.5,249.5 Z"/></g>
<g><path style="opacity:1" fill="#ee811f" d="M 252.5,255.5 C 253.404,256.209 253.737,257.209 253.5,258.5C 255.167,258.5 256.833,258.5 258.5,258.5C 258.5,259.833 258.5,261.167 258.5,262.5C 260.467,262.739 262.301,262.406 264,261.5C 265.481,262.471 266.315,263.804 266.5,265.5C 254.5,265.5 242.5,265.5 230.5,265.5C 230.557,264.391 230.89,263.391 231.5,262.5C 233.088,260.887 234.088,258.887 234.5,256.5C 236.878,254.959 239.378,253.625 242,252.5C 244.774,254.256 247.774,255.589 251,256.5C 251.383,255.944 251.883,255.611 252.5,255.5 Z"/></g>
<g><path style="opacity:1" fill="#d98771" d="M 332.5,260.5 C 332.088,262.973 333.088,264.306 335.5,264.5C 335.5,266.167 335.5,267.833 335.5,269.5C 335.167,269.5 334.833,269.5 334.5,269.5C 333.368,268.646 332.035,268.646 330.5,269.5C 297.004,268.502 263.337,268.168 229.5,268.5C 229.5,268.167 229.5,267.833 229.5,267.5C 263.502,267.667 297.502,267.5 331.5,267C 311.329,266.832 291.329,266.332 271.5,265.5C 273.833,265.5 276.167,265.5 278.5,265.5C 284.833,265.5 291.167,265.5 297.5,265.5C 300.167,265.5 302.833,265.5 305.5,265.5C 311.509,265.666 317.509,265.499 323.5,265C 320.05,262.051 316.05,260.884 311.5,261.5C 311.5,261.167 311.5,260.833 311.5,260.5C 313.167,260.5 314.833,260.5 316.5,260.5C 316.5,259.167 316.5,257.833 316.5,256.5C 319.469,255.671 322.469,255.505 325.5,256C 327.734,257.75 330.068,259.25 332.5,260.5 Z"/></g>
<g><path style="opacity:1" fill="#e69b7c" d="M 229.5,254.5 C 231.306,255.024 232.972,255.691 234.5,256.5C 234.088,258.887 233.088,260.887 231.5,262.5C 227.596,263.809 223.596,264.809 219.5,265.5C 219.784,267.415 219.451,269.081 218.5,270.5C 217.17,268.119 217.336,265.786 219,263.5C 222.692,260.635 226.192,257.635 229.5,254.5 Z"/></g>
<g><path style="opacity:1" fill="#afa7a5" d="M 311.5,261.5 C 316.05,260.884 320.05,262.051 323.5,265C 317.509,265.499 311.509,265.666 305.5,265.5C 307.205,263.808 309.205,262.475 311.5,261.5 Z"/></g>
<g><path style="opacity:0.999" fill="#dc7f5c" d="M 231.5,262.5 C 230.89,263.391 230.557,264.391 230.5,265.5C 228.576,265.711 228.243,266.377 229.5,267.5C 229.5,267.833 229.5,268.167 229.5,268.5C 229.328,269.492 229.662,270.158 230.5,270.5C 231.167,270.833 231.833,271.167 232.5,271.5C 232.953,272.458 233.619,273.292 234.5,274C 241.492,274.5 248.492,274.666 255.5,274.5C 254.89,275.391 254.557,276.391 254.5,277.5C 252.068,278.75 249.734,280.25 247.5,282C 243.848,282.499 240.182,282.665 236.5,282.5C 234.898,280.926 232.898,280.259 230.5,280.5C 227.327,279.83 224.327,278.664 221.5,277C 219.549,275.266 218.549,273.099 218.5,270.5C 219.451,269.081 219.784,267.415 219.5,265.5C 223.596,264.809 227.596,263.809 231.5,262.5 Z"/></g>
<g><path style="opacity:1" fill="#d03f39" d="M 230.5,265.5 C 242.5,265.5 254.5,265.5 266.5,265.5C 268.167,265.5 269.833,265.5 271.5,265.5C 291.329,266.332 311.329,266.832 331.5,267C 297.502,267.5 263.502,267.667 229.5,267.5C 228.243,266.377 228.576,265.711 230.5,265.5 Z"/></g>
<g><path style="opacity:1" fill="#d66c3a" d="M 97.5,309.5 C 96.7326,310.172 96.0659,311.005 95.5,312C 92.1832,312.498 88.8499,312.665 85.5,312.5C 85.5,311.167 85.5,309.833 85.5,308.5C 83.8333,308.5 82.1667,308.5 80.5,308.5C 79.162,296.464 77.4953,284.464 75.5,272.5C 75.6799,271.446 76.0133,270.446 76.5,269.5C 74.6718,260.592 74.1718,251.592 75,242.5C 77.5063,256.71 79.5063,271.043 81,285.5C 81.6924,284.975 82.1924,284.308 82.5,283.5C 80.1853,270.279 79.352,256.945 80,243.5C 83.8073,266.091 89.6407,288.091 97.5,309.5 Z"/></g>
<g><path style="opacity:1" fill="#b0a286" d="M 229.5,268.5 C 263.337,268.168 297.004,268.502 330.5,269.5C 329.833,269.833 329.167,270.167 328.5,270.5C 295.833,269.167 263.167,269.167 230.5,270.5C 229.662,270.158 229.328,269.492 229.5,268.5 Z"/></g>
<g><path style="opacity:1" fill="#c7b174" d="M 230.5,270.5 C 263.167,269.167 295.833,269.167 328.5,270.5C 328.5,271.167 328.167,271.5 327.5,271.5C 295.833,271.5 264.167,271.5 232.5,271.5C 231.833,271.167 231.167,270.833 230.5,270.5 Z"/></g>
<g><path style="opacity:1" fill="#78513f" d="M 334.5,269.5 C 334.301,271.96 333.635,274.293 332.5,276.5C 328.906,278.135 325.24,279.468 321.5,280.5C 319.579,281.363 317.579,282.029 315.5,282.5C 312.482,282.665 309.482,282.498 306.5,282C 303.961,279.63 301.628,277.13 299.5,274.5C 308.173,274.666 316.84,274.5 325.5,274C 326.381,273.292 327.047,272.458 327.5,271.5C 328.167,271.5 328.5,271.167 328.5,270.5C 329.167,270.167 329.833,269.833 330.5,269.5C 332.035,268.646 333.368,268.646 334.5,269.5 Z"/></g>
<g><path style="opacity:1" fill="#c95126" d="M 100.5,260.5 C 104.325,269.444 108.825,278.111 114,286.5C 120.039,293.599 127.539,298.265 136.5,300.5C 136.5,301.5 136.5,302.5 136.5,303.5C 135.833,303.5 135.167,303.5 134.5,303.5C 115.289,295.417 103.955,281.084 100.5,260.5 Z"/></g>
<g><path style="opacity:1" fill="#d66c3b" d="M 134.5,273.5 C 135.948,280.301 136.948,287.301 137.5,294.5C 137.81,297.713 137.477,300.713 136.5,303.5C 136.5,302.5 136.5,301.5 136.5,300.5C 127.539,298.265 120.039,293.599 114,286.5C 108.825,278.111 104.325,269.444 100.5,260.5C 99.4828,255.456 98.6495,250.456 98,245.5C 100.278,251.667 102.945,257.667 106,263.5C 112.471,275.973 122.138,284.973 135,290.5C 135.167,290 135.333,289.5 135.5,289C 130.198,285.009 124.864,281.009 119.5,277C 107.484,266.007 100.317,252.507 98,236.5C 104.386,254.293 116.052,267.293 133,275.5C 133.278,274.584 133.778,273.918 134.5,273.5 Z"/></g>
<g><path style="opacity:1" fill="#88807a" d="M 232.5,271.5 C 264.167,271.5 295.833,271.5 327.5,271.5C 327.047,272.458 326.381,273.292 325.5,274C 316.84,274.5 308.173,274.666 299.5,274.5C 298.167,274.5 296.833,274.5 295.5,274.5C 293.167,274.5 290.833,274.5 288.5,274.5C 284.833,274.5 281.167,274.5 277.5,274.5C 276.167,274.5 274.833,274.5 273.5,274.5C 270.167,274.5 266.833,274.5 263.5,274.5C 260.833,274.5 258.167,274.5 255.5,274.5C 248.492,274.666 241.492,274.5 234.5,274C 233.619,273.292 232.953,272.458 232.5,271.5 Z"/></g>
<g><path style="opacity:1" fill="#d66c3a" d="M 100.5,260.5 C 103.955,281.084 115.289,295.417 134.5,303.5C 130.201,305.935 125.535,307.602 120.5,308.5C 120.611,307.883 120.944,307.383 121.5,307C 120.167,306.333 118.833,305.667 117.5,305C 103.873,292.127 97.7065,276.293 99,257.5C 99.2321,258.737 99.7321,259.737 100.5,260.5 Z"/></g>
<g><path style="opacity:1" fill="#f6ac1b" d="M 263.5,274.5 C 266.833,274.5 270.167,274.5 273.5,274.5C 270.861,305.201 267.861,335.868 264.5,366.5C 258.851,369.494 252.851,371.494 246.5,372.5C 245.503,372.53 244.836,372.03 244.5,371C 246.075,361.193 247.575,351.36 249,341.5C 253.9,319.166 258.733,296.833 263.5,274.5 Z"/></g>
<g><path style="opacity:1" fill="#f6ab1b" d="M 277.5,274.5 C 281.167,274.5 284.833,274.5 288.5,274.5C 289.389,297.82 289.722,321.153 289.5,344.5C 287.748,346.246 286.415,348.246 285.5,350.5C 283.596,350.738 282.262,351.738 281.5,353.5C 280.833,353.5 280.5,353.833 280.5,354.5C 279.167,355.167 278.167,356.167 277.5,357.5C 276.167,358.167 275.167,359.167 274.5,360.5C 273.391,360.557 272.391,360.89 271.5,361.5C 270.839,359.866 270.506,358.033 270.5,356C 273.236,328.868 275.569,301.701 277.5,274.5 Z"/></g>
<g><path style="opacity:1" fill="#f39412" d="M 255.5,274.5 C 258.167,274.5 260.833,274.5 263.5,274.5C 258.733,296.833 253.9,319.166 249,341.5C 247.575,351.36 246.075,361.193 244.5,371C 244.836,372.03 245.503,372.53 246.5,372.5C 245.081,373.451 243.415,373.784 241.5,373.5C 239.5,373.5 237.5,373.5 235.5,373.5C 235.389,372.883 235.056,372.383 234.5,372C 236.028,364.274 237.028,356.441 237.5,348.5C 238.117,348.611 238.617,348.944 239,349.5C 239.501,345.49 240.001,341.49 240.5,337.5C 244.769,317.506 249.435,297.506 254.5,277.5C 254.557,276.391 254.89,275.391 255.5,274.5 Z"/></g>
<g><path style="opacity:1" fill="#f39513" d="M 273.5,274.5 C 274.833,274.5 276.167,274.5 277.5,274.5C 275.569,301.701 273.236,328.868 270.5,356C 270.506,358.033 270.839,359.866 271.5,361.5C 271.5,361.833 271.5,362.167 271.5,362.5C 269.973,362.427 268.973,363.094 268.5,364.5C 267.29,364.932 266.29,365.599 265.5,366.5C 265.167,366.5 264.833,366.5 264.5,366.5C 267.861,335.868 270.861,305.201 273.5,274.5 Z"/></g>
<g><path style="opacity:1" fill="#f29410" d="M 288.5,274.5 C 290.833,274.5 293.167,274.5 295.5,274.5C 295.333,292.503 295.5,310.503 296,328.5C 296.181,331.695 296.681,334.695 297.5,337.5C 295.451,340.55 292.784,342.883 289.5,344.5C 289.722,321.153 289.389,297.82 288.5,274.5 Z"/></g>
<g><path style="opacity:1" fill="#f5ab1d" d="M 295.5,274.5 C 296.833,274.5 298.167,274.5 299.5,274.5C 301.628,277.13 303.961,279.63 306.5,282C 309.482,282.498 312.482,282.665 315.5,282.5C 316.43,289.777 316.764,297.11 316.5,304.5C 316.657,305.873 316.49,307.207 316,308.5C 313.804,300.293 312.304,291.96 311.5,283.5C 310.127,283.343 308.793,283.51 307.5,284C 309.541,296.754 311.208,309.587 312.5,322.5C 308.5,328.5 303.5,333.5 297.5,337.5C 296.681,334.695 296.181,331.695 296,328.5C 295.5,310.503 295.333,292.503 295.5,274.5 Z"/></g>
<g><path style="opacity:1" fill="#f6ad24" d="M 334.5,269.5 C 334.833,269.5 335.167,269.5 335.5,269.5C 336.769,285.16 337.769,300.993 338.5,317C 337.716,334.518 336.716,352.018 335.5,369.5C 334.883,369.389 334.383,369.056 334,368.5C 329.722,339.168 325.555,309.834 321.5,280.5C 325.24,279.468 328.906,278.135 332.5,276.5C 333.635,274.293 334.301,271.96 334.5,269.5 Z"/></g>
<g><path style="opacity:1" fill="#d66d3d" d="M 80.5,308.5 C 78.3926,309.468 76.0593,309.802 73.5,309.5C 73.5,308.5 73.5,307.5 73.5,306.5C 71.6934,289.331 70.3601,271.998 69.5,254.5C 70.0819,250.845 70.5819,247.178 71,243.5C 73.5347,264.179 76.2014,284.846 79,305.5C 79.2321,306.737 79.7321,307.737 80.5,308.5 Z"/></g>
<g><path style="opacity:1" fill="#f9c03f" d="M 230.5,280.5 C 232.898,280.259 234.898,280.926 236.5,282.5C 237.975,300.823 239.309,319.156 240.5,337.5C 240.001,341.49 239.501,345.49 239,349.5C 238.617,348.944 238.117,348.611 237.5,348.5C 232.046,326.176 229.713,303.509 230.5,280.5 Z"/></g>
<g><path style="opacity:1" fill="#c95125" d="M 321.5,280.5 C 325.555,309.834 329.722,339.168 334,368.5C 334.383,369.056 334.883,369.389 335.5,369.5C 335.687,374.845 336.02,380.178 336.5,385.5C 318.298,380.787 303.798,370.787 293,355.5C 292.346,354.304 291.846,354.304 291.5,355.5C 301.554,374.554 316.221,388.887 335.5,398.5C 336.833,399.833 336.833,401.167 335.5,402.5C 320.255,395.086 307.588,384.586 297.5,371C 296.833,370.333 296.167,370.333 295.5,371C 301.48,393.479 315.146,409.312 336.5,418.5C 337.833,420.833 337.833,423.167 336.5,425.5C 323.332,418.501 312.498,408.834 304,396.5C 306.822,410.311 312.989,422.478 322.5,433C 321.944,433.383 321.611,433.883 321.5,434.5C 318.518,434.963 315.518,435.296 312.5,435.5C 309.5,435.5 306.5,435.5 303.5,435.5C 294.822,407.774 288.822,379.441 285.5,350.5C 286.415,348.246 287.748,346.246 289.5,344.5C 292.784,342.883 295.451,340.55 297.5,337.5C 303.5,333.5 308.5,328.5 312.5,322.5C 314.129,321.375 315.629,320.041 317,318.5C 317.815,313.648 317.648,308.981 316.5,304.5C 316.764,297.11 316.43,289.777 315.5,282.5C 317.579,282.029 319.579,281.363 321.5,280.5 Z"/></g>
<g><path style="opacity:1" fill="#f7b123" d="M 254.5,277.5 C 249.435,297.506 244.769,317.506 240.5,337.5C 239.309,319.156 237.975,300.823 236.5,282.5C 240.182,282.665 243.848,282.499 247.5,282C 249.734,280.25 252.068,278.75 254.5,277.5 Z"/></g>
<g><path style="opacity:1" fill="#f19719" d="M 316.5,304.5 C 317.648,308.981 317.815,313.648 317,318.5C 315.629,320.041 314.129,321.375 312.5,322.5C 311.208,309.587 309.541,296.754 307.5,284C 308.793,283.51 310.127,283.343 311.5,283.5C 312.304,291.96 313.804,300.293 316,308.5C 316.49,307.207 316.657,305.873 316.5,304.5 Z"/></g>
<g><path style="opacity:0.999" fill="#d4d3d3" d="M 137.5,294.5 C 146.154,295.914 154.487,298.414 162.5,302C 168.342,307.497 167.342,311.497 159.5,314C 148.513,317.997 137.18,320.331 125.5,321C 109.143,321.783 92.8095,321.45 76.5,320C 65.1663,319.378 54.6663,316.211 45,310.5C 43.462,305.88 44.962,302.713 49.5,301C 54.3045,298.787 59.3045,297.287 64.5,296.5C 65.7432,298.964 66.7432,301.63 67.5,304.5C 69.323,305.747 71.323,306.414 73.5,306.5C 73.5,307.5 73.5,308.5 73.5,309.5C 76.0593,309.802 78.3926,309.468 80.5,308.5C 82.1667,308.5 83.8333,308.5 85.5,308.5C 85.5,309.833 85.5,311.167 85.5,312.5C 88.8499,312.665 92.1832,312.498 95.5,312C 96.0659,311.005 96.7326,310.172 97.5,309.5C 105.201,309.691 112.868,309.358 120.5,308.5C 125.535,307.602 130.201,305.935 134.5,303.5C 135.167,303.5 135.833,303.5 136.5,303.5C 137.477,300.713 137.81,297.713 137.5,294.5 Z"/></g>
<g><path style="opacity:1" fill="#ca5225" d="M 277.5,357.5 C 278.16,358.964 278.493,360.631 278.5,362.5C 277.099,387.145 276.432,411.811 276.5,436.5C 276.167,436.5 275.833,436.5 275.5,436.5C 274.834,428.51 274.167,420.51 273.5,412.5C 274.326,395.144 274.66,377.81 274.5,360.5C 275.167,359.167 276.167,358.167 277.5,357.5 Z"/></g>
<g><path style="opacity:1" fill="#c95225" d="M 271.5,362.5 C 272.097,362.735 272.43,363.235 272.5,364C 268.938,385.393 266.104,406.893 264,428.5C 264.03,431.361 263.197,433.695 261.5,435.5C 257.3,435.81 253.3,435.143 249.5,433.5C 256.746,423.258 260.913,411.924 262,399.5C 256.44,410.892 248.273,419.892 237.5,426.5C 237.5,425.833 237.5,425.167 237.5,424.5C 237.215,422.712 237.548,421.045 238.5,419.5C 255.271,409.943 264.438,395.609 266,376.5C 258.877,389.458 248.711,399.125 235.5,405.5C 235.5,404.167 235.5,402.833 235.5,401.5C 251.738,393.924 262.738,381.591 268.5,364.5C 268.973,363.094 269.973,362.427 271.5,362.5 Z"/></g>
<g><path style="opacity:1" fill="#c95224" d="M 264.5,366.5 C 264.833,366.5 265.167,366.5 265.5,366.5C 259.016,377.478 249.85,385.478 238,390.5C 237.501,385.177 237.334,379.844 237.5,374.5C 239.099,374.768 240.432,374.434 241.5,373.5C 243.415,373.784 245.081,373.451 246.5,372.5C 252.851,371.494 258.851,369.494 264.5,366.5 Z"/></g>
<g><path style="opacity:1" fill="#d76d3b" d="M 336.5,385.5 C 337.383,394.89 338.383,404.223 339.5,413.5C 338.833,418.681 338.167,424.015 337.5,429.5C 332.276,431.575 326.942,433.242 321.5,434.5C 321.611,433.883 321.944,433.383 322.5,433C 312.989,422.478 306.822,410.311 304,396.5C 312.498,408.834 323.332,418.501 336.5,425.5C 337.833,423.167 337.833,420.833 336.5,418.5C 315.146,409.312 301.48,393.479 295.5,371C 296.167,370.333 296.833,370.333 297.5,371C 307.588,384.586 320.255,395.086 335.5,402.5C 336.833,401.167 336.833,399.833 335.5,398.5C 316.221,388.887 301.554,374.554 291.5,355.5C 291.846,354.304 292.346,354.304 293,355.5C 303.798,370.787 318.298,380.787 336.5,385.5 Z"/></g>
<g><path style="opacity:1" fill="#d66c3b" d="M 268.5,364.5 C 262.738,381.591 251.738,393.924 235.5,401.5C 235.729,392.093 235.729,382.76 235.5,373.5C 237.5,373.5 239.5,373.5 241.5,373.5C 240.432,374.434 239.099,374.768 237.5,374.5C 237.334,379.844 237.501,385.177 238,390.5C 249.85,385.478 259.016,377.478 265.5,366.5C 266.29,365.599 267.29,364.932 268.5,364.5 Z"/></g>
<g><path style="opacity:1" fill="#d76d3b" d="M 274.5,360.5 C 274.66,377.81 274.326,395.144 273.5,412.5C 274.167,420.51 274.834,428.51 275.5,436.5C 270.637,436.819 265.97,436.486 261.5,435.5C 263.197,433.695 264.03,431.361 264,428.5C 266.104,406.893 268.938,385.393 272.5,364C 272.43,363.235 272.097,362.735 271.5,362.5C 271.5,362.167 271.5,361.833 271.5,361.5C 272.391,360.89 273.391,360.557 274.5,360.5 Z"/></g>
<g><path style="opacity:1" fill="#d76c3a" d="M 285.5,350.5 C 288.822,379.441 294.822,407.774 303.5,435.5C 306.5,435.5 309.5,435.5 312.5,435.5C 300.678,436.495 288.678,436.828 276.5,436.5C 276.432,411.811 277.099,387.145 278.5,362.5C 278.493,360.631 278.16,358.964 277.5,357.5C 278.167,356.167 279.167,355.167 280.5,354.5C 281.06,368.794 282.394,383.127 284.5,397.5C 284.392,398.442 284.059,399.275 283.5,400C 285.197,411.786 286.864,423.62 288.5,435.5C 288.561,423.325 287.561,411.159 285.5,399C 285.585,397.893 285.919,396.893 286.5,396C 284.937,384.103 283.937,372.103 283.5,360C 283.467,357.39 282.8,355.223 281.5,353.5C 282.262,351.738 283.596,350.738 285.5,350.5 Z"/></g>
<g><path style="opacity:1" fill="#d66c3b" d="M 237.5,424.5 C 236.833,421.5 236.167,418.5 235.5,415.5C 235.5,412.167 235.5,408.833 235.5,405.5C 248.711,399.125 258.877,389.458 266,376.5C 264.438,395.609 255.271,409.943 238.5,419.5C 237.548,421.045 237.215,422.712 237.5,424.5 Z"/></g>
<g><path style="opacity:1" fill="#cb5428" d="M 281.5,353.5 C 282.8,355.223 283.467,357.39 283.5,360C 283.937,372.103 284.937,384.103 286.5,396C 285.919,396.893 285.585,397.893 285.5,399C 287.561,411.159 288.561,423.325 288.5,435.5C 286.864,423.62 285.197,411.786 283.5,400C 284.059,399.275 284.392,398.442 284.5,397.5C 282.394,383.127 281.06,368.794 280.5,354.5C 280.5,353.833 280.833,353.5 281.5,353.5 Z"/></g>
<g><path style="opacity:1" fill="#d76d3b" d="M 249.5,433.5 C 245.687,432.84 242.021,431.674 238.5,430C 237.663,428.989 237.33,427.822 237.5,426.5C 248.273,419.892 256.44,410.892 262,399.5C 260.913,411.924 256.746,423.258 249.5,433.5 Z"/></g>
<g><path style="opacity:0.998" fill="#d4d4d5" d="M 339.5,413.5 C 353.835,415 367.501,418.833 380.5,425C 385.364,429.035 385.698,433.368 381.5,438C 372.453,443.127 362.787,446.46 352.5,448C 314.497,454 276.497,454 238.5,448C 228.18,446.449 218.513,443.116 209.5,438C 205.231,433.291 205.564,428.958 210.5,425C 218.562,420.927 226.895,417.76 235.5,415.5C 236.167,418.5 236.833,421.5 237.5,424.5C 237.5,425.167 237.5,425.833 237.5,426.5C 237.33,427.822 237.663,428.989 238.5,430C 242.021,431.674 245.687,432.84 249.5,433.5C 253.3,435.143 257.3,435.81 261.5,435.5C 265.97,436.486 270.637,436.819 275.5,436.5C 275.833,436.5 276.167,436.5 276.5,436.5C 288.678,436.828 300.678,436.495 312.5,435.5C 315.518,435.296 318.518,434.963 321.5,434.5C 326.942,433.242 332.276,431.575 337.5,429.5C 338.167,424.015 338.833,418.681 339.5,413.5 Z"/></g>
</svg>
