<?xml version="1.0" encoding="UTF-8"?>
<!DOCTYPE svg PUBLIC "-//W3C//DTD SVG 1.1//EN" "http://www.w3.org/Graphics/SVG/1.1/DTD/svg11.dtd">
<svg xmlns="http://www.w3.org/2000/svg" version="1.1" width="566px" height="441px" style="shape-rendering:geometricPrecision; text-rendering:geometricPrecision; image-rendering:optimizeQuality; fill-rule:evenodd; clip-rule:evenodd" xmlns:xlink="http://www.w3.org/1999/xlink">
<g><path style="opacity:1" fill="#e5e5e6" d="M 403.5,246.5 C 398.787,255.576 393.287,264.243 387,272.5C 386.802,274.382 386.302,276.048 385.5,277.5C 385.631,276.761 385.464,276.094 385,275.5C 377.938,282.783 369.438,287.617 359.5,290C 358.877,292.607 358.21,295.107 357.5,297.5C 358.167,285.833 358.833,274.167 359.5,262.5C 360.811,237.169 360.811,211.836 359.5,186.5C 359.5,185.5 359.5,184.5 359.5,183.5C 378.741,174.547 397.407,164.547 415.5,153.5C 414.998,152.479 414.332,152.312 413.5,153C 395.959,162.701 378.293,172.201 360.5,181.5C 359.833,177.353 359.166,173.353 358.5,169.5C 358.5,168.833 358.5,168.167 358.5,167.5C 357.422,135.546 354.088,103.879 348.5,72.5C 350.92,99.0448 353.42,125.711 356,152.5C 356.828,157.202 356.662,161.869 355.5,166.5C 338.042,157.535 320.708,148.368 303.5,139C 302.5,138.333 301.5,138.333 300.5,139C 318.569,149.367 336.902,159.201 355.5,168.5C 356.128,174.601 356.795,180.601 357.5,186.5C 357.5,211.5 357.5,236.5 357.5,261.5C 357.32,269.175 356.986,276.842 356.5,284.5C 355.539,286.265 355.205,288.265 355.5,290.5C 342.021,288.199 331.188,281.532 323,270.5C 307.874,247.462 298.874,222.128 296,194.5C 290.561,153.774 295.561,114.44 311,76.5C 317.243,61.598 327.077,49.7647 340.5,41C 354.493,35.0873 367.493,36.754 379.5,46C 391.715,57.5778 400.548,71.4111 406,87.5C 423.272,140.811 422.439,193.811 403.5,246.5 Z"/></g>
<g><path style="opacity:1" fill="#162a4f" d="M 234.5,139.5 C 234.666,149.172 234.5,158.839 234,168.5C 230.27,166.208 226.437,164.208 222.5,162.5C 221.453,159.404 220.12,156.404 218.5,153.5C 224.042,147.027 224.876,140.027 221,132.5C 219.786,134.049 218.286,135.215 216.5,136C 208.182,137.664 199.849,139.164 191.5,140.5C 191.65,148.828 195.65,154.161 203.5,156.5C 203.5,158.833 203.5,161.167 203.5,163.5C 198.281,165.412 193.948,168.412 190.5,172.5C 189.817,170.824 188.483,170.157 186.5,170.5C 186.333,159.495 186.5,148.495 187,137.5C 192.332,122.416 202.832,116.583 218.5,120C 227.749,123.353 233.082,129.853 234.5,139.5 Z"/></g>
<g><path style="opacity:0.999" fill="#e5e5e6" d="M 465.5,310.5 C 465.5,305.5 465.5,300.5 465.5,295.5C 465.5,294.5 465.5,293.5 465.5,292.5C 466.178,272.931 466.845,253.265 467.5,233.5C 480.67,226.416 493.67,219.083 506.5,211.5C 506.167,211.167 505.833,210.833 505.5,210.5C 492.659,217.754 479.659,224.754 466.5,231.5C 464.667,210.836 462.834,190.17 461,169.5C 460.624,163.664 459.457,157.997 457.5,152.5C 458.393,168.436 459.893,184.436 462,200.5C 462.667,207.167 462.667,213.833 462,220.5C 449.913,213.873 437.746,207.373 425.5,201C 424.5,200.333 423.5,200.333 422.5,201C 435.512,208.841 448.846,216.174 462.5,223C 463.144,227.934 463.81,232.767 464.5,237.5C 464.5,253.167 464.5,268.833 464.5,284.5C 463.369,292.314 462.702,300.314 462.5,308.5C 462.5,309.833 462.5,311.167 462.5,312.5C 448.908,308.413 438.741,300.08 432,287.5C 431.823,291.356 431.323,295.023 430.5,298.5C 430.5,295.833 430.5,293.167 430.5,290.5C 430.5,289.833 430.5,289.167 430.5,288.5C 430.664,285.813 430.497,283.146 430,280.5C 426.361,271.578 423.194,262.578 420.5,253.5C 421.833,253.167 421.833,252.833 420.5,252.5C 415.069,221.948 417.236,191.948 427,162.5C 431.339,149.964 438.505,139.464 448.5,131C 458.167,125 467.833,125 477.5,131C 488.342,139.83 495.842,150.997 500,164.5C 511.644,198.613 512.311,232.947 502,267.5C 497.831,282.691 489.997,295.524 478.5,306C 474.526,308.602 470.193,310.102 465.5,310.5 Z"/></g>
<g><path style="opacity:1" fill="#f7b1b2" d="M 222.5,162.5 C 216.171,162.9 209.838,163.233 203.5,163.5C 203.5,161.167 203.5,158.833 203.5,156.5C 195.65,154.161 191.65,148.828 191.5,140.5C 199.849,139.164 208.182,137.664 216.5,136C 218.286,135.215 219.786,134.049 221,132.5C 224.876,140.027 224.042,147.027 218.5,153.5C 220.12,156.404 221.453,159.404 222.5,162.5 Z"/></g>
<g><path style="opacity:1" fill="#3f7ffd" d="M 359.5,186.5 C 358.511,181.025 358.178,175.358 358.5,169.5C 359.166,173.353 359.833,177.353 360.5,181.5C 378.293,172.201 395.959,162.701 413.5,153C 414.332,152.312 414.998,152.479 415.5,153.5C 397.407,164.547 378.741,174.547 359.5,183.5C 359.5,184.5 359.5,185.5 359.5,186.5 Z"/></g>
<g><path style="opacity:1" fill="#1a3368" d="M 234.5,139.5 C 235.33,149.325 235.83,159.325 236,169.5C 237.864,172.592 239.031,175.926 239.5,179.5C 234.728,201.929 228.728,223.929 221.5,245.5C 220.778,245.082 220.278,244.416 220,243.5C 217.667,248.833 215.333,254.167 213,259.5C 212.241,261.063 211.074,262.063 209.5,262.5C 207.853,260.674 205.853,259.34 203.5,258.5C 203.196,257.85 202.863,257.183 202.5,256.5C 203.351,252.882 204.017,249.216 204.5,245.5C 202.987,239.112 201.32,232.779 199.5,226.5C 205.482,207.091 201.148,190.424 186.5,176.5C 187.833,175.167 189.167,173.833 190.5,172.5C 193.948,168.412 198.281,165.412 203.5,163.5C 209.838,163.233 216.171,162.9 222.5,162.5C 226.437,164.208 230.27,166.208 234,168.5C 234.5,158.839 234.666,149.172 234.5,139.5 Z"/></g>
<g><path style="opacity:1" fill="#4080fe" d="M 358.5,167.5 C 357.209,167.263 356.209,167.596 355.5,168.5C 336.902,159.201 318.569,149.367 300.5,139C 301.5,138.333 302.5,138.333 303.5,139C 320.708,148.368 338.042,157.535 355.5,166.5C 356.662,161.869 356.828,157.202 356,152.5C 353.42,125.711 350.92,99.0448 348.5,72.5C 354.088,103.879 357.422,135.546 358.5,167.5 Z"/></g>
<g><path style="opacity:1" fill="#2676fe" d="M 186.5,176.5 C 201.148,190.424 205.482,207.091 199.5,226.5C 201.32,232.779 202.987,239.112 204.5,245.5C 204.017,249.216 203.351,252.882 202.5,256.5C 202.863,257.183 203.196,257.85 203.5,258.5C 203.672,259.492 203.338,260.158 202.5,260.5C 192.9,258.014 183.233,255.347 173.5,252.5C 172.416,252.685 171.416,253.018 170.5,253.5C 169.508,253.328 168.842,253.662 168.5,254.5C 163.881,255.314 159.214,255.647 154.5,255.5C 152.139,255.326 149.806,254.993 147.5,254.5C 125.693,248.19 114.026,233.69 112.5,211C 114.929,183.404 129.929,168.237 157.5,165.5C 168.334,166.221 178.001,169.887 186.5,176.5 Z M 155.5,194.5 C 166.216,194.55 172.216,199.883 173.5,210.5C 170.575,224.127 162.575,228.627 149.5,224C 141.555,216.864 140.389,208.697 146,199.5C 148.907,197.132 152.074,195.465 155.5,194.5 Z"/></g>
<g><path style="opacity:1" fill="#a2c0f3" d="M 355.5,168.5 C 357.453,174.074 358.12,180.074 357.5,186.5C 356.795,180.601 356.128,174.601 355.5,168.5 Z"/></g>
<g><path style="opacity:1" fill="#4280fd" d="M 467.5,233.5 C 466.791,232.596 465.791,232.263 464.5,232.5C 464.5,234.167 464.5,235.833 464.5,237.5C 463.81,232.767 463.144,227.934 462.5,223C 448.846,216.174 435.512,208.841 422.5,201C 423.5,200.333 424.5,200.333 425.5,201C 437.746,207.373 449.913,213.873 462,220.5C 462.667,213.833 462.667,207.167 462,200.5C 459.893,184.436 458.393,168.436 457.5,152.5C 459.457,157.997 460.624,163.664 461,169.5C 462.834,190.17 464.667,210.836 466.5,231.5C 479.659,224.754 492.659,217.754 505.5,210.5C 505.833,210.833 506.167,211.167 506.5,211.5C 493.67,219.083 480.67,226.416 467.5,233.5 Z"/></g>
<g><path style="opacity:1" fill="#5586fc" d="M 355.5,168.5 C 356.209,167.596 357.209,167.263 358.5,167.5C 358.5,168.167 358.5,168.833 358.5,169.5C 358.178,175.358 358.511,181.025 359.5,186.5C 360.811,211.836 360.811,237.169 359.5,262.5C 358.833,262.167 358.167,261.833 357.5,261.5C 357.5,236.5 357.5,211.5 357.5,186.5C 358.12,180.074 357.453,174.074 355.5,168.5 Z"/></g>
<g><path style="opacity:1" fill="#172a50" d="M 221.5,245.5 C 230.495,284.804 239.495,324.137 248.5,363.5C 248.043,364.298 247.376,364.631 246.5,364.5C 242.5,364.5 238.5,364.5 234.5,364.5C 221.604,335.03 208.938,305.363 196.5,275.5C 195.878,302.018 195.211,328.685 194.5,355.5C 190.802,355.448 187.135,355.114 183.5,354.5C 182.504,354.586 181.671,354.252 181,353.5C 175.676,328.067 172.176,302.401 170.5,276.5C 170.5,268.833 170.5,261.167 170.5,253.5C 171.416,253.018 172.416,252.685 173.5,252.5C 183.233,255.347 192.9,258.014 202.5,260.5C 201.7,262.607 201.033,264.774 200.5,267C 200.767,270.164 202.433,271.164 205.5,270C 206.973,267.552 208.307,265.052 209.5,262.5C 211.074,262.063 212.241,261.063 213,259.5C 215.333,254.167 217.667,248.833 220,243.5C 220.278,244.416 220.778,245.082 221.5,245.5 Z"/></g>
<g><path style="opacity:1" fill="#1a3369" d="M 420.5,252.5 C 420.5,252.833 420.5,253.167 420.5,253.5C 423.194,262.578 426.361,271.578 430,280.5C 430.497,283.146 430.664,285.813 430.5,288.5C 423.886,291.807 417.22,295.14 410.5,298.5C 409.113,287.862 407.947,277.196 407,266.5C 406.71,264.048 406.044,261.715 405,259.5C 405.033,268.171 405.533,276.838 406.5,285.5C 406.167,287.833 405.833,290.167 405.5,292.5C 400.008,289.921 394.675,287.088 389.5,284C 388.365,283.251 387.365,283.417 386.5,284.5C 393.167,288.167 399.833,291.833 406.5,295.5C 407.499,310.485 407.833,325.485 407.5,340.5C 407.167,340.5 406.833,340.5 406.5,340.5C 402.992,339.496 399.826,337.829 397,335.5C 389.851,326.058 385.851,315.391 385,303.5C 384.289,294.806 384.456,286.139 385.5,277.5C 386.302,276.048 386.802,274.382 387,272.5C 393.287,264.243 398.787,255.576 403.5,246.5C 410.203,245.342 415.87,247.342 420.5,252.5 Z"/></g>
<g><path style="opacity:0.086" fill="#fbb4b6" d="M 147.5,254.5 C 149.806,254.993 152.139,255.326 154.5,255.5C 151.312,261.072 148.979,260.739 147.5,254.5 Z"/></g>
<g><path style="opacity:1" fill="#156bff" d="M 467.5,233.5 C 465.512,252.805 464.846,272.472 465.5,292.5C 465.5,293.5 465.5,294.5 465.5,295.5C 464.518,292.038 464.185,288.371 464.5,284.5C 464.5,268.833 464.5,253.167 464.5,237.5C 464.5,235.833 464.5,234.167 464.5,232.5C 465.791,232.263 466.791,232.596 467.5,233.5 Z"/></g>
<g><path style="opacity:1" fill="#f1aeaf" d="M 203.5,258.5 C 205.853,259.34 207.853,260.674 209.5,262.5C 208.307,265.052 206.973,267.552 205.5,270C 202.433,271.164 200.767,270.164 200.5,267C 201.033,264.774 201.7,262.607 202.5,260.5C 203.338,260.158 203.672,259.492 203.5,258.5 Z"/></g>
<g><path style="opacity:1" fill="#73a3f8" d="M 467.5,233.5 C 466.845,253.265 466.178,272.931 465.5,292.5C 464.846,272.472 465.512,252.805 467.5,233.5 Z"/></g>
<g><path style="opacity:0.397" fill="#8e95af" d="M 168.5,254.5 C 168.842,253.662 169.508,253.328 170.5,253.5C 170.5,261.167 170.5,268.833 170.5,276.5C 169.833,269.167 169.167,261.833 168.5,254.5 Z"/></g>
<g><path style="opacity:1" fill="#347bfe" d="M 357.5,261.5 C 358.167,261.833 358.833,262.167 359.5,262.5C 358.833,274.167 358.167,285.833 357.5,297.5C 356.515,293.366 356.182,289.032 356.5,284.5C 356.986,276.842 357.32,269.175 357.5,261.5 Z"/></g>
<g><path style="opacity:1" fill="#1661e4" d="M 430.5,288.5 C 430.5,289.167 430.5,289.833 430.5,290.5C 423.455,293.772 416.622,297.439 410,301.5C 409.5,314.496 409.333,327.496 409.5,340.5C 408.85,342.435 408.517,344.435 408.5,346.5C 407.539,344.735 407.205,342.735 407.5,340.5C 407.833,325.485 407.499,310.485 406.5,295.5C 399.833,291.833 393.167,288.167 386.5,284.5C 387.365,283.417 388.365,283.251 389.5,284C 394.675,287.088 400.008,289.921 405.5,292.5C 405.833,290.167 406.167,287.833 406.5,285.5C 405.533,276.838 405.033,268.171 405,259.5C 406.044,261.715 406.71,264.048 407,266.5C 407.947,277.196 409.113,287.862 410.5,298.5C 417.22,295.14 423.886,291.807 430.5,288.5 Z"/></g>
<g><path style="opacity:1" fill="#1b346a" d="M 430.5,290.5 C 430.5,293.167 430.5,295.833 430.5,298.5C 430.707,313.72 425.707,326.887 415.5,338C 413.512,338.938 411.512,339.772 409.5,340.5C 409.333,327.496 409.5,314.496 410,301.5C 416.622,297.439 423.455,293.772 430.5,290.5 Z"/></g>
<g><path style="opacity:1" fill="#76a0fb" d="M 464.5,284.5 C 464.185,288.371 464.518,292.038 465.5,295.5C 465.5,300.5 465.5,305.5 465.5,310.5C 465.784,312.415 465.451,314.081 464.5,315.5C 464.666,310.156 464.499,304.823 464,299.5C 463.819,302.695 463.319,305.695 462.5,308.5C 462.702,300.314 463.369,292.314 464.5,284.5 Z"/></g>
<g><path style="opacity:0.939" fill="#76a2fe" d="M 356.5,284.5 C 356.182,289.032 356.515,293.366 357.5,297.5C 357.815,301.371 357.482,305.038 356.5,308.5C 356.806,305.615 356.473,302.948 355.5,300.5C 355.5,297.167 355.5,293.833 355.5,290.5C 355.205,288.265 355.539,286.265 356.5,284.5 Z"/></g>
<g><path style="opacity:0.894" fill="#4581ff" d="M 355.5,300.5 C 356.473,302.948 356.806,305.615 356.5,308.5C 356.5,310.5 356.5,312.5 356.5,314.5C 355.698,315.952 355.198,317.618 355,319.5C 354.506,317.866 354.34,316.199 354.5,314.5C 354.283,309.77 354.617,305.103 355.5,300.5 Z"/></g>
<g><path style="opacity:0.965" fill="#6c95ff" d="M 464.5,315.5 C 464.275,328.094 462.942,340.427 460.5,352.5C 459.549,351.081 459.216,349.415 459.5,347.5C 460.302,335.811 461.302,324.145 462.5,312.5C 462.5,311.167 462.5,309.833 462.5,308.5C 463.319,305.695 463.819,302.695 464,299.5C 464.499,304.823 464.666,310.156 464.5,315.5 Z"/></g>
<g><path style="opacity:0.957" fill="#6a97ff" d="M 354.5,314.5 C 354.34,316.199 354.506,317.866 355,319.5C 355.198,317.618 355.698,315.952 356.5,314.5C 355.304,329.412 353.304,344.079 350.5,358.5C 350.768,356.901 350.434,355.568 349.5,354.5C 350.888,340.993 352.554,327.66 354.5,314.5 Z"/></g>
<g><path style="opacity:0.996" fill="#75a3ff" d="M 406.5,340.5 C 406.833,340.5 407.167,340.5 407.5,340.5C 407.205,342.735 407.539,344.735 408.5,346.5C 408.813,350.042 408.479,353.375 407.5,356.5C 407.81,353.287 407.477,350.287 406.5,347.5C 406.5,345.167 406.5,342.833 406.5,340.5 Z"/></g>
<g><path style="opacity:1" fill="#1d356a" d="M 147.5,365.5 C 147.5,366.833 147.5,368.167 147.5,369.5C 119.328,369.831 91.3284,369.498 63.5,368.5C 65.5985,356.006 73.0985,350.339 86,351.5C 94.8512,350.722 102.018,353.722 107.5,360.5C 108.795,359.902 110.128,359.402 111.5,359C 120.833,358.333 130.167,358.333 139.5,359C 143.566,359.576 146.233,361.743 147.5,365.5 Z"/></g>
<g><path style="opacity:0.999" fill="#d1abb7" d="M 183.5,354.5 C 187.135,355.114 190.802,355.448 194.5,355.5C 194.533,359.869 194.2,364.202 193.5,368.5C 208.167,368.5 222.833,368.5 237.5,368.5C 238.338,368.842 238.672,369.508 238.5,370.5C 223.129,369.85 208.129,370.516 193.5,372.5C 190.833,372.5 188.167,372.5 185.5,372.5C 185.833,371.833 186.167,371.167 186.5,370.5C 173.833,369.833 161.167,369.167 148.5,368.5C 161.171,368.667 173.838,368.5 186.5,368C 185.446,363.508 184.446,359.008 183.5,354.5 Z"/></g>
<g><path style="opacity:1" fill="#24396e" d="M 457.5,361.5 C 457.427,363.027 458.094,364.027 459.5,364.5C 460.234,365.708 460.567,367.041 460.5,368.5C 446.01,369.496 431.343,369.829 416.5,369.5C 416.5,369.167 416.5,368.833 416.5,368.5C 416.472,366.418 417.139,364.584 418.5,363C 421.246,361.25 424.246,360.25 427.5,360C 437.586,359.123 447.586,359.623 457.5,361.5 Z"/></g>
<g><path style="opacity:0.922" fill="#6391fb" d="M 459.5,347.5 C 459.216,349.415 459.549,351.081 460.5,352.5C 460.495,356.534 460.162,360.534 459.5,364.5C 458.094,364.027 457.427,363.027 457.5,361.5C 457.69,356.63 458.356,351.964 459.5,347.5 Z"/></g>
<g><path style="opacity:1" fill="#5186fd" d="M 349.5,354.5 C 350.434,355.568 350.768,356.901 350.5,358.5C 350.54,361.881 350.207,365.214 349.5,368.5C 349.158,369.338 348.492,369.672 347.5,369.5C 347.5,369.167 347.5,368.833 347.5,368.5C 347.735,363.759 348.402,359.092 349.5,354.5 Z"/></g>
<g><path style="opacity:0.999" fill="#eab8be" d="M 234.5,364.5 C 238.5,364.5 242.5,364.5 246.5,364.5C 246.33,365.822 246.663,366.989 247.5,368C 280.832,368.5 314.165,368.667 347.5,368.5C 347.5,368.833 347.5,369.167 347.5,369.5C 313.76,369.167 280.76,369.501 248.5,370.5C 248.609,375.71 249.609,380.71 251.5,385.5C 248.833,385.5 246.167,385.5 243.5,385.5C 242.031,380.426 240.364,375.426 238.5,370.5C 238.672,369.508 238.338,368.842 237.5,368.5C 237.229,366.57 236.229,365.236 234.5,364.5 Z"/></g>
<g><path style="opacity:0.949" fill="#5a8afc" d="M 406.5,347.5 C 407.477,350.287 407.81,353.287 407.5,356.5C 407.54,359.881 407.207,363.214 406.5,366.5C 405.596,367.209 405.263,368.209 405.5,369.5C 404.508,369.672 403.842,369.338 403.5,368.5C 404.573,361.51 405.573,354.51 406.5,347.5 Z"/></g>
<g><path style="opacity:0.165" fill="#a9b4d2" d="M 406.5,366.5 C 409.337,368.402 412.671,369.069 416.5,368.5C 416.5,368.833 416.5,369.167 416.5,369.5C 412.833,369.5 409.167,369.5 405.5,369.5C 405.263,368.209 405.596,367.209 406.5,366.5 Z"/></g>
<g><path style="opacity:0.599" fill="#526192" d="M 147.5,365.5 C 148.404,366.209 148.737,367.209 148.5,368.5C 161.167,369.167 173.833,369.833 186.5,370.5C 143.162,370.833 99.8282,370.5 56.5,369.5C 58.7427,368.526 61.076,368.192 63.5,368.5C 91.3284,369.498 119.328,369.831 147.5,369.5C 147.5,368.167 147.5,366.833 147.5,365.5 Z"/></g>
<g><path style="opacity:0.759" fill="#656f99" d="M 349.5,368.5 C 367.5,368.5 385.5,368.5 403.5,368.5C 403.842,369.338 404.508,369.672 405.5,369.5C 409.167,369.5 412.833,369.5 416.5,369.5C 431.343,369.829 446.01,369.496 460.5,368.5C 470.19,368.168 479.856,368.502 489.5,369.5C 409.169,370.5 328.836,370.833 248.5,370.5C 280.76,369.501 313.76,369.167 347.5,369.5C 348.492,369.672 349.158,369.338 349.5,368.5 Z"/></g>
<g><path style="opacity:0.999" fill="#1c2e54" d="M 185.5,372.5 C 188.167,372.5 190.833,372.5 193.5,372.5C 194.468,375.445 194.634,378.445 194,381.5C 191.463,384.372 188.63,386.872 185.5,389C 182.881,388.917 180.214,388.75 177.5,388.5C 179.638,382.891 182.304,377.558 185.5,372.5 Z"/></g>
<g><path style="opacity:1" fill="#203056" d="M 243.5,385.5 C 246.167,385.5 248.833,385.5 251.5,385.5C 254.909,389.305 257.575,393.639 259.5,398.5C 259.392,399.442 259.059,400.275 258.5,401C 256.863,401.601 255.197,402.101 253.5,402.5C 248.046,400.213 244.046,396.38 241.5,391C 242.077,389.1 242.744,387.267 243.5,385.5 Z"/></g>
</svg>
