<svg xmlns="http://www.w3.org/2000/svg" data-name="Layer 1" viewBox="0 0 512 512" id="lord-shiva"><path fill="#fee903" d="M408.598 212.725c8.61 15.575 8.964 27.195 7.348 35.271-2.88 14.396-6.722 19.291-17.445 35.407-8.276 12.44-6.87 27.766 1.846 35.95 8.327 7.82 20.128 6.117 21.82 5.847l-6.181 23.066c-3.894-.067-26.474-.818-41.444-18.909-3.36-4.061-11.289-13.642-10.832-26.1.633-17.24 16.701-22.955 30.09-44.101 5.764-9.106 12.81-23.881 14.798-46.431Z"></path><path fill="#fac600" d="M406.944 247.996c-2.88 14.396-6.722 19.291-17.444 35.407-8.277 12.44-6.87 27.766 1.845 35.95 8.18 7.682 19.708 6.175 21.714 5.863a23.24 23.24 0 0 1-12.712-5.863c-8.716-8.184-10.122-23.51-1.846-35.95 10.723-16.116 14.565-21.01 17.445-35.407 1.616-8.076 1.262-19.695-7.348-35.271a121.885 121.885 0 0 1-2.45 15.95 42.553 42.553 0 0 1 .796 19.321Z"></path><path fill="#fee903" d="M508.5 239.494c-15.244 9.184-21.36 19.069-23.999 26.872-4.704 13.907-3.824 20.067-2.596 39.385.948 14.911-7.933 27.481-19.573 30.21-11.12 2.61-20.49-4.766-21.82-5.846l-6.18 23.067c3.405 1.889 23.336 12.528 45.346 4.346 4.94-1.837 16.597-6.17 22.43-17.187 8.073-15.248-2.986-28.23-4.007-53.238-.44-10.768.846-27.087 10.399-47.61Z"></path><path fill="#fac600" d="M508.5 239.494c-14.969 9.018-21.127 18.707-23.844 26.442a89.378 89.378 0 0 0-.555 14.167c1.021 25.008 12.08 37.99 4.007 53.238-5.833 11.017-17.49 15.35-22.43 17.187a51.774 51.774 0 0 1-30.978 1.28l-.368 1.374c3.405 1.889 23.336 12.528 45.345 4.346 4.942-1.837 16.598-6.17 22.431-17.187 8.073-15.248-2.986-28.23-4.007-53.238-.44-10.768.846-27.087 10.399-47.61Z"></path><path fill="#fee903" d="M440.052 331.773a72.835 72.835 0 0 1 9.248-39.395 18.974 18.974 0 0 1 17.92-9.64 2.226 2.226 0 0 0 2.121-3.298 87.71 87.71 0 0 1-10.857-44.73 2.223 2.223 0 0 0-4.179-1.119 87.71 87.71 0 0 1-31.767 33.308 2.226 2.226 0 0 0 .187 3.916 18.974 18.974 0 0 1 10.7 17.309 72.834 72.834 0 0 1-11.688 38.741Z"></path><path fill="#fac600" d="M469.341 279.44a87.712 87.712 0 0 1-10.857-44.73 2.223 2.223 0 0 0-4.179-1.119 88.364 88.364 0 0 1-4.508 7.41 87.272 87.272 0 0 0 10.46 33.757 2.226 2.226 0 0 1-2.12 3.298 18.974 18.974 0 0 0-17.92 9.64 72.836 72.836 0 0 0-9.249 39.394l-8.029-2.151c-.417.69-.821 1.337-1.202 1.926l18.315 4.908a72.833 72.833 0 0 1 9.248-39.395 18.974 18.974 0 0 1 17.921-9.64 2.226 2.226 0 0 0 2.12-3.298Z"></path><rect width="25.58" height="32.686" x="415.341" y="323.289" fill="#fdb441" rx="5.564" transform="rotate(-165 428.13 339.632)"></rect><path fill="#fea613" d="m439.34 325.716-2.94-.788a5.619 5.619 0 0 1-.125.603l-2.627 9.804a16.971 16.971 0 0 1-20.786 12 5.563 5.563 0 0 0 4.06 6.213l13.959 3.74a5.564 5.564 0 0 0 6.815-3.934l5.58-20.823a5.564 5.564 0 0 0-3.935-6.815Z"></path><path fill="#fee903" d="M390.243 481.03a7.13 7.13 0 0 1-5.041-8.732l31.812-118.726 13.773 3.69-31.812 118.727a7.13 7.13 0 0 1-8.732 5.04Z"></path><path fill="#fac600" d="M422.507 355.044 391.975 468.99a7.126 7.126 0 0 1-7.01 5.276 7.127 7.127 0 0 0 14.01 1.724l31.813-118.726Z"></path><path fill="#8ac9fe" d="M508.501 205.843h-.06q-2.065-.036-4.072-.113a3.5 3.5 0 1 1 .265-6.995q1.934.074 3.926.108a3.5 3.5 0 0 1-.059 7zm-20.084-1.464a3.536 3.536 0 0 1-.468-.031c-2.76-.37-5.505-.812-8.158-1.316a3.5 3.5 0 0 1 1.306-6.877c2.528.48 5.146.902 7.78 1.254a3.5 3.5 0 0 1-.46 6.97zm-23.612-5.254a3.498 3.498 0 0 1-1.08-.171 117.097 117.097 0 0 1-7.82-2.843 3.5 3.5 0 0 1 2.628-6.488c2.37.96 4.843 1.859 7.35 2.671a3.5 3.5 0 0 1-1.078 6.831zm-22.027-9.952a3.482 3.482 0 0 1-1.804-.504 99.13 99.13 0 0 1-6.977-4.62 3.5 3.5 0 1 1 4.11-5.667 92.677 92.677 0 0 0 6.483 4.294 3.5 3.5 0 0 1-1.812 6.497zm45.429-8.855a3.5 3.5 0 0 1-.667-.064 123.744 123.744 0 0 1-8.102-1.846 3.5 3.5 0 1 1 1.786-6.769c2.502.66 5.073 1.247 7.642 1.742a3.5 3.5 0 0 1-.659 6.937zm-64.537-5.944a3.487 3.487 0 0 1-2.403-.957 133.216 133.216 0 0 1-5.842-5.88 3.5 3.5 0 0 1 5.117-4.776 126.107 126.107 0 0 0 5.533 5.57 3.5 3.5 0 0 1-2.405 6.043zm41.387-1.055a3.49 3.49 0 0 1-1.363-.278 112.119 112.119 0 0 1-7.548-3.53 3.5 3.5 0 1 1 3.2-6.226 105.35 105.35 0 0 0 7.077 3.31 3.5 3.5 0 0 1-1.366 6.724zm-21.063-11.861a3.485 3.485 0 0 1-2.05-.665 110.86 110.86 0 0 1-6.562-5.141 3.5 3.5 0 0 1 4.522-5.344 103.238 103.238 0 0 0 6.145 4.814 3.5 3.5 0 0 1-2.055 6.336zm-36.305-5.228a3.494 3.494 0 0 1-2.817-1.419 168.519 168.519 0 0 1-4.732-6.748 3.5 3.5 0 0 1 5.826-3.88 161.546 161.546 0 0 0 4.535 6.467 3.5 3.5 0 0 1-2.812 5.58zm18.747-11.314a3.495 3.495 0 0 1-2.784-1.376 95.577 95.577 0 0 1-4.766-6.887 3.5 3.5 0 1 1 5.917-3.74 88.244 88.244 0 0 0 4.413 6.378 3.5 3.5 0 0 1-2.78 5.625zm-31.738-9.097a3.5 3.5 0 0 1-3.067-1.808 238.198 238.198 0 0 1-3.835-7.238 3.5 3.5 0 1 1 6.24-3.172 232.367 232.367 0 0 0 3.722 7.024 3.5 3.5 0 0 1-3.06 5.194zm19.338-11.649a3.5 3.5 0 0 1-3.14-1.95 257.183 257.183 0 0 1-3.504-7.394 3.5 3.5 0 0 1 6.371-2.9 249.024 249.024 0 0 0 3.407 7.192 3.502 3.502 0 0 1-3.134 5.052zm-30-10.082a3.5 3.5 0 0 1-3.209-2.097 340.775 340.775 0 0 1-3.18-7.51 3.5 3.5 0 0 1 6.478-2.653 331.313 331.313 0 0 0 3.114 7.355 3.502 3.502 0 0 1-3.204 4.905zm20.202-12.054a3.501 3.501 0 0 1-3.246-2.19q-1.457-3.61-2.982-7.56a3.5 3.5 0 0 1 6.531-2.52q1.505 3.9 2.942 7.46a3.502 3.502 0 0 1-3.245 4.81zM258.51 94.767a3.524 3.524 0 0 1-.688-.068 15.313 15.313 0 0 1-8.81-5.278 3.5 3.5 0 0 1 5.406-4.447 8.294 8.294 0 0 0 4.771 2.86 3.5 3.5 0 0 1-.68 6.933zm116.572-3.176a3.502 3.502 0 0 1-3.283-2.284q-1.425-3.844-2.823-7.532a3.5 3.5 0 1 1 6.54-2.493q1.416 3.714 2.847 7.591a3.502 3.502 0 0 1-3.282 4.718zm-103.433-3.853a3.502 3.502 0 0 1-3.232-4.842 8.128 8.128 0 0 0 .625-3.133 8.368 8.368 0 0 0-.11-1.35 60.174 60.174 0 0 1-.243-1.643 3.5 3.5 0 0 1 6.937-.93c.074.55.147 1.034.214 1.445a15.418 15.418 0 0 1 .202 2.478 15.096 15.096 0 0 1-1.159 5.815 3.502 3.502 0 0 1-3.234 2.16zm123.957-8.333a3.501 3.501 0 0 1-3.277-2.27q-1.41-3.758-2.871-7.492a3.5 3.5 0 0 1 6.515-2.562q1.486 3.78 2.91 7.593a3.502 3.502 0 0 1-3.277 4.731zM248.16 75.222a3.5 3.5 0 0 1-3.493-3.327 93.722 93.722 0 0 1-.114-4.616c0-1.265.026-2.536.078-3.778a3.5 3.5 0 0 1 6.994.294 82.946 82.946 0 0 0-.072 3.484c0 1.41.035 2.847.106 4.27a3.5 3.5 0 0 1-3.323 3.668 3.524 3.524 0 0 1-.176.005zm117.981-6.14a3.5 3.5 0 0 1-3.194-2.066 134.114 134.114 0 0 0-3.42-7.086 3.5 3.5 0 0 1 6.207-3.238 140.991 140.991 0 0 1 3.598 7.455 3.502 3.502 0 0 1-3.19 4.936zm-94.154-5.386a3.503 3.503 0 0 1-3.48-3.918 51.797 51.797 0 0 1 1.723-8.48 3.5 3.5 0 0 1 6.712 1.986 44.815 44.815 0 0 0-1.484 7.33 3.501 3.501 0 0 1-3.47 3.082zm114.39-6.683a3.5 3.5 0 0 1-3.168-2.009 152.07 152.07 0 0 0-3.538-7.046 3.5 3.5 0 1 1 6.167-3.312 158.868 158.868 0 0 1 3.704 7.374 3.502 3.502 0 0 1-3.164 4.993zm-135.926-5.817a3.503 3.503 0 0 1-3.39-4.384 67.49 67.49 0 0 1 2.657-8.088 3.5 3.5 0 1 1 6.496 2.609 60.498 60.498 0 0 0-2.38 7.245 3.502 3.502 0 0 1-3.383 2.618zm103.452-2.93a3.493 3.493 0 0 1-2.708-1.28 48.296 48.296 0 0 0-5.19-5.434 3.5 3.5 0 1 1 4.654-5.23 55.3 55.3 0 0 1 5.947 6.224 3.5 3.5 0 0 1-2.703 5.72zm-72.477-6.414a3.5 3.5 0 0 1-2.52-5.929 35.729 35.729 0 0 1 6.96-5.588 3.5 3.5 0 0 1 3.679 5.955 28.734 28.734 0 0 0-5.598 4.49 3.49 3.49 0 0 1-2.52 1.072zm92.734-5.691a3.494 3.494 0 0 1-2.805-1.404 78.95 78.95 0 0 0-4.916-5.952 3.5 3.5 0 0 1 5.166-4.724 85.86 85.86 0 0 1 5.354 6.483 3.5 3.5 0 0 1-2.799 5.597zm-39.542-2.042a3.498 3.498 0 0 1-1.241-.229q-.997-.378-2.033-.715a50.793 50.793 0 0 0-5.194-1.366 3.5 3.5 0 0 1 1.437-6.85 57.72 57.72 0 0 1 5.917 1.558q1.204.391 2.356.828a3.5 3.5 0 0 1-1.242 6.774zm-31.833-2.794a3.5 3.5 0 0 1-.598-6.949 62.528 62.528 0 0 1 8.506-.87 3.5 3.5 0 1 1 .245 6.996 55.382 55.382 0 0 0-7.548.77 3.55 3.55 0 0 1-.605.053zm-41.796-1.742a3.5 3.5 0 0 1-2.745-5.668 56.695 56.695 0 0 1 5.813-6.329 3.5 3.5 0 0 1 4.781 5.113 49.307 49.307 0 0 0-2.495 2.507c-.904.975-1.78 2-2.604 3.044a3.493 3.493 0 0 1-2.75 1.333zm95.886-10.214a3.484 3.484 0 0 1-1.964-.606 62.266 62.266 0 0 0-6.564-3.893 3.5 3.5 0 1 1 3.194-6.229 69.295 69.295 0 0 1 7.305 4.333 3.5 3.5 0 0 1-1.97 6.395zm-77.195-4.886a3.5 3.5 0 0 1-1.576-6.628 68.36 68.36 0 0 1 7.827-3.331 3.5 3.5 0 0 1 2.341 6.597 61.161 61.161 0 0 0-7.022 2.988 3.49 3.49 0 0 1-1.57.374zm55.18-4.86a3.508 3.508 0 0 1-.86-.108 81.387 81.387 0 0 0-7.584-1.53 3.5 3.5 0 0 1 1.06-6.92 88.34 88.34 0 0 1 8.24 1.664 3.5 3.5 0 0 1-.856 6.894zm-32.066-1.964a3.5 3.5 0 0 1-.432-6.973 88.761 88.761 0 0 1 8.383-.646 3.5 3.5 0 1 1 .208 6.998c-2.6.077-5.197.276-7.719.593a3.54 3.54 0 0 1-.44.028zm205.708 174.897c-.038 0-.075 0-.113-.002-1.292-.04-2.66-.102-4.097-.19a3.5 3.5 0 0 1 .43-6.987c1.363.084 2.662.142 3.89.181a3.5 3.5 0 0 1-.11 6.998z"></path><path fill="#3c3b42" d="M228.562 86.108h54.876a21.1 21.1 0 0 1 21.1 21.1v20.676h-97.076v-20.676a21.1 21.1 0 0 1 21.1-21.1Z"></path><path fill="#2c2c2e" d="M304.437 105.213c-.04-.428-.111-.847-.177-1.267-.031-.198-.053-.4-.09-.595a20.881 20.881 0 0 0-.376-1.623c-.013-.045-.023-.091-.035-.136-.16-.58-.346-1.149-.554-1.708a21.088 21.088 0 0 0-19.767-13.776h-14q.567 0 1.127.03c8.811.464 8.28 13.746-.543 13.746h-61.227a21.01 21.01 0 0 0-1.333 7.324v20.676h97.076v-20.676c0-.674-.037-1.338-.1-1.995Z"></path><path fill="#3c3b42" d="M249.562 58.332h12.876a21.1 21.1 0 0 1 21.1 21.1v6.676h-55.076v-6.676a21.1 21.1 0 0 1 21.1-21.1Z"></path><path fill="#2c2c2e" d="M264.183 58.42a20.995 20.995 0 0 1 5.355 14.012 6.676 6.676 0 0 1-6.676 6.676h-34.076l-.324.324v6.676h55.076v-6.676a21.09 21.09 0 0 0-19.355-21.012Z"></path><path fill="#3c3b42" d="M145.678 380.343q.288-.677.638-1.396a241.538 241.538 0 0 0 23.127-127.605s-.777-27.071-1.79-39.62l-1.767-12.936a74.784 74.784 0 0 1 74.097-84.902H272.1a74.784 74.784 0 0 1 74.096 84.902l-1.766 12.935c-1.013 12.55-1.79 39.62-1.79 39.62a241.538 241.538 0 0 0 23.127 127.606q.349.719.638 1.396"></path><path fill="#2c2c2e" fill-rule="evenodd" d="M365.766 378.947q-4.213-8.68-7.694-17.637l-37.765-11.266a24.874 24.874 0 0 1-12.43-8.435 6.99 6.99 0 0 1 .833-9.495 78.173 78.173 0 0 0 25.704-58.025v-33.256l-156.823-1.902v35.158a78.173 78.173 0 0 0 25.704 58.025 6.99 6.99 0 0 1 .834 9.495 24.874 24.874 0 0 1-12.43 8.436l-37.68 11.239q-3.49 8.96-7.703 17.663-.35.719-.638 1.396h220.726q-.288-.677-.638-1.396Z"></path><path fill="#2c2c2e" d="m165.886 198.786.978 7.16a44.986 44.986 0 0 0 28.849-77.56 75.342 75.342 0 0 0-15.636 15.517 44.863 44.863 0 0 1-14.89 44.378 75.81 75.81 0 0 0 .7 10.505zm199.88 180.161a241.537 241.537 0 0 1-23.127-127.605s.777-27.071 1.79-39.62l1.766-12.936a74.784 74.784 0 0 0-74.096-84.902h-14a74.784 74.784 0 0 1 74.096 84.902l-1.766 12.935c-1.013 12.55-1.79 39.62-1.79 39.62a241.537 241.537 0 0 0 23.127 127.606q.349.719.638 1.396h14q-.288-.677-.638-1.396z"></path><path fill="#aa6a51" d="M106.232 240.778c12.663 7.945 21.377 24.563 21.377 43.775 0 26.928-17.118 48.758-38.233 48.758s-38.233-21.83-38.233-48.758c0-19.112 8.623-35.656 21.178-43.65"></path><path fill="#935b44" d="m106.232 240.778-13.924.052c12.62 7.964 21.3 24.55 21.3 43.723 0 23.877-13.461 43.732-31.232 47.928a30.398 30.398 0 0 0 7 .83c21.115 0 38.233-21.83 38.233-48.758 0-19.212-8.714-35.83-21.377-43.775Z"></path><path fill="#d1a08f" d="M104.945 315.224v-51.972H73.807v57.533a44.437 44.437 0 0 0 44.437 44.437h97.533v-15.138l-84.042-6.066a28.869 28.869 0 0 1-26.79-28.794Z"></path><path fill="#c68d7a" d="M131.735 344.018a28.869 28.869 0 0 1-26.79-28.794v-51.972H73.807v14h17.138v51.972a28.869 28.869 0 0 0 26.79 28.794l84.042 6.066v1.138h14v-15.138Z"></path><path fill="#fd4755" d="M88.766 296.605a3.5 3.5 0 0 1-3.5-3.5v-8.327a3.5 3.5 0 0 1 7 0v8.327a3.5 3.5 0 0 1-3.5 3.5Z"></path><path fill="#bc7c63" d="M93.623 284.778H85.13a16.479 16.479 0 0 1-16.213-13.53l-3.825-21.039a8 8 0 0 1 7.87-9.43h32.83a8 8 0 0 1 7.87 9.43l-3.825 21.039a16.479 16.479 0 0 1-16.213 13.53Z"></path><path fill="#aa6a51" d="M106.727 240.833a7.984 7.984 0 0 1-.066 2.376l-3.825 21.039a16.479 16.479 0 0 1-16.213 13.53H78.13a16.41 16.41 0 0 1-7.606-1.876 16.471 16.471 0 0 0 14.606 8.876h8.495a16.479 16.479 0 0 0 16.212-13.53l3.825-21.039a8 8 0 0 0-6.934-9.376Z"></path><path fill="#d1a08f" d="M96.082 264.09a3.5 3.5 0 0 1-2.476-5.974l3.628-3.628a3.5 3.5 0 0 1 4.95 4.95l-3.627 3.628a3.491 3.491 0 0 1-2.475 1.025zm-13.466-.054a3.491 3.491 0 0 1-2.475-1.025l-3.573-3.573a3.5 3.5 0 0 1 4.95-4.95l3.573 3.573a3.5 3.5 0 0 1-2.475 5.975z"></path><path fill="#26a6fe" d="M342.639 251.342s.184-6.416.49-14.448a13.133 13.133 0 0 0-13.12-13.632h-5.889V263.5h5.425a13.17 13.17 0 0 0 13.083-12.037zm-154.754-28.08h-5.813a13.133 13.133 0 0 0-13.12 13.632c.307 8.032.49 14.448.49 14.448l.012.121a13.17 13.17 0 0 0 13.083 12.037h5.348z"></path><path fill="#8ac9fe" d="M414.986 501.821V439.55a60 60 0 0 0-42.85-57.497l-64.564-19.259a20 20 0 0 1-14.283-19.166v-26.602h-74.573v26.603a20 20 0 0 1-14.283 19.165l-64.565 19.26a60 60 0 0 0-42.85 57.496v62.271a10 10 0 0 0 10 10h297.968a10 10 0 0 0 10-10Z"></path><path fill="#26a6fe" d="M247.188 498.466a140.961 140.961 0 0 1-10.928-12.21 7.038 7.038 0 0 0-6.758-9.252 134.61 134.61 0 0 1-9.582-16.897 6.83 6.83 0 0 0 .418-5.585l-.089-.243a6.92 6.92 0 0 0-4.625-4.242 132.845 132.845 0 0 1-5.812-19.866 6.824 6.824 0 0 0 1.624-5.525l-.043-.279a6.886 6.886 0 0 0-3.383-4.86 141.394 141.394 0 0 1-1.118-19.723 6.887 6.887 0 0 0 3.974-6.115l.002-.199a6.866 6.866 0 0 0-3.314-5.959 146.085 146.085 0 0 1 4.038-22.867 3.468 3.468 0 0 0-.044-1.89c-.04.012-.076.028-.115.04l-7.132 2.127a154.15 154.15 0 0 0-3.746 22.329 6.898 6.898 0 0 0-3.682 6.02l-.003.197a6.864 6.864 0 0 0 3.03 5.784 148.795 148.795 0 0 0 1.063 20.273 6.872 6.872 0 0 0-3.359 7.049l.018.11a6.936 6.936 0 0 0 5.513 5.742 139.703 139.703 0 0 0 5.665 19.363 6.858 6.858 0 0 0-1.616 7.275l.046.129a6.965 6.965 0 0 0 6.554 4.572c.04 0 .08-.01.119-.01a141.52 141.52 0 0 0 9.585 16.856 6.897 6.897 0 0 0 .435 7.36l.152.21a6.863 6.863 0 0 0 5.567 2.82 6.995 6.995 0 0 0 1.333-.144 148.133 148.133 0 0 0 11.277 12.575 3.5 3.5 0 1 0 4.936-4.965Z"></path><path fill="#aa6a51" d="M235.252 503.431a3.5 3.5 0 1 0 4.936-4.965 136.198 136.198 0 0 1-30.85-46.552c-14.469-36.46-9.184-70.328-4.746-87.27a3.468 3.468 0 0 0-.044-1.89c-.04.013-.076.028-.115.04l-7.132 2.127c-4.517 18.36-9.113 52.674 5.532 89.575a143.157 143.157 0 0 0 32.42 48.935Z"></path><path fill="#935b44" d="M222.642 491a6.863 6.863 0 0 1-5.567-2.82l-.152-.21a6.912 6.912 0 0 1 1.622-9.676A7.014 7.014 0 1 1 222.642 491Z"></path><path fill="#87523e" d="M228.275 479.907a6.945 6.945 0 0 0-4.179-2.737 6.968 6.968 0 0 1-1.555 9.659 7.043 7.043 0 0 1-4.135 1.347 6.962 6.962 0 0 1-1.448-.158l.117.161a6.863 6.863 0 0 0 5.567 2.821 7.044 7.044 0 0 0 4.135-1.347 6.971 6.971 0 0 0 1.498-9.746Z"></path><path fill="#935b44" d="M206.784 463.764a6.965 6.965 0 0 1-6.554-4.572l-.046-.13a6.888 6.888 0 0 1 4.12-8.869 6.98 6.98 0 0 1 8.945 4.086l.09.243a6.89 6.89 0 0 1-4.2 8.834 7.02 7.02 0 0 1-2.355.408Z"></path><path fill="#87523e" d="M212.401 452.671a6.945 6.945 0 0 0-4.178-2.737 6.968 6.968 0 0 1-1.555 9.659 7.043 7.043 0 0 1-4.136 1.347 6.962 6.962 0 0 1-1.447-.158l.117.161a6.863 6.863 0 0 0 5.566 2.821 7.044 7.044 0 0 0 4.136-1.347 6.971 6.971 0 0 0 1.497-9.746Z"></path><path fill="#935b44" d="M190.604 426.573a6.982 6.982 0 0 1 13.79-2.205l.042.278a6.913 6.913 0 0 1-5.876 7.844 7.054 7.054 0 0 1-1.04.077 6.96 6.96 0 0 1-6.898-5.884"></path><path fill="#87523e" d="M203.165 421.477a6.945 6.945 0 0 0-4.179-2.737 6.968 6.968 0 0 1-1.555 9.659 7.043 7.043 0 0 1-4.135 1.347 6.962 6.962 0 0 1-1.448-.159l.117.162a6.863 6.863 0 0 0 5.567 2.82 7.044 7.044 0 0 0 4.135-1.346 6.971 6.971 0 0 0 1.498-9.746Z"></path><path fill="#935b44" d="m196.87 400.468-.105-.001a6.946 6.946 0 0 1-6.895-7l.003-.197a6.87 6.87 0 0 1 7.1-6.799 6.945 6.945 0 0 1 6.895 7l-.003.198a6.951 6.951 0 0 1-6.995 6.799Z"></path><path fill="#87523e" d="M202.498 389.375a6.945 6.945 0 0 0-4.179-2.737 6.968 6.968 0 0 1-1.555 9.659 7.043 7.043 0 0 1-4.135 1.347 6.963 6.963 0 0 1-1.448-.158l.117.161a6.863 6.863 0 0 0 5.567 2.82 7.044 7.044 0 0 0 4.135-1.346 6.971 6.971 0 0 0 1.498-9.746Z"></path><path fill="#26a6fe" d="M306.614 375.236c-28.167 26.423-72.898 26.423-101.065 0-3.785-3.407-3.914-10.148-.763-14.656l.11-.161c2.965-4.25 7.424-5.303 10.514-2.484a59.307 59.307 0 0 0 81.343 0c3.09-2.818 7.55-1.765 10.514 2.484l.11.161c3.15 4.507 3.022 11.249-.763 14.656Z"></path><path fill="#26a6fe" d="M382.053 386.01a60.06 60.06 0 0 0-9.916-3.957l-60.867-18.156a367.885 367.885 0 0 1-8.539 33.243 368.051 368.051 0 0 1-17.487 45.749 369.172 369.172 0 0 1-41.543 68.932h135.85a217.424 217.424 0 0 0 2.502-125.811Z"></path><path fill="#fee903" d="M365.552 511.821a217.747 217.747 0 0 0 10.08-52.1 219.436 219.436 0 0 0-9.228-79.378l-58.832-17.549a19.943 19.943 0 0 1-8.964-5.604 368.502 368.502 0 0 1-9.877 39.95 368.051 368.051 0 0 1-17.487 45.749 369.172 369.172 0 0 1-41.543 68.932Z"></path><path fill="#fac600" d="M290.783 390.733c.581 2.949 4.201 19.281 20.18 26.445a34.483 34.483 0 0 0 19.195 2.57 4.89 4.89 0 0 0 2.371-8.67c-8.845-6.915-13.144-13.94-15.415-19.628-4.748-11.892-3.072-24.059-9.731-26.388-2.345-.82-8.684-1.456-12.32 1.937l-.137.13c-3.008 2.944-6.233 12.997-4.143 23.604Z"></path><path fill="#fac600" d="m366.404 380.343-58.832-17.549a19.943 19.943 0 0 1-8.964-5.604 369.97 369.97 0 0 1-2.765 13.281c40.758 12.158 68.268 50.548 65.987 93.02q-.086 1.606-.198 3.23a217.294 217.294 0 0 1-7.948 45.1h11.868a217.747 217.747 0 0 0 10.08-52.1 219.436 219.436 0 0 0-9.228-79.378Z"></path><path fill="#d1a08f" d="M290.041 383.492c.1 2.598 1 17.045 13.695 25.316a29.838 29.838 0 0 0 16.063 4.775 4.23 4.23 0 0 0 3.192-7.09c-6.632-7.1-9.363-13.683-10.54-18.85-2.46-10.803.608-20.978-4.772-23.864-1.894-1.016-7.227-2.41-10.79 0l-.135.094c-2.967 2.111-7.074 10.272-6.713 19.62Z"></path><path fill="#c68d7a" d="M322.99 406.492c-6.63-7.1-9.362-13.682-10.538-18.85-2.46-10.802.607-20.977-4.773-23.863-1.894-1.016-7.227-2.41-10.79 0l-.135.094a14.83 14.83 0 0 0-4.047 5.77 13.455 13.455 0 0 1 7.972 1.136c5.38 2.886 2.312 13.06 4.773 23.864 1.165 5.115 3.859 11.62 10.348 18.638a32.277 32.277 0 0 0 3.999.302 4.23 4.23 0 0 0 3.192-7.09Z"></path><path fill="#935b44" d="M159.914 489.09h-.1a3.5 3.5 0 0 1 0-7h.1a3.5 3.5 0 0 1 0 7zm-16.1 0h-.1a3.5 3.5 0 0 1 0-7h.1a3.5 3.5 0 0 1 0 7zm-16.1 0h-.1a3.5 3.5 0 0 1 0-7 3.543 3.543 0 0 1 3.55 3.5 3.458 3.458 0 0 1-3.45 3.5zm-16.1 0h-.1a3.5 3.5 0 0 1 0-7h.1a3.5 3.5 0 1 1 0 7zm290.001 0h-.1a3.5 3.5 0 0 1 0-7h.1a3.5 3.5 0 0 1 0 7zm-16.1 0h-.1a3.5 3.5 0 0 1 0-7h.1a3.5 3.5 0 0 1 0 7z"></path><path fill="#26a6fe" d="M159.912 512a3.5 3.5 0 0 1-3.5-3.495l-.04-28.95a3.5 3.5 0 0 1 3.495-3.505h.005a3.5 3.5 0 0 1 3.5 3.495l.04 28.95a3.5 3.5 0 0 1-3.496 3.505Z"></path><path fill="#26a6fe" fill-rule="evenodd" d="M218.716 317.026v20.947a67.829 67.829 0 0 0 44.286 16.384 67.804 67.804 0 0 0 30.596-7.262 20.01 20.01 0 0 1-.31-3.466v-26.603Z"></path><path fill="#8ac9fe" fill-rule="evenodd" d="M256.003 340.357a68.118 68.118 0 0 1-68.118-68.118v-55.977a34.91 34.91 0 0 1 14.62-28.408 44.079 44.079 0 0 1 39.558-5.949 44.079 44.079 0 0 0 27.878 0 44.079 44.079 0 0 1 39.56 5.949 34.91 34.91 0 0 1 14.619 28.408v55.977a68.118 68.118 0 0 1-68.117 68.118Z"></path><path fill="#26a6fe" fill-rule="evenodd" d="M309.501 187.854a44.03 44.03 0 0 0-13.234-6.418 34.9 34.9 0 0 1 13.853 27.826v55.977a68.118 68.118 0 0 1-68.117 68.118 67.982 67.982 0 0 1-23.176-4.05 67.777 67.777 0 0 0 37.175 11.05 68.118 68.118 0 0 0 68.118-68.118v-55.977a34.91 34.91 0 0 0-14.619-28.408Z"></path><path fill="#26a6fe" d="M293.062 259.27c-.176 0-.352-.002-.53-.007a22.797 22.797 0 0 1-12.068-3.804 3.5 3.5 0 0 1 3.87-5.833 15.81 15.81 0 0 0 8.362 2.64 16.066 16.066 0 0 0 9.109-2.64 3.5 3.5 0 1 1 3.867 5.834 23.11 23.11 0 0 1-12.61 3.81zm-74.133 0c-.176 0-.352-.002-.53-.007a22.793 22.793 0 0 1-12.067-3.804 3.5 3.5 0 1 1 3.87-5.833 15.797 15.797 0 0 0 8.361 2.64 16.05 16.05 0 0 0 9.11-2.64 3.5 3.5 0 0 1 3.867 5.834 23.11 23.11 0 0 1-12.61 3.81zm37.064 54.685c-.216 0-.432-.002-.652-.008a28.07 28.07 0 0 1-14.86-4.684 3.5 3.5 0 1 1 3.871-5.833 21.014 21.014 0 0 0 23.303-.001 3.5 3.5 0 1 1 3.867 5.835 28.457 28.457 0 0 1-15.529 4.691z"></path><path fill="#fff" d="M274.65 219.597a186.274 186.274 0 0 1-37.3 0 6.106 6.106 0 0 1-5.709-6.718 6.275 6.275 0 0 1 6.91-5.222 174.272 174.272 0 0 0 34.898 0 6.276 6.276 0 0 1 6.91 5.222 6.105 6.105 0 0 1-5.709 6.718Z"></path><path fill="#fff" d="M282.792 230.714a198.274 198.274 0 0 1-53.583 0c-3.85-.523-6.48-3.72-5.895-6.98.586-3.264 3.942-5.395 7.516-4.91a186.272 186.272 0 0 0 50.34 0c3.574-.484 6.932 1.646 7.517 4.91.583 3.26-2.046 6.457-5.895 6.98Z"></path><path fill="#d1a08f" d="M306.614 365.529c-28.167 26.422-72.898 26.422-101.065 0-3.785-3.408-3.914-10.149-.763-14.656l.11-.162c2.965-4.249 7.424-5.302 10.514-2.484a59.307 59.307 0 0 0 81.343 0c3.09-2.818 7.55-1.765 10.514 2.484l.11.162c3.15 4.507 3.022 11.249-.763 14.656Z"></path><path fill="#c68d7a" d="m307.377 350.873-.11-.162a9.026 9.026 0 0 0-5.408-3.927c1.467 4.147.788 9.015-2.245 11.745-26.547 24.903-67.803 26.325-96.042 4.285a8.483 8.483 0 0 0 1.977 2.715c28.167 26.422 72.898 26.422 101.065 0 3.785-3.407 3.914-10.149.763-14.656Z"></path><path fill="#f3f0f3" d="M150.724 108.999c-1.328 0-2.64.07-3.94.182a44.99 44.99 0 0 1-20.636 82.509 44.998 44.998 0 1 0 24.576-82.691Z"></path><path fill="#e2dee2" d="M163.54 110.861a44.998 44.998 0 0 1-34.516 80.475c-.95.144-1.907.27-2.876.354a44.999 44.999 0 1 0 37.391-80.829Z"></path><ellipse cx="256" cy="219" fill="#d1a08f" rx="8.096" ry="19.931"></ellipse><path fill="#c68d7a" d="M256 199.069a19.38 19.38 0 0 0-3.5 3.93 30.15 30.15 0 0 1 0 32.002 19.38 19.38 0 0 0 3.5 3.93c4.853-4.08 8.096-11.48 8.096-19.931s-3.243-15.851-8.096-19.931Z"></path><circle cx="345.5" cy="424.5" r="7.5" fill="#fe9738"></circle><circle cx="303.738" cy="440.345" r="7.5" fill="#fe9738"></circle><circle cx="347" cy="469.5" r="7.5" fill="#fe9738"></circle><circle cx="281" cy="483" r="7.5" fill="#fe9738"></circle><circle cx="317" cy="501" r="7.5" fill="#fe9738"></circle><path fill="#26a6fe" d="M202.192 511.821q-.17 0-.344-.017c-20.53-2.002-37.85-13.838-45.204-30.888-10.399-24.113 4.052-47.642 5.734-50.246a3.5 3.5 0 0 1 5.88 3.8c-1.474 2.281-14.147 22.896-5.187 43.674 6.345 14.71 21.464 24.939 39.456 26.693a3.5 3.5 0 0 1-.335 6.984Z"></path><circle cx="185.846" cy="479.55" r="3.5" fill="#26a6fe"></circle></svg>