<?xml version="1.0" encoding="UTF-8"?>
<svg xmlns="http://www.w3.org/2000/svg" id="a" width="865.76" height="682.89" viewBox="0 0 865.76 682.89">
  <g>
    <g>
      <rect x="500.67" y="267.7" width="39" height="68" fill="#002346"></rect>
      <path d="M540.17,336.2h-40v-69h40v69Zm-39-1h38v-67h-38v67Z" fill="#002346"></path>
    </g>
    <rect x="100.1" y="575.54" width="667.07" height="1" fill="#002346"></rect>
    <g>
      <polygon points="291.25 451.43 229.88 573.83 291.25 586.44 337.2 496.26 291.25 451.43" fill="#f2b3c1"></polygon>
      <path d="M291.52,587.01l-62.38-12.82,61.97-123.59,.49,.48,46.21,45.09-46.29,90.85Zm-60.9-13.53l60.36,12.4,45.61-89.51-45.2-44.1-60.77,121.21Z" fill="#002346"></path>
    </g>
    <g>
      <path d="M291.25,451.43s8.52,26.61,48.8,49.96l27.66-35.93-42.4-64.53-34.06,50.5Z" fill="#0062be"></path>
      <path d="M340.18,502.04l-.38-.22c-39.98-23.18-48.94-49.97-49.03-50.24l-.07-.23,34.62-51.32,43.01,65.46-28.14,36.56Zm-48.38-50.54c.95,2.62,10.75,27.45,48.12,49.24l27.17-35.3-41.79-63.6-33.5,49.67Z" fill="#002346"></path>
    </g>
    <g>
      <path d="M522.08,329.94s48.51-26.4,92.06,5.44c0,0,27.38,18.5,46.79,54.48,0,0,17.79,26.28-15.36,59.43l-40.26,94.2v32.57h-248.31s.54-46.68-19.54-80.33c0,0-24.42-30.39-3.26-79.79,0,0,17.63-85.21,54.95-90.64l24.46-6.49,108.47,11.14h0Z" fill="#0062be"></path>
      <path d="M605.81,576.56h-249.32v-.51c.01-.47,.31-46.93-19.46-80.07-.21-.25-24.31-31.12-3.31-80.2,.25-1.17,4.72-22.06,13.5-43.32,8.33-20.18,22.35-44.82,41.86-47.66l24.49-6.5h.09s108.3,11.13,108.3,11.13c2.77-1.44,50.23-25.34,92.47,5.54,.26,.18,27.69,18.97,46.94,54.65,.15,.22,17.59,26.92-15.38,59.95l-40.18,94.02v32.97Zm-248.31-1h247.31v-32.17l40.41-94.45c32.45-32.45,15.47-58.54,15.3-58.8-19.15-35.49-46.38-54.16-46.66-54.35-41.17-30.1-87.38-7.55-91.28-5.55v.26l-108.93-11.19-24.37,6.47c-36.61,5.33-54.41,89.41-54.59,90.26l-.03,.1c-20.8,48.56,2.95,78.98,3.19,79.28,18.84,31.56,19.63,74.97,19.65,80.14Z" fill="#002346"></path>
    </g>
    <g>
      <path d="M444.26,94.02h0c30.58,0,55.36,24.79,55.36,55.37v65.06c0,30.58-24.79,55.37-55.36,55.37h0c-30.58,0-55.36-24.79-55.36-55.37v-65.06c0-30.58,24.79-55.37,55.36-55.37Z" fill="#f2b3c1"></path>
      <path d="M444.26,270.32c-30.8,0-55.87-25.06-55.87-55.87v-65.06c0-30.81,25.06-55.87,55.87-55.87s55.86,25.06,55.86,55.87v65.06c0,30.81-25.06,55.87-55.86,55.87Zm0-175.8c-30.25,0-54.87,24.61-54.87,54.87v65.06c0,30.26,24.61,54.87,54.87,54.87s54.86-24.61,54.86-54.87v-65.06c0-30.26-24.61-54.87-54.86-54.87Z" fill="#002346"></path>
    </g>
    <g>
      <path d="M440.09,100.29c2.05,7.12,7.67,16.13,20.92,26.07l24.16,20.65s11.86,6.99,10.54,34.91l-.29,3.47c-.79,9.4-2.43,18.71-4.76,27.86-3.42,13.41-6.54,36.72,7.35,51.64,.77,.83,1.61,1.6,2.46,2.36,4.29,3.81,23.61,21.89,24.65,39.22,.04,.66,.01,1.32-.04,1.97-.27,3.43-1.04,14.72-3.24,22.05,0,0,48.57-26.19,92.06,5.44,0,0,15.82,10.54,32.07,31.63,0,0,8.35-20.21-17.57-50.96,0,0-21.53-21.53-37.78-70.73,0,0-11.86-29-21.97-81.28,0,0-12.74-86.99-76.44-92.7,0,0-25.53-4.81-42.07,4.46-8.49,4.75-12.75,14.6-10.05,23.95h0Z" fill="#002346"></path>
      <path d="M646.1,368.55l-.53-.69c-16.01-20.77-31.79-31.41-31.95-31.52-42.74-31.09-91.06-5.68-91.54-5.42l-1.06,.57,.35-1.16c2.06-6.87,2.87-17.35,3.17-21.29l.05-.65c.06-.77,.07-1.36,.04-1.9-1.03-17.23-20.58-35.41-24.48-38.88-.96-.86-1.75-1.59-2.49-2.39-14.18-15.23-10.76-39.18-7.47-52.1,2.39-9.38,3.99-18.73,4.75-27.78l.29-3.47c1.29-27.21-10.18-34.37-10.3-34.44l-24.23-20.7c-10.19-7.65-16.94-15.52-20.09-23.45v.55l-.98-3.4c-2.75-9.51,1.48-19.6,10.29-24.53,16.51-9.25,42.15-4.56,42.41-4.51,33.09,2.96,52.24,28.15,62.46,48.76,11.05,22.27,14.35,44.14,14.38,44.36,9.98,51.6,21.82,80.87,21.94,81.16,16.03,48.53,37.46,70.35,37.67,70.57,25.85,30.66,17.76,51.3,17.68,51.5l-.33,.8Zm-80.53-48.65c15.06,0,32.24,3.71,48.62,15.62,.14,.09,15.68,10.56,31.59,30.98,1.17-4.15,4.67-22.97-17.77-49.58-.19-.19-21.77-22.15-37.87-70.9-.11-.26-11.98-29.61-21.99-81.34-.04-.24-3.31-21.97-14.3-44.1-10.11-20.37-29.03-45.26-61.69-48.19-.3-.05-25.59-4.67-41.78,4.4-8.29,4.64-12.33,14.08-9.91,23.05l.09,.32c2.5,8.67,9.48,17.36,20.74,25.81l24.18,20.67c.42,.24,12.03,7.41,10.71,35.31l-.29,3.49c-.76,9.1-2.37,18.5-4.77,27.94-3.25,12.73-6.62,36.3,7.23,51.18,.71,.77,1.49,1.49,2.43,2.33,3.96,3.51,23.76,21.94,24.82,39.56,.04,.59,.02,1.22-.04,2.04l-.05,.65c-.29,3.77-1.04,13.47-2.9,20.41,4.28-2.07,21.44-9.63,42.94-9.63Z" fill="#002346"></path>
    </g>
    <g>
      <path d="M388.89,161.51s-18.86-40.34-2.23-66.67c2.82-4.46,6.68-8.15,11.14-10.97,8.92-5.64,28.31-14.78,52.33-7.53,0,0-11.05,5.11-10.85,17.9,0,0-47.82,3.04-50.39,55.14v12.12h0Z" fill="#002346"></path>
      <path d="M389.39,163.75l-.95-2.03c-.19-.41-18.78-40.89-2.2-67.15,2.79-4.4,6.59-8.15,11.3-11.13,9.4-5.94,28.74-14.83,52.74-7.59l1.26,.38-1.19,.55c-.11,.05-10.75,5.14-10.56,17.44v.48s-.47,.03-.47,.03c-.12,0-12.01,.84-24.04,7.98-11.08,6.57-24.56,20.01-25.88,46.68v14.35Zm42.79-89.6c-15.27,0-27.33,5.85-34.11,10.15-4.58,2.9-8.28,6.54-10.99,10.81-14.08,22.29-2.28,55.17,1.31,63.97v-9.69c1.34-27.16,15.1-40.84,26.4-47.54,10.87-6.44,21.63-7.83,23.98-8.06,.05-10.24,7.28-15.61,10.06-17.3-5.87-1.66-11.45-2.34-16.66-2.34Z" fill="#002346"></path>
    </g>
    <g>
      <path d="M425.35,266.5s2.55,22.33-12,52.84l25.92,39.89s37.76,12.32,63.11-12.54c.61-.6,1.19-1.22,1.76-1.85,2.41-2.64,10.63-11.29,17.68-14.36l1.57-7.04s-11.28-22.59-10.92-43.61c0,0-4.15-4.97-12.01-12.59,0,0-8.03-5.39-11.47-20.17,0,0-14.12,21.15-41.26,22.64,0,0-14.52,.38-22.39-3.2h0Z" fill="#f2b3c1"></path>
      <path d="M461.08,362.72c-12.45,0-21.78-2.95-21.97-3.01l-.17-.06-.1-.15-26.07-40.12,.12-.25c13.42-28.15,12.21-49.54,11.98-52.27l-.39-.18,1.22-1.28,.1,.78c7.73,3.36,21.76,3.04,21.9,3.04,26.57-1.46,40.72-22.21,40.86-22.42l.64-.96,.26,1.12c3.35,14.39,11.18,19.82,11.26,19.87,7.86,7.61,12.07,12.63,12.12,12.68l.12,.14v.19c-.36,20.65,10.75,43.15,10.86,43.38l.08,.16-1.66,7.46-.23,.1c-6.95,3.02-15.16,11.66-17.51,14.24-.67,.74-1.23,1.33-1.78,1.87-12.81,12.56-28.87,15.67-41.65,15.67Zm-21.49-3.91c2.74,.83,38.45,11.05,62.44-12.47,.53-.52,1.08-1.1,1.74-1.83,2.36-2.59,10.54-11.19,17.62-14.38l1.48-6.62c-1-2.07-11.17-23.57-10.9-43.49-.73-.86-4.83-5.6-11.86-12.41-.26-.16-7.79-5.36-11.35-19.36-3.08,4.06-17.13,20.66-41,21.97-.59,.02-13.84,.32-21.84-2.91,.28,4.39,.75,25.15-11.99,52l25.67,39.5Z" fill="#002346"></path>
    </g>
    <g>
      <path d="M401.2,249.25s-2.95,27.21-6.25,45.37l21.29,18.26s10.6-24.83,9.11-46.38c0,0-13.35-3.92-24.15-17.25h0Z" fill="#002346"></path>
      <path d="M416.43,313.7l-22.03-18.89,.05-.28c3.26-17.94,6.22-45.06,6.25-45.33l.13-1.19,.76,.93c10.58,13.06,23.77,17.05,23.9,17.08l.33,.1,.02,.35c1.48,21.42-9.04,46.36-9.15,46.61l-.27,.63Zm-20.94-19.28l20.55,17.62c1.61-3.98,10.04-25.97,8.83-45.18-2.1-.7-13.63-4.96-23.31-16.39-.6,5.39-3.22,28.12-6.07,43.95Z" fill="#002346"></path>
    </g>
    <g>
      <path d="M640.85,400.77s18.55-.17,18.55,9.93c0,0-.19,17.3-15.26,29.51l-3.3-39.44h.01Z" fill="#0062be"></path>
      <path d="M643.72,441.19l-3.42-40.92h.54v.5s0-.5,0-.5c.48,0,11.73-.05,16.72,4.9,1.55,1.53,2.33,3.39,2.33,5.53,0,.18-.37,17.68-15.45,29.9l-.73,.59Zm-2.34-39.92l3.17,37.94c14-11.89,14.34-28.35,14.34-28.52,0-1.85-.68-3.48-2.04-4.81-4.11-4.07-13.19-4.55-15.48-4.6Z" fill="#002346"></path>
    </g>
    <path d="M617.99,504.74c-.26,0-.53-.1-.72-.31-15.97-16.74-46.55-34.11-46.86-34.29-.48-.27-.65-.88-.38-1.36,.27-.48,.88-.65,1.36-.38,.31,.17,31.14,17.69,47.32,34.65,.38,.4,.37,1.03-.03,1.41-.19,.18-.44,.28-.69,.28Z" fill="#ec1c24"></path>
    <path d="M562.53,463.43c-.24,0-.45-.17-.49-.41-8.16-46.45,1.1-85.19,1.19-85.57,.07-.27,.34-.43,.6-.37s.43,.34,.37,.6c-.09,.38-9.3,38.93-1.18,85.16,.05,.27-.13,.53-.41,.58h-.08Z" fill="#002346"></path>
    <path d="M388.9,167.16h-.06l-10.42-1.31c-.27-.03-.47-.28-.43-.56s.29-.47,.56-.43l10.42,1.31c.27,.03,.47,.28,.43,.56-.03,.25-.25,.44-.5,.44h0Z" fill="#002346"></path>
    <path d="M437.34,166.51c-.17,0-.34-.09-.43-.24-1.45-2.43-3.28-3.86-5.42-4.24-3.91-.71-7.67,2.25-7.7,2.28-.21,.17-.53,.14-.7-.08s-.14-.53,.08-.7c.17-.13,4.13-3.27,8.5-2.49,2.45,.44,4.5,2.03,6.11,4.72,.14,.24,.06,.54-.17,.69-.08,.05-.17,.07-.26,.07h0Z" fill="#002346"></path>
    <path d="M495.63,172.72h-.1l-11.16-2.25c-.27-.05-.45-.32-.39-.59,.05-.27,.32-.45,.59-.39l11.16,2.25c.27,.05,.45,.32,.39,.59-.05,.24-.26,.4-.49,.4h0Z" fill="#002346"></path>
    <g>
      <path d="M406.24,378.05s-40.02-27.59-49.35-77.08c0,0-1.22-8.92,5.27-7.57,0,0,12.65,8.88,23.76,33.04,0,0-1.77-17.91-23.97-41.6-2.28-2.43-4.72-4.71-7.24-6.89-3.58-3.11-10.14-10.15-5.93-17.18,.2-.33,.48-.6,.81-.78,1.34-.74,5.01-1.47,12.03,5.55l28.67,23.8,21.91,15.33,13.3,38.22-19.26,35.16h0Z" fill="#f2b3c1"></path>
      <path d="M406.41,378.77l-.46-.31c-.4-.28-40.3-28.28-49.56-77.4-.03-.23-.66-5.07,1.68-7.26,1.02-.96,2.43-1.25,4.18-.89l.19,.08c.12,.08,11.51,8.25,22.08,29.39-1.84-6.59-7.3-20.51-22.94-37.2-2.09-2.23-4.45-4.47-7.2-6.85-3.3-2.87-10.5-10.35-6.03-17.82,.25-.41,.59-.74,1-.96,1.68-.93,5.56-1.43,12.62,5.64l28.64,23.77,22.01,15.4,.05,.15,13.37,38.43-19.63,35.84Zm-45.5-85.01c-.88,0-1.6,.26-2.15,.77-1.97,1.83-1.38,6.33-1.38,6.37,8.65,45.86,44.25,73.17,48.69,76.41l18.88-34.47-13.17-37.86-21.78-15.24-28.7-23.82c-6.88-6.88-10.31-6.14-11.47-5.5-.25,.14-.47,.35-.62,.6-3.93,6.57,1.96,13.18,5.83,16.54,2.78,2.4,5.16,4.67,7.28,6.92,22.06,23.54,24.08,41.71,24.1,41.89l.29,2.97-1.25-2.71c-10.45-22.73-22.41-31.96-23.51-32.78-.37-.07-.72-.11-1.04-.11Z" fill="#002346"></path>
    </g>
    <g>
      <polygon points="239.41 522.32 217 522.32 218.26 488.27 237.51 488.27 239.41 522.32" fill="#fff"></polygon>
      <path d="M239.41,522.82h-22.42c-.14,0-.27-.06-.36-.15-.09-.1-.14-.23-.14-.37l1.27-34.04c.01-.27,.23-.48,.5-.48h19.25c.27,0,.48,.21,.5,.47l1.9,34.04c0,.14-.04,.27-.14,.37s-.23,.16-.36,.16h0Zm-21.9-1h21.37l-1.84-33.04h-18.29l-1.23,33.04h0Z" fill="#002346"></path>
    </g>
    <g>
      <g>
        <path d="M286.75,490.44c-14.84,4.35-30.53,6.71-46.77,6.77-92.77,.31-168.42-75.08-168.42-167.85,0-74.82,48.95-138.2,116.57-159.87,5.33-1.71,11.04,1.26,12.77,6.59h0c1.75,5.4-1.25,11.15-6.66,12.89-59.11,19-101.95,74.3-102.28,139.65-.4,81.51,65.92,148.18,147.44,148.18,14.43,0,28.37-2.07,41.55-5.94,5.64-1.65,11.5,1.75,12.83,7.47h0c1.23,5.26-1.86,10.59-7.04,12.11h.01Z" fill="#eaebeb"></path>
        <path d="M239.41,497.71c-44.79,0-86.95-17.45-118.78-49.17-31.96-31.86-49.56-74.18-49.56-119.18,0-36.39,11.42-71.02,33.03-100.16,21.18-28.57,50.19-49.38,83.89-60.18,5.57-1.79,11.58,1.31,13.4,6.91,.88,2.72,.65,5.61-.65,8.15-1.32,2.57-3.56,4.48-6.33,5.37-60.65,19.49-101.61,75.43-101.93,139.18-.19,39.29,15.03,76.34,42.87,104.31,27.83,27.97,64.79,43.37,104.08,43.37,14.1,0,28.03-1.99,41.41-5.92,2.87-.84,5.87-.47,8.44,1.03,2.56,1.5,4.34,3.91,5.01,6.81,1.1,4.69-1.08,9.43-5.08,11.72h1.04l-3.33,.98c-15.17,4.45-30.95,6.73-46.91,6.79-.19,0-.39,0-.58,0Zm-48.2-328.2c-.97,0-1.95,.15-2.92,.46-69.52,22.28-116.22,86.33-116.22,159.39,0,44.73,17.5,86.81,49.27,118.47,31.64,31.53,73.55,48.88,118.07,48.88,.19,0,.38,0,.57,0,15.55-.06,30.94-2.24,45.75-6.49l.87-.26c4.93-1.45,7.87-6.5,6.69-11.52-.61-2.62-2.22-4.81-4.54-6.17-2.33-1.36-5.05-1.7-7.66-.93-13.47,3.96-27.5,5.96-41.69,5.96-39.55,0-76.77-15.51-104.78-43.66-28.02-28.16-43.35-65.46-43.16-105.02,.32-64.19,41.57-120.5,102.63-140.12,2.51-.81,4.55-2.54,5.75-4.87,1.18-2.3,1.39-4.93,.59-7.39-1.33-4.1-5.14-6.73-9.22-6.73Z" fill="#002346"></path>
      </g>
      <g>
        <path d="M239.41,497.71c-44.79,0-86.95-17.45-118.78-49.17-31.96-31.86-49.56-74.18-49.56-119.18,0-36.39,11.42-71.02,33.03-100.16,21.19-28.57,50.2-49.38,83.89-60.18,5.57-1.78,11.58,1.31,13.4,6.91,.88,2.72,.65,5.61-.65,8.15-1.32,2.57-3.56,4.48-6.33,5.36-60.65,19.5-101.61,75.42-101.93,139.18-.19,39.29,15.03,76.34,42.86,104.31,27.83,27.97,64.79,43.37,104.07,43.37,14.09,0,28.02-1.99,41.41-5.92,2.86-.84,5.86-.48,8.44,1.03,2.57,1.5,4.35,3.92,5.02,6.81,1.29,5.53-1.96,11.11-7.39,12.7h0c-15.17,4.45-30.95,6.74-46.91,6.79h-.57Zm-48.2-328.2c-.97,0-1.95,.15-2.92,.46-69.52,22.28-116.23,86.33-116.23,159.39,0,44.73,17.5,86.8,49.27,118.47,31.64,31.53,73.56,48.88,118.08,48.88h.57c15.86-.05,31.55-2.32,46.63-6.75h0c4.92-1.44,7.86-6.5,6.69-11.51-.61-2.62-2.23-4.82-4.55-6.17-2.33-1.36-5.05-1.69-7.65-.93-13.48,3.95-27.51,5.96-41.69,5.96-39.55,0-76.76-15.51-104.78-43.66-28.02-28.16-43.35-65.46-43.15-105.02,.32-64.18,41.56-120.49,102.62-140.12,2.51-.81,4.55-2.54,5.74-4.87,1.18-2.3,1.39-4.93,.59-7.39-1.33-4.1-5.14-6.73-9.23-6.73h0Z" fill="#eaebeb"></path>
        <path d="M239.98,498.21h-.58c-44.91,0-87.21-17.52-119.12-49.32-32.05-31.95-49.71-74.41-49.71-119.53,0-36.5,11.46-71.23,33.13-100.46,21.25-28.65,50.35-49.53,84.14-60.36,5.84-1.86,12.13,1.38,14.03,7.23,.92,2.85,.68,5.88-.68,8.53-1.39,2.7-3.74,4.69-6.62,5.61-60.44,19.43-101.26,75.17-101.58,138.71-.19,39.16,14.98,76.08,42.71,103.96,27.73,27.87,64.57,43.22,103.71,43.22,14.05,0,27.93-1.99,41.27-5.9,3-.88,6.14-.5,8.83,1.08,2.69,1.57,4.55,4.1,5.25,7.13,1.35,5.79-2.05,11.63-7.74,13.29-15.23,4.47-31.06,6.76-47.05,6.81Zm-.57-1h0Zm-1.37,0c.21,0,.42,0,.64,0-.21,0-.42,0-.64,0Zm2.55,0h0Zm.05,0s-.01,0-.02,0c0,0,.01,0,.02,0Zm.05,0h0Zm.05,0h0Zm.05,0h0Zm.05,0s-.01,0-.02,0c0,0,.01,0,.02,0Zm.05,0h0Zm-3.42,0s.05,0,.08,0c-.02,0-.05,0-.08,0Zm-.42,0s.02,0,.04,0c-.01,0-.02,0-.04,0Zm-.36,0c.05,0,.11,0,.16,0-.05,0-.11,0-.16,0Zm-.59-.01c.12,0,.23,0,.35,0-.12,0-.23,0-.35,0Zm-.25,0c.06,0,.12,0,.18,0-.06,0-.12,0-.18,0Zm-.26,0h0Zm-2.74-.08c.88,.03,1.76,.06,2.64,.08-.88-.02-1.76-.05-2.64-.08Zm-1.34-.06c.42,.02,.84,.04,1.26,.05-.42-.02-.84-.03-1.26-.05Zm-.28-.01c.08,0,.16,0,.24,.01-.08,0-.16,0-.24-.01Zm-.28-.01c.06,0,.13,0,.19,0-.06,0-.12,0-.19,0Zm-.17,0s.02,0,.03,0c0,0-.02,0-.03,0Zm-.19-.01s.06,0,.1,0c-.03,0-.06,0-.1,0Zm-.07,0s.02,0,.04,0c-.01,0-.03,0-.04,0Zm-.19-.01s0,0,.01,0c0,0,0,0-.01,0Zm-.07,0s.02,0,.04,0c-.01,0-.02,0-.04,0Zm-.19-.01s.06,0,.09,0c-.03,0-.06,0-.09,0Zm-.07,0s.01,0,.02,0c0,0-.01,0-.02,0Zm-.32-.02-.06,0s.01,0,.02,0c0,0-.01,0-.02,0Zm-.06,0s.03,0,.04,0c-.01,0-.03,0-.04,0Zm-.07,0s.04,0,.06,0c-.02,0-.04,0-.06,0Zm-38.65-326.9c-.79,.04-1.58,.18-2.35,.43-69.31,22.21-115.88,86.08-115.88,158.91,0,44.59,17.45,86.54,49.12,118.12,31.54,31.43,73.35,48.73,117.73,48.73h.57c15.82-.05,31.46-2.31,46.49-6.73,4.67-1.37,7.45-6.16,6.34-10.92-.58-2.49-2.11-4.57-4.31-5.85-2.21-1.29-4.79-1.6-7.26-.88-13.54,3.97-27.62,5.98-41.83,5.98-39.68,0-77.01-15.56-105.13-43.81-28.12-28.26-43.5-65.68-43.3-105.38,.32-64.4,41.7-120.9,102.97-140.59,2.38-.77,4.32-2.41,5.45-4.62,1.12-2.18,1.32-4.67,.56-7.01-1.24-3.82-4.76-6.38-8.75-6.38h-.41Zm96.06,320.39s-.07,.02-.11,.03l-.06,.02s.04-.01,.05-.02c.04-.01,.07-.02,.11-.03Zm-2.98-19.96c1.79,0,3.54,.47,5.13,1.4,2.44,1.42,4.14,3.72,4.79,6.49,.95,4.06-.67,8.14-3.82,10.5,3.16-2.36,4.77-6.44,3.83-10.5-.64-2.76-2.34-5.06-4.78-6.49-2.46-1.44-5.31-1.79-8.05-.98-13.43,3.94-27.41,5.94-41.55,5.94-39.42,0-76.5-15.45-104.42-43.52-27.87-28.01-43.14-65.08-43.01-104.43-.14,39.34,15.13,76.42,43.01,104.44,27.93,28.06,65.01,43.51,104.42,43.51,14.12,0,28.1-2,41.55-5.94,.96-.28,1.94-.42,2.91-.42ZM198.11,171.71c1.26,1.16,2.24,2.66,2.8,4.38,.84,2.59,.62,5.35-.62,7.77-.04,.09-.09,.17-.14,.26,.05-.09,.1-.18,.15-.27,1.24-2.42,1.46-5.18,.62-7.77-.56-1.73-1.55-3.22-2.81-4.37Zm-5.76-2.63c.22,.03,.45,.06,.67,.1-.22-.04-.44-.07-.67-.1h0Z" fill="#002346"></path>
      </g>
    </g>
    <g>
      <path d="M184.28,185.9h0c3.13-1.39,6.79,.02,8.18,3.15l5.91,13.3-11.33,5.04-5.91-13.3c-1.39-3.13,.02-6.79,3.15-8.18Z" fill="#fff"></path>
      <path d="M186.78,208.04l-6.11-13.75c-.73-1.63-.77-3.45-.13-5.13,.64-1.67,1.9-2.99,3.53-3.72,1.63-.73,3.45-.77,5.13-.13s2.99,1.9,3.72,3.53l6.11,13.75-12.25,5.44Zm0-22.18c-.79,0-1.57,.16-2.31,.49-1.39,.62-2.46,1.74-3,3.16-.55,1.42-.51,2.97,.11,4.36l5.71,12.84,10.42-4.63-5.71-12.84c-.62-1.39-1.74-2.46-3.16-3-.67-.26-1.36-.38-2.05-.38Z" fill="#002346"></path>
    </g>
    <g>
      <path d="M143.47,587.93s5.29-7.05,38.98-15.36c5.72-1.41,11.14-3.85,15.88-7.35,7.53-5.56,13.98-13.5,13.77-30.15v-12.62c0-4.72,3.83-8.55,8.55-8.55h15.74c4.72,0,8.55,3.83,8.55,8.55v13.43s-.75,30.17,31.13,38.72c1.99,.54,4.03,.91,6.07,1.19,7.25,1.01,30.12,4.47,32.34,8.49l-6.86,9.4-122.21,11.31-34.38-8.68-7.56-8.38h0Z" fill="#eaebeb"></path>
      <path d="M185.37,605.5l-.08-.02-34.52-8.72-7.94-8.8,.25-.33c.22-.29,5.78-7.28,39.26-15.54,5.84-1.44,11.13-3.89,15.7-7.27,6.83-5.05,13.79-12.53,13.56-29.74v-12.63c0-4.99,4.06-9.05,9.05-9.05h15.74c4.99,0,9.05,4.06,9.05,9.05v13.43c0,.31-.36,29.89,30.76,38.24,1.79,.48,3.76,.87,6.01,1.18,9.08,1.26,30.44,4.63,32.71,8.75l.15,.28-7.18,9.84-.22,.02-122.3,11.32h0Zm-34.07-9.65l34.14,8.63,121.9-11.28,6.52-8.93c-2.39-2.96-17.84-6.05-31.8-7.99-2.29-.32-4.3-.71-6.13-1.2-31.9-8.56-31.51-38.91-31.5-39.22v-13.42c0-4.44-3.61-8.05-8.05-8.05h-15.74c-4.44,0-8.05,3.61-8.05,8.05v12.62c.23,17.66-6.93,25.35-13.97,30.55-4.68,3.46-10.08,5.96-16.05,7.43-29.26,7.22-36.98,13.47-38.42,14.88l7.16,7.93h-.01Z" fill="#002346"></path>
    </g>
    <g>
      <path d="M371.3,336.69c0,78.03-63.27,141.3-141.3,141.3s-141.3-63.27-141.3-141.3c0-24.07,6.02-46.73,16.63-66.57,11.72-21.9,29.05-40.36,50.06-53.44,0,0,.02,0,.05-.03,5.18-3.24,10.58-6.14,16.18-8.68h.02c17.79-8.08,37.55-12.58,58.36-12.58,1.64,0,3.27,.03,4.9,.08,17.74,.61,34.66,4.48,50.16,11.05,7.05,2.98,13.8,6.53,20.21,10.57,3.8,2.39,7.48,4.97,11.02,7.71,22.83,17.64,40.13,42.11,48.8,70.35,4.03,13.13,6.21,27.08,6.21,41.53h0Z" fill="#fff"></path>
      <path d="M230,478.49c-78.19,0-141.8-63.61-141.8-141.8,0-23.29,5.77-46.39,16.69-66.81,11.74-21.93,29.11-40.47,50.24-53.63l.12-.08c5.17-3.23,10.61-6.15,16.16-8.67l.12-.04c18.42-8.35,38.09-12.58,58.47-12.58,1.56,0,3.16,.03,4.92,.08,17.46,.6,34.4,4.33,50.34,11.09,6.95,2.94,13.78,6.51,20.28,10.61,3.76,2.37,7.48,4.97,11.06,7.74,23.41,18.09,40.35,42.5,48.97,70.6,4.14,13.48,6.23,27.5,6.23,41.68h0c0,78.2-63.61,141.81-141.8,141.81ZM155.57,217.16c-20.94,13.06-38.16,31.45-49.8,53.2-10.84,20.27-16.57,43.21-16.57,66.33,0,77.64,63.16,140.8,140.8,140.8s140.8-63.16,140.8-140.8h0c0-14.09-2.08-28.01-6.19-41.39-8.57-27.9-25.38-52.14-48.63-70.1-3.55-2.75-7.25-5.33-10.98-7.68-6.46-4.07-13.24-7.61-20.14-10.53-15.83-6.71-32.65-10.41-49.98-11.01-1.74-.05-3.34-.08-4.88-.08-20.27,0-39.84,4.22-58.15,12.54l-.12,.04c-5.49,2.5-10.86,5.38-15.97,8.57l-.11,.11h-.08Z" fill="#002346"></path>
    </g>
    <g>
      <path d="M297.46,233.13c4.74,9.76-4.49,13.89-10.98,15.54-3.3,.84-6.8,.05-9.46-2.07h0c-2.42-1.92-3.92-4.77-4.14-7.85l-.58-8.27c.09-4.06,3.41-6.3,5.62-7.34,1.82-.86,3.47-2.06,4.68-3.67,3.44-4.56,3.38-9.32,2.46-12.95,7.05,2.98,13.8,6.53,20.21,10.57-13.24,6.62-7.81,16.03-7.81,16.03h0Z" fill="#d21b27"></path>
      <path d="M283.86,249.49c-2.56,0-5.1-.87-7.15-2.5-2.52-2-4.1-4.99-4.33-8.21l-.58-8.27c.1-4.44,3.74-6.81,5.91-7.83,1.9-.9,3.42-2.08,4.49-3.52,2.76-3.65,3.55-7.87,2.38-12.53l-.25-.98,.93,.39c6.96,2.94,13.78,6.51,20.28,10.61l.75,.47-.79,.4c-4.49,2.25-7.27,5.04-8.25,8.31-1.15,3.84,.63,6.99,.65,7.03l.07,.15c1.52,3.19,1.71,6.06,.56,8.54-1.99,4.28-7.58,6.5-11.92,7.6-.9,.23-1.82,.34-2.74,.34Zm1.9-42.13c.9,4.54-.05,8.81-2.76,12.41-1.18,1.57-2.81,2.85-4.87,3.82-1.96,.92-5.25,3.04-5.33,6.9l.58,8.22c.21,2.94,1.65,5.67,3.95,7.49,2.55,2.03,5.92,2.77,9.03,1.98,4.13-1.05,9.43-3.12,11.26-7.05,1.03-2.22,.83-4.84-.6-7.79l-.04-.08c-.32-.6-1.86-3.81-.68-7.72,1-3.34,3.69-6.2,7.97-8.51-5.95-3.7-12.17-6.95-18.5-9.69Z" fill="#002346"></path>
    </g>
    <g>
      <path d="M365.09,295.16c-4.21,1.42-9.38,.78-9.38,.78-6.24,1.01-10.3,4.89-10.3,4.89-11.52,12.39-35.11-9.45-35.11-9.45-19.24-19.75-9.45-35.61-9.45-35.61,4.56-10.3,4.43-15.53,4.43-15.53,.2-11.64,11.02-15.43,11.02-15.43,22.83,17.64,40.13,42.11,48.8,70.35h0Z" fill="#d21b27"></path>
      <path d="M336.35,305.18c-11.7,0-25.63-12.74-26.39-13.44-19.31-19.82-9.64-36.08-9.54-36.24,4.43-10.02,4.36-15.2,4.36-15.25,.2-11.87,11.24-15.88,11.36-15.91l.26-.09,.21,.17c23.41,18.09,40.35,42.5,48.97,70.6l.2,.65h-.61c-4.03,1.33-8.78,.86-9.45,.78-5.96,.99-9.93,4.71-9.97,4.75-2.67,2.88-5.94,3.99-9.41,3.99Zm-20.13-79.81c-1.59,.65-10.26,4.7-10.44,14.87,0,.2,.08,5.44-4.47,15.72-.13,.22-9.37,15.84,9.35,35.06,.21,.2,23.34,21.34,34.38,9.46,.19-.18,4.27-4.02,10.59-5.04h.07s.07,0,.07,0c.05,0,4.74,.56,8.7-.61-8.58-27.61-25.26-51.61-48.26-69.45Z" fill="#002346"></path>
    </g>
    <g>
      <path d="M234.9,195.48c-5.33,8.67-18.06,7.97-18.06,7.97-7.22,.31-7.53,8.32-7.53,8.32-.32,11.92-4.55,11.77-4.55,11.77-5.81,.94-10.2-6.28-10.2-6.28-8.45-11.52-22.33-9.38-22.92-9.28,17.79-8.08,37.55-12.58,58.36-12.58,1.64,0,3.27,.03,4.9,.08Z" fill="#d21b27"></path>
      <path d="M203.62,224.13c-5.4,0-9.32-6.32-9.49-6.61-8.29-11.3-21.84-9.15-22.41-9.05l-3.8,.64,3.51-1.59c18.44-8.38,38.15-12.62,58.57-12.62,1.54,0,3.15,.03,4.92,.08l.86,.03-.45,.74c-5.42,8.82-17.98,8.24-18.51,8.21-6.62,.29-6.99,7.53-7,7.84-.19,7.12-1.79,10.09-3.1,11.32-1,.94-1.88,.93-1.96,.93-.38,.06-.75,.09-1.12,.09Zm-28.67-16.88c4.85,0,13.82,1.27,20.01,9.71,.07,.1,4.31,6.96,9.72,6.08,.12,0,3.83-.17,4.13-11.29,0-.09,.42-8.48,8.01-8.81,.17,0,11.8,.54,17.17-7-1.41-.04-2.72-.05-3.99-.05-19.29,0-37.94,3.82-55.49,11.36,.14,0,.29,0,.44,0Z" fill="#002346"></path>
    </g>
    <g>
      <path d="M292.97,360.3l-.18,.3c-2.62,4.24-4.73,8.76-6.51,13.41-1.2,3.13-3.82,7.58-9.59,12.34,0,0-7.33,5.43-12.49,17.91l-5.15,10.85s-7.33,12.76-12.75,20.36c0,0-3.53,3.82-2.99,12.49,0,0,1.72,9.49-3.89,7.31,0,0-5.9-.54-9.42-24.15,0,0-1.15-14.93-1.79-26.6,0,0-.64-6.99-7.93-9.31-2.94-.94-6.14-.74-9.02,.39l-2.69,1.06s-7.06,2.44-13.84-3.53l-11.91-12.75s-7.63-8.14-4.64-17.1c0,0,3.25-8.69-1.9-9.5,0,0-6.79,.27-13.57-5.43,0,0-2.99-4.88-21.99-4.61,0,0-26.05,3.8-24.15-22.25,0,0,1.9-15.47-4.88-8.96,0,0-6.79,6.24-8.69-5.97,0,0-2.13-21.02,2.33-36.42h0c11.72-21.92,29.05-40.37,50.06-53.45,0,0,.02,0,.05-.03,.55-.24,5.4-2.18,7.69,3.41,0,0,.54,4.85-9.97,11.32,0,0-5.24,3.5-1.57,6.55,.83,.69,1.87,1.09,2.96,1.2,2.72,.3,9.08,.42,15.59-3.44,0,0,12.4-6.74,20.75-.54,0,0,8.36,6.2-3.5,17.52,0,0-8.09,6.74-13.2,15.63,0,0-10.25,25.6-25.87,23.99,0,0-5.12-1.61-9.16,7.55l-6.47,20.21s-3.23,11.01,8.62,13.05c0,0,14.18,1.99,25.48,7.45,1.37,.66,2.63,1.5,3.84,2.42,3.65,2.77,14.58,9,27.37-3.58,0,0,12.47-18,38.89-12.08,7.83,1.75,15.12,5.36,21.45,10.29l7.51,5.86s9.5,8.65,19.81,3.51c0,0,4.64-2.18,8.42,1.63,0,0,4.88,3.27-1.1,11.68h-.01Z" fill="#d21b27"></path>
      <path d="M240.94,456.1c-.5,0-1.05-.11-1.65-.34-.8-.16-6.43-2.09-9.78-24.56-.02-.18-1.16-15.1-1.79-26.65-.02-.25-.71-6.67-7.58-8.86-2.74-.88-5.83-.74-8.69,.38l-2.69,1.06c-.32,.11-7.43,2.47-14.35-3.62l-11.95-12.78c-.32-.34-7.8-8.46-4.75-17.6,.03-.07,1.88-5.12,.44-7.6-.41-.7-1.05-1.11-1.94-1.25-.19,.02-6.97,.22-13.81-5.54l-.11-.12s-3.22-4.63-21.56-4.37c-.42,.07-11.89,1.65-19.14-5.09-4.23-3.94-6.09-9.89-5.52-17.7,.42-3.42,.47-9.11-1.16-9.93-.79-.4-2,.52-2.88,1.36-.12,.11-2.7,2.44-5.31,1.52-2.11-.74-3.54-3.36-4.22-7.78-.02-.24-2.09-21.32,2.34-36.64l.04-.1c11.73-21.93,29.1-40.48,50.24-53.64l.14-.08c.48-.21,2.66-1.03,4.84-.15,1.52,.62,2.69,1.91,3.48,3.84l.03,.13c.02,.21,.45,5.24-10.21,11.8,0,0-2.54,1.72-2.63,3.62-.04,.77,.33,1.46,1.12,2.12,.73,.61,1.66,.98,2.69,1.09,2.44,.27,8.79,.48,15.29-3.37,.53-.29,12.79-6.83,21.3-.51,.11,.08,2.81,2.12,3.05,6,.24,3.81-1.95,7.94-6.5,12.28-.11,.09-8.11,6.81-13.11,15.52-.38,.96-9.91,24.31-24.87,24.32-.49,0-.99-.02-1.49-.08l-.1-.02c-.19-.06-4.77-1.31-8.55,7.27l-6.45,20.16s-1.29,4.57,.95,8.17c1.39,2.22,3.84,3.65,7.28,4.24,.13,.02,14.37,2.06,25.61,7.49,1.26,.6,2.5,1.39,3.93,2.47,3.92,2.98,14.38,8.6,26.72-3.54,.07-.11,12.9-18.14,39.35-12.21,7.63,1.71,15.12,5.3,21.65,10.38l7.51,5.86c.12,.11,9.4,8.38,19.28,3.46,.06-.03,5.02-2.29,9,1.73t0,0s1.49,1.03,1.91,3.32c.47,2.55-.53,5.58-2.96,9h0s-.17,.28-.17,.28c-2.42,3.92-4.54,8.28-6.47,13.33-1.15,3.01-3.78,7.63-9.74,12.55-.09,.07-7.31,5.53-12.35,17.72l-5.16,10.87c-.09,.16-7.42,12.9-12.79,20.44-.07,.08-3.42,3.85-2.9,12.17,.1,.54,.98,5.8-1.19,7.59-.47,.39-1.03,.58-1.68,.58Zm-24.54-61.98c1.38,0,2.74,.21,4.04,.62,7.52,2.39,8.27,9.67,8.28,9.74,.63,11.55,1.78,26.46,1.79,26.61,3.37,22.6,8.93,23.68,8.98,23.69l.12,.03c1.06,.41,1.84,.39,2.38-.06,1.46-1.2,1.1-5.24,.84-6.7-.55-8.84,2.96-12.76,3.12-12.92,5.3-7.44,12.61-20.14,12.68-20.27l5.13-10.81c5.14-12.44,12.34-17.87,12.64-18.1,5.77-4.76,8.31-9.22,9.42-12.12,1.96-5.11,4.1-9.53,6.55-13.49l.25-.39c2.18-3.08,3.15-5.91,2.75-8.15-.34-1.9-1.52-2.74-1.57-2.77-3.55-3.57-7.75-1.67-7.93-1.59-10.49,5.23-20.26-3.5-20.36-3.59l-7.48-5.84c-6.42-5-13.76-8.52-21.25-10.2-25.79-5.78-38.25,11.7-38.37,11.88-12.95,12.75-23.95,6.83-28.08,3.69-1.37-1.04-2.56-1.79-3.75-2.37-11.1-5.36-25.19-7.39-25.33-7.41-3.75-.65-6.43-2.23-7.97-4.7-2.48-3.98-1.12-8.78-1.06-8.98l6.47-20.22c4.02-9.11,9.11-8.06,9.73-7.89,15.03,1.51,25.21-23.43,25.31-23.68,5.13-8.93,13.26-15.76,13.34-15.83,4.29-4.1,6.38-7.96,6.17-11.45-.2-3.41-2.62-5.26-2.65-5.28-7.99-5.94-20.09,.51-20.21,.58-6.73,3.99-13.35,3.78-15.88,3.5-1.22-.12-2.34-.58-3.22-1.31-1.04-.86-1.54-1.85-1.48-2.94,.12-2.4,2.97-4.33,3.09-4.41,9.42-5.8,9.75-10.24,9.75-10.8-.68-1.63-1.66-2.71-2.9-3.21-1.74-.7-3.51-.09-4.01,.11l-.16,.09c-20.93,13.06-38.14,31.44-49.77,53.16-4.36,15.13-2.32,35.97-2.3,36.18,.61,3.94,1.85,6.36,3.56,6.96,2.04,.72,4.28-1.29,4.3-1.31,1.62-1.56,2.94-2.06,4.01-1.53,2.79,1.4,1.83,9.95,1.71,10.92-.54,7.46,1.21,13.14,5.2,16.86,6.89,6.41,18.27,4.85,18.38,4.83,18.09-.26,21.94,4.09,22.43,4.76,6.54,5.47,13.12,5.28,13.18,5.27,1.29,.19,2.19,.78,2.75,1.74,1.68,2.88-.28,8.21-.36,8.43-2.85,8.55,4.46,16.5,4.54,16.58l11.91,12.75c6.43,5.66,13.24,3.42,13.31,3.4l2.67-1.05c1.73-.68,3.54-1.02,5.32-1.02Z" fill="#002346"></path>
    </g>
    <g>
      <path d="M640.85,400.77l12,143.63s1.11,24.17-17.5,36.4c-7.43,4.88-16.49,6.56-25.27,5.16-7.75-1.24-18.89-4.6-31.77-13.21-8.01-5.36-15.19-11.87-21.48-19.18l-123.36-144.4c-4.9-5.73-10.34-11.02-16.47-15.41-12.99-9.32-13.6-28.56-13.28-36.27,.09-2.16-1.08-4.17-3-5.16-3.7-1.91-10.49-4.81-19.91-6.41,0,0-15.88-1.88-19.27-11.31-.88-2.44,.88-5.06,3.47-5.27s6.58,.17,12.96,2.05c2,.59,4.02,1.11,6.06,1.55l22.29,4.83s-7.88-10.68-17.85-15.96c-2.98-1.58-6.31-2.36-9.69-2.47-6.39-.22-20.43-1.9-21.13-12.51,0,0,.18-3.26,7.78-2.89l16.83,1.63s11.48,1.31,27.31,14.07c.37,.3,.91,.27,1.24-.07h0c.39-.41,.33-1.07-.14-1.39-2.54-1.77-9.98-7.25-14.87-14.08-1.24-1.73-3.22-2.78-5.34-2.92l-19.33-1.26s-17.53-3.22-13.69-13.69c.49-1.32,1.84-2.13,3.24-2.02l32.56,2.54s8.82-.27,16.01,9.5c0,0,22.39,31.38,37.04,66.03,0,0,10.03,19.01,25.31,31.74l99.3,75.25s-5.81-73.34,69.94-68.5h.01Z" fill="#f2b3c1"></path>
      <path d="M616.09,586.94c-2.01,0-4.05-.16-6.09-.49-7.25-1.16-18.68-4.41-31.97-13.29-7.82-5.23-15.08-11.72-21.58-19.27l-123.36-144.4c-5.34-6.25-10.7-11.26-16.38-15.33-13.16-9.44-13.82-28.81-13.49-36.7,.08-1.95-.99-3.8-2.73-4.69-3.96-2.04-10.6-4.8-19.76-6.36-.64-.07-16.2-2.02-19.66-11.63-.46-1.29-.3-2.7,.45-3.86,.77-1.2,2.03-1.96,3.45-2.07,3.19-.26,7.61,.44,13.14,2.07,2.02,.6,4.05,1.11,6.02,1.54l20.94,4.54c-2.28-2.83-8.94-10.55-16.84-14.74-2.8-1.49-5.99-2.3-9.47-2.41-6.25-.21-20.88-1.91-21.61-12.98,0-.21,.3-3.81,8.3-3.42l16.85,1.63c.48,.06,11.81,1.47,27.58,14.18,.17,.14,.42,.12,.57-.03,.08-.09,.13-.21,.11-.34,0-.07-.04-.2-.18-.29-2.9-2.02-10.15-7.44-14.99-14.2-1.14-1.59-2.95-2.58-4.97-2.71l-19.33-1.26c-.48-.09-10.49-1.98-13.72-7.64-1.16-2.03-1.3-4.29-.4-6.73,.56-1.51,2.1-2.47,3.75-2.35l32.56,2.54c.33-.01,9.12-.16,16.37,9.7,.23,.32,22.59,31.83,37.1,66.13,.08,.15,10.14,19.03,25.17,31.55l98.43,74.59c-.21-5.79-.18-33.41,17.69-51.56,12.16-12.34,29.92-17.86,52.83-16.4l.43,.03,.05,.43,12,143.63c.01,.26,.91,24.62-17.72,36.86-5.73,3.76-12.5,5.72-19.54,5.72Zm-249.75-257.15c-.45,0-.88,.02-1.29,.05-1.1,.09-2.08,.68-2.69,1.62-.58,.9-.71,1.99-.35,2.98,3.25,9.03,18.7,10.96,18.86,10.98,9.32,1.58,16.06,4.39,20.08,6.46,2.08,1.07,3.37,3.28,3.27,5.63-.32,7.73,.31,26.69,13.07,35.84,5.75,4.11,11.16,9.18,16.56,15.49l123.36,144.4c6.44,7.48,13.63,13.91,21.38,19.09,13.13,8.78,24.42,11.99,31.57,13.13,8.91,1.42,17.76-.38,24.92-5.08,18.16-11.94,17.29-35.72,17.28-35.96l-11.96-143.18c-22.41-1.35-39.76,4.08-51.63,16.12-19.64,19.93-17.39,51.55-17.36,51.87l.09,1.11-100.19-75.92c-15.2-12.66-25.35-31.71-25.45-31.9-14.48-34.24-36.78-65.66-37-65.97-6.95-9.44-15.52-9.31-15.59-9.29l-32.61-2.54c-1.21-.1-2.33,.6-2.73,1.7-.78,2.14-.67,4.12,.33,5.88,3,5.25,12.88,7.12,12.98,7.14l19.27,1.25c2.32,.15,4.4,1.29,5.71,3.13,4.75,6.63,11.9,11.97,14.75,13.96,.34,.23,.56,.6,.6,1.01,.04,.42-.1,.83-.39,1.14-.51,.52-1.35,.57-1.92,.11-15.51-12.5-26.94-13.95-27.05-13.96l-16.82-1.63c-6.89-.33-7.23,2.4-7.23,2.43,.68,10.18,14.67,11.77,20.65,11.97,3.63,.12,6.97,.97,9.91,2.53,9.96,5.27,17.94,16,18.02,16.1l.79,1.07-23.58-5.11c-2-.43-4.05-.96-6.1-1.56-4.69-1.38-8.55-2.08-11.49-2.08Z" fill="#002346"></path>
    </g>
    <g>
      <path d="M143.47,587.93s90.66,13.04,171.01-3.64l2.1,8.49s2.99,9.32-5.7,11.76c0,0-40.98,13.94-165.24,3.12,0,0-4.69-.7-4.69-9.63v-5.46c0-1.88,.95-3.62,2.52-4.64h0Z" fill="#002346"></path>
      <path d="M230.8,612.24c-22.62,0-50.74-1.08-85.21-4.08-.24-.04-5.14-.88-5.14-10.13v-5.46c0-2.05,1.03-3.95,2.75-5.06l.16-.1,.19,.03c.9,.13,91.49,12.83,170.83-3.63l.47-.1,2.21,8.96c.05,.15,1.43,4.58-.55,8.26-1.07,2-2.92,3.38-5.5,4.1-.28,.09-22.15,7.22-80.21,7.22h0Zm-87.21-23.8c-1.35,.94-2.14,2.47-2.14,4.12v5.46c0,8.33,4.09,9.11,4.27,9.14,122.71,10.68,164.6-2.96,165-3.1,2.33-.66,3.97-1.87,4.92-3.62,1.78-3.31,.48-7.48,.47-7.52l-1.99-8.05c-77.64,16-165.79,4.23-170.52,3.57h-.01Z" fill="#002346"></path>
    </g>
    <g opacity=".4">
      <circle cx="459.76" cy="176.38" r="24.71" fill="#fff"></circle>
    </g>
    <g opacity=".4">
      <ellipse cx="401.34" cy="169.97" rx="22.87" ry="23.86" fill="#fff"></ellipse>
    </g>
    <path d="M459.76,201.59c-13.9,0-25.21-11.31-25.21-25.21s11.31-25.21,25.21-25.21,25.21,11.31,25.21,25.21-11.31,25.21-25.21,25.21Zm0-49.41c-13.35,0-24.21,10.86-24.21,24.21s10.86,24.21,24.21,24.21,24.21-10.86,24.21-24.21-10.86-24.21-24.21-24.21Z" fill="#002346"></path>
    <path d="M401.34,194.32c-12.89,0-23.37-10.93-23.37-24.36s10.49-24.36,23.37-24.36,23.37,10.93,23.37,24.36-10.49,24.36-23.37,24.36Zm0-47.71c-12.34,0-22.37,10.48-22.37,23.36s10.04,23.36,22.37,23.36,22.37-10.48,22.37-23.36-10.04-23.36-22.37-23.36Z" fill="#002346"></path>
    <g>
      <ellipse cx="437.94" cy="109.62" rx="44.5" ry="19.5" fill="#002346"></ellipse>
      <path d="M437.94,129.62c-24.81,0-45-8.97-45-20s20.19-20,45-20,45,8.97,45,20-20.19,20-45,20Zm0-39c-24.26,0-44,8.52-44,19s19.74,19,44,19,44-8.52,44-19-19.74-19-44-19Z" fill="#002346"></path>
    </g>
  </g>
  <g>
    <g>
      <path d="M750.06,526.7s17.41-14.65,37.18-.39c0,0,12.41,9.65,4.14,17.93,0,0-8.74,5.98-21.61-4.14,0,0-13.68-11.17-19.71-13.4Z" fill="#7cd295"></path>
      <path d="M784.39,546.42c-3.83,0-8.96-1.28-14.91-5.95-.14-.12-13.7-11.15-19.59-13.33l-.75-.28,.61-.51c.18-.15,17.92-14.71,37.75-.41,.29,.22,6.78,5.34,7.16,11.46,.16,2.63-.83,5.04-2.96,7.17-.08,.06-2.79,1.85-7.32,1.85Zm-33.41-19.84c6.32,2.78,18.54,12.72,19.08,13.16,12.45,9.79,20.97,4.17,21.05,4.11,1.87-1.88,2.77-4.05,2.63-6.4-.35-5.7-6.72-10.73-6.79-10.78-17.16-12.37-32.7-2.47-35.97-.1Z" fill="#002346"></path>
    </g>
    <g>
      <path d="M730.81,519.54s19.2-26.8,7.7-53c0,0-12.87-25.75,2.3-33.56,0,0,18.85-7.82,28.96,19.77,0,0,13.56,40.26-38.97,66.8Z" fill="#7cd295"></path>
      <path d="M729.33,520.81l1.1-1.54c.19-.27,18.91-26.89,7.65-52.55-.12-.24-12.89-26.23,2.51-34.16,.3-.13,6.67-2.7,14.09,.56,6.63,2.9,11.85,9.45,15.52,19.47,.04,.11,3.4,10.36,.23,23.71-2.92,12.31-12.13,29.87-39.42,43.65l-1.69,.85Zm17.58-88.38c-3.49,0-5.89,.97-5.92,.98-14.55,7.5-2.19,32.67-2.06,32.93,9.94,22.66-2.99,45.97-6.77,51.99,25.74-13.48,34.54-30.33,37.36-42.19,3.12-13.11-.16-23.14-.19-23.24-3.58-9.75-8.63-16.12-15.02-18.92-2.69-1.18-5.26-1.55-7.41-1.55Z" fill="#002346"></path>
    </g>
    <g>
      <path d="M682.01,442.31c-4.77,2.35-7.9,7.18-7.82,12.5,.1,6.64,4.17,15.78,23.4,20.92,0,0,22.56,5.59,25.07,22.33,0,0,6.22-20.75-4.39-40.57-4.07-7.59-10.83-13.46-19.07-15.96-5.18-1.57-11.35-2.11-17.19,.77Z" fill="#7cd295"></path>
      <path d="M722.51,500.19l-.31-2.05c-2.44-16.24-24.5-21.9-24.72-21.95-19.45-5.21-23.65-14.49-23.75-21.37-.08-5.39,3.09-10.46,8.08-12.92h0c5.1-2.51,11-2.78,17.53-.8,8.22,2.49,15.09,8.24,19.35,16.19,10.58,19.76,4.49,40.71,4.42,40.92l-.6,1.98Zm-31.42-59.47c-3.19,0-6.15,.67-8.87,2.01h0c-4.67,2.3-7.63,7.04-7.56,12.07,.1,6.56,4.17,15.43,23.06,20.48,.21,.05,21.02,5.38,24.99,20.66,1.21-5.64,3.67-22.33-4.84-38.22-4.14-7.73-10.81-13.32-18.8-15.74-2.79-.85-5.45-1.27-7.98-1.27Z" fill="#002346"></path>
    </g>
    <g>
      <path d="M680.94,511.25c1.16,2.21,3.3,4.66,7,7.25,0,0,14.52,8.42,18.29,20.3,0,0-.36-19.38-11.4-34.09,0,0-.96-1.81-2.93-3.23-6.5-4.68-14.69,2.68-10.97,9.77Z" fill="#7cd295"></path>
      <path d="M706.75,541.97l-.97-3.04c-3.68-11.57-17.94-19.96-18.08-20.04-3.44-2.41-5.85-4.9-7.18-7.43h0c-2.08-3.96-.57-7.85,1.84-9.94,2.86-2.49,6.71-2.65,9.81-.42,2.03,1.46,3.02,3.31,3.06,3.39,10.96,14.6,11.45,34.1,11.45,34.3l.06,3.19Zm-19.19-41.51c-1.83,0-3.46,.78-4.59,1.75-1.98,1.72-3.6,5.06-1.63,8.81h0c1.26,2.4,3.56,4.78,6.85,7.08,.52,.3,12.48,7.33,17.35,17.7-.59-5.98-2.83-19.81-11.09-30.84-.05-.08-.98-1.8-2.83-3.13-1.38-.99-2.77-1.38-4.07-1.38Z" fill="#002346"></path>
    </g>
    <g>
      <polygon points="698.51 557.12 700.96 605.16 741.73 605.16 744.49 557.58 698.51 557.12" fill="#fff"></polygon>
      <path d="M741.73,605.63h-40.77c-.25,0-.45-.19-.46-.44l-2.44-48.04c0-.13,.04-.25,.13-.34,.09-.09,.2-.15,.34-.14l45.98,.46c.13,0,.25,.05,.33,.15,.09,.09,.13,.22,.12,.34l-2.76,47.59c-.01,.25-.22,.44-.46,.44Zm-40.33-.93h39.89l2.71-46.66-45-.45,2.4,47.11Z" fill="#002346"></path>
    </g>
    <path d="M730.24,557.35s-.02,0-.04,0c-.26-.02-.45-.24-.43-.5,.01-.19,1.59-19.16,14.63-27.99,7.73-5.23,17.85-5.93,30.1-2.08,.24,.08,.38,.34,.3,.58s-.33,.38-.58,.3c-11.96-3.76-21.82-3.1-29.3,1.96-12.67,8.58-14.22,27.11-14.23,27.29-.02,.24-.22,.43-.46,.43Z" fill="#002346"></path>
    <path d="M723.16,557.03c-.2,0-.39-.13-.45-.34-7.23-25.83,10.27-40.8,13.85-43.54,1.07-.82,2.32-1.79,3.53-2.83,31.77-27.34,13.39-57.95,13.2-58.25-.13-.22-.07-.5,.15-.64,.22-.14,.5-.07,.64,.15,.19,.31,18.99,31.58-13.38,59.44-1.22,1.05-2.49,2.04-3.57,2.86-3.5,2.67-20.58,17.3-13.52,42.55,.07,.25-.08,.5-.32,.57-.04,.01-.08,.02-.13,.02Z" fill="#002346"></path>
    <path d="M719.85,557.37c-.16,0-.31-.08-.39-.22-11.24-18.11-2.86-41.17-.02-47.81,.71-1.67,1.22-3.07,1.59-4.39,7.89-28.42-16.09-45.67-16.34-45.84-.21-.15-.26-.44-.11-.65,.15-.21,.44-.26,.65-.11,.25,.17,24.77,17.78,16.7,46.85-.38,1.37-.9,2.8-1.63,4.51-2.79,6.53-11.04,29.23-.04,46.96,.14,.22,.07,.5-.15,.64-.08,.05-.16,.07-.24,.07Z" fill="#002346"></path>
    <path d="M708.03,557.08s-.01,0-.02,0c-.26-.01-.46-.23-.44-.48,1.22-30.19-16.49-42.2-16.67-42.32-.21-.14-.27-.43-.13-.64,.14-.21,.43-.27,.64-.13,.18,.12,18.33,12.39,17.08,43.13-.01,.25-.22,.45-.46,.45Z" fill="#002346"></path>
  </g>
</svg>
