<svg xmlns="http://www.w3.org/2000/svg" data-name="Layer 1" viewBox="0 0 512 512" id="lord-narasimha"><path fill="#fed2a4" d="m420.18 444.958 72.293-70.688a30 30 0 0 0 8.607-26.448L482.95 240.8l-35.386 3.005.126 87.276a10 10 0 0 1-3.009 7.165l-49.775 48.669Z"></path><path fill="#ffbd86" d="M435.984 411.55a59.979 59.979 0 0 0-20.285-44.967l-20.794 20.332 25.274 58.043 15.805-15.454Z"></path><path fill="#ffbd86" d="M501.08 347.822 482.95 240.8l-13.802 1.172 17.933 105.85a30 30 0 0 1-8.607 26.448l-62.475 61.087 4.181 9.6 72.294-70.687a30 30 0 0 0 8.607-26.448Z"></path><path fill="#fee903" d="M487.494 267.407h-39.897l.04 27.651h44.529l-4.672-27.651z"></path><path fill="#fac600" d="M487.457 267.407h-14l4.684 27.651h14l-4.684-27.651z"></path><rect width="23.453" height="77.392" x="436.476" y="334.797" fill="#fee903" rx="11.727" transform="rotate(-36.117 448.202 373.494)"></rect><path fill="#fac600" d="m473.572 388.368-31.793-43.573a11.727 11.727 0 0 0-16.385-2.56c-.03.02-.054.044-.082.066a11.728 11.728 0 0 1 2.467 2.494l31.793 43.573a11.724 11.724 0 0 1-2.479 16.319 11.728 11.728 0 0 0 16.479-16.32Z"></path><path fill="#fed2a4" d="M91.821 444.958 19.527 374.27a30 30 0 0 1-8.607-26.448l18.528-109.505 34.774 17.393.09 75.371a10 10 0 0 0 3.008 7.165l49.775 48.669Z"></path><path fill="#ffbd86" d="m91.82 444.958 25.275-58.043-20.294-19.844a59.978 59.978 0 0 0-20.785 45.405v17.028Z"></path><path fill="#fed2a4" d="m64.222 255.71.019-12.732.162-13.412a88.46 88.46 0 0 0-3.37-16.954 88.44 88.44 0 0 0-5.53-13.888l-8.876-23.992H38.13v13.995a5.019 5.019 0 0 1-4.094 4.915 20.71 20.71 0 0 0-7.132 2.789c-9.085 5.733-11.83 17.964-9.91 27.3 2.127 10.342 10.315 18.726 21.069 21.84Z"></path><path fill="#ffbd86" d="M67.32 338.246a10 10 0 0 1-3.009-7.165l-.089-75.371.019-12.732.162-13.412a88.46 88.46 0 0 0-3.37-16.954 88.461 88.461 0 0 0-5.53-13.888l-8.876-23.992h-8.498v13.995a4.926 4.926 0 0 1-.063.707l3.438 9.29a88.461 88.461 0 0 1 5.529 13.888 88.46 88.46 0 0 1 3.37 16.954l-.162 13.412-.019 12.732.089 75.371a10 10 0 0 0 3.009 7.165l49.775 48.669-21.094 48.442 9.82 9.6 25.274-58.042Z"></path><path fill="#fee903" d="M19.848 295.058h44.421l-.033-27.651h-39.71l-4.678 27.651z"></path><path fill="#fac600" d="m64.269 295.058-.002-1.489-.031-26.162h-14l.033 27.651h14z"></path><rect width="23.453" height="77.392" x="52.071" y="334.797" fill="#fee903" rx="11.727" transform="rotate(-143.883 63.798 373.494)"></rect><path fill="#fac600" d="M86.607 342.234a11.727 11.727 0 0 0-16.386 2.561l-1.823 2.5a11.688 11.688 0 0 1 4.208 1.94 11.727 11.727 0 0 1 2.562 16.384l-29.97 41.074a11.73 11.73 0 0 0 12.176-4.5l31.793-43.574a11.727 11.727 0 0 0-2.56-16.385Z"></path><path fill="#e5e1e5" d="M430.58 200.393c11.584 8.041 20.749 2.134 35.82 8.218 9.68 3.906 17.018 10.828 22.651 18.632 10.195-29.539 1.462-60.011-19.546-74.415-17.265-11.837-37.068-8.877-42.705-7.83-1.488 1.63-13.54 15.277-10 33.364.47 2.403 3.123 14.632 13.78 22.03Z"></path><path fill="#efedef" d="M469.505 152.828a50.406 50.406 0 0 0-18.966-7.827l-6.794 18.033a115.608 115.608 0 0 1 45.306 64.209c10.195-29.539 1.462-60.011-19.546-74.415Z"></path><path fill="#baafb9" d="M426.8 144.998c-1.282 1.404-10.392 11.727-10.635 26.119a30.666 30.666 0 0 0 24.698-5.604 32.93 32.93 0 0 0 6.28-6.38 35.826 35.826 0 0 0 6.224-13.505 63.66 63.66 0 0 0-26.567-.63Z"></path><path fill="#fed2a4" d="m476.703 246.397 6.472-3.076 5.637-5.276a27.485 27.485 0 0 0 7.013-29.563 22.092 22.092 0 0 0-21.362-14.45l-8.594.244a12 12 0 0 0-9.237 19.223 4.744 4.744 0 0 1-1.593 7.064l-.933.486a13.415 13.415 0 0 0-7.183 12.75l.64 10.006.018 12.732Z"></path><path fill="#ffbd86" d="m470.604 248.52 6.1-2.123 6.47-3.076 5.638-5.276a27.485 27.485 0 0 0 7.13-29.237 22.47 22.47 0 0 0-21.889-14.765l-8.184.233c-.357.01-.706.04-1.052.078a22.082 22.082 0 0 1 17.008 14.128 27.485 27.485 0 0 1-7.013 29.563l-1.7 1.59a8.929 8.929 0 0 0-2.508 8.886Z"></path><path fill="#fed2a4" d="M418.484 512v-86.45a60 60 0 0 0-42.85-57.497l-64.565-19.259a20 20 0 0 1-14.283-19.166v-19.602h-74.572v19.603a20 20 0 0 1-14.283 19.165l-64.565 19.259a60 60 0 0 0-42.85 57.497V512Z"></path><path fill="#ffbd86" d="m356.825 355.082-20.285-6.05a6 6 0 0 0-7.715 5.75V512h28V355.082Z"></path><path fill="#fee903" d="m173.525 367.033.006.077v26.117a80.354 80.354 0 0 0 41.442 70.29l44.188 24.447 44.187-24.448a80.354 80.354 0 0 0 41.443-70.29V367.11l.319-1.06.034-.092-34.075-10.164a20.002 20.002 0 0 1-2.505-.95c-.01.046-.022.09-.03.136l-.096 1.287v36.96a43.979 43.979 0 0 1-22.687 38.482l-26.59 14.711-26.59-14.711a43.98 43.98 0 0 1-22.688-38.482v-36.96l-.01-.077c-.148-.308-.306-.605-.462-.904-.484.186-.977.358-1.48.508l-34.669 10.341c.088.3.165.599.263.898Z"></path><path fill="#fac600" d="M311.07 355.794a19.999 19.999 0 0 1-2.506-.95c-.01.046-.022.09-.03.136l-.096 1.287v2.918l22.706 6.773c-.012.03-.022.061-.035.091l-.318 1.061v26.117a80.354 80.354 0 0 1-41.443 70.29l-37.187 20.575 7 3.872 44.187-24.448a80.354 80.354 0 0 0 41.443-70.29V367.11l.318-1.06c.013-.031.023-.061.035-.092zm-115.187 37.433a43.979 43.979 0 0 0 22.688 38.482l25.217 13.918a17.592 17.592 0 0 0 15.373.793l-26.59-14.711a43.978 43.978 0 0 1-22.688-38.482v-36.96l-.01-.077c-.148-.308-.307-.605-.462-.904-.484.186-.977.358-1.48.508l-12.048 3.594z"></path><path fill="#fee903" d="M428.984 502v-83.45a60 60 0 0 0-42.85-57.497l-40.301-12.021a6 6 0 0 0-7.715 5.75V512h80.866a10 10 0 0 0 10-10Z"></path><path fill="#fac600" d="m386.134 361.053-40.301-12.021a6 6 0 0 0-7.715 5.75v3.124l34.016 10.147a60 60 0 0 1 42.85 57.497V512h4a10 10 0 0 0 10-10v-83.45a60 60 0 0 0-42.85-57.497Z"></path><path fill="#fd6930" d="m366.118 355.082-20.285-6.05a6 6 0 0 0-7.715 5.75V512h28V355.082Z"></path><path fill="#fd5426" d="m366.118 355.082-20.285-6.05a6 6 0 0 0-7.715 5.75v3.124l28 8.352Z"></path><path fill="#fee903" d="M83.016 502v-82.524a60 60 0 0 1 43.986-57.823l46.279-12.818a6 6 0 0 1 7.601 5.783V512H93.016a10 10 0 0 1-10-10Z"></path><path fill="#fd6930" d="M180.882 512V354.618a6 6 0 0 0-7.601-5.783l-19.524 5.408-.875.84V512Z"></path><path fill="#aa6a51" d="M321.143 378.826c5.833-2.54 19.143-9.243 27.916-23.184a51.43 51.43 0 0 0 7.152-35.416h.115c3.925-3.452 16.954-15.78 18.878-35.242.472-4.78 4.34-30.47-14.429-46.356-15.594-13.2-29.027-10.224-38.652-9.502l-132.987-.003c-40.125-2.251-53.925 31.608-52.934 55.86.768 18.78 14.697 31.65 18.878 35.243h.115a51.43 51.43 0 0 0 7.152 35.416c8.741 13.89 21.982 20.593 27.848 23.153a23.064 23.064 0 0 0 3.162 8.58c10.718 17.234 39.991 13.04 54.8 33.22a37.444 37.444 0 0 1 4.674 8.494 2.998 2.998 0 0 0 5.596 0 37.434 37.434 0 0 1 4.675-8.495c14.808-20.18 44.081-15.985 54.799-33.218Z"></path><path fill="#935b44" d="M199.29 393.802c6.928 5.294 16.564 7.688 25.986 11.24-7.94-5.513-17.42-8.125-25.985-11.24zm161.485-155.174a42.254 42.254 0 0 0-16.496-8.984c.826.62 1.657 1.274 2.496 1.984 18.768 15.887 14.901 41.575 14.429 46.356-1.924 19.463-14.953 31.79-18.878 35.242h-.115a51.43 51.43 0 0 1-7.152 35.416c-8.773 13.941-22.083 20.644-27.916 23.184l-3.242 8.55c-10.718 17.233-39.991 13.038-54.8 33.218a37.126 37.126 0 0 0-2.88 4.612c.666.76 1.318 1.546 1.935 2.388a37.444 37.444 0 0 1 4.675 8.495 2.998 2.998 0 0 0 5.596 0 37.434 37.434 0 0 1 4.675-8.495c14.808-20.18 44.081-15.985 54.799-33.218l3.242-8.55c5.833-2.54 19.143-9.243 27.916-23.184a51.43 51.43 0 0 0 7.152-35.416h.115c3.925-3.452 16.954-15.78 18.878-35.242.472-4.78 4.34-30.47-14.429-46.356z"></path><path fill="#fee903" d="m278.547 493.433-15.343 16.925a5 5 0 0 1-7.409 0l-15.342-16.925a5 5 0 0 1 0-6.716l15.342-16.925a5 5 0 0 1 7.41 0l15.342 16.925a5 5 0 0 1 0 6.716Z"></path><path fill="#fac600" d="m278.547 486.717-15.342-16.925a5 5 0 0 0-7.41 0l-3.295 3.636a24.787 24.787 0 0 1 0 33.295l3.295 3.635a5 5 0 0 0 7.41 0l15.342-16.925a5 5 0 0 0 0-6.716Z"></path><circle cx="259.5" cy="486.575" r="3.5" fill="#fd6930"></circle><circle cx="256" cy="24.503" r="21.003" fill="#fee903"></circle><circle cx="199.445" cy="39.657" r="21.003" fill="#fee903"></circle><circle cx="158.044" cy="81.058" r="21.003" fill="#fee903"></circle><circle cx="142.89" cy="137.613" r="21.003" fill="#fee903"></circle><circle cx="158.044" cy="194.168" r="21.003" fill="#fee903"></circle><circle cx="353.956" cy="194.168" r="21.003" fill="#fee903"></circle><circle cx="369.11" cy="137.613" r="21.003" fill="#fee903"></circle><circle cx="353.956" cy="81.058" r="21.003" fill="#fee903"></circle><circle cx="312.555" cy="39.657" r="21.003" fill="#fee903"></circle><path fill="#fac600" d="M176.232 183.667a20.938 20.938 0 0 0-32.575-4.778 113.138 113.138 0 0 0 21.751 34.925 20.882 20.882 0 0 0 10.824-30.147zm-38.519-25.72a21.003 21.003 0 1 0 0-40.667 114.114 114.114 0 0 0 0 40.667zm38.52-66.388a20.882 20.882 0 0 0-10.825-30.147 113.138 113.138 0 0 0-21.751 34.925 20.938 20.938 0 0 0 32.575-4.778zm5.023-41.4a21.003 21.003 0 1 0 36.378-21.004c-.041-.071-.091-.135-.133-.205a112.737 112.737 0 0 0-37.366 18.932 21.138 21.138 0 0 0 1.12 2.276z"></path><path fill="#fee903" d="M256 24.5a113.113 113.113 0 1 0 113.113 113.113A113.113 113.113 0 0 0 256 24.5Zm0 191.226a78.113 78.113 0 1 1 78.113-78.113A78.201 78.201 0 0 1 256 215.726Z"></path><path fill="#fac600" d="M315.25 188.43a78.076 78.076 0 0 1-136.511-62.306 67.907 67.907 0 0 0-12.32 48.264l6.667 40.155a113.731 113.731 0 0 0 16.427 14.58l118.981.003Z"></path><path fill="#fac600" d="M249 59.83a78.642 78.642 0 0 0-7-.33 78.113 78.113 0 1 0 0 156.226c2.36 0 4.692-.124 7-.33a78.096 78.096 0 0 1 0-155.566zm7-35.33c-2.352 0-4.684.08-7 .222a113.108 113.108 0 0 1 0 225.782c2.316.142 4.648.222 7 .222A113.113 113.113 0 1 0 256 24.5z"></path><path fill="#fee903" d="m322.494 229.126-132.987-.003-9.089-54.735a67.974 67.974 0 0 1 40.756-71.023L256 88.5l34.826 14.865a67.974 67.974 0 0 1 40.756 71.023Z"></path><path fill="#fac600" d="M290.826 103.365 256 88.5l-7 2.988 27.826 11.877a67.974 67.974 0 0 1 40.756 71.023l-9.088 54.737h14l9.088-54.737a67.974 67.974 0 0 0-40.756-71.023Z"></path><rect width="70.936" height="27.864" x="220.532" y="97.357" fill="#fac600" rx="13.932"></rect><rect width="70.936" height="27.864" x="220.532" y="90.357" fill="#fee903" rx="13.932"></rect><path fill="#fac600" d="M277.536 90.357h-14a13.932 13.932 0 0 1 0 27.863h14a13.932 13.932 0 0 0 0-27.863zm-14.304-38.182L249 41.448l-14.232 10.727a25.87 25.87 0 0 0-9.328 13.557 77.86 77.86 0 0 1 45.178-4.84c-.057-.11-.107-.222-.166-.33a26.044 26.044 0 0 0-7.22-8.387z"></path><path fill="#fee903" d="M274.754 90.357h-37.508l-2.698-4.979a26.04 26.04 0 0 1 0-24.817 26.04 26.04 0 0 1 7.22-8.386L256 41.448l14.232 10.727a26.04 26.04 0 0 1 7.22 8.386 26.04 26.04 0 0 1 0 24.817Z"></path><path fill="#fac600" d="M273.032 54.596a25.246 25.246 0 0 0-2.827-2.442l-1.138-.857a25.985 25.985 0 0 1 1.385 27.081 9.51 9.51 0 0 1-8.36 4.979h-28.517c.298.683.614 1.36.973 2.021l2.698 4.979h37.508l2.698-4.979a26.076 26.076 0 0 0-4.42-30.782Z"></path><circle cx="256" cy="69.728" r="7.318" fill="#fd4755"></circle><circle cx="210.49" cy="164.006" r="8.752" fill="#fd4755"></circle><circle cx="301.51" cy="164.006" r="8.752" fill="#fd4755"></circle><path fill="#fb2b3a" d="M301.855 155.272a8.745 8.745 0 0 1-6.638 14.444c-.117 0-.23-.013-.346-.017a8.746 8.746 0 1 0 6.984-14.427zm-91.019 0a8.745 8.745 0 0 1-6.639 14.444c-.116 0-.23-.013-.345-.017a8.746 8.746 0 1 0 6.984-14.427z"></path><path fill="#fd4755" d="m275.047 159.358-15.343 16.925a5 5 0 0 1-7.409 0l-15.342-16.925a5 5 0 0 1 0-6.716l15.342-16.925a5 5 0 0 1 7.41 0l15.342 16.925a5 5 0 0 1 0 6.716Z"></path><path fill="#fb2b3a" d="m275.047 152.642-15.342-16.925a4.986 4.986 0 0 0-7.205-.182c.066.065.142.113.205.182a30.2 30.2 0 0 1 0 40.566c-.063.07-.14.117-.205.182a4.986 4.986 0 0 0 7.205-.182l15.342-16.925a5 5 0 0 0 0-6.716Z"></path><path fill="#fed2a4" fill-rule="evenodd" d="M256 333.357h-1.703a66.147 66.147 0 0 1-66.415-66.076V240.59a41.379 41.379 0 0 1 17.329-33.67 48.275 48.275 0 0 1 34.502-8.56L256 200.552l16.287-2.193a48.275 48.275 0 0 1 34.502 8.56 41.376 41.376 0 0 1 17.329 33.668v24.646a68.121 68.121 0 0 1-68.117 68.124Z"></path><path fill="#ffbd86" fill-rule="evenodd" d="M324.118 240.587a41.376 41.376 0 0 0-17.329-33.668 48.252 48.252 0 0 0-13.756-6.815 41.37 41.37 0 0 1 17.085 33.483v24.646a68.122 68.122 0 0 1-68.117 68.124h-1.704a66.836 66.836 0 0 1-22.628-3.919 66.408 66.408 0 0 0 36.628 10.919h1.704a68.122 68.122 0 0 0 68.117-68.124v-24.646Z"></path><path fill="#ffbd86" fill-rule="evenodd" d="M187.882 254.589a41.379 41.379 0 0 1 17.329-33.67 48.276 48.276 0 0 1 34.502-8.56L256 214.552l16.287-2.193a48.275 48.275 0 0 1 34.502 8.56 41.376 41.376 0 0 1 17.329 33.668v10.658-24.658a41.376 41.376 0 0 0-17.329-33.668 48.275 48.275 0 0 0-34.502-8.56L256 200.551l-16.287-2.193a48.276 48.276 0 0 0-34.502 8.56 41.379 41.379 0 0 0-17.329 33.67v26.704-12.704Z"></path><path fill="#7a6d79" d="m267.664 278.984-9.183 13.512a3 3 0 0 1-4.962 0l-9.183-13.512a3 3 0 0 1 2.48-4.687h18.367a3 3 0 0 1 2.481 4.687Z"></path><ellipse cx="44.148" cy="164.173" fill="#fee903" rx="40.648" ry="14.11"></ellipse><path fill="#fac600" d="M68.995 153.01a6.285 6.285 0 0 1 1.8 4.163c0 7.793-18.198 14.11-40.647 14.11a98.112 98.112 0 0 1-24.847-2.947c5.117 5.76 20.573 9.947 38.847 9.947 22.45 0 40.648-6.317 40.648-14.11 0-4.543-6.193-8.582-15.8-11.163Z"></path><path d="M181.793 78.694a3.492 3.492 0 0 0 2.674-1.24l.064-.076a3.457 3.457 0 0 0-.443-4.894 3.542 3.542 0 0 0-4.965.45 3.5 3.5 0 0 0 2.67 5.76Zm119.694 73.045a12.251 12.251 0 1 0 12.252 12.251 12.266 12.266 0 0 0-12.252-12.251Zm0 17.503a5.251 5.251 0 1 1 5.252-5.252 5.258 5.258 0 0 1-5.252 5.252Zm-129.735-79.75a3.497 3.497 0 0 0-4.736 1.44 7.112 7.112 0 0 0-.098.192 3.492 3.492 0 0 0 3.133 5.014 3.545 3.545 0 0 0 3.131-1.892l-3.078-1.666 3.088 1.647a3.5 3.5 0 0 0-1.44-4.736Zm84.225 148.24a3.5 3.5 0 0 0 3.5-3.5v-18.495a3.5 3.5 0 0 0-7 0v18.495a3.5 3.5 0 0 0 3.5 3.5Zm-45.51-85.993a12.251 12.251 0 1 0 12.253 12.251 12.266 12.266 0 0 0-12.252-12.251Zm0 17.503a5.251 5.251 0 1 1 5.253-5.252 5.258 5.258 0 0 1-5.252 5.252Zm51.808-35.89a8.499 8.499 0 0 0-12.594 0l-15.343 16.923a8.469 8.469 0 0 0 0 11.418l15.342 16.925a8.499 8.499 0 0 0 12.594 0l15.343-16.925a8.469 8.469 0 0 0 0-11.417Zm10.157 23.64-15.344 16.925a1.499 1.499 0 0 1-2.222 0l-15.343-16.926a1.494 1.494 0 0 1 0-2.014l15.344-16.925a1.499 1.499 0 0 1 2.222 0l15.343 16.926a1.494 1.494 0 0 1 0 2.013ZM255.977 80.53a10.818 10.818 0 1 0-10.818-10.819 10.83 10.83 0 0 0 10.818 10.819Zm0-14.637a3.818 3.818 0 1 1-3.818 3.818 3.823 3.823 0 0 1 3.818-3.818Zm-96.833 70.651a3.524 3.524 0 0 0 3.497-3.344l-3.493-.23 3.494.206a3.5 3.5 0 0 0-6.988-.41l-.009.203a3.477 3.477 0 0 0 3.358 3.572l.141.003ZM504.51 347.221l-17.375-102.849 4.047-3.787a30.923 30.923 0 0 0 7.905-33.327 25.545 25.545 0 0 0-2.314-4.69c.097-22.046-9.313-41.667-25.315-52.64a52.927 52.927 0 0 0-17-7.616 3.435 3.435 0 0 0-.326-.11c-.087-.02-.173-.02-.26-.033a68.11 68.11 0 0 0-27.734-.626 3.5 3.5 0 0 0-1.943 1.08c-2.472 2.704-14.614 17.166-10.852 36.39.722 3.71 3.957 16.418 15.22 24.237 7.088 4.92 13.556 5.232 19.81 5.534.834.04 1.683.083 2.54.135a15.496 15.496 0 0 0 2.903 6.673 1.244 1.244 0 0 1-.418 1.852l-.931.487a16.925 16.925 0 0 0-9.059 16.076l.63 9.852.13 87.205a6.482 6.482 0 0 1-1.955 4.666l-2.657 2.595a15.206 15.206 0 0 0-20.796 20.333l-10.405 10.17a62.837 62.837 0 0 0-21.247-11.148l-30.586-9.121a55.71 55.71 0 0 0 3.35-26.854c6.776-6.31 17.036-18.614 18.789-36.391l.084-.775c1.63-14.717.226-35.094-15.726-48.597-11.093-9.386-21.213-11.198-29.659-11.13a116.358 116.358 0 0 0 9.096-9.026 24.303 24.303 0 0 0 11.442 2.883 24.646 24.646 0 0 0 6.381-.845 24.499 24.499 0 0 0 6.633-44.447 116.778 116.778 0 0 0 3.049-11.295 24.499 24.499 0 0 0 .035-48.965 115.517 115.517 0 0 0-3.037-11.323 24.496 24.496 0 0 0-24.53-42.374q-3.928-4.34-8.273-8.273a24.48 24.48 0 0 0-42.342-24.522 115.615 115.615 0 0 0-11.359-3.048 24.494 24.494 0 0 0-48.954 0 115.569 115.569 0 0 0-11.357 3.048A24.48 24.48 0 0 0 177.8 51.147q-4.34 3.928-8.272 8.273a24.496 24.496 0 0 0-24.531 42.373 115.606 115.606 0 0 0-3.037 11.324 24.499 24.499 0 0 0 .035 48.965 116.762 116.762 0 0 0 3.049 11.294 24.491 24.491 0 0 0 24.455 42.41 116.384 116.384 0 0 0 10.196 9.991c-12.002 1.103-22.355 5.682-30.302 13.51-13.171 12.971-17.268 32.177-16.71 45.824.73 17.854 12.52 30.894 18.803 36.611a55.414 55.414 0 0 0 3.99 28.394l-29.433 8.145a63.086 63.086 0 0 0-21.944 11.056l-10.904-10.66A15.204 15.204 0 0 0 72.4 338.326l-2.654-2.592a6.487 6.487 0 0 1-1.959-4.671l-.027-35.28a3.51 3.51 0 0 0 .08-.735l.04-27.65a3.477 3.477 0 0 0-.143-.94l-.018-23.498v-.003q.08-6.075.145-12.149l.014-1.213a3.574 3.574 0 0 0-.017-.383 91.845 91.845 0 0 0-3.504-17.63 91.863 91.863 0 0 0-5.663-14.269l-5.866-15.867c18.743-1.385 35.445-7.262 35.445-17.288 0-11.56-22.209-17.61-44.148-17.61-21.939 0-44.148 6.05-44.148 17.61 0 9.88 16.221 15.73 34.63 17.224v7.333a1.528 1.528 0 0 1-1.26 1.475 24.35 24.35 0 0 0-8.337 3.266c-10.85 6.847-13.552 20.85-11.47 30.965a31.523 31.523 0 0 0 11.581 18.41 3.505 3.505 0 0 0-.104.381l-17.57 104.01a33.502 33.502 0 0 0 9.614 29.536l15.893 15.536a15.177 15.177 0 0 0 5.95 15.272 15.112 15.112 0 0 0 8.943 2.93 15.419 15.419 0 0 0 2.382-.187c.319-.05.629-.125.94-.194l28.328 27.693v70.677a3.5 3.5 0 0 0 7 0v-89.02a56.667 56.667 0 0 1 41.414-54.457l21.448-5.935v149.412a3.5 3.5 0 0 0 7 0v-151.35l2.397-.663c.203.34.393.68.606 1.02a61.46 61.46 0 0 0 17.995 18.254v132.74a3.5 3.5 0 0 0 7 0V440.13a83.35 83.35 0 0 0 28.896 26.436l24.998 13.828-.413.456a8.469 8.469 0 0 0 0 11.417l15.342 16.925a8.499 8.499 0 0 0 12.594 0l15.343-16.924a8.469 8.469 0 0 0 0-11.418l-.643-.71 24.548-13.575a84.319 84.319 0 0 0 29.576-27.52v69.438a3.5 3.5 0 0 0 7 0v-138.66a59.172 59.172 0 0 0 10.401-12.333 55.306 55.306 0 0 0 1.496-2.53l9.1 2.714v150.81a3.5 3.5 0 0 0 7 0V359.761l15.511 4.626a56.862 56.862 0 0 1 40.352 54.146v89.95a3.5 3.5 0 0 0 7 0v-70.677l28.327-27.693c.312.069.622.144.94.194a15.42 15.42 0 0 0 2.383.186 15.202 15.202 0 0 0 14.893-18.201l15.892-15.535a33.502 33.502 0 0 0 9.616-29.537ZM371.296 120.25a17.489 17.489 0 0 1-.021 34.704 115.672 115.672 0 0 0 1.313-17.359 117.026 117.026 0 0 0-1.292-17.345Zm-245.929 17.345a17.515 17.515 0 0 1 15.292-17.345 117.026 117.026 0 0 0-1.292 17.345 115.672 115.672 0 0 0 1.313 17.359 17.522 17.522 0 0 1-15.313-17.359ZM6.977 164.157c0-3.6 13.112-10.61 37.148-10.61s37.148 7.01 37.148 10.61-13.112 10.61-37.148 10.61-37.148-7.009-37.148-10.61Zm13.418 58.852c-1.662-8.077.673-18.79 8.346-23.632a17.36 17.36 0 0 1 5.946-2.317 8.54 8.54 0 0 0 6.92-8.346v-6.977c.84.018 1.679.03 2.518.03.451 0 .902-.006 1.353-.012l6.716 18.163a3.8 3.8 0 0 0 .153.352 84.806 84.806 0 0 1 5.311 13.34 84.725 84.725 0 0 1 3.218 16.098l-.012 1.02q-.069 6.095-.146 12.19l.002.03-.001.017.016 20.927H28.622l2.89-17.11a35.908 35.908 0 0 0 5.552 2.134 3.5 3.5 0 1 0 1.946-6.724c-9.618-2.782-16.75-10.133-18.615-19.183Zm7.046 47.883h33.3l.015 20.65H23.952Zm8.657 114.685-14.144-13.826a26.498 26.498 0 0 1-7.605-23.364l8.42-49.845h37.993l.025 32.523a13.612 13.612 0 0 0 4.065 9.673l2.314 2.26Zm13.051 17.815a8.159 8.159 0 0 1-6.119-1.482 8.231 8.231 0 0 1-2.937-9.31c.027-.065.052-.13.075-.197a8.254 8.254 0 0 1 1.064-1.988l31.794-43.573a8.173 8.173 0 0 1 5.375-3.279 8.332 8.332 0 0 1 1.288-.1 8.228 8.228 0 0 1 6.63 13.078l-31.795 43.572a8.173 8.173 0 0 1-5.375 3.28Zm30.348 16.072v8.554l-21.7-21.215a15.321 15.321 0 0 0 2.382-2.564l28.99-39.73 9.634 9.42a63.597 63.597 0 0 0-19.306 45.535Zm289.6-216.56a17.475 17.475 0 0 1-21.97 7.36 117.44 117.44 0 0 0 17.343-30.071 17.524 17.524 0 0 1 4.627 22.712Zm-10.63-138.768a17.49 17.49 0 0 1 6.054 30.833 116.665 116.665 0 0 0-17.405-30.03 17.356 17.356 0 0 1 11.35-.803Zm-50.462-41.4a17.489 17.489 0 0 1 20.63 23.722 116.663 116.663 0 0 0-30.018-17.401 17.354 17.354 0 0 1 9.388-6.32ZM255.977 6.984a17.515 17.515 0 0 1 17.345 15.292 117.129 117.129 0 0 0-34.69 0 17.515 17.515 0 0 1 17.345-15.292Zm-65.31 17.502a17.468 17.468 0 0 1 22.672 4.57 116.662 116.662 0 0 0-30.02 17.402 17.523 17.523 0 0 1 7.349-21.972Zm-49.554 61.087a17.486 17.486 0 0 1 23.726-20.635 116.664 116.664 0 0 0-17.404 30.03 17.371 17.371 0 0 1-6.322-9.395Zm12.375 125.49a17.495 17.495 0 0 1-6.004-30.872 117.446 117.446 0 0 0 17.344 30.073 17.361 17.361 0 0 1-11.34.798Zm-7.12-73.469a109.61 109.61 0 1 1 181.043 83.12l7.6-45.766.02-.135a71.776 71.776 0 0 0 .093-17.316 81.658 81.658 0 0 0-54.083-97.554c-.174-.356-.344-.713-.534-1.064a29.326 29.326 0 0 0-8.19-9.515l-14.233-10.727a3.498 3.498 0 0 0-4.213 0l-14.232 10.727a29.333 29.333 0 0 0-8.19 9.514c-.191.351-.361.71-.536 1.066a82.417 82.417 0 0 0-40.099 28.565 81.514 81.514 0 0 0-13.983 68.99 71.786 71.786 0 0 0 .094 17.314c.006.044.012.09.02.135l7.6 45.768a110.04 110.04 0 0 1-38.178-83.122ZM308.8 204.055a51.605 51.605 0 0 0-37.003-9.181l-15.82 2.13-15.82-2.13a51.59 51.59 0 0 0-37.004 9.181 44.808 44.808 0 0 0-12.117 13.018l-7.176-43.203a64.894 64.894 0 0 1 33.792-64.97 17.448 17.448 0 0 0 16.788 12.805h43.073a17.448 17.448 0 0 0 16.788-12.804 64.895 64.895 0 0 1 33.792 64.97l-7.175 43.203a44.81 44.81 0 0 0-12.118-13.019Zm11.795 36.516v24.647a64.622 64.622 0 0 1-64.618 64.623h-1.704a62.676 62.676 0 0 1-44.55-18.332 62.035 62.035 0 0 1-18.365-44.243v-26.693a37.955 37.955 0 0 1 15.864-30.822 44.595 44.595 0 0 1 25.977-8.344 45.09 45.09 0 0 1 6.024.405l16.287 2.193a3.474 3.474 0 0 0 .933 0l16.287-2.193a44.607 44.607 0 0 1 32.001 7.94 37.952 37.952 0 0 1 15.864 30.82Zm-89.148-153.54.043.08a17.466 17.466 0 0 0-14.215 14.151 70.884 70.884 0 0 0-31.602 29.323 72.373 72.373 0 0 0-4.276 8.928 74.933 74.933 0 0 1-.03-1.919 75.19 75.19 0 0 1 46.875-69.25 29.44 29.44 0 0 0 3.205 18.687Zm46.066 6.81a10.432 10.432 0 0 1 0 20.864H234.44a10.432 10.432 0 0 1 0-20.864Zm-39.912-31.628a22.392 22.392 0 0 1 6.25-7.259l12.125-9.14 12.126 9.14a22.542 22.542 0 0 1 6.25 28.74l-1.706 3.147h-33.34l-1.705-3.146a22.465 22.465 0 0 1 0-21.482Zm46.11 6.132a75.19 75.19 0 0 1 46.876 69.25c0 .64-.014 1.278-.03 1.918a72.374 72.374 0 0 0-4.277-8.928 70.885 70.885 0 0 0-31.602-29.323 17.466 17.466 0 0 0-14.215-14.152l.043-.08a29.44 29.44 0 0 0 3.205-18.685Zm-7.78 419.221-15.344 16.926a1.499 1.499 0 0 1-2.222 0l-15.343-16.926a1.494 1.494 0 0 1 0-2.014l3.258-3.593c.04-.04.077-.085.115-.127l11.971-13.205a1.499 1.499 0 0 1 2.222 0l15.343 16.926a1.494 1.494 0 0 1 0 2.013Zm58.666-63.086a77.243 77.243 0 0 1-32.964 35.961l-25.99 14.372-9.869-10.887a8.499 8.499 0 0 0-12.594 0l-10.1 11.141-26.439-14.625a76.432 76.432 0 0 1-32.285-34.46V379.88c.936.484 1.856.94 2.743 1.354a26.194 26.194 0 0 0 3.263 7.976c3.965 6.374 10.117 10.117 16.869 12.973a47.752 47.752 0 0 0 23.621 32.575l26.59 14.71a3.5 3.5 0 0 0 3.389 0l26.59-14.71a47.293 47.293 0 0 0 24.207-36.51 28.666 28.666 0 0 0 9.22-9.038 26.162 26.162 0 0 0 3.246-7.9 72.635 72.635 0 0 0 10.503-5.958Zm-119.405-19.298q1.011.352 2.02.7c10.395 3.582 21.143 7.288 28.1 16.767a34.05 34.05 0 0 1 4.238 7.703 6.498 6.498 0 0 0 12.111.002 34.103 34.103 0 0 1 4.238-7.705c6.957-9.48 17.705-13.184 28.099-16.768 3.318-1.143 6.67-2.303 9.89-3.66a40.313 40.313 0 0 1-19.856 26.41l-24.895 13.773-24.896-13.772a40.736 40.736 0 0 1-19.05-23.45Zm134.976-103.94a3.5 3.5 0 0 0-1.713 4.644c1.96 4.25 11.053 26.53-2.38 47.876a52.588 52.588 0 0 1-10.407 11.96c-.015.014-.033.025-.048.04a62.014 62.014 0 0 1-10.753 7.33 52.491 52.491 0 0 0-3.815-17.112 3.5 3.5 0 0 0-6.532 2.519c4.365 11.319 4.494 20.407.385 27.013a22.714 22.714 0 0 1-8.296 7.635l-.057.031c-4.229 2.424-9.323 4.185-14.835 6.086-10.88 3.75-23.21 8.001-31.46 19.244a41.035 41.035 0 0 0-4.652 8.163 41.051 41.051 0 0 0-4.65-8.163c-8.25-11.243-20.581-15.494-31.461-19.244-9.996-3.447-18.63-6.423-23.189-13.752a19.436 19.436 0 0 1-2.572-6.738 3.48 3.48 0 0 0-.147-.93c-.79-5.44.237-11.908 3.104-19.345a3.5 3.5 0 0 0-6.531-2.519 52.583 52.583 0 0 0-3.813 17.032 56.44 56.44 0 0 1-21.061-19.25c-13.438-21.353-4.342-43.627-2.382-47.875a3.5 3.5 0 1 0-6.355-2.932 60.161 60.161 0 0 0-3.567 10.435c-5.599-5.918-12.788-15.908-13.305-28.565-.496-12.15 3.085-29.183 14.628-40.552 7.888-7.77 18.237-11.705 30.79-11.759a44.68 44.68 0 0 0-.736 8.06v26.692a69.646 69.646 0 0 0 69.915 69.575h1.704a71.621 71.621 0 0 0 71.618-71.623V240.57a44.657 44.657 0 0 0-.801-8.369c8.731-.81 19.435-1.294 31.701 9.084 10.918 9.241 15.39 23.535 13.29 42.482l-.092.853c-1.273 12.912-7.748 22.568-13.34 28.67a60.077 60.077 0 0 0-3.54-10.335 3.5 3.5 0 0 0-4.645-1.713Zm137.835-9.7h-36.895l-.031-20.65h33.437Zm-32.25-141.576a45.345 45.345 0 0 1 11.744 5.735c12.226 8.384 20.06 22.652 21.863 39.171a25.575 25.575 0 0 0-13.55-4.338 117.282 117.282 0 0 0-5.836-7.835 119.299 119.299 0 0 0-21.043-20.227c.328-.4.657-.814.985-1.25a38.534 38.534 0 0 0 5.837-11.256Zm-27.156-1.747a61.82 61.82 0 0 1 20.346.057 31.557 31.557 0 0 1-4.619 8.736 29.515 29.515 0 0 1-5.597 5.695 27.253 27.253 0 0 1-18.902 5.4 38.848 38.848 0 0 1 8.772-19.888Zm23.62 51.323a15.641 15.641 0 0 0-.908 2.388c-.882-.053-1.75-.096-2.6-.138-5.987-.289-10.717-.517-16.156-4.293-9.097-6.314-11.747-16.77-12.342-19.827a31.686 31.686 0 0 1-.39-2.551c.822.06 1.644.1 2.464.1a34.246 34.246 0 0 0 20.667-6.933c.278-.21.62-.483.99-.79a112.384 112.384 0 0 1 20.599 19.614 111.04 111.04 0 0 1 2.798 3.604l-1.593.046a15.443 15.443 0 0 0-13.53 8.78Zm3.485 24.594.932-.486a8.242 8.242 0 0 0 2.768-12.275 8.5 8.5 0 0 1 6.543-13.616l8.595-.245a18.613 18.613 0 0 1 17.976 12.162 23.936 23.936 0 0 1-6.12 25.798l-5.239 4.904-5.98 2.843a3.5 3.5 0 0 0 3.006 6.322l2.522-1.2 2.626 15.549h-32.265l-.01-7.353.001-.023-.018-12.731c0-.074-.003-.146-.007-.219l-.64-10.006a9.92 9.92 0 0 1 5.31-9.424Zm-23.245 203.882v-9.484a63.74 63.74 0 0 0-18.867-45.036l9.196-8.988 28.99 39.73a15.322 15.322 0 0 0 2.381 2.563Zm39.747-31.483a8.173 8.173 0 0 1-3.28 5.375 8.227 8.227 0 0 1-11.494-1.797l-31.794-43.572a8.23 8.23 0 0 1 6.629-13.078 8.332 8.332 0 0 1 1.288.1 8.173 8.173 0 0 1 5.375 3.28l31.794 43.572a8.254 8.254 0 0 1 1.064 1.988c.023.066.047.132.075.197a8.19 8.19 0 0 1 .343 3.935Zm3.652-10.958-31.069-42.579 2.317-2.263a13.613 13.613 0 0 0 4.063-9.676l-.049-32.517h38.067l8.42 49.846a26.5 26.5 0 0 1-7.605 23.363ZM47.625 164.157a3.5 3.5 0 1 0-3.5 3.5 3.5 3.5 0 0 0 3.5-3.5Zm237.56 116.13a3.5 3.5 0 0 0 0 4.95 7.803 7.803 0 0 1 0 11.021l-7.482 7.482a7.766 7.766 0 0 1-8.509 1.683l-9.717-4.048v-5.115a6.483 6.483 0 0 0 1.876-1.813l9.183-13.512a6.5 6.5 0 0 0-5.375-10.153h-18.367a6.5 6.5 0 0 0-5.375 10.153l9.182 13.512a6.483 6.483 0 0 0 1.876 1.813v5.115l-9.715 4.048a7.77 7.77 0 0 1-8.51-1.683l-7.482-7.481a7.804 7.804 0 0 1 0-11.022 3.5 3.5 0 0 0-4.949-4.95 14.812 14.812 0 0 0 0 20.921l7.482 7.482a14.75 14.75 0 0 0 16.151 3.195l10.523-4.385 10.525 4.385a14.749 14.749 0 0 0 16.15-3.195l7.482-7.482a14.811 14.811 0 0 0 0-20.921 3.5 3.5 0 0 0-4.95 0Zm-37.446-2.505h16.477l-8.239 12.122Zm54.041-42.172a16.042 16.042 0 0 1-9.11 2.64 15.807 15.807 0 0 1-8.362-2.64 3.5 3.5 0 1 0-3.869 5.834 22.797 22.797 0 0 0 12.068 3.804q.266.006.53.006a23.113 23.113 0 0 0 12.61-3.81 3.5 3.5 0 0 0-3.867-5.834Zm-132.344-62.712a3.462 3.462 0 0 0-4.554-1.862 3.537 3.537 0 0 0 1.358 6.791 3.502 3.502 0 0 0 3.241-4.818Zm49.47 72.356a23.113 23.113 0 0 0 12.609-3.81 3.5 3.5 0 0 0-3.868-5.834 16.062 16.062 0 0 1-9.108 2.64 15.81 15.81 0 0 1-8.363-2.64 3.5 3.5 0 1 0-3.87 5.834 22.797 22.797 0 0 0 12.068 3.804c.179.004.355.006.531.006Zm-55.008-91.68-.034-.206a3.541 3.541 0 1 0 .034.207ZM273.595 45.818l.118.022a3.452 3.452 0 0 0 4.055-2.788 3.535 3.535 0 0 0-2.82-4.102 3.5 3.5 0 0 0-1.353 6.868Zm19.438 5.978 1.452-3.185-1.397 3.209a3.5 3.5 0 0 0 2.795-6.418l-.13-.055a3.5 3.5 0 0 0-2.72 6.449Zm32.757 23.698a3.409 3.409 0 0 0 2.545 1.135 3.55 3.55 0 1 0-2.663-1.268l.118.133Zm-15.183-13.708.13.094a3.455 3.455 0 0 0 2.015.648 3.57 3.57 0 1 0-2.145-.742Zm-51.13 421.275a3.5 3.5 0 1 0 3.5 3.5 3.5 3.5 0 0 0-3.5-3.5Zm-62.46-418.913a3.483 3.483 0 0 0 2.114-.712l.111-.086a3.458 3.458 0 0 0 .587-4.865 3.54 3.54 0 0 0-4.93-.624 3.5 3.5 0 0 0 2.118 6.287Zm17.996-10.93a3.487 3.487 0 0 0 1.48-.33l.09-.043a3.5 3.5 0 0 0-2.964-6.341l-.09.042a3.5 3.5 0 0 0 1.484 6.672Zm19.934-6.77a3.532 3.532 0 0 0 .71-.072l.167-.037a3.457 3.457 0 0 0 2.597-4.143 3.544 3.544 0 0 0-4.176-2.677 3.5 3.5 0 0 0 .702 6.929Zm114.201 84.041.016.202a3.5 3.5 0 0 0 3.482 3.194c.103 0 .207-.005.312-.014a3.55 3.55 0 1 0-3.81-3.382Zm-11.583-38.467a3.47 3.47 0 0 0 3.029 1.764 3.555 3.555 0 1 0-3.109-1.909Zm-176.104 23.627a3.495 3.495 0 0 0 4.298-2.456l.026-.096a3.5 3.5 0 0 0-6.754-1.842l-.026.097a3.5 3.5 0 0 0 2.456 4.297Zm190.936 32.227a3.515 3.515 0 0 0-3.919 3.011l3.46.536-3.463-.51a3.5 3.5 0 1 0 6.925 1.02l.027-.194a3.48 3.48 0 0 0-3.03-3.863Zm-8.97 22.709a3.5 3.5 0 1 0 6.554 2.458l.035-.094a3.5 3.5 0 0 0-6.554-2.458Zm2.058-59.889a3.5 3.5 0 0 0 6.7-2.03l-.034-.11a3.5 3.5 0 0 0-6.691 2.058Z"></path></svg>