<?xml version="1.0" encoding="UTF-8"?>
<!DOCTYPE svg PUBLIC "-//W3C//DTD SVG 1.1//EN" "http://www.w3.org/Graphics/SVG/1.1/DTD/svg11.dtd">
<svg xmlns="http://www.w3.org/2000/svg" version="1.1" width="444px" height="429px" style="shape-rendering:geometricPrecision; text-rendering:geometricPrecision; image-rendering:optimizeQuality; fill-rule:evenodd; clip-rule:evenodd" xmlns:xlink="http://www.w3.org/1999/xlink">
<g><path style="opacity:0.96" fill="#070603" d="M 369.5,395.5 C 368.593,389.894 368.26,384.227 368.5,378.5C 364.5,378.5 360.5,378.5 356.5,378.5C 356.786,384.259 356.452,389.925 355.5,395.5C 354.167,395.5 352.833,395.5 351.5,395.5C 351.666,390.156 351.499,384.823 351,379.5C 350.047,377.545 348.713,375.878 347,374.5C 346.007,371.592 345.507,368.592 345.5,365.5C 346.098,357.84 346.598,350.173 347,342.5C 350.585,336.057 352.585,329.057 353,321.5C 356.516,285.225 348.016,252.225 327.5,222.5C 325.638,218.458 323.138,214.792 320,211.5C 318.732,239.828 318.065,268.161 318,296.5C 319.129,298.141 320.629,299.141 322.5,299.5C 327.573,305.647 331.073,312.647 333,320.5C 333.5,345.498 333.667,370.498 333.5,395.5C 331.833,395.5 330.167,395.5 328.5,395.5C 328.667,371.164 328.5,346.831 328,322.5C 322.851,303.827 310.684,292.827 291.5,289.5C 290.791,288.596 289.791,288.263 288.5,288.5C 288.5,323.5 288.5,358.5 288.5,393.5C 288.167,394.167 287.833,394.833 287.5,395.5C 287.167,395.5 286.833,395.5 286.5,395.5C 285.833,394.833 285.167,394.167 284.5,393.5C 284.5,357.833 284.5,322.167 284.5,286.5C 279.538,285.343 274.538,284.343 269.5,283.5C 269.5,285.167 269.5,286.833 269.5,288.5C 269.826,324.24 269.493,359.906 268.5,395.5C 267.5,395.5 266.5,395.5 265.5,395.5C 264.848,380.23 264.182,364.896 263.5,349.5C 253.841,357 243.508,363.5 232.5,369C 231.262,369.69 231.262,370.19 232.5,370.5C 234.96,373.084 236.127,376.084 236,379.5C 231.374,385.137 226.541,390.47 221.5,395.5C 219.833,395.5 218.167,395.5 216.5,395.5C 212.211,390.039 207.711,384.706 203,379.5C 202.388,376.389 203.221,373.723 205.5,371.5C 206.289,371.217 206.956,370.717 207.5,370C 195.829,364.169 184.829,357.335 174.5,349.5C 174.131,365.06 173.131,380.393 171.5,395.5C 171.167,395.5 170.833,395.5 170.5,395.5C 170.217,394.711 169.717,394.044 169,393.5C 168.5,356.835 168.333,320.168 168.5,283.5C 163.322,283.712 158.322,284.712 153.5,286.5C 153.826,322.906 153.493,359.239 152.5,395.5C 152.167,395.5 151.833,395.5 151.5,395.5C 150.883,395.389 150.383,395.056 150,394.5C 149.5,359.168 149.333,323.835 149.5,288.5C 126.055,290.133 111.221,302.133 105,324.5C 104.5,347.831 104.333,371.164 104.5,394.5C 93.2573,359.013 81.2573,322.179 68.5,284C 67.0456,282.287 65.2123,281.12 63,280.5C 61.2068,276.954 59.7068,273.287 58.5,269.5C 59.2135,267.189 60.2135,265.022 61.5,263C 66.2316,261.534 70.8982,259.867 75.5,258C 71.5389,247.284 67.8722,236.45 64.5,225.5C 60.6958,225.015 57.5291,223.348 55,220.5C 51.244,208.643 47.4106,196.81 43.5,185C 43.9495,182.717 45.2828,181.217 47.5,180.5C 52.7106,181.761 57.8773,183.094 63,184.5C 66.3249,179.495 70.3249,175.161 75,171.5C 76.4728,171.903 77.8061,172.57 79,173.5C 81.3333,180.5 83.6667,187.5 86,194.5C 89.2041,191.631 92.0374,188.465 94.5,185C 96.1667,184.333 97.8333,184.333 99.5,185C 104.052,196.655 108.219,208.488 112,220.5C 112.667,222.167 112.667,223.833 112,225.5C 110.315,227.017 108.815,228.684 107.5,230.5C 109.436,235.807 111.269,241.14 113,246.5C 118.727,244.202 124.561,242.202 130.5,240.5C 132.593,240.486 134.426,241.152 136,242.5C 137.9,246.203 139.4,250.037 140.5,254C 139.592,256.232 138.592,258.399 137.5,260.5C 139.107,266.322 141.107,271.988 143.5,277.5C 146.837,275.66 148.504,272.827 148.5,269C 147.349,265.062 146.349,261.062 145.5,257C 146.184,249.319 150.184,244.319 157.5,242C 158.899,240.938 159.899,239.605 160.5,238C 153.774,230.743 152.774,222.743 157.5,214C 154.845,205.446 154.845,196.946 157.5,188.5C 155.272,182.687 150.939,180.187 144.5,181C 137.319,178.939 135.485,174.439 139,167.5C 139.972,165.695 141.139,164.028 142.5,162.5C 139.443,155.825 137.777,148.825 137.5,141.5C 131.831,140.003 127.831,136.503 125.5,131C 127.68,124.82 131.846,120.654 138,118.5C 138.928,112.217 140.761,106.217 143.5,100.5C 132.874,85.276 136.874,78.4427 155.5,80C 159.866,75.2993 164.533,70.966 169.5,67C 167.369,48.3311 174.203,44.4978 190,55.5C 199.728,48.3828 209.562,41.3828 219.5,34.5C 228.948,42.1263 238.781,49.1263 249,55.5C 264.865,44.1016 271.865,48.1016 270,67.5C 274.833,71 279,75.1667 282.5,80C 288.701,79.1069 294.535,80.2736 300,83.5C 301.126,89.4531 299.793,94.7864 296,99.5C 297.329,106.149 298.996,112.816 301,119.5C 316.32,127.116 316.32,134.782 301,142.5C 300.2,149.002 298.7,155.336 296.5,161.5C 297.389,164.279 298.556,166.945 300,169.5C 301.735,175.244 299.902,179.078 294.5,181C 291.5,181.333 288.5,181.667 285.5,182C 283.954,184.257 282.288,186.424 280.5,188.5C 284.41,197.126 284.41,205.792 280.5,214.5C 285.727,222.153 285.394,229.653 279.5,237C 281.861,240.03 284.861,242.364 288.5,244C 293.15,248.574 294.65,254.074 293,260.5C 289.107,269.556 291.94,275.723 301.5,279C 303.797,281.463 305.463,284.297 306.5,287.5C 308.422,288.711 310.255,290.044 312,291.5C 313.053,261.308 314.219,231.141 315.5,201C 313.142,183.364 320.475,172.03 337.5,167C 343.672,166.107 349.672,166.773 355.5,169C 360.604,171.773 365.437,174.94 370,178.5C 373.943,185.337 372.777,191.17 366.5,196C 363.594,197.318 360.594,197.652 357.5,197C 352.936,194.26 348.269,191.76 343.5,189.5C 339.833,189.833 337.833,191.833 337.5,195.5C 362.786,227.516 376.12,264.016 377.5,305C 377.013,315.764 375.679,326.431 373.5,337C 375.049,338.214 376.215,339.714 377,341.5C 377.667,351.167 377.667,360.833 377,370.5C 374.848,378.25 373.848,386.25 374,394.5C 372.644,395.38 371.144,395.714 369.5,395.5 Z M 185.5,92.5 C 186.967,95.5209 188.633,98.5209 190.5,101.5C 189.846,103.115 189.346,104.782 189,106.5C 179.929,112.24 172.929,119.906 168,129.5C 168.555,114.669 174.388,102.336 185.5,92.5 Z M 251.5,93.5 C 261.365,100.189 267.532,109.522 270,121.5C 270.667,124.167 270.667,126.833 270,129.5C 265.435,120.268 258.769,112.935 250,107.5C 249.358,105.238 248.525,103.071 247.5,101C 249.495,98.8428 250.828,96.3428 251.5,93.5 Z"/></g>
<g><path style="opacity:1" fill="#f9e402" d="M 234.5,52.5 C 236.965,56.1561 238.799,60.1561 240,64.5C 242.278,81.2959 235.444,92.2959 219.5,97.5C 211.16,97.6664 202.827,97.4997 194.5,97C 189.697,89.1742 188.197,80.6742 190,71.5C 191.473,67.2211 193.473,63.2211 196,59.5C 202.891,53.3075 210.058,47.4742 217.5,42C 218.5,41.3333 219.5,41.3333 220.5,42C 225.327,45.332 229.993,48.832 234.5,52.5 Z"/></g>
<g><path style="opacity:1" fill="#100902" d="M 216.5,52.5 C 218.927,52.523 221.26,53.023 223.5,54C 226.631,58.1328 230.131,61.9662 234,65.5C 235.422,68.0301 235.755,70.6967 235,73.5C 231.201,78.3006 227.034,82.8006 222.5,87C 217.467,88.5667 213.633,87.0667 211,82.5C 209.039,79.5372 206.706,76.8706 204,74.5C 202.627,72.3046 202.294,69.9712 203,67.5C 207.337,62.3308 211.837,57.3308 216.5,52.5 Z"/></g>
<g><path style="opacity:1" fill="#e6d202" d="M 174.5,54.5 C 178.137,54.4868 181.137,55.8202 183.5,58.5C 180.381,60.7262 177.048,62.3928 173.5,63.5C 173.508,60.4552 173.841,57.4552 174.5,54.5 Z"/></g>
<g><path style="opacity:1" fill="#f4c200" d="M 234.5,52.5 C 250.58,64.6585 253.58,79.4918 243.5,97C 235.507,97.4997 227.507,97.6664 219.5,97.5C 235.444,92.2959 242.278,81.2959 240,64.5C 238.799,60.1561 236.965,56.1561 234.5,52.5 Z"/></g>
<g><path style="opacity:1" fill="#e5d202" d="M 259.5,54.5 C 261.451,54.2267 262.951,54.8934 264,56.5C 264.667,59.1667 264.667,61.8333 264,64.5C 260.918,62.375 257.751,60.375 254.5,58.5C 256.015,56.9178 257.681,55.5845 259.5,54.5 Z"/></g>
<g><path style="opacity:1" fill="#f52a39" d="M 216.5,80.5 C 217.369,77.2201 218.036,73.8868 218.5,70.5C 218.036,67.1132 217.369,63.7799 216.5,60.5C 217.254,58.5541 218.588,57.7207 220.5,58C 223.847,62.0113 227.18,66.0113 230.5,70C 227.43,75.0763 223.597,79.5763 219,83.5C 217.955,82.6266 217.122,81.6266 216.5,80.5 Z"/></g>
<g><path style="opacity:1" fill="#f54452" d="M 216.5,60.5 C 217.369,63.7799 218.036,67.1132 218.5,70.5C 218.036,73.8868 217.369,77.2201 216.5,80.5C 213.517,77.2395 210.517,73.9062 207.5,70.5C 209.81,66.524 212.81,63.1907 216.5,60.5 Z"/></g>
<g><path style="opacity:1" fill="#f9e402" d="M 184.5,84.5 C 170.096,91.5952 160.596,102.929 156,118.5C 155.071,123.287 154.571,128.12 154.5,133C 155.149,148.571 156.482,164.071 158.5,179.5C 147.403,165.541 142.069,149.541 142.5,131.5C 143.246,103.617 155.246,82.1171 178.5,67C 181.719,65.0455 185.053,63.7121 188.5,63C 185.182,69.7345 183.849,76.9012 184.5,84.5 Z"/></g>
<g><path style="opacity:1" fill="#f0bf00" d="M 272.5,177.5 C 272.351,178.552 272.517,179.552 273,180.5C 289.714,156.293 293.047,130.293 283,102.5C 276.514,87.1961 266.347,75.1961 252.5,66.5C 250.727,65.6857 250.227,64.3524 251,62.5C 282.527,78.88 297.527,104.88 296,140.5C 293.629,159.406 285.796,175.573 272.5,189C 271.4,189.432 270.733,188.932 270.5,187.5C 271.011,183.998 271.678,180.665 272.5,177.5 Z"/></g>
<g><path style="opacity:1" fill="#f9e402" d="M 252.5,66.5 C 266.347,75.1961 276.514,87.1961 283,102.5C 293.047,130.293 289.714,156.293 273,180.5C 272.517,179.552 272.351,178.552 272.5,177.5C 273.52,165.13 274.686,152.797 276,140.5C 278.304,118.781 270.971,101.115 254,87.5C 253.76,84.3429 253.927,81.1762 254.5,78C 254.069,74.1138 253.403,70.2804 252.5,66.5 Z"/></g>
<g><path style="opacity:1" fill="#f1bf00" d="M 184.5,84.5 C 184.649,85.552 184.483,86.552 184,87.5C 169.868,99.0997 162.701,114.1 162.5,132.5C 162.624,150.49 164.291,168.323 167.5,186C 167.333,187.167 167.167,188.333 167,189.5C 163.558,186.568 160.725,183.235 158.5,179.5C 156.482,164.071 155.149,148.571 154.5,133C 154.571,128.12 155.071,123.287 156,118.5C 160.596,102.929 170.096,91.5952 184.5,84.5 Z"/></g>
<g><path style="opacity:1" fill="#ecd001" d="M 144.5,85.5 C 146.924,85.1924 149.257,85.5258 151.5,86.5C 149.833,89.1667 148.167,91.8333 146.5,94.5C 143.538,92.023 142.871,89.023 144.5,85.5 Z"/></g>
<g><path style="opacity:1" fill="#e9d602" d="M 286.5,86.5 C 295.584,84.2096 297.417,86.8762 292,94.5C 290.391,91.5932 288.558,88.9266 286.5,86.5 Z"/></g>
<g><path style="opacity:1" fill="#fce702" d="M 236.5,102.5 C 236.201,105.642 234.534,107.809 231.5,109C 219.505,109.5 207.505,109.667 195.5,109.5C 194.058,107.183 194.392,105.016 196.5,103C 209.829,102.5 223.163,102.333 236.5,102.5 Z"/></g>
<g><path style="opacity:1" fill="#deb000" d="M 236.5,102.5 C 242.168,101.671 244.668,104.005 244,109.5C 243.097,110.701 241.931,111.535 240.5,112C 226.167,112.667 211.833,112.667 197.5,112C 196.619,111.292 195.953,110.458 195.5,109.5C 207.505,109.667 219.505,109.5 231.5,109C 234.534,107.809 236.201,105.642 236.5,102.5 Z"/></g>
<g><path style="opacity:1" fill="#f7e202" d="M 197.5,116.5 C 203.653,117.328 209.987,117.828 216.5,118C 215.167,119.667 213.833,121.333 212.5,123C 208.833,123.333 205.167,123.667 201.5,124C 200.106,124.956 199.439,126.289 199.5,128C 199.943,129.825 200.277,131.658 200.5,133.5C 191.797,133.645 183.13,133.145 174.5,132C 174.043,131.586 173.709,131.086 173.5,130.5C 177.809,123.024 183.642,117.024 191,112.5C 192.571,114.923 194.737,116.256 197.5,116.5 Z"/></g>
<g><path style="opacity:1" fill="#f2c000" d="M 257.5,132.5 C 257.736,129.774 256.903,127.441 255,125.5C 252.049,122.428 249.216,119.261 246.5,116C 245.906,115.536 245.239,115.369 244.5,115.5C 245.799,113.901 247.465,113.401 249.5,114C 255.876,118.709 261.209,124.375 265.5,131C 262.746,131.272 260.079,131.772 257.5,132.5 Z"/></g>
<g><path style="opacity:1" fill="#fbe502" d="M 244.5,115.5 C 245.239,115.369 245.906,115.536 246.5,116C 249.216,119.261 252.049,122.428 255,125.5C 256.903,127.441 257.736,129.774 257.5,132.5C 251.19,133.19 244.857,133.524 238.5,133.5C 238.5,130.167 238.5,126.833 238.5,123.5C 231.853,124.947 226.52,123.113 222.5,118C 228.681,117.828 234.681,117.328 240.5,116.5C 241.833,116.167 243.167,115.833 244.5,115.5 Z"/></g>
<g><path style="opacity:1" fill="#e3ba00" d="M 197.5,116.5 C 211.833,116.5 226.167,116.5 240.5,116.5C 234.681,117.328 228.681,117.828 222.5,118C 226.52,123.113 231.853,124.947 238.5,123.5C 238.5,126.833 238.5,130.167 238.5,133.5C 237.551,126.751 233.551,123.918 226.5,125C 221.833,119 217.167,119 212.5,125C 205.449,123.918 201.449,126.751 200.5,133.5C 200.277,131.658 199.943,129.825 199.5,128C 199.439,126.289 200.106,124.956 201.5,124C 205.167,123.667 208.833,123.333 212.5,123C 213.833,121.333 215.167,119.667 216.5,118C 209.987,117.828 203.653,117.328 197.5,116.5 Z"/></g>
<g><path style="opacity:1" fill="#ed8d34" d="M 218.5,125.5 C 220.886,126.373 222.886,127.873 224.5,130C 227.146,130.497 229.813,130.664 232.5,130.5C 231.345,135.855 233.012,140.022 237.5,143C 232.945,146.334 231.278,150.834 232.5,156.5C 229.859,155.737 227.192,155.57 224.5,156C 222.983,157.685 221.316,159.185 219.5,160.5C 217.684,159.185 216.017,157.685 214.5,156C 211.854,155.503 209.187,155.336 206.5,155.5C 207.655,150.145 205.988,145.978 201.5,143C 205.988,140.022 207.655,135.855 206.5,130.5C 211.833,131.695 215.833,130.028 218.5,125.5 Z"/></g>
<g><path style="opacity:1" fill="#eeda02" d="M 302.5,126.5 C 307.99,130.052 307.657,133.052 301.5,135.5C 301.19,132.287 301.523,129.287 302.5,126.5 Z"/></g>
<g><path style="opacity:1" fill="#e5be00" d="M 136.5,125.5 C 137.806,128.687 137.806,132.02 136.5,135.5C 134.5,134.167 132.833,132.5 131.5,130.5C 132.882,128.451 134.548,126.785 136.5,125.5 Z"/></g>
<g><path style="opacity:1" fill="#665d01" d="M 302.5,126.5 C 301.523,129.287 301.19,132.287 301.5,135.5C 300.194,132.313 300.194,128.98 301.5,125.5C 302.107,125.624 302.44,125.957 302.5,126.5 Z"/></g>
<g><path style="opacity:1" fill="#0d0502" d="M 218.5,133.5 C 226.985,134.493 230.152,139.16 228,147.5C 222.333,154.167 216.667,154.167 211,147.5C 208.684,140.033 211.184,135.366 218.5,133.5 Z"/></g>
<g><path style="opacity:1" fill="#e8b700" d="M 170.5,136.5 C 179.913,136.694 189.246,137.527 198.5,139C 195.689,142.294 196.022,145.294 199.5,148C 189.165,147.835 178.832,147.335 168.5,146.5C 168.851,143.097 169.518,139.763 170.5,136.5 Z"/></g>
<g><path style="opacity:1" fill="#ebb800" d="M 257.5,136.5 C 265.985,134.005 269.985,137.005 269.5,145.5C 259.562,147.212 249.562,148.045 239.5,148C 242.978,145.294 243.311,142.294 240.5,139C 246.269,137.978 251.936,137.145 257.5,136.5 Z"/></g>
<g><path style="opacity:1" fill="#e8313e" d="M 216.5,138.5 C 223.602,138.073 225.602,140.907 222.5,147C 215.215,147.934 213.215,145.101 216.5,138.5 Z"/></g>
<g><path style="opacity:1" fill="#9c7c01" d="M 261.5,151.5 C 264.287,150.523 267.287,150.19 270.5,150.5C 270.802,153.059 270.468,155.393 269.5,157.5C 269.5,155.5 269.5,153.5 269.5,151.5C 267.167,151.5 264.833,151.5 262.5,151.5C 262.167,151.5 261.833,151.5 261.5,151.5 Z"/></g>
<g><path style="opacity:1" fill="#f7e202" d="M 199.5,153.5 C 199.02,156.685 199.686,159.519 201.5,162C 208.115,160.944 213.115,163.11 216.5,168.5C 197.5,163.766 182.667,169.432 172,185.5C 170.372,173.866 169.205,162.199 168.5,150.5C 178.841,151.427 189.174,152.427 199.5,153.5 Z"/></g>
<g><path style="opacity:1" fill="#f6e202" d="M 261.5,151.5 C 261.833,151.5 262.167,151.5 262.5,151.5C 262.463,157.535 261.963,163.535 261,169.5C 260.998,172.051 260.164,174.051 258.5,175.5C 247.653,167.808 235.653,165.475 222.5,168.5C 223.702,166.608 225.035,164.774 226.5,163C 230.5,162.667 234.5,162.333 238.5,162C 239.679,159.204 239.679,156.371 238.5,153.5C 245.989,152.487 253.656,151.82 261.5,151.5 Z"/></g>
<g><path style="opacity:1" fill="#f6c300" d="M 262.5,151.5 C 264.833,151.5 267.167,151.5 269.5,151.5C 269.5,153.5 269.5,155.5 269.5,157.5C 268.662,166.868 267.496,176.201 266,185.5C 264.053,181.724 261.553,178.39 258.5,175.5C 260.164,174.051 260.998,172.051 261,169.5C 261.963,163.535 262.463,157.535 262.5,151.5 Z"/></g>
<g><path style="opacity:1" fill="#f1c000" d="M 199.5,153.5 C 201.196,155.268 202.53,157.435 203.5,160C 206.5,160.333 209.5,160.667 212.5,161C 214.403,163.405 216.736,165.239 219.5,166.5C 222.264,165.239 224.597,163.405 226.5,161C 229.5,160.667 232.5,160.333 235.5,160C 236.731,157.834 237.731,155.667 238.5,153.5C 239.679,156.371 239.679,159.204 238.5,162C 234.5,162.333 230.5,162.667 226.5,163C 225.035,164.774 223.702,166.608 222.5,168.5C 220.5,168.5 218.5,168.5 216.5,168.5C 213.115,163.11 208.115,160.944 201.5,162C 199.686,159.519 199.02,156.685 199.5,153.5 Z"/></g>
<g><path style="opacity:1" fill="#ddcb02" d="M 292.5,168.5 C 294.834,170.176 295.834,172.509 295.5,175.5C 293.181,176.167 290.847,176.334 288.5,176C 290.494,173.842 291.828,171.342 292.5,168.5 Z"/></g>
<g><path style="opacity:1" fill="#27a2f7" d="M 202.5,259.5 C 232.003,260.824 250.17,247.157 257,218.5C 257.797,208.299 257.631,198.132 256.5,188C 252.929,184.379 248.596,182.046 243.5,181C 238.246,179.729 232.913,179.229 227.5,179.5C 226.209,179.263 225.209,179.596 224.5,180.5C 221.545,181.159 218.545,181.492 215.5,181.5C 214.185,179.401 212.518,179.067 210.5,180.5C 195.282,177.697 183.449,182.697 175,195.5C 174.536,194.906 174.369,194.239 174.5,193.5C 177.684,182.816 184.684,175.983 195.5,173C 210.833,173.667 226.167,173.667 241.5,173C 252.397,175.563 259.897,182.063 264,192.5C 264.667,203.167 264.667,213.833 264,224.5C 256.676,251.805 238.842,264.305 210.5,262C 207.543,261.721 204.877,260.887 202.5,259.5 Z"/></g>
<g><path style="opacity:1" fill="#a4664e" d="M 336.5,186.5 C 327.351,186.156 323.851,190.49 326,199.5C 357.809,239.062 369.809,284.062 362,334.5C 360.301,335.406 358.467,335.739 356.5,335.5C 363.567,298.035 357.734,262.702 339,229.5C 332.752,220.672 326.752,211.672 321,202.5C 319.174,179.325 329.674,169.825 352.5,174C 357.267,176.438 361.767,179.271 366,182.5C 367.985,188.037 366.152,191.037 360.5,191.5C 355.734,189.618 351.067,187.451 346.5,185C 342.928,184.153 339.594,184.653 336.5,186.5 Z"/></g>
<g><path style="opacity:1" fill="#e6bf00" d="M 144.5,168.5 C 146.515,170.676 148.182,173.176 149.5,176C 147.765,176.651 146.098,176.485 144.5,175.5C 143.425,173.189 143.425,170.856 144.5,168.5 Z"/></g>
<g><path style="opacity:1" fill="#88c6fb" d="M 210.5,180.5 C 210.334,187.508 210.5,194.508 211,201.5C 216.667,208.167 222.333,208.167 228,201.5C 228.796,194.087 228.63,186.754 227.5,179.5C 232.913,179.229 238.246,179.729 243.5,181C 248.596,182.046 252.929,184.379 256.5,188C 257.631,198.132 257.797,208.299 257,218.5C 250.17,247.157 232.003,260.824 202.5,259.5C 187.049,253.211 177.549,241.878 174,225.5C 173.175,214.659 173.341,203.992 174.5,193.5C 174.369,194.239 174.536,194.906 175,195.5C 183.449,182.697 195.282,177.697 210.5,180.5 Z"/></g>
<g><path style="opacity:1" fill="#0d1115" d="M 215.5,181.5 C 215.334,187.509 215.501,193.509 216,199.5C 218.333,202.167 220.667,202.167 223,199.5C 223.207,193.086 223.707,186.753 224.5,180.5C 225.209,179.596 226.209,179.263 227.5,179.5C 228.63,186.754 228.796,194.087 228,201.5C 222.333,208.167 216.667,208.167 211,201.5C 210.5,194.508 210.334,187.508 210.5,180.5C 212.518,179.067 214.185,179.401 215.5,181.5 Z"/></g>
<g><path style="opacity:1" fill="#87c6fb" d="M 224.5,180.5 C 223.707,186.753 223.207,193.086 223,199.5C 220.667,202.167 218.333,202.167 216,199.5C 215.501,193.509 215.334,187.509 215.5,181.5C 218.545,181.492 221.545,181.159 224.5,180.5 Z"/></g>
<g><path style="opacity:1" fill="#8e7f8e" d="M 61.5,189.5 C 64.1591,199.147 66.8258,208.814 69.5,218.5C 66.1667,218.5 62.8333,218.5 59.5,218.5C 56.9761,207.928 53.6427,197.594 49.5,187.5C 50,187.167 50.5,186.833 51,186.5C 54.351,188.046 57.851,189.046 61.5,189.5 Z"/></g>
<g><path style="opacity:1" fill="#8f5842" d="M 336.5,186.5 C 332.912,189.738 331.745,193.738 333,198.5C 347.054,216.591 357.721,236.591 365,258.5C 372.189,284.244 373.356,310.244 368.5,336.5C 364.298,336.817 360.298,336.483 356.5,335.5C 358.467,335.739 360.301,335.406 362,334.5C 369.809,284.062 357.809,239.062 326,199.5C 323.851,190.49 327.351,186.156 336.5,186.5 Z"/></g>
<g><path style="opacity:1" fill="#796c79" d="M 69.5,218.5 C 66.8258,208.814 64.1591,199.147 61.5,189.5C 62.8734,189.657 64.2068,189.49 65.5,189C 69.0364,185.799 72.2031,182.299 75,178.5C 77.4551,184.323 79.2884,190.323 80.5,196.5C 77.1794,195.837 73.8461,195.17 70.5,194.5C 68.626,194.39 67.126,195.056 66,196.5C 67.6282,203.558 69.7948,210.558 72.5,217.5C 71.675,218.386 70.675,218.719 69.5,218.5 Z"/></g>
<g><path style="opacity:1" fill="#766975" d="M 90.5,231.5 C 98.477,220.384 98.477,209.384 90.5,198.5C 92.5065,196.161 94.5065,193.828 96.5,191.5C 100.429,201.286 103.762,211.286 106.5,221.5C 106.124,223.383 105.124,224.883 103.5,226C 100.991,227.421 98.6572,229.088 96.5,231C 94.5273,231.495 92.5273,231.662 90.5,231.5 Z"/></g>
<g><path style="opacity:1" fill="#24a0f5" d="M 161.5,192.5 C 163.764,193.581 165.931,194.915 168,196.5C 168.499,202.157 168.666,207.824 168.5,213.5C 164.91,213.456 162.41,211.789 161,208.5C 160.219,203.083 160.385,197.75 161.5,192.5 Z"/></g>
<g><path style="opacity:1" fill="#25a2f8" d="M 274.5,192.5 C 275.496,192.414 276.329,192.748 277,193.5C 277.667,198.5 277.667,203.5 277,208.5C 275.704,211.962 273.204,213.628 269.5,213.5C 269.171,207.794 269.505,202.128 270.5,196.5C 272.188,195.479 273.521,194.145 274.5,192.5 Z"/></g>
<g><path style="opacity:1" fill="#8f808f" d="M 90.5,198.5 C 98.477,209.384 98.477,220.384 90.5,231.5C 87.5,231.5 84.5,231.5 81.5,231.5C 78.5744,221.056 75.2411,210.723 71.5,200.5C 71.8333,200.167 72.1667,199.833 72.5,199.5C 77.3455,201.464 82.3455,202.297 87.5,202C 88.6364,200.855 89.6364,199.688 90.5,198.5 Z"/></g>
<g><path style="opacity:1" fill="#0f1216" d="M 184.5,200.5 C 189.988,203.127 195.488,203.127 201,200.5C 202.301,201.098 203.135,202.098 203.5,203.5C 202.221,205.146 200.555,206.313 198.5,207C 194.833,207.667 191.167,207.667 187.5,207C 183.882,205.936 182.882,203.769 184.5,200.5 Z"/></g>
<g><path style="opacity:1" fill="#0d1115" d="M 236.5,200.5 C 241.988,203.127 247.488,203.127 253,200.5C 254.5,200.667 255.333,201.5 255.5,203C 254.48,205.026 252.813,206.359 250.5,207C 246.833,207.667 243.167,207.667 239.5,207C 235.864,205.899 234.864,203.732 236.5,200.5 Z"/></g>
<g><path style="opacity:0.986" fill="#c0bac1" d="M 327.5,222.5 C 326.883,222.611 326.383,222.944 326,223.5C 324.796,248.838 323.629,274.172 322.5,299.5C 320.629,299.141 319.129,298.141 318,296.5C 318.065,268.161 318.732,239.828 320,211.5C 323.138,214.792 325.638,218.458 327.5,222.5 Z"/></g>
<g><path style="opacity:1" fill="#eedb02" d="M 162.5,217.5 C 164.764,218.219 167.097,218.552 169.5,218.5C 169.292,223.627 169.958,228.627 171.5,233.5C 162.573,234.738 158.74,230.738 160,221.5C 160.662,220.016 161.496,218.683 162.5,217.5 Z"/></g>
<g><path style="opacity:1" fill="#fae502" d="M 276.5,219.5 C 275.839,224.659 273.339,228.659 269,231.5C 268.51,230.207 268.343,228.873 268.5,227.5C 269.159,224.545 269.492,221.545 269.5,218.5C 271.401,218.567 273.234,218.233 275,217.5C 276.03,217.836 276.53,218.503 276.5,219.5 Z"/></g>
<g><path style="opacity:1" fill="#efbf00" d="M 276.5,219.5 C 277.117,219.611 277.617,219.944 278,220.5C 279.805,230.184 275.972,234.518 266.5,233.5C 267.05,231.343 267.717,229.343 268.5,227.5C 268.343,228.873 268.51,230.207 269,231.5C 273.339,228.659 275.839,224.659 276.5,219.5 Z"/></g>
<g><path style="opacity:1" fill="#b7aeb7" d="M 101.5,232.5 C 104.149,236.915 106.149,241.749 107.5,247C 107.095,247.945 106.428,248.612 105.5,249C 102.828,249.834 100.161,250.668 97.5,251.5C 96.914,251.291 96.414,250.957 96,250.5C 94.4909,245.973 92.9909,241.473 91.5,237C 95.525,236.817 98.8584,235.317 101.5,232.5 Z"/></g>
<g><path style="opacity:1" fill="#bab1ba" d="M 69.5,224.5 C 71.0348,223.212 72.7015,223.212 74.5,224.5C 75.6676,227.839 76.8342,231.172 78,234.5C 80.672,235.867 83.5054,236.867 86.5,237.5C 88.933,242.753 90.2664,248.087 90.5,253.5C 87.221,255.281 83.8876,255.947 80.5,255.5C 76.9998,244.993 73.3331,234.659 69.5,224.5 Z"/></g>
<g><path style="opacity:1" fill="#05080a" d="M 208.5,238.5 C 215.321,242.46 222.155,242.46 229,238.5C 230.301,239.098 231.135,240.098 231.5,241.5C 224.131,247.098 216.464,247.598 208.5,243C 207.272,241.51 207.272,240.01 208.5,238.5 Z"/></g>
<g><path style="opacity:1" fill="#3b3a40" d="M 266.5,239.5 C 270.511,242.601 274.678,245.601 279,248.5C 282.322,253.205 282.322,257.872 279,262.5C 277.183,271.7 280.683,277.867 289.5,281C 290.999,281.838 291.332,282.671 290.5,283.5C 284.223,281.68 277.889,280.014 271.5,278.5C 254.365,282.689 246.531,276.022 248,258.5C 254.791,253.877 259.958,247.877 263.5,240.5C 264.325,239.614 265.325,239.281 266.5,239.5 Z"/></g>
<g><path style="opacity:1" fill="#2b2b2d" d="M 266.5,239.5 C 269.187,239.336 271.854,239.503 274.5,240C 275.167,241 275.833,242 276.5,243C 280.088,245.377 283.588,247.877 287,250.5C 287.875,251.873 288.375,253.373 288.5,255C 285.45,261.335 284.95,267.835 287,274.5C 288.046,276.09 289.213,277.59 290.5,279C 294.183,280.841 297.516,283.174 300.5,286C 296.949,285.869 293.615,285.035 290.5,283.5C 291.332,282.671 290.999,281.838 289.5,281C 280.683,277.867 277.183,271.7 279,262.5C 282.322,257.872 282.322,253.205 279,248.5C 274.678,245.601 270.511,242.601 266.5,239.5 Z"/></g>
<g><path style="opacity:1" fill="#3b3a41" d="M 165.5,239.5 C 168.187,239.336 170.854,239.503 173.5,240C 177.573,247.408 183.073,253.575 190,258.5C 191.822,276.506 183.989,283.173 166.5,278.5C 159.454,280.135 152.454,281.635 145.5,283C 149.817,280.685 152.65,277.185 154,272.5C 153.135,266.218 152.468,259.884 152,253.5C 152.785,251.714 153.951,250.214 155.5,249C 160.674,247.657 164.008,244.49 165.5,239.5 Z"/></g>
<g><path style="opacity:1" fill="#be8672" d="M 129.5,245.5 C 131.124,245.36 132.29,246.027 133,247.5C 134.119,250.057 134.285,252.557 133.5,255C 111.865,262.267 90.198,269.434 68.5,276.5C 66.0626,274.909 64.7293,272.576 64.5,269.5C 64.6082,268.558 64.9415,267.725 65.5,267C 87.105,260.299 108.438,253.132 129.5,245.5 Z"/></g>
<g><path style="opacity:1" fill="#905942" d="M 120.5,292.5 C 107.705,283.171 93.3717,280.004 77.5,283C 76.0267,283.71 75.3601,284.876 75.5,286.5C 74.3882,284.401 73.7215,282.067 73.5,279.5C 92.4815,273.506 111.482,267.506 130.5,261.5C 131.647,261.818 132.481,262.484 133,263.5C 134.68,269.22 136.513,274.887 138.5,280.5C 137.041,282.583 135.708,284.75 134.5,287C 129.578,288.359 124.911,290.193 120.5,292.5 Z"/></g>
<g><path style="opacity:1" fill="#28a5fb" d="M 243.5,271.5 C 233.68,274.213 223.68,275.046 213.5,274C 207.084,272.286 201.084,269.786 195.5,266.5C 195.238,265.022 195.571,263.689 196.5,262.5C 211.819,269.085 227.152,269.085 242.5,262.5C 242.508,265.545 242.841,268.545 243.5,271.5 Z"/></g>
<g><path style="opacity:1" fill="#88c6fa" d="M 195.5,266.5 C 201.084,269.786 207.084,272.286 213.5,274C 223.68,275.046 233.68,274.213 243.5,271.5C 244.775,275.701 247.275,279.034 251,281.5C 252.227,285.591 251.394,289.091 248.5,292C 236.281,301.099 222.615,304.099 207.5,301C 199.648,298.491 192.815,294.325 187,288.5C 186.333,286.167 186.333,283.833 187,281.5C 192.419,277.997 195.253,272.997 195.5,266.5 Z"/></g>
<g><path style="opacity:1" fill="#a86950" d="M 120.5,292.5 C 109.015,300.452 102.348,311.452 100.5,325.5C 99.8333,336.5 99.1667,347.5 98.5,358.5C 90.8336,334.501 83.1669,310.501 75.5,286.5C 75.3601,284.876 76.0267,283.71 77.5,283C 93.3717,280.004 107.705,283.171 120.5,292.5 Z"/></g>
<g><path style="opacity:1" fill="#f4df03" d="M 170.5,395.5 C 164.5,396.833 158.5,396.833 152.5,395.5C 153.493,359.239 153.826,322.906 153.5,286.5C 158.322,284.712 163.322,283.712 168.5,283.5C 168.333,320.168 168.5,356.835 169,393.5C 169.717,394.044 170.217,394.711 170.5,395.5 Z"/></g>
<g><path style="opacity:1" fill="#e5bf00" d="M 284.5,393.5 C 283.502,359.671 283.168,325.671 283.5,291.5C 278.743,290.81 274.076,289.81 269.5,288.5C 269.5,286.833 269.5,285.167 269.5,283.5C 274.538,284.343 279.538,285.343 284.5,286.5C 284.5,322.167 284.5,357.833 284.5,393.5 Z"/></g>
<g><path style="opacity:1" fill="#efbe00" d="M 179.5,284.5 C 181.156,293.287 182.156,302.287 182.5,311.5C 184.402,321.903 189.736,330.07 198.5,336C 204.895,339.528 211.229,343.028 217.5,346.5C 215.801,346.66 214.134,346.494 212.5,346C 203.339,341.254 194.339,336.254 185.5,331C 182.622,328.291 179.956,325.458 177.5,322.5C 176.503,329.803 176.169,337.137 176.5,344.5C 175.685,343.571 174.852,342.571 174,341.5C 173.5,322.836 173.333,304.17 173.5,285.5C 175.5,285.167 177.5,284.833 179.5,284.5 Z"/></g>
<g><path style="opacity:1" fill="#7f6500" d="M 179.5,284.5 C 180.209,283.596 181.209,283.263 182.5,283.5C 182.5,292.833 182.5,302.167 182.5,311.5C 182.156,302.287 181.156,293.287 179.5,284.5 Z"/></g>
<g><path style="opacity:1" fill="#f3c100" d="M 257.5,284.5 C 257.833,284.5 258.167,284.5 258.5,284.5C 260.435,285.15 262.435,285.483 264.5,285.5C 264.667,304.17 264.5,322.836 264,341.5C 258.701,348.127 252.201,353.294 244.5,357C 239.341,359.412 234.341,362.079 229.5,365C 227.648,365.773 226.314,365.273 225.5,363.5C 239.139,359.267 249.973,351.267 258,339.5C 261.938,329.91 263.438,319.91 262.5,309.5C 262.333,303.5 262.167,297.5 262,291.5C 260.988,288.798 259.488,286.465 257.5,284.5 Z"/></g>
<g><path style="opacity:1" fill="#fbe602" d="M 257.5,284.5 C 259.488,286.465 260.988,288.798 262,291.5C 262.167,297.5 262.333,303.5 262.5,309.5C 263.438,319.91 261.938,329.91 258,339.5C 249.973,351.267 239.139,359.267 225.5,363.5C 220.63,357.956 216.297,358.456 212.5,365C 211.167,365.667 209.833,365.667 208.5,365C 201.167,361 193.833,357 186.5,353C 182.975,350.302 179.642,347.469 176.5,344.5C 176.169,337.137 176.503,329.803 177.5,322.5C 179.956,325.458 182.622,328.291 185.5,331C 194.339,336.254 203.339,341.254 212.5,346C 214.134,346.494 215.801,346.66 217.5,346.5C 226.31,343.428 234.644,339.261 242.5,334C 249.526,328.447 253.859,321.28 255.5,312.5C 256.167,303.167 256.833,293.833 257.5,284.5 Z"/></g>
<g><path style="opacity:1" fill="#f84553" d="M 151.5,395.5 C 137.339,396.661 123.006,396.827 108.5,396C 107.099,395.59 105.766,395.09 104.5,394.5C 104.333,371.164 104.5,347.831 105,324.5C 111.221,302.133 126.055,290.133 149.5,288.5C 149.333,323.835 149.5,359.168 150,394.5C 150.383,395.056 150.883,395.389 151.5,395.5 Z"/></g>
<g><path style="opacity:1" fill="#fce703" d="M 269.5,288.5 C 274.076,289.81 278.743,290.81 283.5,291.5C 283.168,325.671 283.502,359.671 284.5,393.5C 285.167,394.167 285.833,394.833 286.5,395.5C 280.5,396.833 274.5,396.833 268.5,395.5C 269.493,359.906 269.826,324.24 269.5,288.5 Z"/></g>
<g><path style="opacity:1" fill="#f82a39" d="M 291.5,289.5 C 310.684,292.827 322.851,303.827 328,322.5C 328.5,346.831 328.667,371.164 328.5,395.5C 327.5,395.5 326.5,395.5 325.5,395.5C 324.167,395.5 322.833,395.5 321.5,395.5C 321.667,373.164 321.5,350.831 321,328.5C 317.162,310.834 306.662,299.501 289.5,294.5C 289.077,292.219 289.744,290.552 291.5,289.5 Z"/></g>
<g><path style="opacity:1" fill="#481317" d="M 291.5,289.5 C 289.744,290.552 289.077,292.219 289.5,294.5C 289.832,327.671 289.498,360.671 288.5,393.5C 288.5,358.5 288.5,323.5 288.5,288.5C 289.791,288.263 290.791,288.596 291.5,289.5 Z"/></g>
<g><path style="opacity:1" fill="#fc4654" d="M 289.5,294.5 C 306.662,299.501 317.162,310.834 321,328.5C 321.5,350.831 321.667,373.164 321.5,395.5C 322.833,395.5 324.167,395.5 325.5,395.5C 312.833,396.833 300.167,396.833 287.5,395.5C 287.833,394.833 288.167,394.167 288.5,393.5C 289.498,360.671 289.832,327.671 289.5,294.5 Z"/></g>
<g><path style="opacity:1" fill="#2aa2f7" d="M 188.5,296.5 C 195.282,301.721 202.949,305.055 211.5,306.5C 210.754,307.736 210.421,309.07 210.5,310.5C 201.806,309.492 194.14,306.159 187.5,300.5C 187.232,298.901 187.566,297.568 188.5,296.5 Z"/></g>
<g><path style="opacity:1" fill="#2a9ff2" d="M 251.5,300.5 C 244.882,306.154 237.216,309.487 228.5,310.5C 228.579,309.07 228.246,307.736 227.5,306.5C 236.178,304.577 244.012,300.91 251,295.5C 251.494,297.134 251.66,298.801 251.5,300.5 Z"/></g>
<g><path style="opacity:1" fill="#564e01" d="M 258.5,284.5 C 258.167,284.5 257.833,284.5 257.5,284.5C 256.833,293.833 256.167,303.167 255.5,312.5C 255.5,302.833 255.5,293.167 255.5,283.5C 256.791,283.263 257.791,283.596 258.5,284.5 Z"/></g>
<g><path style="opacity:1" fill="#426b8d" d="M 188.5,296.5 C 187.566,297.568 187.232,298.901 187.5,300.5C 187.5,304.167 187.5,307.833 187.5,311.5C 186.185,306.32 186.185,300.986 187.5,295.5C 188.107,295.624 188.44,295.957 188.5,296.5 Z"/></g>
<g><path style="opacity:1" fill="#86c6fb" d="M 187.5,300.5 C 194.14,306.159 201.806,309.492 210.5,310.5C 211.597,319.215 216.263,322.048 224.5,319C 227.321,316.859 228.654,314.025 228.5,310.5C 237.216,309.487 244.882,306.154 251.5,300.5C 252.876,313.233 248.543,323.4 238.5,331C 232.064,334.634 225.564,338.134 219,341.5C 208.985,336.994 199.985,330.994 192,323.5C 189.646,319.797 188.146,315.797 187.5,311.5C 187.5,307.833 187.5,304.167 187.5,300.5 Z"/></g>
<g><path style="opacity:1" fill="#f0d401" d="M 216.5,307.5 C 223.536,306.603 225.203,309.103 221.5,315C 215.785,315.401 214.119,312.901 216.5,307.5 Z"/></g>
<g><path style="opacity:1" fill="#58362a" d="M 100.5,325.5 C 100.667,337.505 100.5,349.505 100,361.5C 99.4867,360.473 98.9867,359.473 98.5,358.5C 99.1667,347.5 99.8333,336.5 100.5,325.5 Z"/></g>
<g><path style="opacity:1" fill="#fbe602" d="M 364.5,341.5 C 364.877,348.257 364.377,354.924 363,361.5C 360.75,366.54 356.917,369.54 351.5,370.5C 351.334,361.161 351.5,351.827 352,342.5C 356.066,341.536 360.233,341.203 364.5,341.5 Z"/></g>
<g><path style="opacity:1" fill="#f3c100" d="M 364.5,341.5 C 367.119,341.232 369.619,341.565 372,342.5C 372.218,352.521 371.718,362.521 370.5,372.5C 364.886,373.621 359.22,373.788 353.5,373C 352.244,372.583 351.577,371.75 351.5,370.5C 356.917,369.54 360.75,366.54 363,361.5C 364.377,354.924 364.877,348.257 364.5,341.5 Z"/></g>
<g><path style="opacity:1" fill="#27a2f7" d="M 265.5,395.5 C 264.5,395.5 263.5,395.5 262.5,395.5C 262.667,382.829 262.5,370.162 262,357.5C 261.5,357 261,356.5 260.5,356C 251.448,361.029 242.115,365.862 232.5,370.5C 231.262,370.19 231.262,369.69 232.5,369C 243.508,363.5 253.841,357 263.5,349.5C 264.182,364.896 264.848,380.23 265.5,395.5 Z"/></g>
<g><path style="opacity:1" fill="#2a9ceb" d="M 205.5,371.5 C 197.397,366.944 189.397,362.11 181.5,357C 180.167,356.333 178.833,356.333 177.5,357C 176.511,369.754 176.178,382.587 176.5,395.5C 174.833,396.833 173.167,396.833 171.5,395.5C 173.131,380.393 174.131,365.06 174.5,349.5C 184.829,357.335 195.829,364.169 207.5,370C 206.956,370.717 206.289,371.217 205.5,371.5 Z"/></g>
<g><path style="opacity:1" fill="#88c7fd" d="M 205.5,371.5 C 203.221,373.723 202.388,376.389 203,379.5C 207.711,384.706 212.211,390.039 216.5,395.5C 203.419,396.609 190.086,396.609 176.5,395.5C 176.178,382.587 176.511,369.754 177.5,357C 178.833,356.333 180.167,356.333 181.5,357C 189.397,362.11 197.397,366.944 205.5,371.5 Z"/></g>
<g><path style="opacity:1" fill="#86c7fd" d="M 265.5,395.5 C 250.815,396.71 236.148,396.71 221.5,395.5C 226.541,390.47 231.374,385.137 236,379.5C 236.127,376.084 234.96,373.084 232.5,370.5C 242.115,365.862 251.448,361.029 260.5,356C 261,356.5 261.5,357 262,357.5C 262.5,370.162 262.667,382.829 262.5,395.5C 263.5,395.5 264.5,395.5 265.5,395.5 Z"/></g>
<g><path style="opacity:1" fill="#f0be00" d="M 215.5,386.5 C 216.75,386.423 217.583,385.756 218,384.5C 220.458,378.529 219.625,373.195 215.5,368.5C 216.562,366.243 218.228,365.077 220.5,365C 223.981,369.315 227.647,373.482 231.5,377.5C 227.716,381.573 224.049,385.74 220.5,390C 218.228,389.923 216.562,388.757 215.5,386.5 Z"/></g>
<g><path style="opacity:1" fill="#f8e202" d="M 215.5,368.5 C 219.625,373.195 220.458,378.529 218,384.5C 217.583,385.756 216.75,386.423 215.5,386.5C 212.884,383.545 210.218,380.545 207.5,377.5C 210.189,374.48 212.856,371.48 215.5,368.5 Z"/></g>
<g><path style="opacity:0.999" fill="#975d46" d="M 369.5,395.5 C 364.725,395.895 360.058,395.895 355.5,395.5C 356.452,389.925 356.786,384.259 356.5,378.5C 360.5,378.5 364.5,378.5 368.5,378.5C 368.26,384.227 368.593,389.894 369.5,395.5 Z"/></g>
</svg>
