<svg xmlns="http://www.w3.org/2000/svg" data-name="Layer 1" viewBox="0 0 512 512" id="lord-vishnu"><path fill="#aa6a51" d="M408.13 101.194c-16.165 10.14-27.288 31.348-27.288 55.87 0 34.367 21.85 62.228 48.805 62.228s48.805-27.86 48.805-62.229c0-24.392-11.007-45.507-27.034-55.709"></path><path fill="#935b44" d="m451.418 101.354-5.418-.02c11.243 11.4 18.453 28.99 18.453 48.73 0 34.367-21.851 62.228-48.806 62.228a38.883 38.883 0 0 1-10.597-1.488 40.915 40.915 0 0 0 24.597 8.488c26.955 0 48.806-27.86 48.806-62.229 0-24.392-11.008-45.507-27.035-55.709Z"></path><path fill="#d1a08f" d="m410.495 193.458 6.182-63.582h32.844l-2.97 76.785a101.673 101.673 0 0 1-105.629 97.653l-72.63-2.876V289.02l56.373-7.168a98.744 98.744 0 0 0 85.83-88.394Z"></path><path fill="#c68d7a" d="m435.25 129.876-2.7 69.785a101.673 101.673 0 0 1-105.628 97.653l-58.63-2.322v6.446l72.63 2.876a101.673 101.673 0 0 0 105.629-97.653l2.97-76.785Z"></path><path fill="#bc7c63" d="M424.225 157.35h10.844a21.034 21.034 0 0 0 20.696-17.269l4.883-26.85a10.21 10.21 0 0 0-10.047-12.037h-41.907a10.21 10.21 0 0 0-10.048 12.037l4.883 26.85a21.034 21.034 0 0 0 20.696 17.27Z"></path><path fill="#aa6a51" d="M450.6 101.194h-4.316a10.125 10.125 0 0 1 .364 5.037l-4.883 26.85a21.034 21.034 0 0 1-20.696 17.27h-10.844c-.579 0-1.15-.03-1.72-.077a21.007 21.007 0 0 0 15.72 7.077h10.844a21.034 21.034 0 0 0 20.696-17.27l4.883-26.85a10.21 10.21 0 0 0-10.047-12.037zm-339.829 0c16.165 10.14 27.288 31.348 27.288 55.87 0 34.367-21.85 62.228-48.805 62.228s-48.805-27.86-48.805-62.229c0-24.392 11.007-45.507 27.034-55.709"></path><path fill="#935b44" d="m110.771 101.194-5.286.02c11.312 11.396 18.574 29.04 18.574 48.85 0 34.367-21.85 62.228-48.805 62.228a38.885 38.885 0 0 1-10.597-1.488 40.915 40.915 0 0 0 24.597 8.488c26.954 0 48.805-27.86 48.805-62.229 0-24.52-11.123-45.73-27.288-55.87Z"></path><path fill="#d1a08f" d="m108.406 193.458-6.182-63.582H69.38l2.97 76.785a101.673 101.673 0 0 0 105.629 97.653l72.63-2.876V289.02l-56.373-7.168a98.744 98.744 0 0 1-85.83-88.394Z"></path><path fill="#c68d7a" d="M194.236 281.852a98.744 98.744 0 0 1-85.83-88.394l-6.182-63.582H69.38l.27 7h18.574l6.182 63.582a98.744 98.744 0 0 0 85.83 88.394l56.373 7.168v5.972l14-.554V289.02Z"></path><path fill="#bc7c63" d="M94.676 157.35H83.832a21.034 21.034 0 0 1-20.696-17.269l-4.883-26.85A10.21 10.21 0 0 1 68.3 101.194h41.907a10.21 10.21 0 0 1 10.048 12.037l-4.883 26.85a21.034 21.034 0 0 1-20.696 17.27Z"></path><path fill="#aa6a51" d="M110.207 101.194h-4.316a10.125 10.125 0 0 1 .364 5.037l-4.883 26.85a21.035 21.035 0 0 1-20.696 17.27H69.832c-.579 0-1.151-.03-1.72-.077a21.007 21.007 0 0 0 15.72 7.077h10.844a21.035 21.035 0 0 0 20.696-17.27l4.883-26.85a10.21 10.21 0 0 0-10.048-12.037Z"></path><path fill="#aa6a51" d="M189.472 46.956c16.165 10.14 27.288 31.348 27.288 55.87 0 34.367-21.85 62.228-48.805 62.228s-48.805-27.86-48.805-62.229c0-24.392 11.007-45.507 27.034-55.709"></path><path fill="#935b44" d="m189.472 46.956-5.286.02c11.312 11.396 18.574 29.04 18.574 48.85 0 34.367-21.85 62.228-48.805 62.228a38.885 38.885 0 0 1-10.597-1.488 40.915 40.915 0 0 0 24.597 8.488c26.954 0 48.805-27.86 48.805-62.229 0-24.52-11.123-45.729-27.288-55.87Z"></path><path fill="#d1a08f" d="M192.676 160.243a36.696 36.696 0 0 1-4.847-18.273V75.638h-39.748v73.43a56.643 56.643 0 0 0 24.09 46.394Z"></path><path fill="#c68d7a" d="M173.829 75.638h14v66.332h-14z"></path><path fill="#bc7c63" d="M173.377 103.113h-10.844a21.034 21.034 0 0 1-20.696-17.27l-4.883-26.85A10.21 10.21 0 0 1 147 46.956h41.907a10.21 10.21 0 0 1 10.048 12.037l-4.883 26.85a21.034 21.034 0 0 1-20.696 17.27Z"></path><path fill="#aa6a51" d="M188.908 46.956h-4.316a10.125 10.125 0 0 1 .364 5.037l-4.883 26.85a21.034 21.034 0 0 1-20.696 17.27h-10.844c-.579 0-1.151-.03-1.72-.077a21.007 21.007 0 0 0 15.72 7.077h10.844a21.034 21.034 0 0 0 20.696-17.27l4.883-26.85a10.21 10.21 0 0 0-10.048-12.037zm140.52 0c-16.164 10.14-27.287 31.348-27.287 55.87 0 34.367 21.85 62.228 48.805 62.228s48.806-27.86 48.806-62.229c0-24.392-11.008-45.507-27.035-55.709z"></path><path fill="#935b44" d="m372.717 47.116-5.418-.02c11.243 11.4 18.452 28.99 18.452 48.73 0 34.367-21.85 62.228-48.805 62.228a38.886 38.886 0 0 1-10.597-1.488 40.916 40.916 0 0 0 24.597 8.488c26.955 0 48.805-27.86 48.805-62.229 0-24.392-11.007-45.507-27.034-55.709Z"></path><path fill="#d1a08f" d="M324.905 162.378a36.7 36.7 0 0 0 6.167-20.408V75.638h39.748v73.43a56.678 56.678 0 0 1-27.162 48.412Z"></path><path fill="#c68d7a" d="M345.811 196.096a56.654 56.654 0 0 0 25.01-47.028v-73.43h-14v66.43a56.515 56.515 0 0 1-15.584 39.045Z"></path><path fill="#bc7c63" d="M345.524 103.113h10.844a21.034 21.034 0 0 0 20.696-17.27l4.883-26.85A10.21 10.21 0 0 0 371.9 46.956h-41.907a10.21 10.21 0 0 0-10.048 12.037l4.883 26.85a21.034 21.034 0 0 0 20.696 17.27Z"></path><path fill="#aa6a51" d="M371.9 46.956h-4.317a10.125 10.125 0 0 1 .364 5.037l-4.883 26.85a21.034 21.034 0 0 1-20.696 17.27h-10.844c-.578 0-1.151-.03-1.72-.077a21.008 21.008 0 0 0 15.72 7.077h10.844a21.034 21.034 0 0 0 20.696-17.27l4.883-26.85A10.211 10.211 0 0 0 371.9 46.956zm-135.135-36.46c-17.11 10.734-28.886 33.185-28.886 59.141 0 36.38 23.13 65.872 51.663 65.872s51.663-29.492 51.663-65.872c0-25.82-11.652-48.171-28.617-58.97"></path><path fill="#935b44" d="m282.588 10.666-5.326-.02c12.135 12.054 19.943 30.858 19.943 51.991 0 36.38-23.13 65.872-51.663 65.872a41.185 41.185 0 0 1-11.653-1.703 43.219 43.219 0 0 0 25.653 8.703c28.533 0 51.663-29.492 51.663-65.872 0-25.82-11.652-48.171-28.617-58.97Z"></path><path fill="#d1a08f" d="M238.504 40.859h42.076v137.763h-42.076z"></path><path fill="#c68d7a" d="M266.58 40.859h14v137.763h-14z"></path><path fill="#bc7c63" d="M253.803 69.941h11.479a22.266 22.266 0 0 0 21.908-18.28l5.168-28.423a10.809 10.809 0 0 0-10.636-12.741h-44.36a10.809 10.809 0 0 0-10.636 12.741l5.169 28.423a22.266 22.266 0 0 0 21.908 18.28Z"></path><path fill="#aa6a51" d="M281.722 10.497h-3.886a10.727 10.727 0 0 1 .522 5.741l-5.169 28.423a22.266 22.266 0 0 1-21.908 18.28h-11.478a22.348 22.348 0 0 1-2.305-.13 22.229 22.229 0 0 0 16.305 7.13h11.478a22.266 22.266 0 0 0 21.908-18.28l5.17-28.423a10.809 10.809 0 0 0-10.637-12.741Z"></path><path fill="#8ac9fe" d="M79.438 512a13 13 0 0 1-9.089-3.705l-41.415-40.493a29.587 29.587 0 0 1-8.492-26.074L38.13 336.825l28.195 2.324-.118 86.071a9.82 9.82 0 0 0 2.969 7.06l49.09 47.996L111.633 512Z"></path><path fill="#26a6fe" d="m52.326 346.15-.118 86.07a9.82 9.82 0 0 0 2.969 7.06l49.09 47.996L99.097 512h12.536l6.634-31.724-49.09-47.995a9.82 9.82 0 0 1-2.97-7.061l.12-86.07H51.781Z"></path><path fill="#fee903" d="M27.97 397.084h38.277l.034-24.846H32.159l-4.189 24.846z"></path><path fill="#fac600" d="m66.247 397.084.034-24.846H52.29l-.034 24.846h13.991z"></path><path fill="#8ac9fe" d="m66.31 351.704.019-12.555.16-13.226a87.22 87.22 0 0 0-3.325-16.719 87.205 87.205 0 0 0-5.453-13.696l-1.85-23.66H44.556v13.802a4.95 4.95 0 0 1-4.038 4.846 20.429 20.429 0 0 0-7.035 2.75c-8.96 5.654-11.669 17.716-9.775 26.922 2.098 10.2 10.175 18.467 20.782 21.537Z"></path><path fill="#26a6fe" d="M63.165 309.204a87.233 87.233 0 0 0-5.454-13.696l-1.85-23.66H44.556v13.802a4.874 4.874 0 0 1-1.354 3.359l.508 6.499a87.233 87.233 0 0 1 5.454 13.696 87.241 87.241 0 0 1 3.324 16.719l-.16 13.226-.01 6.144 13.992 6.411.018-12.555.16-13.226a87.241 87.241 0 0 0-3.324-16.719Z"></path><ellipse cx="50.493" cy="261.436" fill="#fee903" rx="46.993" ry="13.915"></ellipse><path fill="#fac600" d="M82.161 251.156a5.193 5.193 0 0 1 1.326 3.28c0 7.684-21.04 13.914-46.994 13.914-12.2 0-23.314-1.377-31.668-3.635 4.982 6.102 23.532 10.635 45.668 10.635 25.954 0 46.994-6.23 46.994-13.915 0-4.072-5.91-7.735-15.326-10.28Z"></path><path fill="#e5e1e5" d="M455.945 297.419c9.705 6.736 17.383 1.788 30.01 6.884 8.11 3.272 14.258 9.07 18.977 15.607 8.541-24.743 1.225-50.268-16.375-62.334-14.465-9.915-31.056-7.436-35.78-6.558-1.246 1.365-11.343 12.796-8.378 27.947.394 2.013 2.617 12.256 11.546 18.454Z"></path><path fill="#efedef" d="M488.557 257.576c-9.976-6.838-20.962-7.78-28.37-7.42l6.788 15.97a96.842 96.842 0 0 1 37.957 53.784c8.542-24.743 1.225-50.268-16.375-62.334Z"></path><path fill="#baafb9" d="M452.778 251.018c-1.074 1.175-8.707 9.823-8.91 21.878a25.696 25.696 0 0 0 20.692-4.694 27.587 27.587 0 0 0 5.262-5.344 30.007 30.007 0 0 0 5.214-11.313 53.345 53.345 0 0 0-22.258-.527Z"></path><path fill="#8ac9fe" d="m399.885 512-6.612-31.723 49.09-47.996a9.82 9.82 0 0 0 2.969-7.061l-.156-89.273 28.582 3.202 17.34 102.58a29.587 29.587 0 0 1-8.493 26.073l-41.61 40.512a13 13 0 0 1-9.068 3.686Z"></path><path fill="#26a6fe" d="m491.098 441.728-17.34-102.579h-14l17.34 102.58a29.587 29.587 0 0 1-8.493 26.073l-41.61 40.512a13 13 0 0 1-9.068 3.686h14a13 13 0 0 0 9.069-3.686l41.61-40.512a29.587 29.587 0 0 0 8.492-26.074Z"></path><path fill="#fee903" d="M479.351 372.238h-34.112l.043 24.846h38.269l-4.2-24.846z"></path><path fill="#fac600" d="m482.426 390.426-3.075-18.188h-14l4.2 24.846h14l-1.125-6.658z"></path><path fill="#8ac9fe" d="m454.009 342.552-8.164-3.881-8.18-7.654a21.692 21.692 0 0 1-5.537-23.335l2.22-6.027a17.754 17.754 0 0 1 17.253-11.609l4.549.152a11.834 11.834 0 0 1 9.053 18.955l-.57.755a3.993 3.993 0 0 0 1.342 5.947 15.778 15.778 0 0 1 8.432 15.256l-.647 8.038 1.253 7.418Z"></path><path fill="#26a6fe" d="m451.203 309.153-.57.755a3.994 3.994 0 0 0 1.342 5.947 15.778 15.778 0 0 1 8.432 15.256l-.647 8.038.786 4.652 14.467 2.766-1.253-7.418.647-8.038a15.778 15.778 0 0 0-8.432-15.256 3.994 3.994 0 0 1-1.342-5.947l.57-.755a11.833 11.833 0 0 0-9.053-18.955l-4.549-.152a17.711 17.711 0 0 0-5.896.81 11.848 11.848 0 0 1 5.498 18.297Z"></path><path fill="#fee903" d="M259.45 106.862a111.546 111.546 0 1 0 111.568 111.546 111.557 111.557 0 0 0-111.567-111.546Zm0 188.577a77.03 77.03 0 1 1 77.047-77.03 77.125 77.125 0 0 1-77.046 77.03Z"></path><path fill="#fac600" d="M252.45 141.71a77.563 77.563 0 0 0-7-.332 77.03 77.03 0 1 0 0 154.061c2.362 0 4.693-.123 7-.332a77.014 77.014 0 0 1 0-153.397ZM259.45 106.862c-2.351 0-4.684.082-7 .225a111.54 111.54 0 0 1 0 222.642c2.316.144 4.649.225 7 .225a111.546 111.546 0 1 0 0-223.092Z"></path><path fill="#3c3b42" d="M125.625 477.842c4.438-12.184 15.56-8.135 19.997-20.319 4.438-12.185-6.683-16.234-2.245-28.42 4.439-12.185 15.56-8.136 19.998-20.321 4.439-12.186-6.683-16.235-2.245-28.42 4.439-12.186 15.56-8.137 20-20.323 4.438-12.188-6.683-16.237-2.244-28.425s15.56-8.138 20-20.326l124.278-30.675c4.439 12.188-6.683 16.237-2.243 28.425s15.56 8.138 20 20.326c4.438 12.186-6.684 16.235-2.245 28.42 4.438 12.186 15.56 8.137 19.998 20.322 4.438 12.186-6.683 16.235-2.245 28.42 4.439 12.186 15.56 8.137 19.998 20.322 4.438 12.184-6.683 16.233-2.246 28.417Z"></path><path fill="#2c2c2e" d="M376.427 426.848a18.557 18.557 0 0 0-1.07-2.401c-.454-.147-.905-.3-1.363-.437l-63.678-18.993q-.726-.216-1.424-.484a7.735 7.735 0 0 1-2.47-12.796 66.964 66.964 0 0 0 20.216-48.027v-24.3a40.81 40.81 0 0 0-17.092-33.207 47.623 47.623 0 0 0-34.03-8.442l-16.065 2.163-16.065-2.163a47.622 47.622 0 0 0-34.03 8.442 40.807 40.807 0 0 0-17.092 33.207l-.001 26.32a64.808 64.808 0 0 0 19.49 46.426 7.697 7.697 0 0 1-3.044 12.824l-.124.037-61.816 18.438a15.91 15.91 0 0 0-3.392 5.648c-4.438 12.186 6.684 16.235 2.245 28.42-4.438 12.184-15.56 8.135-19.997 20.32l248.556-22.578c-4.437-12.184 6.684-16.233 2.246-28.417Z"></path><path fill="#2c2c2e" d="M376.427 426.848c-4.438-12.185-15.56-8.136-19.998-20.321-4.438-12.186 6.683-16.235 2.245-28.42-4.438-12.186-15.56-8.137-19.998-20.322-4.439-12.186 6.683-16.235 2.244-28.421-4.439-12.188-15.56-8.139-20-20.326-4.439-12.188 6.683-16.237 2.244-28.425l-13.134 3.242c1.615 9.78-7.13 14.143-3.11 25.183 4.44 12.187 15.561 8.138 20 20.326 4.439 12.186-6.683 16.235-2.244 28.42 4.438 12.186 15.56 8.137 19.998 20.322 4.438 12.186-6.683 16.235-2.245 28.42 4.438 12.186 15.56 8.137 19.998 20.322 4.438 12.184-6.683 16.233-2.246 28.417l-234.015 21.256c-.189.42-.371.855-.541 1.321l248.556-22.577c-4.437-12.184 6.684-16.233 2.246-28.417Z"></path><path fill="#2c2c2e" d="M328.494 365.31a17.921 17.921 0 0 0 11.7-4.335 17.851 17.851 0 0 1-1.518-3.19c-3.615-9.925 3.09-14.453 3.305-22.375a17.996 17.996 0 1 0-13.487 29.9Z"></path><circle cx="328.494" cy="340.308" r="18.005" fill="#fee903"></circle><path fill="#fac600" d="M337.233 324.574a17.997 17.997 0 0 1-24.478 24.468 18 18 0 1 0 24.478-24.468Z"></path><path fill="#2c2c2e" d="M180.22 362.145a18.008 18.008 0 1 0-2.057-28.009c-2.178 10.29 7.084 14.598 2.966 25.903a18.998 18.998 0 0 1-.91 2.106Z"></path><circle cx="190.407" cy="340.308" r="18.005" fill="#fee903"></circle><path fill="#fac600" d="M318.219 268.143a76.994 76.994 0 0 1-134.781-62.25 66.967 66.967 0 0 0-12.536 48.133l4.803 38.075a112.102 112.102 0 0 0 25.092 21.204h111.724Z"></path><path fill="#fee903" d="M326.521 306.305H192.38l-7.478-59.28a67.03 67.03 0 0 1 40.198-70.038l34.35-14.66 34.35 14.66a67.03 67.03 0 0 1 40.2 70.039Z"></path><path fill="#fac600" d="m293.801 176.987-34.35-14.66-7 2.988 27.35 11.672a67.03 67.03 0 0 1 40.198 70.039l-7.478 59.28h14l7.478-59.28a67.03 67.03 0 0 0-40.198-70.04Z"></path><path fill="#8ac9fe" d="M102.643 512v-17.296a59.154 59.154 0 0 1 42.264-56.694l63.678-18.993a19.716 19.716 0 0 0 14.085-18.904v-19.329h73.56v19.329a19.716 19.716 0 0 0 14.086 18.904l63.678 18.993a59.154 59.154 0 0 1 42.264 56.694V512Z"></path><path fill="#26a6fe" d="m130.907 445.01 63.678-18.993a19.667 19.667 0 0 0 8.757-5.436l-58.435 17.43a59.08 59.08 0 0 0-16.306 7.738q1.142-.391 2.306-.739zm243.087-7-63.678-18.993a19.716 19.716 0 0 1-14.085-18.904v-19.329h-73.56v7h59.56v19.329a19.716 19.716 0 0 0 14.085 18.904l63.678 18.993a59.154 59.154 0 0 1 42.264 56.694V512h14v-17.296a59.154 59.154 0 0 0-42.264-56.694z"></path><path fill="#26a6fe" d="M312.771 426.75a63.337 63.337 0 0 1-106.528-.034l-6.864 2.047a3.483 3.483 0 0 0 .34.749 69.959 69.959 0 0 0 56.386 33.196 9.37 9.37 0 1 0 13.84-.681 69.986 69.986 0 0 0 49.229-32.287 3.456 3.456 0 0 0 .4-.961Z"></path><path fill="#fac600" d="M213.727 116.633a41.205 41.205 0 0 0 1.592 31.69c13.439-6.946 27.724-13.946 44.132-13.946a76.58 76.58 0 0 1 32.63 7.272 41.056 41.056 0 0 0-3.62-30.97 111.981 111.981 0 0 0-74.734 5.954Z"></path><ellipse cx="259.451" cy="130.568" fill="#fee903" rx="41.152" ry="41.144"></ellipse><path fill="#fac600" d="M270.506 90.938a41.14 41.14 0 0 1-36.11 72.26 41.143 41.143 0 1 0 36.11-72.26Z"></path><path fill="#26a6fe" d="M324.417 505.152a90.474 90.474 0 0 0 17.92-27.052 46.157 46.157 0 0 0 1.465-15.171V437.17l.316-1.045-33.91-10.108a19.616 19.616 0 0 1-2.17-.808l-.09 1.272v36.448a43.358 43.358 0 0 1-22.38 37.946 54.187 54.187 0 0 1-52.453 0 43.358 43.358 0 0 1-22.38-37.946V426.48l-.151-1.194a19.772 19.772 0 0 1-1.999.73l-33.799 10.081.096 1.072v25.759a49.547 49.547 0 0 0 1.473 15.212A107.966 107.966 0 0 0 197.881 512h119.14a89.085 89.085 0 0 0 7.396-6.848Z"></path><path fill="#fee903" d="M342.337 471.1a46.157 46.157 0 0 0 1.465-15.171V430.17l.316-1.045-33.91-10.108a19.616 19.616 0 0 1-2.17-.808l-.09 1.272v36.448a43.358 43.358 0 0 1-22.38 37.946 54.187 54.187 0 0 1-52.453 0 43.358 43.358 0 0 1-22.38-37.946V419.48l-.151-1.194a19.772 19.772 0 0 1-1.999.73l-33.799 10.081.096 1.072v25.759a49.547 49.547 0 0 0 1.473 15.212A108.157 108.157 0 0 0 205.071 512h102.266a89.787 89.787 0 0 0 35-40.9Z"></path><path fill="#fac600" d="M196.736 455.929a43.358 43.358 0 0 0 22.38 37.946 54.17 54.17 0 0 0 33.226 6.31 54.131 54.131 0 0 1-19.227-6.31 43.358 43.358 0 0 1-22.38-37.946V419.48l-.151-1.194a19.772 19.772 0 0 1-1.999.73l-11.85 3.535zm147.066-25.759.316-1.045-33.91-10.108a19.616 19.616 0 0 1-2.17-.808l-.09 1.272v3.036a30.656 30.656 0 0 1 21.897 29.74l-.043 3.672a46.157 46.157 0 0 1-1.465 15.171 89.787 89.787 0 0 1-35 40.9h14a89.787 89.787 0 0 0 35-40.9 46.157 46.157 0 0 0 1.465-15.171z"></path><path fill="#26a6fe" d="M344.87 316.01s.178-6.188.473-13.988a13.202 13.202 0 0 0-13.19-13.702h-12.549V328h12.123a13.197 13.197 0 0 0 13.143-11.99zm-145.64-27.69h-12.732a12.952 12.952 0 0 0-12.94 13.443c.301 7.921.483 14.247.483 14.247l.01.12A12.99 12.99 0 0 0 186.957 328h12.275z"></path><path fill="#8ac9fe" fill-rule="evenodd" d="M259.451 396.89h-1.68a65.237 65.237 0 0 1-65.508-65.16v-26.32a40.807 40.807 0 0 1 17.092-33.207 47.623 47.623 0 0 1 34.03-8.442l16.066 2.163 16.064-2.163a47.623 47.623 0 0 1 34.03 8.442 40.81 40.81 0 0 1 17.092 33.208l.001 24.3a67.184 67.184 0 0 1-67.187 67.178Z"></path><path fill="#26a6fe" fill-rule="evenodd" d="M192.264 319.41a40.807 40.807 0 0 1 17.091-33.207 47.622 47.622 0 0 1 34.03-8.442l16.066 2.163 16.064-2.163a47.623 47.623 0 0 1 34.03 8.442 40.81 40.81 0 0 1 17.092 33.208v10.318l.001-.019v-24.3a40.81 40.81 0 0 0-17.092-33.207 47.623 47.623 0 0 0-34.03-8.442l-16.065 2.163-16.065-2.163a47.622 47.622 0 0 0-34.03 8.442 40.807 40.807 0 0 0-17.092 33.207l-.001 26.32v.016-12.336Z"></path><path fill="#26a6fe" fill-rule="evenodd" d="M326.637 305.41a40.81 40.81 0 0 0-17.091-33.207 47.599 47.599 0 0 0-13.68-6.756 40.803 40.803 0 0 1 16.771 32.964l.001 24.3a67.184 67.184 0 0 1-67.187 67.178h-1.68a65.938 65.938 0 0 1-22.236-3.836 65.511 65.511 0 0 0 36.236 10.836h1.68a67.184 67.184 0 0 0 67.187-67.179v-24.3Z"></path><rect width="77.099" height="20.01" x="220.901" y="165.636" fill="#fee903" rx="10.005"></rect><path fill="#fac600" d="M287.995 165.636h-4.455a10.009 10.009 0 0 1-9.545 13.01h-52.633a10.008 10.008 0 0 0 9.544 7h57.09a10.005 10.005 0 1 0 0-20.01Z"></path><path fill="#fd4755" d="m278.237 133.88-15.133 16.69a4.932 4.932 0 0 1-7.307 0l-15.133-16.69a4.93 4.93 0 0 1 0-6.624l15.133-16.69a4.932 4.932 0 0 1 7.307 0l15.133 16.69a4.93 4.93 0 0 1 0 6.623Z"></path><path fill="#fb2b3a" d="m278.237 127.256-15.133-16.69a4.921 4.921 0 0 0-7.154-.137c.05.05.107.085.154.137a29.778 29.778 0 0 1 0 40.004c-.047.052-.105.087-.154.137a4.921 4.921 0 0 0 7.154-.137l15.133-16.69a4.93 4.93 0 0 0 0-6.624Z"></path><path fill="#fac600" d="M259.45 261.755c-4.357 0-7.112-7.903-10.905-9.48-3.928-1.632-11.455 1.94-14.418-1.023s.61-10.487-1.022-14.414c-1.577-3.793-9.482-6.547-9.482-10.904s7.905-7.11 9.482-10.904c1.632-3.927-1.94-11.452 1.023-14.414s10.49.61 14.417-1.023c3.793-1.576 6.548-9.48 10.906-9.48s7.112 7.904 10.905 9.48c3.928 1.633 11.455-1.94 14.418 1.023s-.61 10.488 1.022 14.415c1.577 3.792 9.482 6.546 9.482 10.903s-7.905 7.111-9.482 10.904c-1.632 3.927 1.94 11.452-1.022 14.415s-10.49-.61-14.418 1.022c-3.793 1.577-6.548 9.48-10.905 9.48Z"></path><path fill="#fd6930" d="M259.45 254.919c-3.526 0-5.754-6.395-8.824-7.671-3.178-1.32-9.268 1.57-11.666-.827s.494-8.486-.827-11.664c-1.276-3.069-7.672-5.297-7.672-8.823s6.396-5.754 7.672-8.823c1.32-3.177-1.57-9.266.827-11.663s8.488.493 11.666-.827c3.07-1.276 5.298-7.671 8.824-7.671s5.755 6.395 8.825 7.67c3.178 1.321 9.268-1.57 11.666.828s-.494 8.486.827 11.664c1.276 3.069 7.672 5.297 7.672 8.822s-6.396 5.754-7.672 8.823c-1.32 3.178 1.57 9.267-.827 11.664s-8.488-.494-11.666.827c-3.07 1.276-5.298 7.67-8.824 7.67Z"></path><circle cx="259.451" cy="225.934" r="10.085" fill="#fee903"></circle><path fill="#fac600" d="M262.302 216.265a10.072 10.072 0 0 1-11.465 14.897 10.08 10.08 0 1 0 11.465-14.897Z"></path><circle cx="263.336" cy="461.667" r="9.369" fill="#fee903"></circle><path fill="#fac600" d="M266.208 452.75a9.362 9.362 0 0 1-11.725 11.964 9.366 9.366 0 1 0 11.725-11.963Z"></path><path fill="#26a6fe" d="m417.69 456.404-24.417 23.872L399.885 512h26.825v-24.2a59.045 59.045 0 0 0-9.02-31.396Z"></path><path fill="#fee903" d="M330.092 512v-87.076a5.913 5.913 0 0 1 7.604-5.67l39.75 11.853a59.154 59.154 0 0 1 42.264 56.694V512Z"></path><path fill="#fac600" d="m377.446 431.107-39.75-11.853a5.914 5.914 0 0 0-7.604 5.67v3.237l33.354 9.946a59.154 59.154 0 0 1 42.264 56.694V512h14v-24.2a59.154 59.154 0 0 0-42.264-56.693Z"></path><path fill="#fd6930" d="m357.71 425.222-20.013-5.968a5.914 5.914 0 0 0-7.605 5.67V512h27.617Z"></path><path fill="#fd5426" d="m357.71 425.222-20.013-5.968a5.914 5.914 0 0 0-7.605 5.67v3.237l27.617 8.236Z"></path><path fill="#26a6fe" d="M94.492 457.032a59.037 59.037 0 0 0-9.205 31.686V512h26.346l6.634-31.724Z"></path><path fill="#fee903" d="M188.81 512v-87.243a5.918 5.918 0 0 0-7.497-5.7l-45.647 12.642a59.164 59.164 0 0 0-43.38 57.019V512Z"></path><path fill="#fd6930" d="m181.313 419.057-20.119 5.572V512h27.615v-87.243a5.918 5.918 0 0 0-7.496-5.7Z"></path><path fill="#fee903" d="M430.737 437.352a9.904 9.904 0 0 1 13.838 2.162l26.85 36.799a9.904 9.904 0 0 1-2.162 13.838 9.904 9.904 0 0 1-13.838-2.163l-26.85-36.799a9.904 9.904 0 0 1 2.162-13.837Z"></path><path fill="#fac600" d="m471.426 476.313-26.851-36.799a9.838 9.838 0 0 0-15-1.152 9.93 9.93 0 0 1 1 1.152l26.85 36.799a9.897 9.897 0 0 1-1 12.827 9.898 9.898 0 0 0 15-12.827Z"></path><rect width="19.807" height="65.36" x="52.096" y="431.071" fill="#fee903" rx="9.904" transform="rotate(-143.883 62 463.751)"></rect><path fill="#fac600" d="M81.263 437.351a9.897 9.897 0 0 0-12.838 1.01 9.897 9.897 0 0 1 1 12.828l-26.85 36.799a9.929 9.929 0 0 1-1 1.152 9.838 9.838 0 0 0 15-1.152l26.85-36.799a9.904 9.904 0 0 0-2.162-13.838Z"></path><path d="M253.182 152.905a8.432 8.432 0 0 0 12.493 0l15.132-16.69.001-.001a8.403 8.403 0 0 0 0-11.324l-15.133-16.69a8.432 8.432 0 0 0-12.493 0l-15.133 16.69a8.4 8.4 0 0 0 0 11.325Zm-9.948-23.313 15.133-16.691a1.433 1.433 0 0 1 2.122 0l15.133 16.69a1.427 1.427 0 0 1-.001 1.923l-15.132 16.69a1.433 1.433 0 0 1-2.122 0l-15.133-16.691a1.425 1.425 0 0 1 0-1.921Zm27.661 230.824a20.685 20.685 0 0 1-22.932.002 3.5 3.5 0 1 0-3.87 5.833 27.737 27.737 0 0 0 14.682 4.627q.324.008.644.008a28.122 28.122 0 0 0 15.342-4.634 3.5 3.5 0 1 0-3.866-5.836Zm-21.05-50.06 4.656 3.353a8.426 8.426 0 0 0 9.855 0l4.653-3.352a8.449 8.449 0 0 0 3.506-6.842V280.9a3.5 3.5 0 1 0-7 0v22.616a1.43 1.43 0 0 1-.596 1.16l-4.653 3.352a1.43 1.43 0 0 1-1.674 0l-4.657-3.352a1.432 1.432 0 0 1-.593-1.16V280.9a3.5 3.5 0 0 0-7 0v22.616a8.45 8.45 0 0 0 3.504 6.841Zm-81.199-93.076a91.93 91.93 0 0 1 .328-6.732 3.5 3.5 0 0 0-6.975-.596 99.375 99.375 0 0 0-.353 7.244 3.5 3.5 0 0 0 3.458 3.542h.043a3.5 3.5 0 0 0 3.5-3.458Zm3.623 26.608a3.5 3.5 0 0 0-6.718 1.964 97.307 97.307 0 0 0 2.295 6.885 3.5 3.5 0 1 0 6.552-2.46 90.518 90.518 0 0 1-2.129-6.389Zm4.097-70.281a3.499 3.499 0 0 0-4.687 1.59 97.377 97.377 0 0 0-2.964 6.618 3.5 3.5 0 1 0 6.492 2.62 90.295 90.295 0 0 1 2.749-6.14 3.5 3.5 0 0 0-1.59-4.688Zm14.353-16.273a3.49 3.49 0 0 0 2.55-1.103 91.52 91.52 0 0 1 4.794-4.735 3.5 3.5 0 0 0-4.73-5.16 98.174 98.174 0 0 0-5.163 5.1 3.5 3.5 0 0 0 2.549 5.898Zm113.859 150.025a15.726 15.726 0 0 1-8.957 2.595 15.53 15.53 0 0 1-8.222-2.594 3.5 3.5 0 0 0-3.87 5.833 22.534 22.534 0 0 0 11.928 3.76c.176.003.35.005.523.005a22.848 22.848 0 0 0 12.465-3.764 3.5 3.5 0 1 0-3.867-5.835Zm-73.12 0a15.748 15.748 0 0 1-8.956 2.595 15.53 15.53 0 0 1-8.222-2.594 3.5 3.5 0 0 0-3.87 5.833 22.53 22.53 0 0 0 11.928 3.76c.176.004.35.005.523.005a22.848 22.848 0 0 0 12.465-3.764 3.5 3.5 0 1 0-3.867-5.835ZM83.077 123.919l-4.56-4.56a3.5 3.5 0 0 0-4.95 4.951l4.56 4.56a3.5 3.5 0 0 0 4.95-4.95Zm164.908-84.196a3.5 3.5 0 0 0 4.95-4.95l-4.902-4.9a3.5 3.5 0 0 0-4.95 4.95Zm-71.492 36.004a3.49 3.49 0 0 0 2.475-1.025l4.63-4.63a3.5 3.5 0 1 0-4.949-4.95l-4.63 4.63a3.5 3.5 0 0 0 2.474 5.975Zm-19.664-1.095a3.5 3.5 0 1 0 4.95-4.95l-4.561-4.56a3.5 3.5 0 1 0-4.95 4.95Zm111.826-33.958a3.49 3.49 0 0 0 2.475-1.025l4.828-4.827a3.5 3.5 0 1 0-4.95-4.95L266.18 34.7a3.5 3.5 0 0 0 2.474 5.975Zm-170.863 89.29a3.49 3.49 0 0 0 2.475-1.024l4.63-4.63a3.5 3.5 0 1 0-4.949-4.95l-4.63 4.63a3.5 3.5 0 0 0 2.474 5.975ZM339.89 74.703a3.5 3.5 0 1 0 4.949-4.95l-4.631-4.63a3.5 3.5 0 1 0-4.95 4.95Zm150.626 179.976a44.951 44.951 0 0 0-14.451-6.469c-.09-.028-.172-.068-.264-.09-.07-.016-.14-.014-.21-.026a57.632 57.632 0 0 0-23.475-.53 3.503 3.503 0 0 0-1.935 1.073c-2.108 2.293-12.457 14.561-9.239 30.98a36.001 36.001 0 0 0 2.713 8.214 21.203 21.203 0 0 0-12.614 12.6l-2.22 6.028a25.142 25.142 0 0 0 6.43 27.1l6.437 6.022.045 31.91a3.405 3.405 0 0 0 .002 1.471l.033 23.689a2.12 2.12 0 0 0 .001.848l.039 27.72a6.319 6.319 0 0 1-1.916 4.543l-2.283 2.23a13.358 13.358 0 0 0-14.425 14.11l-9.272 9.07a62.864 62.864 0 0 0-33.403-26.764 22.302 22.302 0 0 0-.813-2.77c-2.685-7.372-7.667-9.977-11.67-12.07-3.674-1.92-6.576-3.438-8.33-8.25-1.756-4.821-.51-7.85 1.069-11.686 1.717-4.175 3.856-9.37 1.171-16.732-2.677-7.372-7.659-9.977-11.66-12.071-3.58-1.872-6.422-3.37-8.19-7.907a21.456 21.456 0 0 0 2.22-31.158 16.665 16.665 0 0 0 4.027-9.448 4.14 4.14 0 0 0 .014-.22c0-.005.096-3.385.266-8.288a105.165 105.165 0 0 0 100.354-89.672c19.792-9.86 32.96-34.11 32.96-61.09 0-19.663-6.834-37.797-18.392-50.106a13.654 13.654 0 0 0-12.958-9.265h-41.91a13.684 13.684 0 0 0-5.54 1.172c-.85-17.84-7.39-34.39-18.259-46.032a13.646 13.646 0 0 0-12.991-9.374H329.97c-.132 0-.26.018-.39.022-.06-.003-.114-.018-.174-.018a3.45 3.45 0 0 0-.491.054 13.602 13.602 0 0 0-11.93 9.294c-1.143 1.223-2.228 2.527-3.283 3.866-2.325-15.437-8.747-29.49-18.432-39.852A14.24 14.24 0 0 0 281.7 6.98H237.34c-.139 0-.274.019-.412.023-.065-.004-.126-.02-.19-.02a3.471 3.471 0 0 0-.602.063 14.198 14.198 0 0 0-12.356 9.723c-9.73 10.406-16.17 24.545-18.469 40.08-1.107-1.42-2.246-2.797-3.447-4.078a13.605 13.605 0 0 0-11.883-9.271 3.47 3.47 0 0 0-.534-.057c-.059 0-.114.015-.173.018-.13-.004-.258-.022-.388-.022h-41.908a13.644 13.644 0 0 0-12.99 9.374c-10.869 11.642-17.41 28.192-18.26 46.032a13.684 13.684 0 0 0-5.54-1.172h-41.91a13.65 13.65 0 0 0-12.996 9.383c-11.668 12.506-18.354 30.662-18.354 49.987 0 26.972 13.165 51.222 32.953 61.092a103.516 103.516 0 0 0 8.477 28.507 138.42 138.42 0 0 0-27.887-2.638c-12.88 0-25.034 1.499-34.223 4.22C2.8 252.207-.022 257.598-.022 261.42s2.823 9.213 16.27 13.195a113.035 113.035 0 0 0 24.789 3.946v7.073a1.452 1.452 0 0 1-1.205 1.414 23.845 23.845 0 0 0-8.24 3.226c-10.712 6.753-13.384 20.588-11.332 30.586a31.38 31.38 0 0 0 13.691 19.795L16.967 441.132a33.077 33.077 0 0 0 9.494 29.155l9.031 8.827a13.408 13.408 0 0 0 5.16 13.848 13.33 13.33 0 0 0 7.882 2.571 13.507 13.507 0 0 0 3.313-.425l16.254 15.88a3.5 3.5 0 1 0 4.893-5.007l-14.847-14.505a13.412 13.412 0 0 0 1.233-1.44l26.588-36.44 8.75 8.55a62.307 62.307 0 0 0-5.954 26.556v19.782a3.5 3.5 0 0 0 7 0v-19.782a55.828 55.828 0 0 1 40.814-53.645l21.094-5.843v79.27a3.5 3.5 0 0 0 7 0v-81.208l17.554-4.862a2.37 2.37 0 0 1 2.106.405 2.395 2.395 0 0 1 .955 1.922v83.743a3.5 3.5 0 0 0 7 0v-80.971l14.93-4.453v32.855a46.886 46.886 0 0 0 24.187 41.013 57.749 57.749 0 0 0 55.837 0 46.853 46.853 0 0 0 24.187-41.013v-32.92l15.141 4.518v80.971a3.5 3.5 0 0 0 7 0V424.91a2.414 2.414 0 0 1 3.105-2.317l17.512 5.223v80.67a3.5 3.5 0 0 0 7 0v-78.583l15.237 4.544a56.002 56.002 0 0 1 39.764 53.34v20.698a3.5 3.5 0 0 0 7 0v-20.699a62.099 62.099 0 0 0-5.828-26.194l8.438-8.254 26.778 36.699a13.45 13.45 0 0 0 1.003 1.212l-15.077 14.733a3.5 3.5 0 0 0 4.892 5.007l16.36-15.984a13.506 13.506 0 0 0 3.668.53 13.393 13.393 0 0 0 12.95-16.778l8.663-8.468a33.08 33.08 0 0 0 9.494-29.157l-17.267-102.152.612-7.603a19.244 19.244 0 0 0-10.303-18.64.493.493 0 0 1-.165-.735l.57-.755a15.331 15.331 0 0 0 2.797-6.237l.075.004c4.199.198 8.54.404 13.78 2.517 6.593 2.661 12.46 7.51 17.442 14.413.022.03.053.053.076.082a3.476 3.476 0 0 0 .407.441c.054.05.107.099.163.145a3.517 3.517 0 0 0 .581.387c.037.02.077.031.115.05a3.5 3.5 0 0 0 .574.212c.065.017.129.034.195.048a3.456 3.456 0 0 0 .728.087 3.492 3.492 0 0 0 .494-.037l.016-.001c.057-.008.111-.026.168-.037.087-.017.174-.03.262-.054l.019-.007a3.485 3.485 0 0 0 .569-.222c.057-.028.11-.058.165-.088a3.517 3.517 0 0 0 .384-.248c.044-.032.09-.061.133-.096a3.506 3.506 0 0 0 .407-.393c.043-.048.08-.1.12-.15a3.46 3.46 0 0 0 .24-.343c.035-.057.07-.112.102-.171a3.476 3.476 0 0 0 .229-.511l.002-.009.02-.06c8.877-25.803 1.595-53.054-17.722-66.29ZM328.468 354.794a14.584 14.584 0 0 1-2.83-.285 70.543 70.543 0 0 0 4.434-23.025h1.633a16.747 16.747 0 0 0 6.934-1.504 14.48 14.48 0 0 1-10.171 24.814Zm-5.353-26.48v1.38a63.508 63.508 0 0 1-5.305 25.486c-.003.008-.009.013-.012.02-.005.01-.006.02-.01.03a63.619 63.619 0 0 1-13.325 19.492 64.276 64.276 0 0 1-10.1 8.23c-.056.034-.112.067-.165.104a63.244 63.244 0 0 1-34.77 10.318h-1.68c-34.191 0-62.008-27.661-62.008-61.66l.001-24.547a3.48 3.48 0 0 0 .089-1.31l-.083-.658a37.377 37.377 0 0 1 15.62-30.163 43.942 43.942 0 0 1 25.594-8.22 44.505 44.505 0 0 1 5.935.398l16.065 2.163a3.475 3.475 0 0 0 .934 0l16.065-2.163a43.972 43.972 0 0 1 31.53 7.822 37.381 37.381 0 0 1 15.619 30.15l-.085.67a3.48 3.48 0 0 0 .091 1.322v20.477c-.01.11-.033.216-.033.33s.023.219.033.329ZM167.153 117.225a3.5 3.5 0 0 0 3.5-3.5v-7.128h2.701a24.454 24.454 0 0 0 10.953-2.595v27.275a115.61 115.61 0 0 0-28.816 37.856 53.196 53.196 0 0 1-3.933-20.079v-45.052a24.455 24.455 0 0 0 10.953 2.595h1.142v7.128a3.5 3.5 0 0 0 3.5 3.5Zm-15.323 60.491a114.787 114.787 0 0 0 1.402 84.996 94.695 94.695 0 0 1-37.13-49.26c15.184-11.405 24.706-31.652 25.37-53.924a49.745 49.745 0 0 0 4.619 3.025 59.782 59.782 0 0 0 5.739 15.163Zm-.473 40.679A108.244 108.244 0 0 1 216.2 119.36a44.808 44.808 0 0 0 2.522 29.58 80.417 80.417 0 0 0-39.843 69.454q0 1.018.03 2.037c.001.235.01.481.024.737l.004.159c.005.156.011.311.022.465v.051l.002.122a30.071 30.071 0 0 0 .049 1.038c0 .036.002.071.004.106.032.599.075 1.185.124 1.694.03.436.064.862.115 1.297.022.325.054.643.095.96.035.399.079.782.124 1.088.058.504.125 1 .2 1.495.012.156.032.313.06.47.06.443.135.887.212 1.322v.002a56.366 56.366 0 0 0 .548 3.002c.12.623.254 1.235.4 1.847a70.342 70.342 0 0 0 .514 11.165l4.715 37.37a16.257 16.257 0 0 0-9.346 3.163 107.816 107.816 0 0 1-25.417-69.59Zm108.987-133.72a3.5 3.5 0 0 0 3.5-3.5v-7.75h1.415a25.678 25.678 0 0 0 11.798-2.88V89.54a44.595 44.595 0 0 0-35.08-.081V70.543a25.676 25.676 0 0 0 11.803 2.883h3.064v7.75a3.5 3.5 0 0 0 3.5 3.5Zm-.916 8.23a37.684 37.684 0 0 1 33.075 55.679c-.026.044-.06.081-.085.127-.025.046-.032.095-.054.141a37.606 37.606 0 0 1-12.458 13.269h-40.958a37.61 37.61 0 0 1-12.454-13.264c-.023-.048-.031-.099-.057-.146-.025-.048-.06-.086-.088-.132a37.684 37.684 0 0 1 33.079-55.675Zm82.302 211.502a1584.5 1584.5 0 0 0-.377 11.361 9.648 9.648 0 0 1-4.056 6.95c-.047.028-.09.063-.137.094a9.683 9.683 0 0 1-5.455 1.672h-1.59V305.58l1.738-13.775h.278a9.704 9.704 0 0 1 9.693 10.07c-.032.834-.062 1.654-.091 2.453 0 .019-.006.036-.006.055 0 .009.003.017.003.025Zm-21.153-45.212c-.372.562-.753 1.105-1.122 1.631a73.664 73.664 0 0 1-2.45 3.251c-.344.447-.708.885-1.08 1.333-.388.472-.786.934-1.22 1.418a67.185 67.185 0 0 1-2.665 2.879c-.163-.12-.318-.25-.483-.368a50.94 50.94 0 0 0-36.53-9.062l-15.6 2.1-15.597-2.1a50.944 50.944 0 0 0-36.531 9.062c-.166.119-.322.25-.486.37a70.55 70.55 0 0 1-1.133-1.179 75.48 75.48 0 0 1-2.341-2.635c-.11-.124-.219-.256-.384-.453-.375-.449-.74-.908-1.155-1.43-.41-.503-.81-1.025-1.21-1.556-.358-.475-.706-.958-1.056-1.441l-.039-.053-.002-.004v-.002l-.006-.007v-.002a3.304 3.304 0 0 0-.066-.095c-.365-.521-.732-1.042-1.117-1.622l-.034-.05a57.938 57.938 0 0 1-1.013-1.547l-.01-.017-.197-.313-.01-.015c-.309-.503-.617-1.005-.921-1.513l-.016-.027-.015-.026-.015-.025-.002-.003-.013-.021-.004-.008-.01-.016-.008-.013-.006-.01-.013-.022v-.002a48.409 48.409 0 0 1-.883-1.545l-.187-.339c-.194-.35-.387-.698-.549-1.01l-.12-.23a3.768 3.768 0 0 0-.119-.217 58.451 58.451 0 0 1-1.757-3.618l-.022-.05c-.005-.003-.002-.002-.002-.003l-.063-.126a73.86 73.86 0 0 1-1.496-3.578c-.193-.5-.389-1.008-.594-1.599a33.582 33.582 0 0 1-.482-1.374c-.143-.41-.286-.828-.429-1.305l-.08-.25c-.095-.3-.19-.595-.302-.977a6.078 6.078 0 0 1-.109-.374 2.863 2.863 0 0 0-.049-.176 28.8 28.8 0 0 1-.374-1.344q-.14-.489-.257-.978a6.532 6.532 0 0 0-.036-.14 14.12 14.12 0 0 1-.176-.7 63.636 63.636 0 0 1 31.97-52.214 13.486 13.486 0 0 0 10.983 5.675h57.089a13.487 13.487 0 0 0 10.982-5.675 63.637 63.637 0 0 1 31.968 52.199q-.16.675-.33 1.342l-.01.034-.041.15c-.16.606-.327 1.212-.504 1.81-.02.055-.038.115-.056.173l-.023.07-.023.074v.001l-.003.01-.002.01v.002l-.003.008-.001.005c-.08.288-.166.576-.257.86l-.087.266-.01.031v.001l-.003.007v.003l-.002.004-.002.007-.017.054a3.442 3.442 0 0 0-.1.309c-.06.225-.136.45-.218.669l-.049.138a41.394 41.394 0 0 1-.566 1.628c-.123.369-.265.738-.423 1.153l-.007.02-.002.005-.002.004c-.05.136-.1.272-.158.422a45.549 45.549 0 0 1-.748 1.846c-.259.622-.537 1.245-.807 1.85a64.93 64.93 0 0 1-1.029 2.164c-.307.64-.63 1.271-.985 1.93-.232.436-.464.872-.736 1.354a50.62 50.62 0 0 1-.963 1.681v.001l-.05.088c-.247.412-.496.816-.803 1.301-.12.2-.238.4-.366.591l-.022.033-.06.09c-.282.444-.565.878-.878 1.342Zm-143.443 45.151c-.032-.884-.066-1.797-.102-2.732a9.452 9.452 0 0 1 9.443-9.81H187l1.707 13.527v19.153h-1.775a9.464 9.464 0 0 1-9.42-8.695c-.02-.749-.159-5.397-.377-11.39l.002-.017c0-.012-.004-.023-.004-.036Zm47.245-128.721a6.512 6.512 0 0 1 6.505-6.504h50.031c.012 0 .023.004.035.004.022 0 .044-.004.065-.004h6.958a6.505 6.505 0 1 1 0 13.009h-57.09a6.512 6.512 0 0 1-6.504-6.505Zm77.039 1.177c.034-.388.06-.78.06-1.177a13.527 13.527 0 0 0-10.767-13.224 44.323 44.323 0 0 0 6.055-7.318 73.436 73.436 0 0 1 35.907 56.719 70.538 70.538 0 0 0-31.255-35Zm-79.33-21.719a44.312 44.312 0 0 0 6.056 7.318 13.528 13.528 0 0 0-10.765 13.224c0 .397.026.788.06 1.176a70.538 70.538 0 0 0-31.256 35 73.434 73.434 0 0 1 35.905-56.718Zm-41.925 174.938a16.414 16.414 0 0 0 6.77 1.463h1.807v.23a68.022 68.022 0 0 0 3.955 22.882 14.431 14.431 0 0 1-16.817-14.302 14.364 14.364 0 0 1 4.285-10.273Zm9.762-70.968c.06.103.12.206.182.307.323.55.645 1.09.987 1.62.061.102.131.213.226.361.376.601.763 1.192 1.128 1.724.393.6.806 1.2 1.229 1.789.025.039.051.077.078.116.402.57.826 1.142 1.242 1.694l.01.014.027.035.016.02v.001c.307.41.619.816.917 1.194q.193.244.386.483a61.082 61.082 0 0 0 1.694 2.066c.8.943 1.643 1.893 2.512 2.827.31.332.633.66.951.988a44.413 44.413 0 0 0-7.85 10.836 3.466 3.466 0 0 0-.466-.166Zm127.416 15.235c.843-.867 1.7-1.787 2.602-2.816.473-.527.936-1.065 1.378-1.603.417-.502.832-1.005 1.192-1.471a79.678 79.678 0 0 0 2.659-3.532 72.32 72.32 0 0 0 1.225-1.783c.32-.474.63-.947.938-1.43l.026-.04c.192-.287.371-.584.5-.8a60.517 60.517 0 0 0 .926-1.508l.142-.244-3.266 25.88a3.484 3.484 0 0 0-.483.16 44.415 44.415 0 0 0-7.839-10.813Zm24.667 13.767a16.494 16.494 0 0 0-9.275-3.221l.998-7.912a3.475 3.475 0 0 0 4.688-.884 97.61 97.61 0 0 0 4.061-6.011 3.5 3.5 0 1 0-5.941-3.7q-.882 1.415-1.825 2.81l2.736-21.684a70.328 70.328 0 0 0 .513-11.18c.127-.553.254-1.106.37-1.666a3.52 3.52 0 0 0 .02-.099l.028-.134c.021-.102.043-.203.061-.306.092-.44.174-.87.246-1.309l.019-.103c.074-.368.13-.738.186-1.11.093-.527.177-1.064.245-1.555.095-.629.181-1.27.25-1.868.047-.35.09-.699.114-.967q.069-.565.104-1.13l.05-.482c.023-.204.037-.408.05-.603l.007-.065q.08-.873.129-1.746c.004-.065.006-.076.006-.141l.006-.158a27.951 27.951 0 0 0 .043-.987v-.051c.011-.154.017-.309.022-.465l.005-.151c.012-.243.021-.497.023-.742q.031-1.02.03-2.04a80.417 80.417 0 0 0-39.843-69.454 44.812 44.812 0 0 0 2.522-29.58 108.007 108.007 0 0 1 39.352 168.694Zm9.694-170.83a3.5 3.5 0 0 0 3.5-3.5v-7.128h1.144a24.456 24.456 0 0 0 10.952-2.595v45.052a53.316 53.316 0 0 1-3.932 20.085 115.614 115.614 0 0 0-28.818-37.861V104a24.456 24.456 0 0 0 10.954 2.596h2.7v7.128a3.5 3.5 0 0 0 3.5 3.5Zm21.063 45.327a49.75 49.75 0 0 0 4.593-3.006c.668 22.269 10.216 42.506 25.398 53.908a94.773 94.773 0 0 1-37.137 49.267 114.795 114.795 0 0 0 1.411-84.99 60.052 60.052 0 0 0 5.735-15.179Zm70.265 43.957a98.134 98.134 0 0 1-94.228 94.272 16.48 16.48 0 0 0-2.108-7.424 114.939 114.939 0 0 0 13.33-19.104 101.91 101.91 0 0 0 53.937-80.47l3.305-33.963a24.514 24.514 0 0 0 6.942 1.014h2.695v7.129a3.5 3.5 0 0 0 7 0v-7.129h1.145a24.466 24.466 0 0 0 9.83-2.07Zm20.323-88.717c7.354 10.569 11.575 24.402 11.575 39.252 0 22.44-9.857 42.67-25.05 52.517q.09-1.388.146-2.781l2.044-52.818a24.461 24.461 0 0 0 7.122-13.272Zm-60.269-10.1a6.693 6.693 0 0 1 5.584-3.018H450.1a46.483 46.483 0 0 1 7.128 5.81 6.718 6.718 0 0 1-.044 2.104l-4.88 26.85a17.497 17.497 0 0 1-6.008 10.319c-.013.011-.028.02-.04.032a17.505 17.505 0 0 1-11.208 4.045h-10.84a17.53 17.53 0 0 1-17.257-14.395l-4.542-25.007q.471-3.325.675-6.74Zm-3.02 32.999a24.484 24.484 0 0 0 10.477 15.972l-3.547 36.442a96.217 96.217 0 0 1-2.19 13.038c-12.742-10.81-20.487-29.125-20.487-49.099 0-1.242.043-2.485.106-3.718a65.827 65.827 0 0 0 13.846-22.521Zm-15.43-77.053c7.434 10.699 11.593 24.538 11.593 39.176 0 18.445-6.578 35.343-17.432 46.287a3.48 3.48 0 0 0-.324.31 46.97 46.97 0 0 1-4.32 3.813q.143-2.078.147-4.17V98.761a24.442 24.442 0 0 0 6.187-12.307Zm-59.818-10.786a6.695 6.695 0 0 1 5.155-2.412h41.906a6.711 6.711 0 0 1 6.604 7.911l-4.882 26.85a17.526 17.526 0 0 1-17.253 14.396h-10.844a17.495 17.495 0 0 1-11.967-4.732c-.019-.02-.04-.035-.059-.054a17.474 17.474 0 0 1-5.227-9.61l-4.883-26.85a6.694 6.694 0 0 1 1.45-5.499Zm-10.17 14.858q1.22-2.098 2.57-4.052l4.146 22.796a24.441 24.441 0 0 0 6.186 12.304v26.932a114.363 114.363 0 0 0-24.349-13.698 81.447 81.447 0 0 0 11.488-42.368c0-.64-.027-1.276-.041-1.914Zm-19.558-40.06c8.072 11.419 12.6 26.265 12.6 41.975a74.64 74.64 0 0 1-9.992 37.954 44.995 44.995 0 0 0-13.639-14.242V65.255a25.665 25.665 0 0 0 6.553-12.983Zm-63.362-11.043a7.292 7.292 0 0 1 5.614-2.626h44.36a7.31 7.31 0 0 1 7.192 8.615l-5.168 28.424a18.757 18.757 0 0 1-18.465 15.406H253.78a18.758 18.758 0 0 1-18.465-15.406l-5.168-28.424a7.287 7.287 0 0 1 1.58-5.989Zm-7.778 11.024 4.48 24.641a25.67 25.67 0 0 0 6.55 12.978v27.971a44.998 44.998 0 0 0-13.734 14.21 74.707 74.707 0 0 1-9.887-37.806c0-15.725 4.525-30.577 12.591-41.994Zm-22.303 35.998a59.727 59.727 0 0 1 2.747 4.393c-.01.535-.035 1.066-.035 1.603 0 15.392 4.045 30.233 11.438 42.308a114.365 114.365 0 0 0-24.488 13.757V98.759a24.445 24.445 0 0 0 6.187-12.305Zm-59.82-10.777a6.696 6.696 0 0 1 5.153-2.412h41.908a6.711 6.711 0 0 1 6.604 7.911l-4.883 26.85a17.478 17.478 0 0 1-5.226 9.609c-.02.019-.042.036-.062.056a17.493 17.493 0 0 1-11.965 4.731h-10.843a17.495 17.495 0 0 1-11.963-4.728c-.023-.024-.049-.044-.073-.067a17.473 17.473 0 0 1-5.217-9.6l-4.883-26.85a6.694 6.694 0 0 1 1.45-5.5Zm-7.603 10.784 4.149 22.818a24.441 24.441 0 0 0 6.187 12.306v50.294q0 2.091.147 4.17a47.02 47.02 0 0 1-4.492-3.977c-.028-.025-.053-.053-.081-.078-10.896-10.942-17.504-27.87-17.504-46.355 0-14.64 4.159-28.48 11.594-39.178Zm-13.635 67.17a65.826 65.826 0 0 0 13.844 22.519c.063 1.228.106 2.47.106 3.72 0 19.97-7.742 38.283-20.481 49.094a96.18 96.18 0 0 1-2.185-13.034l-3.547-36.446a24.495 24.495 0 0 0 10.467-15.97Zm-76.66 26.238c0-14.628 4.159-28.463 11.593-39.163l4.153 22.807a24.439 24.439 0 0 0 7.114 13.274l2.043 52.819c.036.93.088 1.857.148 2.781-15.193-9.852-25.05-30.084-25.05-52.518Zm28.637-7.284a17.477 17.477 0 0 1-6.004-10.322l-4.89-26.85a6.715 6.715 0 0 1 6.607-7.914h41.91a6.693 6.693 0 0 1 5.584 3.018q.2 3.414.675 6.743l-4.542 25.002a17.526 17.526 0 0 1-17.247 14.397h-10.85a17.497 17.497 0 0 1-11.218-4.054l-.025-.02Zm3.973 65.438-.003-.026q-.54-4.285-.71-8.663l-1.846-47.744a24.47 24.47 0 0 0 9.83 2.07h1.145v7.128a3.5 3.5 0 0 0 7 0v-7.129h2.704a24.489 24.489 0 0 0 6.942-1.016l3.305 33.964a101.837 101.837 0 0 0 53.916 80.456 115.128 115.128 0 0 0 13.273 19.057 16.244 16.244 0 0 0-2.043 7.499 97.661 97.661 0 0 1-70.822-34.388 8.313 8.313 0 0 0 1.737-4.986c0-3.55-2.442-8.454-13.566-12.324a96.734 96.734 0 0 1-10.862-33.898ZM6.977 261.42c0-3.115 14.798-10.415 43.494-10.415 28.696 0 43.494 7.3 43.494 10.415 0 .535-.44 1.194-1.309 1.917a3.402 3.402 0 0 0-.288.187c-.069.055-.121.122-.185.182-4.335 3.183-16.564 7.382-36.337 8.04h-.016q-2.594.086-5.36.088c-28.695 0-43.493-7.3-43.493-10.414Zm20.14 58.03c-1.634-7.955.662-18.497 8.208-23.256a16.907 16.907 0 0 1 5.847-2.275 8.487 8.487 0 0 0 6.865-8.285v-6.818q1.212.018 2.434.018 1.207 0 2.405-.017l1.322 16.95a3.514 3.514 0 0 0 .359 1.292 83.995 83.995 0 0 1 5.231 13.141 84.35 84.35 0 0 1 3.178 15.86l-.158 13.068-.021 12.55.003.03-.024 17.015h-26.46l4.176-24.703c.983.382 1.982.738 3.013 1.037a3.5 3.5 0 1 0 1.945-6.725c-9.47-2.74-16.49-9.976-18.324-18.881Zm8.006 56.273h27.633l-.024 17.845H32.106Zm3.763 96.92-7.533-7.362a26.075 26.075 0 0 1-7.484-22.983l7.054-41.73h31.799l-.035 24.624a13.326 13.326 0 0 0 4.023 9.575l.213.208a13.338 13.338 0 0 0-2.348 2.46Zm41.69-23.532-26.85 36.798a6.41 6.41 0 0 1-8.948 1.399 6.408 6.408 0 0 1-2.046-7.847c.007-.017.018-.033.024-.05a6.483 6.483 0 0 1 .623-1.05l26.85-36.799a6.404 6.404 0 0 1 10.347 7.549Zm59.97-22.417-5.837 1.617a62.702 62.702 0 0 0-36.517 27.442l-9.456-9.24a13.348 13.348 0 0 0-14.807-14.478l-2.337-2.285a6.309 6.309 0 0 1-1.905-4.54l.039-27.712a2.122 2.122 0 0 0 .001-.849l.033-23.688a3.405 3.405 0 0 0 .002-1.47l.045-32.118v-.2l.16-13.23a3.67 3.67 0 0 0-.017-.387 91.373 91.373 0 0 0-3.463-17.388 91.046 91.046 0 0 0-5.363-13.62l-1.247-15.986a113.079 113.079 0 0 0 24.817-3.947 43.41 43.41 0 0 0 9.16-3.722 104.632 104.632 0 0 0 76.399 36.916c.168 4.855.266 8.24.266 8.285.003.075.01.164.016.239l3.484-.322-3.475.423a16.595 16.595 0 0 0 3.967 9.37 21.45 21.45 0 0 0 3.589 32.111c-.09.303-.169.603-.28.91-1.757 4.817-4.66 6.336-8.335 8.259-4.002 2.093-8.981 4.698-11.667 12.063-2.684 7.372-.544 12.57 1.176 16.748 1.578 3.833 2.824 6.86 1.074 11.671-1.756 4.822-4.659 6.34-8.335 8.262-3.77 1.971-8.406 4.4-11.186 10.866Zm68.172-11.438c-.377.143-.76.277-1.15.394l-16.282 4.857a9.437 9.437 0 0 0-10.93-4.839l-27.867 7.718a55.693 55.693 0 0 1 2.487-1.354c4.003-2.094 8.985-4.698 11.67-12.072 2.678-7.362.54-12.556-1.18-16.73-1.578-3.836-2.826-6.866-1.07-11.687 1.755-4.815 4.659-6.334 8.333-8.257 4.002-2.094 8.983-4.699 11.668-12.067.033-.09.058-.178.09-.267a20.96 20.96 0 0 0 10.941.223 69.222 69.222 0 0 0 23.72 27.425v11.494a16.11 16.11 0 0 1-9.5 14.767 3.466 3.466 0 0 0-.93.394Zm95.71 40.659a39.851 39.851 0 0 1-20.574 34.886 50.747 50.747 0 0 1-49.062 0 39.883 39.883 0 0 1-20.574-34.886v-16.687a70.687 70.687 0 0 0 37.866 16.155 12.87 12.87 0 1 0 21.8-1.054 69.22 69.22 0 0 0 30.544-14.778Zm-46.985 5.736a5.87 5.87 0 1 1 5.87 5.869 5.876 5.876 0 0 1-5.87-5.869Zm46.985-31.603a63.241 63.241 0 0 1-90.21-.355v-9.301a23.056 23.056 0 0 0 11.93-20.298v-7.374a68.837 68.837 0 0 0 31.6 7.654h1.68a70.337 70.337 0 0 0 33.28-8.285v8.005a23.056 23.056 0 0 0 11.72 20.182Zm34.25-14.163a9.417 9.417 0 0 0-11.031 4.644l-16.347-4.878a16.134 16.134 0 0 1-11.592-15.557v-12.32a70.866 70.866 0 0 0 23.094-26.733 21.362 21.362 0 0 0 13.158-.62c2.776 6.264 7.346 8.661 11.07 10.61 3.675 1.922 6.576 3.44 8.33 8.262 1.754 4.814.508 7.842-1.07 11.675-1.717 4.176-3.856 9.374-1.17 16.745 2.683 7.363 7.662 9.966 11.663 12.058 3.055 1.597 5.574 2.923 7.347 6.09Zm115.91-161.645a51.294 51.294 0 0 1 15.97-.035 25.768 25.768 0 0 1-3.554 6.532 24.36 24.36 0 0 1-4.58 4.658 22.264 22.264 0 0 1-14.835 4.452 32.71 32.71 0 0 1 6.999-15.607Zm15.141 228.884a6.357 6.357 0 0 1-2.551 4.183l-.001.001a6.414 6.414 0 0 1-8.948-1.399l-26.85-36.798a6.404 6.404 0 0 1 10.346-7.55l26.851 36.8a6.36 6.36 0 0 1 1.153 4.763Zm17.897-40.828a26.078 26.078 0 0 1-7.484 22.985l-7.264 7.1-25.498-34.946a13.331 13.331 0 0 0-2.599-2.666 13.335 13.335 0 0 0 4.027-9.57l-.035-24.631h31.8Zm-8.237-48.728h-30.626l-.025-17.845h27.634Zm-8.493-62.753-.647 8.037c-.002.02.004.041.003.062a3.49 3.49 0 0 0 .034.804l.286 1.694.967 5.723.002.009 3.648 21.579h-26.46l-.035-24.827 3.79 1.801a3.5 3.5 0 0 0 3.005-6.322l-7.673-3.647-7.783-7.282a18.158 18.158 0 0 1-4.643-19.57l2.22-6.027a14.238 14.238 0 0 1 13.852-9.32l4.549.152a8.334 8.334 0 0 1 6.376 13.348l-.57.755a7.494 7.494 0 0 0 2.517 11.159 12.257 12.257 0 0 1 6.562 11.871Zm16.35-29.777c-6.343-2.558-11.51-2.802-16.068-3.017-.223-.01-.434-.028-.654-.039a15.286 15.286 0 0 0-14.279-11.297l-4.549-.152c-.283-.01-.563.004-.845.006a29.35 29.35 0 0 1-3.039-8.268c-.093-.475-.149-.94-.213-1.407.465.022.93.035 1.394.035a29.257 29.257 0 0 0 17.653-5.92c.153-.115.324-.248.511-.397a92.596 92.596 0 0 1 28.835 35.306 41.695 41.695 0 0 0-8.746-4.85Zm17.105 6.446a99.96 99.96 0 0 0-32.231-41.933c.158-.2.317-.393.476-.604a32.792 32.792 0 0 0 4.8-9.056 37.391 37.391 0 0 1 9.162 4.56c14 9.593 20.61 27.924 17.793 47.033ZM53.393 261.42a3.5 3.5 0 1 0-3.5 3.5 3.5 3.5 0 0 0 3.5-3.5Zm233.112-43.393a12.76 12.76 0 0 1-2.528-2.275 12.318 12.318 0 0 1 .142-3.601c.363-2.964.815-6.653-1.726-9.194-2.54-2.54-6.23-2.088-9.195-1.725a12.445 12.445 0 0 1-3.598.143 12.675 12.675 0 0 1-2.28-2.53c-1.862-2.41-4.18-5.41-7.892-5.41-3.712 0-6.03 3-7.893 5.411a12.714 12.714 0 0 1-2.275 2.527 12.274 12.274 0 0 1-3.603-.141c-2.964-.363-6.652-.815-9.194 1.725-2.541 2.54-2.09 6.23-1.726 9.193a12.376 12.376 0 0 1 .144 3.598 12.689 12.689 0 0 1-2.53 2.278c-2.412 1.863-5.413 4.18-5.413 7.892s3.001 6.03 5.413 7.893a12.763 12.763 0 0 1 2.528 2.274 12.321 12.321 0 0 1-.142 3.602c-.363 2.964-.815 6.652 1.726 9.193 2.539 2.54 6.228 2.089 9.194 1.725a12.399 12.399 0 0 1 3.599-.143 12.67 12.67 0 0 1 2.28 2.53c1.861 2.41 4.18 5.41 7.892 5.41 3.713 0 6.03-3 7.892-5.41a12.719 12.719 0 0 1 2.277-2.528 12.341 12.341 0 0 1 3.602.141c2.965.365 6.654.815 9.193-1.724 2.542-2.541 2.09-6.23 1.727-9.195a12.335 12.335 0 0 1-.143-3.597 12.66 12.66 0 0 1 2.53-2.278c2.41-1.863 5.412-4.18 5.412-7.893s-3.001-6.03-5.413-7.891Zm-4.278 10.243c-1.869 1.443-3.802 2.936-4.712 5.128-.942 2.262-.624 4.853-.344 7.14a16.932 16.932 0 0 1 .206 3.325 16.95 16.95 0 0 1-3.327-.205c-2.287-.28-4.877-.597-7.14.342-2.193.912-3.686 2.844-5.129 4.712a14.85 14.85 0 0 1-2.353 2.636 14.875 14.875 0 0 1-2.353-2.636c-1.443-1.868-2.935-3.8-5.128-4.712a9.31 9.31 0 0 0-3.6-.628 29.228 29.228 0 0 0-3.54.286 16.974 16.974 0 0 1-3.328.205 16.917 16.917 0 0 1 .206-3.325c.28-2.287.598-4.878-.343-7.141-.911-2.192-2.844-3.684-4.712-5.127a14.894 14.894 0 0 1-2.637-2.352 14.884 14.884 0 0 1 2.636-2.351c1.869-1.443 3.802-2.935 4.713-5.128.941-2.262.623-4.853.343-7.14a16.92 16.92 0 0 1-.206-3.325 17.017 17.017 0 0 1 3.328.206c2.288.28 4.877.597 7.14-.343 2.193-.911 3.685-2.843 5.128-4.711a14.876 14.876 0 0 1 2.353-2.637 14.851 14.851 0 0 1 2.353 2.636c1.444 1.869 2.936 3.8 5.128 4.712 2.263.94 4.854.623 7.14.343a16.985 16.985 0 0 1 3.328-.206 16.92 16.92 0 0 1-.206 3.325c-.28 2.287-.598 4.878.343 7.14.912 2.193 2.844 3.685 4.713 5.128a14.883 14.883 0 0 1 2.636 2.351 14.883 14.883 0 0 1-2.636 2.352Zm35.809-88.148a3.5 3.5 0 1 0-4.2 5.6 92.187 92.187 0 0 1 5.24 4.238 3.5 3.5 0 0 0 4.599-5.276 98.896 98.896 0 0 0-5.639-4.562Zm31.622 68.148a3.5 3.5 0 0 0 6.957-.772 97.948 97.948 0 0 0-1.067-7.178 3.5 3.5 0 0 0-6.881 1.29c.41 2.188.743 4.43.991 6.66Zm-90.23 4.064a13.584 13.584 0 1 0 13.587 13.584 13.6 13.6 0 0 0-13.587-13.584Zm0 20.169a6.584 6.584 0 1 1 6.587-6.585 6.592 6.592 0 0 1-6.587 6.585Zm83.012-65.81a3.5 3.5 0 0 0-5.937 3.708 90.632 90.632 0 0 1 3.354 5.847 3.5 3.5 0 0 0 6.198-3.256 98.475 98.475 0 0 0-3.615-6.299Zm10.319 65.621a3.501 3.501 0 0 0-4.081 2.802 89.783 89.783 0 0 1-1.479 6.569 3.5 3.5 0 1 0 6.768 1.79 97.272 97.272 0 0 0 1.593-7.08 3.5 3.5 0 0 0-2.801-4.08Zm6.795-156.657a3.49 3.49 0 0 0 2.474-1.025l4.56-4.56a3.5 3.5 0 1 0-4.948-4.95l-4.561 4.56a3.5 3.5 0 0 0 2.475 5.975Zm59.037 53.283a3.5 3.5 0 1 0 4.949-4.95l-4.63-4.63a3.5 3.5 0 1 0-4.95 4.95Zm19.663.955a3.49 3.49 0 0 0 2.474-1.025l4.562-4.56a3.5 3.5 0 1 0-4.95-4.95l-4.56 4.56a3.5 3.5 0 0 0 2.474 5.975Z"></path></svg>